<svg width="183" height="68" viewBox="0 0 183 68" fill="none" xmlns="http://www.w3.org/2000/svg">
<rect x="0.5" y="0.5" width="182" height="67" fill="#F2F2F2" stroke="#D9D9D9"/>
<path d="M62.4508 9.32677V14.7886L62.3527 14.7351L46.0911 24.1274L41.1245 21.4919L62.3259 9.25537L62.4508 9.32677Z" fill="#E53D2C"/>
<path d="M45.8243 24.2797L45.9323 43.1107L41.229 45.8934L41.0942 21.5096L41.1299 21.4917L46.0965 24.1271L45.8243 24.2797Z" fill="#2F68AC"/>
<path d="M62.1663 53.0291V58.4972L41.2246 46.2616V45.8939L45.9315 43.1147V43.536L62.1663 53.0291Z" fill="#28A34C"/>
<path d="M83.8263 46.0287V46.4857L62.5892 58.7445L62.168 58.5027V53.0328L62.5625 53.2657L79.0846 43.7164V43.313L83.8263 46.0287Z" fill="#FAAF19"/>
<path d="M83.6956 21.7332V21.7511L78.9887 24.9961V24.4606L62.4585 14.7854V9.32617L83.6956 21.7332Z" fill="#6A51A2"/>
<path d="M54.9917 21.5288L60.3706 37.6655L62.5312 34.7846C62.8716 34.3308 63.3673 34.0185 63.9235 33.9073L67.5424 33.1835L54.9917 21.5288Z" fill="#E53D2C"/>
<path d="M78.0963 32.1252C78.7138 32.1211 79.3258 32.2407 79.8963 32.4769L80.3328 30.7749C79.5937 30.4687 78.7975 30.3247 77.9981 30.3528C75.1297 30.3528 72.8218 32.1529 72.8218 35.3863C72.8218 38.086 74.5094 40.1262 77.7857 40.1262C78.6159 40.1572 79.4438 40.0184 80.2185 39.7183L79.8955 38.0441C79.3224 38.2481 78.7188 38.3528 78.1105 38.3537C77.3026 38.3283 76.5362 37.99 75.973 37.4101C75.4098 36.8303 75.094 36.0543 75.0922 35.2459C75.0903 34.4376 75.4025 33.6602 75.963 33.0778C76.5236 32.4954 77.2885 32.1535 78.0963 32.1244V32.1252Z" fill="#353435"/>
<path d="M83.4116 32.8796H81.4009V40.2103H86.1488V38.4548H83.4116V32.8796Z" fill="#353435"/>
<path d="M90.1029 32.9548C89.6144 32.9198 89.124 32.9898 88.6647 33.16C88.2054 33.3303 87.7879 33.5969 87.4401 33.9419C87.0924 34.2869 86.8226 34.7024 86.6487 35.1603C86.4749 35.6183 86.4011 36.1081 86.4323 36.597C86.4067 37.0703 86.4814 37.5437 86.6513 37.9862C86.8213 38.4287 87.0828 38.8303 87.4187 39.1649C87.7545 39.4994 88.1572 39.7592 88.6004 39.9274C89.0436 40.0956 89.5173 40.1684 89.9905 40.1409C90.4774 40.1671 90.9643 40.0897 91.4191 39.9139C91.8739 39.7382 92.2863 39.468 92.6291 39.1213C92.9719 38.7745 93.2373 38.359 93.4078 37.9022C93.5784 37.4454 93.6501 36.9577 93.6184 36.4711C93.6433 36.0029 93.5695 35.5346 93.4016 35.0968C93.2338 34.6589 92.9757 34.2612 92.6442 33.9296C92.3127 33.598 91.9151 33.3398 91.4773 33.1719C91.0394 33.0039 90.5712 32.93 90.1029 32.9548ZM90.0467 38.6077C89.1328 38.6077 88.6411 37.7215 88.6411 36.5407C88.6411 35.5278 89.0204 34.4729 90.0467 34.4729C91.0168 34.4729 91.4104 35.5135 91.4104 36.5407C91.4104 37.7777 90.8758 38.6077 90.0467 38.6077Z" fill="#353435"/>
<path d="M101.425 33.1103H99.2729V37.2023C99.2804 37.3601 99.2564 37.5179 99.2024 37.6664C99.1203 37.8845 98.974 38.0726 98.7828 38.2059C98.5916 38.3391 98.3644 38.4111 98.1314 38.4125C97.3862 38.4125 97.0604 37.8083 97.0604 36.806V33.1077H94.9087V37.1434C94.9087 39.2675 95.935 40.1394 97.3273 40.1394C97.7527 40.1548 98.1748 40.0592 98.552 39.8621C98.9293 39.6649 99.2488 39.3729 99.479 39.0149H99.521L99.6191 39.985H101.475C101.448 39.4085 101.419 38.6766 101.419 37.777L101.425 33.1103Z" fill="#353435"/>
<path d="M108.22 33.6996C107.359 33.1216 106.33 32.8497 105.296 32.9276C104.588 32.9223 103.88 32.9707 103.179 33.0722L102.991 33.1026V40.1789L103.185 40.2048C103.775 40.2775 104.369 40.3117 104.963 40.3074C106.134 40.3875 107.296 40.0578 108.25 39.3748C108.659 39.0093 108.981 38.556 109.191 38.0488C109.4 37.5416 109.493 36.9936 109.461 36.4457C109.491 35.9219 109.393 35.3986 109.177 34.9205C108.961 34.4424 108.632 34.0236 108.22 33.6996ZM107.375 36.4966C107.397 36.7931 107.359 37.0908 107.263 37.3723C107.168 37.6539 107.017 37.9135 106.82 38.136C106.618 38.3184 106.381 38.4585 106.123 38.548C105.866 38.6375 105.593 38.6747 105.321 38.6573C105.21 38.6573 105.092 38.6572 104.984 38.6519V34.5841C105.141 34.5659 105.299 34.5575 105.457 34.5591C105.717 34.5439 105.976 34.5804 106.222 34.6663C106.467 34.7522 106.692 34.886 106.885 35.0597C107.059 35.254 107.193 35.4813 107.277 35.7282C107.361 35.9751 107.395 36.2365 107.375 36.4966Z" fill="#353435"/>
<path d="M115.593 30.5088H108.309V32.3107H110.854V39.9858H113.006V32.3107H115.594L115.593 30.5088Z" fill="#353435"/>
<path d="M120.187 38.5813C120.127 38.3546 120.065 38.1216 120.003 37.8976C119.899 37.4039 119.643 36.9551 119.271 36.6143C119.588 36.4306 119.852 36.1671 120.036 35.8499C120.22 35.5327 120.318 35.1729 120.32 34.8061C120.334 34.4873 120.274 34.1697 120.144 33.8781C120.015 33.5865 119.819 33.3289 119.573 33.1256C118.845 32.6467 117.975 32.4298 117.107 32.5107C116.369 32.5059 115.632 32.5572 114.902 32.6642L114.715 32.6955V40.21H116.776V37.38H117.043C117.566 37.388 117.813 37.5264 117.993 38.3617C118.099 38.9591 118.276 39.5418 118.519 40.0976L118.584 40.21H120.742L120.579 39.886C120.423 39.4593 120.291 39.0236 120.187 38.5813ZM118.26 34.9463C118.26 35.4541 117.861 35.7575 117.189 35.7575H116.772V34.1894C116.941 34.1728 117.111 34.165 117.282 34.1662C118.261 34.1805 118.261 34.7561 118.261 34.9436L118.26 34.9463Z" fill="#353435"/>
<path d="M127.472 35.792C127.472 34.1257 126.718 32.7344 124.356 32.7344C123.401 32.7148 122.455 32.9293 121.602 33.3591L122.008 34.779C122.603 34.4353 123.277 34.2509 123.964 34.2436C125.051 34.2436 125.255 34.779 125.255 35.1566V35.2574C122.747 35.2431 121.095 36.1275 121.095 37.9678C121.094 38.2635 121.154 38.5561 121.27 38.8279C121.386 39.0997 121.557 39.3449 121.771 39.5485C121.986 39.7521 122.239 39.9098 122.517 40.012C122.794 40.1141 123.09 40.1586 123.385 40.1427C123.767 40.1587 124.147 40.0889 124.498 39.9383C124.85 39.7877 125.163 39.5602 125.414 39.2726H125.458L125.588 39.9866H127.574C127.495 39.4154 127.461 38.8388 127.472 38.2623V35.792ZM125.33 37.3984C125.331 37.5255 125.316 37.6523 125.287 37.7759C125.204 38.0138 125.05 38.22 124.844 38.3655C124.639 38.511 124.393 38.5885 124.142 38.5872C124.027 38.5989 123.911 38.5854 123.803 38.5477C123.694 38.5101 123.594 38.4492 123.512 38.3692C123.429 38.2893 123.364 38.1922 123.323 38.0848C123.281 37.9774 123.264 37.8622 123.271 37.7474C123.271 36.8924 124.17 36.6157 125.329 36.63L125.33 37.3984Z" fill="#353435"/>
<path d="M132.593 34.2995C133.03 34.2968 133.464 34.3815 133.868 34.5485L134.107 34.6494L134.545 32.9385L134.387 32.8564C133.796 32.6073 133.159 32.4898 132.518 32.5119C131.974 32.4732 131.428 32.5501 130.915 32.7376C130.403 32.925 129.936 33.2187 129.545 33.5995C129.154 33.9802 128.848 34.4393 128.647 34.9467C128.447 35.454 128.355 35.9981 128.38 36.5432C128.38 38.8574 129.942 40.3522 132.358 40.3522C133.021 40.377 133.682 40.2639 134.299 40.0202L134.45 39.9444L134.122 38.2487L133.87 38.3495C133.463 38.494 133.034 38.5679 132.602 38.5682C132.05 38.55 131.526 38.3182 131.141 37.9216C130.756 37.5249 130.54 36.9944 130.539 36.4417C130.538 35.8891 130.751 35.3574 131.134 34.9588C131.517 34.5602 132.039 34.3258 132.591 34.3049L132.593 34.2995Z" fill="#353435"/>
<path d="M139.274 35.8707L141.841 32.5686H139.268L137.563 35.0675L137.454 35.2388V32.5704H135.394V40.2143H137.454V37.7208L137.811 37.2745L139.476 40.2099H141.905L139.274 35.8707Z" fill="#353435"/>
</svg>
