<svg width="258" height="51" viewBox="0 0 258 51" fill="none" xmlns="http://www.w3.org/2000/svg">
<g clip-path="url(#clip0_1136_2)">
<path d="M101.496 47.9533C101.171 47.9533 100.846 47.9275 100.521 47.8758C100.196 47.8315 99.8897 47.7613 99.6017 47.6653C99.3137 47.5619 99.0552 47.4364 98.8263 47.2887C98.6934 47.2 98.6011 47.0929 98.5494 46.9674C98.4977 46.8419 98.4792 46.72 98.494 46.6018C98.5161 46.4763 98.5641 46.3692 98.638 46.2806C98.7192 46.1846 98.8189 46.1255 98.9371 46.1034C99.0552 46.0812 99.1845 46.1144 99.3248 46.2031C99.6497 46.3951 99.9931 46.5354 100.355 46.624C100.717 46.7126 101.097 46.7569 101.496 46.7569C102.079 46.7569 102.504 46.6609 102.77 46.4689C103.036 46.2695 103.169 46.0147 103.169 45.7046C103.169 45.4461 103.073 45.243 102.881 45.0953C102.696 44.9476 102.375 44.8257 101.917 44.7297L100.698 44.475C99.9968 44.3272 99.4725 44.0799 99.1254 43.7328C98.7857 43.3783 98.6158 42.913 98.6158 42.337C98.6158 41.9751 98.6897 41.6465 98.8374 41.3511C98.9851 41.0557 99.1919 40.8009 99.4577 40.5867C99.731 40.3726 100.052 40.2101 100.421 40.0993C100.798 39.9812 101.212 39.9221 101.662 39.9221C102.105 39.9221 102.526 39.9775 102.925 40.0882C103.324 40.199 103.682 40.3615 104 40.5756C104.118 40.6569 104.195 40.7566 104.232 40.8747C104.276 40.9929 104.288 41.1111 104.265 41.2292C104.243 41.34 104.192 41.436 104.11 41.5172C104.029 41.5985 103.926 41.6465 103.8 41.6612C103.682 41.676 103.545 41.6391 103.39 41.5505C103.117 41.3954 102.84 41.2846 102.559 41.2181C102.279 41.1517 101.976 41.1184 101.651 41.1184C101.311 41.1184 101.02 41.1665 100.776 41.2625C100.532 41.3585 100.344 41.4951 100.211 41.6723C100.085 41.8422 100.023 42.0453 100.023 42.2816C100.023 42.5475 100.111 42.7616 100.289 42.9241C100.466 43.0792 100.769 43.201 101.197 43.2897L102.404 43.5444C103.135 43.6995 103.678 43.9432 104.033 44.2756C104.395 44.6079 104.576 45.051 104.576 45.6049C104.576 45.9593 104.502 46.2806 104.354 46.5686C104.214 46.8566 104.007 47.104 103.734 47.3108C103.468 47.5176 103.147 47.6764 102.77 47.7871C102.393 47.8979 101.969 47.9533 101.496 47.9533ZM106.546 47.8425C106.302 47.8425 106.114 47.7798 105.981 47.6542C105.855 47.5213 105.793 47.333 105.793 47.0893V40.7861C105.793 40.5424 105.855 40.3578 105.981 40.2322C106.114 40.0993 106.302 40.0328 106.546 40.0328H110.5C110.685 40.0328 110.825 40.0809 110.921 40.1769C111.025 40.2729 111.077 40.4095 111.077 40.5867C111.077 40.7714 111.025 40.9154 110.921 41.0188C110.825 41.1148 110.685 41.1628 110.5 41.1628H107.155V43.3118H110.257C110.449 43.3118 110.593 43.3598 110.689 43.4558C110.785 43.5518 110.833 43.6921 110.833 43.8768C110.833 44.0614 110.785 44.2017 110.689 44.2977C110.593 44.3937 110.449 44.4417 110.257 44.4417H107.155V46.7126H110.5C110.685 46.7126 110.825 46.7606 110.921 46.8566C111.025 46.9526 111.077 47.0929 111.077 47.2776C111.077 47.4622 111.025 47.6025 110.921 47.6985C110.825 47.7945 110.685 47.8425 110.5 47.8425H106.546ZM113.111 47.9311C112.882 47.9311 112.705 47.8684 112.58 47.7428C112.461 47.6099 112.402 47.429 112.402 47.2V40.7529C112.402 40.5166 112.465 40.3393 112.591 40.2212C112.716 40.0956 112.893 40.0328 113.122 40.0328H115.792C116.649 40.0328 117.31 40.2396 117.775 40.6532C118.24 41.0594 118.473 41.6317 118.473 42.3702C118.473 42.8502 118.366 43.2638 118.152 43.6109C117.945 43.958 117.642 44.2239 117.243 44.4085C116.844 44.5931 116.361 44.6854 115.792 44.6854L115.892 44.5193H116.257C116.56 44.5193 116.822 44.5931 117.044 44.7408C117.273 44.8885 117.472 45.1211 117.642 45.4387L118.473 46.9785C118.561 47.1336 118.602 47.285 118.595 47.4327C118.587 47.5804 118.532 47.7022 118.428 47.7982C118.325 47.8868 118.174 47.9311 117.974 47.9311C117.775 47.9311 117.612 47.8905 117.487 47.8093C117.361 47.7207 117.251 47.5877 117.155 47.4105L116.036 45.3501C115.903 45.099 115.744 44.9328 115.559 44.8516C115.382 44.763 115.153 44.7187 114.873 44.7187H113.82V47.2C113.82 47.429 113.761 47.6099 113.643 47.7428C113.525 47.8684 113.348 47.9311 113.111 47.9311ZM113.82 43.6663H115.548C116.058 43.6663 116.442 43.5629 116.7 43.3561C116.966 43.142 117.099 42.8244 117.099 42.4034C117.099 41.9899 116.966 41.6797 116.7 41.4729C116.442 41.2588 116.058 41.1517 115.548 41.1517H113.82V43.6663ZM122.958 47.9311C122.758 47.9311 122.592 47.8868 122.459 47.7982C122.334 47.7022 122.23 47.5619 122.149 47.3773L119.258 40.8858C119.176 40.7012 119.154 40.5387 119.191 40.3984C119.228 40.2581 119.306 40.1473 119.424 40.0661C119.542 39.9848 119.682 39.9442 119.845 39.9442C120.059 39.9442 120.218 39.9922 120.321 40.0882C120.432 40.1769 120.524 40.3135 120.598 40.4981L123.223 46.5797H122.747L125.361 40.487C125.443 40.3098 125.539 40.1769 125.649 40.0882C125.76 39.9922 125.915 39.9442 126.115 39.9442C126.277 39.9442 126.41 39.9848 126.513 40.0661C126.624 40.1473 126.694 40.2581 126.724 40.3984C126.753 40.5387 126.728 40.7012 126.646 40.8858L123.755 47.3773C123.674 47.5619 123.571 47.7022 123.445 47.7982C123.327 47.8868 123.164 47.9311 122.958 47.9311ZM128.462 47.9311C128.233 47.9311 128.056 47.8684 127.93 47.7428C127.812 47.6099 127.753 47.429 127.753 47.2V40.6753C127.753 40.439 127.812 40.2581 127.93 40.1325C128.056 40.007 128.233 39.9442 128.462 39.9442C128.691 39.9442 128.864 40.007 128.983 40.1325C129.108 40.2581 129.171 40.439 129.171 40.6753V47.2C129.171 47.429 129.112 47.6099 128.994 47.7428C128.875 47.8684 128.698 47.9311 128.462 47.9311ZM134.513 47.9533C133.7 47.9533 133.003 47.7908 132.419 47.4659C131.843 47.1336 131.4 46.6683 131.09 46.0701C130.78 45.4645 130.625 44.7519 130.625 43.9321C130.625 43.3192 130.713 42.769 130.89 42.2816C131.068 41.7868 131.322 41.3658 131.655 41.0188C131.987 40.6643 132.393 40.3947 132.873 40.2101C133.361 40.0181 133.907 39.9221 134.513 39.9221C134.919 39.9221 135.318 39.9738 135.709 40.0772C136.101 40.1805 136.444 40.3282 136.739 40.5203C136.894 40.6163 136.998 40.7344 137.05 40.8747C137.101 41.0077 137.112 41.1406 137.083 41.2735C137.053 41.3991 136.99 41.5062 136.894 41.5948C136.806 41.6834 136.691 41.7351 136.551 41.7499C136.418 41.7573 136.27 41.7093 136.108 41.6059C135.879 41.4582 135.632 41.3511 135.366 41.2846C135.1 41.2181 134.83 41.1849 134.557 41.1849C134.033 41.1849 133.59 41.292 133.228 41.5062C132.866 41.7203 132.593 42.0305 132.408 42.4367C132.223 42.8429 132.131 43.3413 132.131 43.9321C132.131 44.5156 132.223 45.0141 132.408 45.4276C132.593 45.8412 132.866 46.155 133.228 46.3692C133.59 46.5834 134.033 46.6905 134.557 46.6905C134.838 46.6905 135.115 46.6572 135.388 46.5908C135.661 46.5169 135.92 46.4061 136.163 46.2584C136.326 46.1624 136.47 46.1218 136.595 46.1366C136.728 46.144 136.839 46.1883 136.928 46.2695C137.016 46.3508 137.075 46.4541 137.105 46.5797C137.134 46.6978 137.127 46.8234 137.083 46.9563C137.038 47.0819 136.95 47.1926 136.817 47.2887C136.521 47.5028 136.167 47.669 135.753 47.7871C135.347 47.8979 134.934 47.9533 134.513 47.9533ZM139.162 47.8425C138.918 47.8425 138.73 47.7798 138.597 47.6542C138.471 47.5213 138.409 47.333 138.409 47.0893V40.7861C138.409 40.5424 138.471 40.3578 138.597 40.2322C138.73 40.0993 138.918 40.0328 139.162 40.0328H143.117C143.301 40.0328 143.442 40.0809 143.538 40.1769C143.641 40.2729 143.693 40.4095 143.693 40.5867C143.693 40.7714 143.641 40.9154 143.538 41.0188C143.442 41.1148 143.301 41.1628 143.117 41.1628H139.771V43.3118H142.873C143.065 43.3118 143.209 43.3598 143.305 43.4558C143.401 43.5518 143.449 43.6921 143.449 43.8768C143.449 44.0614 143.401 44.2017 143.305 44.2977C143.209 44.3937 143.065 44.4417 142.873 44.4417H139.771V46.7126H143.117C143.301 46.7126 143.442 46.7606 143.538 46.8566C143.641 46.9526 143.693 47.0929 143.693 47.2776C143.693 47.4622 143.641 47.6025 143.538 47.6985C143.442 47.7945 143.301 47.8425 143.117 47.8425H139.162ZM148.69 47.9311C148.484 47.9311 148.325 47.8721 148.214 47.7539C148.103 47.6357 148.048 47.4733 148.048 47.2665V40.6089C148.048 40.3947 148.107 40.2322 148.225 40.1215C148.343 40.0033 148.506 39.9442 148.713 39.9442C148.897 39.9442 149.041 39.9812 149.145 40.055C149.255 40.1215 149.355 40.2396 149.444 40.4095L152.18 45.4719H151.825L154.561 40.4095C154.65 40.2396 154.746 40.1215 154.85 40.055C154.953 39.9812 155.097 39.9442 155.282 39.9442C155.488 39.9442 155.647 40.0033 155.758 40.1215C155.869 40.2322 155.924 40.3947 155.924 40.6089V47.2665C155.924 47.4733 155.869 47.6357 155.758 47.7539C155.654 47.8721 155.496 47.9311 155.282 47.9311C155.075 47.9311 154.916 47.8721 154.805 47.7539C154.694 47.6357 154.639 47.4733 154.639 47.2665V42.1376H154.883L152.556 46.3803C152.483 46.5058 152.405 46.5981 152.324 46.6572C152.243 46.7163 152.132 46.7459 151.992 46.7459C151.851 46.7459 151.737 46.7163 151.648 46.6572C151.559 46.5908 151.482 46.4985 151.415 46.3803L149.067 42.1265H149.333V47.2665C149.333 47.4733 149.278 47.6357 149.167 47.7539C149.063 47.8721 148.905 47.9311 148.69 47.9311ZM158.396 47.8425C158.152 47.8425 157.964 47.7798 157.831 47.6542C157.706 47.5213 157.643 47.333 157.643 47.0893V40.7861C157.643 40.5424 157.706 40.3578 157.831 40.2322C157.964 40.0993 158.152 40.0328 158.396 40.0328H162.351C162.535 40.0328 162.676 40.0809 162.772 40.1769C162.875 40.2729 162.927 40.4095 162.927 40.5867C162.927 40.7714 162.875 40.9154 162.772 41.0188C162.676 41.1148 162.535 41.1628 162.351 41.1628H159.005V43.3118H162.107C162.299 43.3118 162.443 43.3598 162.539 43.4558C162.635 43.5518 162.683 43.6921 162.683 43.8768C162.683 44.0614 162.635 44.2017 162.539 44.2977C162.443 44.3937 162.299 44.4417 162.107 44.4417H159.005V46.7126H162.351C162.535 46.7126 162.676 46.7606 162.772 46.8566C162.875 46.9526 162.927 47.0929 162.927 47.2776C162.927 47.4622 162.875 47.6025 162.772 47.6985C162.676 47.7945 162.535 47.8425 162.351 47.8425H158.396ZM165.006 47.8425C164.762 47.8425 164.574 47.7798 164.441 47.6542C164.315 47.5213 164.253 47.333 164.253 47.0893V40.7861C164.253 40.5424 164.315 40.3578 164.441 40.2322C164.574 40.0993 164.762 40.0328 165.006 40.0328H168.961C169.145 40.0328 169.286 40.0809 169.382 40.1769C169.485 40.2729 169.537 40.4095 169.537 40.5867C169.537 40.7714 169.485 40.9154 169.382 41.0188C169.286 41.1148 169.145 41.1628 168.961 41.1628H165.615V43.3118H168.717C168.909 43.3118 169.053 43.3598 169.149 43.4558C169.245 43.5518 169.293 43.6921 169.293 43.8768C169.293 44.0614 169.245 44.2017 169.149 44.2977C169.053 44.3937 168.909 44.4417 168.717 44.4417H165.615V46.7126H168.961C169.145 46.7126 169.286 46.7606 169.382 46.8566C169.485 46.9526 169.537 47.0929 169.537 47.2776C169.537 47.4622 169.485 47.6025 169.382 47.6985C169.286 47.7945 169.145 47.8425 168.961 47.8425H165.006ZM173.4 47.9311C173.172 47.9311 172.994 47.8684 172.869 47.7428C172.751 47.6099 172.691 47.429 172.691 47.2V41.2181H170.531C170.339 41.2181 170.188 41.1665 170.077 41.0631C169.974 40.9523 169.922 40.8046 169.922 40.62C169.922 40.4279 169.974 40.2839 170.077 40.1879C170.188 40.0845 170.339 40.0328 170.531 40.0328H176.27C176.462 40.0328 176.609 40.0845 176.713 40.1879C176.823 40.2839 176.879 40.4279 176.879 40.62C176.879 40.8046 176.823 40.9523 176.713 41.0631C176.609 41.1665 176.462 41.2181 176.27 41.2181H174.109V47.2C174.109 47.429 174.05 47.6099 173.932 47.7428C173.814 47.8684 173.637 47.9311 173.4 47.9311ZM180.121 47.9533C179.796 47.9533 179.471 47.9275 179.146 47.8758C178.821 47.8315 178.514 47.7613 178.226 47.6653C177.938 47.5619 177.68 47.4364 177.451 47.2887C177.318 47.2 177.226 47.0929 177.174 46.9674C177.122 46.8419 177.104 46.72 177.119 46.6018C177.141 46.4763 177.189 46.3692 177.263 46.2806C177.344 46.1846 177.444 46.1255 177.562 46.1034C177.68 46.0812 177.809 46.1144 177.95 46.2031C178.274 46.3951 178.618 46.5354 178.98 46.624C179.342 46.7126 179.722 46.7569 180.121 46.7569C180.704 46.7569 181.129 46.6609 181.395 46.4689C181.661 46.2695 181.793 46.0147 181.793 45.7046C181.793 45.4461 181.697 45.243 181.505 45.0953C181.321 44.9476 181 44.8257 180.542 44.7297L179.323 44.475C178.622 44.3272 178.097 44.0799 177.75 43.7328C177.41 43.3783 177.241 42.913 177.241 42.337C177.241 41.9751 177.314 41.6465 177.462 41.3511C177.61 41.0557 177.817 40.8009 178.082 40.5867C178.356 40.3726 178.677 40.2101 179.046 40.0993C179.423 39.9812 179.836 39.9221 180.287 39.9221C180.73 39.9221 181.151 39.9775 181.55 40.0882C181.949 40.199 182.307 40.3615 182.624 40.5756C182.742 40.6569 182.82 40.7566 182.857 40.8747C182.901 40.9929 182.912 41.1111 182.89 41.2292C182.868 41.34 182.816 41.436 182.735 41.5172C182.654 41.5985 182.55 41.6465 182.425 41.6612C182.307 41.676 182.17 41.6391 182.015 41.5505C181.742 41.3954 181.465 41.2846 181.184 41.2181C180.904 41.1517 180.601 41.1184 180.276 41.1184C179.936 41.1184 179.644 41.1665 179.401 41.2625C179.157 41.3585 178.969 41.4951 178.836 41.6723C178.71 41.8422 178.647 42.0453 178.647 42.2816C178.647 42.5475 178.736 42.7616 178.913 42.9241C179.091 43.0792 179.393 43.201 179.822 43.2897L181.029 43.5444C181.76 43.6995 182.303 43.9432 182.657 44.2756C183.019 44.6079 183.2 45.051 183.2 45.6049C183.2 45.9593 183.126 46.2806 182.979 46.5686C182.838 46.8566 182.632 47.104 182.358 47.3108C182.093 47.5176 181.771 47.6764 181.395 47.7871C181.018 47.8979 180.593 47.9533 180.121 47.9533ZM188.134 47.9311C187.905 47.9311 187.727 47.8684 187.602 47.7428C187.484 47.6099 187.425 47.429 187.425 47.2V40.6753C187.425 40.439 187.484 40.2581 187.602 40.1325C187.727 40.007 187.905 39.9442 188.134 39.9442C188.363 39.9442 188.536 40.007 188.654 40.1325C188.78 40.2581 188.843 40.439 188.843 40.6753V47.2C188.843 47.429 188.783 47.6099 188.665 47.7428C188.547 47.8684 188.37 47.9311 188.134 47.9311ZM191.216 47.9311C191.002 47.9311 190.835 47.8721 190.717 47.7539C190.606 47.6357 190.551 47.4659 190.551 47.2443V40.6532C190.551 40.4243 190.606 40.2507 190.717 40.1325C190.835 40.007 190.987 39.9442 191.171 39.9442C191.341 39.9442 191.467 39.9775 191.548 40.0439C191.637 40.103 191.74 40.2064 191.858 40.3541L196.101 45.8596H195.813V40.62C195.813 40.4058 195.868 40.2396 195.979 40.1215C196.097 40.0033 196.263 39.9442 196.478 39.9442C196.692 39.9442 196.854 40.0033 196.965 40.1215C197.076 40.2396 197.131 40.4058 197.131 40.62V47.2665C197.131 47.4733 197.079 47.6357 196.976 47.7539C196.873 47.8721 196.732 47.9311 196.555 47.9311C196.385 47.9311 196.249 47.8979 196.145 47.8315C196.049 47.765 195.942 47.6579 195.824 47.5102L191.592 42.0047H191.869V47.2443C191.869 47.4659 191.814 47.6357 191.703 47.7539C191.592 47.8721 191.43 47.9311 191.216 47.9311ZM199.502 47.9311C199.288 47.9311 199.122 47.8721 199.004 47.7539C198.893 47.6357 198.838 47.4659 198.838 47.2443V40.6532C198.838 40.4243 198.893 40.2507 199.004 40.1325C199.122 40.007 199.273 39.9442 199.458 39.9442C199.628 39.9442 199.753 39.9775 199.835 40.0439C199.923 40.103 200.027 40.2064 200.145 40.3541L204.387 45.8596H204.099V40.62C204.099 40.4058 204.155 40.2396 204.266 40.1215C204.384 40.0033 204.55 39.9442 204.764 39.9442C204.978 39.9442 205.141 40.0033 205.251 40.1215C205.362 40.2396 205.418 40.4058 205.418 40.62V47.2665C205.418 47.4733 205.366 47.6357 205.263 47.7539C205.159 47.8721 205.019 47.9311 204.842 47.9311C204.672 47.9311 204.535 47.8979 204.432 47.8315C204.336 47.765 204.229 47.6579 204.11 47.5102L199.879 42.0047H200.156V47.2443C200.156 47.4659 200.1 47.6357 199.99 47.7539C199.879 47.8721 199.716 47.9311 199.502 47.9311ZM210.625 47.9533C209.871 47.9533 209.21 47.7871 208.642 47.4548C208.08 47.1225 207.645 46.6572 207.335 46.059C207.024 45.4535 206.869 44.7445 206.869 43.9321C206.869 43.3192 206.958 42.769 207.135 42.2816C207.312 41.7868 207.564 41.3658 207.888 41.0188C208.221 40.6643 208.616 40.3947 209.074 40.2101C209.539 40.0181 210.056 39.9221 210.625 39.9221C211.385 39.9221 212.046 40.0882 212.607 40.4206C213.169 40.7455 213.604 41.2071 213.915 41.8053C214.225 42.4034 214.38 43.1087 214.38 43.9211C214.38 44.534 214.291 45.0879 214.114 45.5827C213.937 46.0775 213.682 46.5021 213.35 46.8566C213.025 47.2111 212.63 47.4844 212.164 47.6764C211.707 47.861 211.193 47.9533 210.625 47.9533ZM210.625 46.7348C211.105 46.7348 211.511 46.624 211.843 46.4024C212.183 46.1809 212.441 45.8596 212.619 45.4387C212.803 45.0178 212.896 44.5156 212.896 43.9321C212.896 43.0459 212.696 42.3591 212.297 41.8717C211.906 41.3843 211.348 41.1406 210.625 41.1406C210.152 41.1406 209.746 41.2514 209.406 41.4729C209.066 41.6871 208.804 42.0047 208.62 42.4256C208.442 42.8392 208.354 43.3413 208.354 43.9321C208.354 44.811 208.553 45.4978 208.952 45.9926C209.351 46.4874 209.908 46.7348 210.625 46.7348ZM218.729 47.9311C218.529 47.9311 218.363 47.8868 218.23 47.7982C218.105 47.7022 218.001 47.5619 217.92 47.3773L215.029 40.8858C214.948 40.7012 214.925 40.5387 214.962 40.3984C214.999 40.2581 215.077 40.1473 215.195 40.0661C215.313 39.9848 215.453 39.9442 215.616 39.9442C215.83 39.9442 215.989 39.9922 216.092 40.0882C216.203 40.1769 216.295 40.3135 216.369 40.4981L218.995 46.5797H218.518L221.133 40.487C221.214 40.3098 221.31 40.1769 221.421 40.0882C221.531 39.9922 221.686 39.9442 221.886 39.9442C222.048 39.9442 222.181 39.9848 222.285 40.0661C222.395 40.1473 222.466 40.2581 222.495 40.3984C222.525 40.5387 222.499 40.7012 222.418 40.8858L219.526 47.3773C219.445 47.5619 219.342 47.7022 219.216 47.7982C219.098 47.8868 218.935 47.9311 218.729 47.9311ZM222.942 47.9311C222.764 47.9311 222.62 47.8905 222.51 47.8093C222.406 47.7281 222.344 47.621 222.321 47.488C222.299 47.3477 222.325 47.1926 222.399 47.0228L225.323 40.5424C225.419 40.3282 225.534 40.1769 225.667 40.0882C225.807 39.9922 225.966 39.9442 226.143 39.9442C226.313 39.9442 226.464 39.9922 226.597 40.0882C226.738 40.1769 226.856 40.3282 226.952 40.5424L229.887 47.0228C229.969 47.1926 229.998 47.3477 229.976 47.488C229.954 47.6284 229.891 47.7391 229.788 47.8204C229.684 47.8942 229.548 47.9311 229.378 47.9311C229.171 47.9311 229.009 47.8831 228.89 47.7871C228.78 47.6838 228.68 47.5287 228.591 47.3219L227.871 45.6492L228.469 46.0369H223.795L224.393 45.6492L223.684 47.3219C223.588 47.5361 223.488 47.6911 223.385 47.7871C223.281 47.8831 223.134 47.9311 222.942 47.9311ZM226.121 41.5726L224.57 45.2615L224.282 44.907H227.982L227.705 45.2615L226.143 41.5726H226.121ZM232.834 47.9311C232.605 47.9311 232.428 47.8684 232.302 47.7428C232.184 47.6099 232.125 47.429 232.125 47.2V41.2181H229.965C229.773 41.2181 229.622 41.1665 229.511 41.0631C229.408 40.9523 229.356 40.8046 229.356 40.62C229.356 40.4279 229.408 40.2839 229.511 40.1879C229.622 40.0845 229.773 40.0328 229.965 40.0328H235.703C235.895 40.0328 236.043 40.0845 236.146 40.1879C236.257 40.2839 236.313 40.4279 236.313 40.62C236.313 40.8046 236.257 40.9523 236.146 41.0631C236.043 41.1665 235.895 41.2181 235.703 41.2181H233.543V47.2C233.543 47.429 233.484 47.6099 233.366 47.7428C233.248 47.8684 233.07 47.9311 232.834 47.9311ZM237.831 47.9311C237.602 47.9311 237.425 47.8684 237.299 47.7428C237.181 47.6099 237.122 47.429 237.122 47.2V40.6753C237.122 40.439 237.181 40.2581 237.299 40.1325C237.425 40.007 237.602 39.9442 237.831 39.9442C238.06 39.9442 238.234 40.007 238.352 40.1325C238.477 40.2581 238.54 40.439 238.54 40.6753V47.2C238.54 47.429 238.481 47.6099 238.363 47.7428C238.245 47.8684 238.068 47.9311 237.831 47.9311ZM243.749 47.9533C242.996 47.9533 242.335 47.7871 241.766 47.4548C241.205 47.1225 240.769 46.6572 240.459 46.059C240.149 45.4535 239.994 44.7445 239.994 43.9321C239.994 43.3192 240.082 42.769 240.26 42.2816C240.437 41.7868 240.688 41.3658 241.013 41.0188C241.345 40.6643 241.74 40.3947 242.198 40.2101C242.664 40.0181 243.18 39.9221 243.749 39.9221C244.51 39.9221 245.171 40.0882 245.732 40.4206C246.293 40.7455 246.729 41.2071 247.039 41.8053C247.349 42.4034 247.504 43.1087 247.504 43.9211C247.504 44.534 247.416 45.0879 247.239 45.5827C247.061 46.0775 246.807 46.5021 246.474 46.8566C246.149 47.2111 245.754 47.4844 245.289 47.6764C244.831 47.861 244.318 47.9533 243.749 47.9533ZM243.749 46.7348C244.229 46.7348 244.635 46.624 244.968 46.4024C245.307 46.1809 245.566 45.8596 245.743 45.4387C245.928 45.0178 246.02 44.5156 246.02 43.9321C246.02 43.0459 245.821 42.3591 245.422 41.8717C245.03 41.3843 244.473 41.1406 243.749 41.1406C243.276 41.1406 242.87 41.2514 242.531 41.4729C242.191 41.6871 241.929 42.0047 241.744 42.4256C241.567 42.8392 241.478 43.3413 241.478 43.9321C241.478 44.811 241.678 45.4978 242.076 45.9926C242.475 46.4874 243.033 46.7348 243.749 46.7348ZM249.611 47.9311C249.397 47.9311 249.231 47.8721 249.112 47.7539C249.002 47.6357 248.946 47.4659 248.946 47.2443V40.6532C248.946 40.4243 249.002 40.2507 249.112 40.1325C249.231 40.007 249.382 39.9442 249.567 39.9442C249.736 39.9442 249.862 39.9775 249.943 40.0439C250.032 40.103 250.135 40.2064 250.253 40.3541L254.496 45.8596H254.208V40.62C254.208 40.4058 254.263 40.2396 254.374 40.1215C254.492 40.0033 254.659 39.9442 254.873 39.9442C255.087 39.9442 255.249 40.0033 255.36 40.1215C255.471 40.2396 255.526 40.4058 255.526 40.62V47.2665C255.526 47.4733 255.475 47.6357 255.371 47.7539C255.268 47.8721 255.127 47.9311 254.95 47.9311C254.78 47.9311 254.644 47.8979 254.54 47.8315C254.444 47.765 254.337 47.6579 254.219 47.5102L249.988 42.0047H250.264V47.2443C250.264 47.4659 250.209 47.6357 250.098 47.7539C249.988 47.8721 249.825 47.9311 249.611 47.9311Z" fill="#353435"/>
<path d="M106.147 34.8174C104.308 34.8174 102.729 34.4496 101.408 33.7141C100.104 32.9618 99.101 31.9087 98.3989 30.5546C97.6968 29.1838 97.3458 27.5707 97.3458 25.7151C97.3458 24.3276 97.5464 23.0822 97.9476 21.9789C98.3488 20.8589 98.9255 19.906 99.6777 19.1203C100.43 18.3179 101.349 17.7078 102.436 17.2899C103.539 16.8552 104.776 16.6379 106.147 16.6379C107.067 16.6379 107.969 16.7549 108.855 16.989C109.741 17.223 110.519 17.5573 111.187 17.992C111.538 18.2093 111.772 18.4768 111.889 18.7944C112.006 19.0953 112.031 19.3962 111.965 19.6971C111.898 19.9813 111.756 20.2237 111.538 20.4243C111.338 20.6249 111.079 20.7419 110.761 20.7753C110.46 20.792 110.126 20.6834 109.758 20.4493C109.24 20.115 108.68 19.8726 108.078 19.7222C107.476 19.5717 106.866 19.4965 106.247 19.4965C105.061 19.4965 104.058 19.7389 103.238 20.2237C102.419 20.7084 101.801 21.4105 101.383 22.33C100.965 23.2494 100.756 24.3778 100.756 25.7151C100.756 27.0357 100.965 28.1641 101.383 29.1003C101.801 30.0364 102.419 30.7469 103.238 31.2317C104.058 31.7164 105.061 31.9588 106.247 31.9588C106.883 31.9588 107.51 31.8836 108.128 31.7332C108.747 31.566 109.332 31.3152 109.883 30.9809C110.251 30.7636 110.577 30.6716 110.861 30.7051C111.162 30.7218 111.413 30.8221 111.614 31.006C111.814 31.1899 111.948 31.4239 112.015 31.7081C112.082 31.9755 112.065 32.2597 111.965 32.5606C111.864 32.8448 111.664 33.0956 111.363 33.3129C110.694 33.7977 109.892 34.1738 108.956 34.4413C108.036 34.692 107.1 34.8174 106.147 34.8174ZM116.596 34.5667C116.077 34.5667 115.676 34.4246 115.392 34.1404C115.108 33.8395 114.966 33.4299 114.966 32.9117V18.4433C114.966 17.9084 115.099 17.5072 115.367 17.2397C115.651 16.9555 116.052 16.8134 116.571 16.8134C117.089 16.8134 117.482 16.9555 117.749 17.2397C118.033 17.5072 118.175 17.9084 118.175 18.4433V31.8335H125.447C125.899 31.8335 126.241 31.9505 126.475 32.1845C126.726 32.4185 126.851 32.7529 126.851 33.1875C126.851 33.6222 126.726 33.9648 126.475 34.2156C126.241 34.4496 125.899 34.5667 125.447 34.5667H116.596ZM136.015 34.8174C134.31 34.8174 132.814 34.4413 131.526 33.689C130.256 32.9368 129.27 31.8836 128.567 30.5295C127.865 29.1588 127.514 27.554 127.514 25.7151C127.514 24.3276 127.715 23.0822 128.116 21.9789C128.517 20.8589 129.086 19.906 129.821 19.1203C130.573 18.3179 131.468 17.7078 132.504 17.2899C133.557 16.8552 134.728 16.6379 136.015 16.6379C137.737 16.6379 139.233 17.014 140.503 17.7663C141.774 18.5018 142.76 19.5466 143.462 20.9007C144.164 22.2547 144.515 23.8512 144.515 25.69C144.515 27.0775 144.315 28.3313 143.913 29.4513C143.512 30.5713 142.936 31.5326 142.183 32.335C141.448 33.1374 140.553 33.7559 139.5 34.1905C138.464 34.6084 137.302 34.8174 136.015 34.8174ZM136.015 32.0591C137.101 32.0591 138.021 31.8084 138.773 31.3069C139.542 30.8054 140.127 30.0782 140.528 29.1253C140.946 28.1725 141.155 27.0357 141.155 25.7151C141.155 23.7091 140.704 22.1544 139.801 21.0511C138.915 19.9478 137.653 19.3962 136.015 19.3962C134.945 19.3962 134.025 19.6469 133.257 20.1484C132.488 20.6332 131.894 21.352 131.476 22.3049C131.075 23.241 130.874 24.3778 130.874 25.7151C130.874 27.7044 131.326 29.2591 132.228 30.3791C133.131 31.4991 134.393 32.0591 136.015 32.0591ZM155.126 34.8174C153.906 34.8174 152.827 34.6586 151.891 34.341C150.972 34.0234 150.195 33.5553 149.559 32.9368C148.924 32.3015 148.448 31.5158 148.13 30.5797C147.812 29.6436 147.654 28.557 147.654 27.3199V18.3179C147.654 17.7663 147.787 17.3567 148.055 17.0893C148.339 16.8218 148.74 16.6881 149.258 16.6881C149.777 16.6881 150.169 16.8218 150.437 17.0893C150.721 17.3567 150.863 17.7663 150.863 18.3179V27.2949C150.863 28.8829 151.223 30.0782 151.941 30.8806C152.677 31.6663 153.738 32.0591 155.126 32.0591C156.513 32.0591 157.567 31.6663 158.285 30.8806C159.004 30.0782 159.364 28.8829 159.364 27.2949V18.3179C159.364 17.7663 159.497 17.3567 159.765 17.0893C160.049 16.8218 160.45 16.6881 160.969 16.6881C161.47 16.6881 161.854 16.8218 162.122 17.0893C162.406 17.3567 162.548 17.7663 162.548 18.3179V27.3199C162.548 28.9582 162.264 30.3373 161.696 31.4573C161.144 32.5774 160.317 33.4216 159.213 33.9899C158.11 34.5416 156.748 34.8174 155.126 34.8174ZM167.997 34.5667C167.445 34.5667 167.019 34.4246 166.718 34.1404C166.434 33.8395 166.291 33.4132 166.291 32.8615V18.5938C166.291 18.0421 166.434 17.6242 166.718 17.34C167.019 17.0391 167.445 16.8887 167.997 16.8887H172.861C175.82 16.8887 178.102 17.6493 179.707 19.1705C181.328 20.6917 182.139 22.8733 182.139 25.7151C182.139 27.136 181.93 28.3982 181.512 29.5015C181.111 30.5881 180.509 31.5075 179.707 32.2597C178.921 33.012 177.951 33.5887 176.798 33.9899C175.661 34.3744 174.349 34.5667 172.861 34.5667H167.997ZM169.501 31.9087H172.661C173.697 31.9087 174.591 31.7833 175.344 31.5326C176.113 31.2651 176.748 30.8806 177.249 30.3791C177.768 29.8609 178.152 29.2173 178.403 28.4483C178.654 27.6626 178.779 26.7516 178.779 25.7151C178.779 23.6422 178.269 22.0959 177.249 21.0762C176.23 20.0565 174.7 19.5466 172.661 19.5466H169.501V31.9087ZM187.097 34.5667C186.545 34.5667 186.119 34.4246 185.818 34.1404C185.534 33.8395 185.392 33.4132 185.392 32.8615V18.5938C185.392 18.0421 185.534 17.6242 185.818 17.34C186.119 17.0391 186.545 16.8887 187.097 16.8887H196.049C196.467 16.8887 196.784 16.9973 197.002 17.2146C197.236 17.432 197.353 17.7412 197.353 18.1424C197.353 18.5603 197.236 18.8863 197.002 19.1203C196.784 19.3377 196.467 19.4463 196.049 19.4463H188.476V24.3109H195.497C195.932 24.3109 196.258 24.4196 196.475 24.6369C196.692 24.8542 196.801 25.1718 196.801 25.5897C196.801 26.0077 196.692 26.3253 196.475 26.5426C196.258 26.7599 195.932 26.8686 195.497 26.8686H188.476V32.009H196.049C196.467 32.009 196.784 32.1176 197.002 32.335C197.236 32.5523 197.353 32.8699 197.353 33.2878C197.353 33.7057 197.236 34.0234 197.002 34.2407C196.784 34.458 196.467 34.5667 196.049 34.5667H187.097ZM206.202 34.8174C205.466 34.8174 204.731 34.7589 203.995 34.6419C203.26 34.5416 202.566 34.3828 201.914 34.1654C201.262 33.9314 200.677 33.6472 200.159 33.3129C199.858 33.1123 199.649 32.8699 199.532 32.5857C199.415 32.3015 199.373 32.0257 199.407 31.7582C199.457 31.474 199.565 31.2317 199.733 31.0311C199.916 30.8137 200.142 30.68 200.41 30.6298C200.677 30.5797 200.97 30.6549 201.287 30.8555C202.023 31.2902 202.8 31.6078 203.619 31.8084C204.438 32.009 205.299 32.1093 206.202 32.1093C207.523 32.1093 208.484 31.892 209.086 31.4573C209.687 31.006 209.988 30.4292 209.988 29.7271C209.988 29.1421 209.771 28.6823 209.336 28.348C208.918 28.0137 208.191 27.7378 207.155 27.5205L204.397 26.9438C202.808 26.6095 201.622 26.0495 200.836 25.2638C200.067 24.4614 199.682 23.4082 199.682 22.1043C199.682 21.2852 199.85 20.5413 200.184 19.8726C200.518 19.2039 200.986 18.6272 201.588 18.1424C202.207 17.6576 202.934 17.2899 203.77 17.0391C204.622 16.7716 205.558 16.6379 206.578 16.6379C207.581 16.6379 208.534 16.7633 209.437 17.014C210.339 17.2648 211.15 17.6326 211.869 18.1173C212.136 18.3012 212.312 18.5269 212.396 18.7944C212.496 19.0618 212.521 19.3293 212.471 19.5968C212.421 19.8475 212.304 20.0648 212.12 20.2487C211.936 20.4326 211.702 20.5413 211.418 20.5747C211.15 20.6081 210.841 20.5246 210.49 20.324C209.871 19.9729 209.244 19.7222 208.609 19.5717C207.974 19.4212 207.289 19.346 206.553 19.346C205.784 19.346 205.124 19.4547 204.572 19.672C204.02 19.8893 203.594 20.1986 203.293 20.5998C203.009 20.9843 202.867 21.444 202.867 21.9789C202.867 22.5807 203.068 23.0655 203.469 23.4333C203.87 23.7843 204.555 24.0602 205.525 24.2608L208.258 24.8375C209.913 25.1885 211.142 25.7402 211.944 26.4924C212.763 27.2447 213.173 28.2477 213.173 29.5015C213.173 30.3039 213.006 31.0311 212.671 31.683C212.354 32.335 211.886 32.895 211.267 33.363C210.665 33.8311 209.938 34.1905 209.086 34.4413C208.233 34.692 207.272 34.8174 206.202 34.8174ZM217.532 34.7673C217.014 34.7673 216.613 34.6252 216.329 34.341C216.061 34.0401 215.928 33.6305 215.928 33.1123V18.343C215.928 17.8081 216.061 17.3985 216.329 17.1143C216.613 16.8301 217.014 16.6881 217.532 16.6881C218.051 16.6881 218.443 16.8301 218.711 17.1143C218.995 17.3985 219.137 17.8081 219.137 18.343V33.1123C219.137 33.6305 219.003 34.0401 218.736 34.341C218.469 34.6252 218.067 34.7673 217.532 34.7673ZM231.505 34.8174C229.549 34.8174 227.894 34.4496 226.54 33.7141C225.203 32.9786 224.183 31.9338 223.481 30.5797C222.779 29.2256 222.428 27.6208 222.428 25.7653C222.428 24.3611 222.628 23.0989 223.03 21.9789C223.447 20.8589 224.041 19.906 224.81 19.1203C225.596 18.3179 226.548 17.7078 227.668 17.2899C228.788 16.8552 230.059 16.6379 231.48 16.6379C232.416 16.6379 233.352 16.7549 234.288 16.989C235.241 17.2063 236.135 17.5824 236.971 18.1173C237.256 18.3012 237.439 18.5269 237.523 18.7944C237.623 19.0618 237.64 19.3377 237.573 19.6219C237.506 19.8893 237.381 20.1234 237.197 20.324C237.013 20.5246 236.779 20.6499 236.495 20.7001C236.227 20.7502 235.927 20.6834 235.592 20.4995C234.957 20.1317 234.313 19.8642 233.661 19.6971C233.009 19.5299 232.282 19.4463 231.48 19.4463C230.243 19.4463 229.198 19.6971 228.345 20.1986C227.493 20.6834 226.849 21.3938 226.415 22.33C225.997 23.2661 225.788 24.4112 225.788 25.7653C225.788 27.8214 226.281 29.3844 227.267 30.4543C228.254 31.5242 229.716 32.0591 231.655 32.0591C232.324 32.0591 233.001 31.9923 233.686 31.8585C234.372 31.7248 235.041 31.5409 235.692 31.3069L235.066 32.7362V27.3952H232.307C231.889 27.3952 231.563 27.2865 231.329 27.0692C231.112 26.8519 231.003 26.5593 231.003 26.1915C231.003 25.8071 231.112 25.5145 231.329 25.3139C231.563 25.1133 231.889 25.013 232.307 25.013H236.445C236.863 25.013 237.18 25.13 237.398 25.3641C237.632 25.5814 237.749 25.899 237.749 26.3169V32.4102C237.749 32.778 237.673 33.0872 237.523 33.338C237.389 33.5887 237.164 33.7726 236.846 33.8896C236.11 34.1571 235.266 34.3828 234.313 34.5667C233.361 34.7338 232.424 34.8174 231.505 34.8174ZM242.973 34.7673C242.488 34.7673 242.112 34.6335 241.844 34.366C241.593 34.0986 241.468 33.7141 241.468 33.2126V18.2929C241.468 17.7746 241.593 17.3818 241.844 17.1143C242.112 16.8301 242.454 16.6881 242.872 16.6881C243.257 16.6881 243.541 16.7633 243.725 16.9137C243.925 17.0475 244.159 17.2815 244.427 17.6158L254.031 30.0782H253.379V18.2176C253.379 17.7329 253.504 17.3567 253.755 17.0893C254.022 16.8218 254.398 16.6881 254.883 16.6881C255.368 16.6881 255.736 16.8218 255.987 17.0893C256.237 17.3567 256.363 17.7329 256.363 18.2176V33.2627C256.363 33.7308 256.246 34.0986 256.012 34.366C255.778 34.6335 255.46 34.7673 255.059 34.7673C254.674 34.7673 254.365 34.692 254.131 34.5416C253.914 34.3911 253.671 34.1487 253.404 33.8144L243.825 21.352H244.452V33.2126C244.452 33.7141 244.327 34.0986 244.076 34.366C243.825 34.6335 243.457 34.7673 242.973 34.7673Z" fill="#353435"/>
<path d="M22.9189 14.4468V14.2422C23.9827 7.49532 31.0304 1.83545 38.7267 1.83545C46.4223 1.83545 54.5345 7.39013 54.5345 14.2422V14.4468V14.3376C54.5345 10.6853 58.8775 7.72364 62.9984 7.72364C67.1192 7.72364 70.2112 10.51 71.4622 14.3376" stroke="#DA3643" stroke-width="3.66942" stroke-linecap="round" stroke-linejoin="round"/>
<path d="M77.6929 15.6929L92.5484 25.8637L77.6929 36.6444" stroke="#DA3643" stroke-width="3.66942" stroke-linecap="round" stroke-linejoin="round"/>
<path d="M16.687 15.6929L1.83154 25.8637L16.687 36.6444" stroke="#DA3643" stroke-width="3.66942" stroke-linecap="round" stroke-linejoin="round"/>
<path d="M22.9189 36.6445H71.4606" stroke="#DA3643" stroke-width="3.66942" stroke-linecap="round" stroke-linejoin="round"/>
</g>
<defs>
<clipPath id="clip0_1136_2">
<rect width="258" height="51" fill="white"/>
</clipPath>
</defs>
</svg>
