<svg width="79" height="79" viewBox="0 0 79 79" fill="none" xmlns="http://www.w3.org/2000/svg">
<rect width="79" height="79" rx="8" fill="#292929"/>
<g clip-path="url(#clip0_38_863)">
<path d="M35.8026 17.0063C36.6081 17.2599 37.2539 17.6873 37.4957 18.555C37.5201 18.6085 37.5355 18.6656 37.5415 18.7241C37.4723 19.553 37.976 19.8865 38.6757 20.0884C38.9926 20.2002 39.3024 20.3312 39.6033 20.4806C39.7567 20.5527 39.9282 20.5771 40.0957 20.5507C40.2631 20.5243 40.4188 20.4484 40.5426 20.3326C41.5994 19.4638 42.6561 19.519 43.6306 20.4841C44.5347 21.3819 45.4349 22.2821 46.3311 23.1846C47.2704 24.1239 47.3291 25.2264 46.4849 26.2374C46.3634 26.3652 46.2836 26.527 46.2562 26.7013C46.2287 26.8755 46.2548 27.054 46.3311 27.2131C46.5307 27.6827 46.728 28.1524 46.9182 28.6314C47.0708 29.0166 47.3374 29.1927 47.7565 29.2115C48.9025 29.262 49.7056 30.0404 49.7843 31.1746C49.816 31.6443 50.0191 31.9308 50.4629 32.0905C50.9067 32.2501 51.333 32.4356 51.7545 32.6259C51.9172 32.7114 52.1024 32.7442 52.2846 32.7198C52.4667 32.6954 52.6368 32.615 52.7713 32.4897C53.7986 31.6419 54.8788 31.6971 55.824 32.6352C56.4275 33.2325 57.0279 33.8333 57.6252 34.4376C57.9985 34.8156 58.0314 35.1749 57.7355 35.4743C57.4396 35.7737 57.0545 35.7268 56.6941 35.371C56.0894 34.7745 55.4941 34.1687 54.8894 33.571C54.4339 33.1202 54.0875 33.1014 53.5896 33.5194C52.891 34.0947 52.1255 34.2062 51.2918 33.8611C50.8316 33.6708 50.3772 33.4677 49.9146 33.2892C49.0504 32.9546 48.5784 32.3312 48.4751 31.4106C48.3976 30.7179 48.1816 30.5218 47.4924 30.5206C46.2329 30.5206 44.9731 30.5206 43.7128 30.5206C43.0083 30.5206 42.7993 30.7179 42.7218 31.3989C42.6197 32.31 42.1571 32.9441 41.2905 33.2775C40.8279 33.4572 40.3736 33.6591 39.9145 33.8493C39.0644 34.2016 38.2871 34.0841 37.5803 33.4971C37.1165 33.1073 36.7525 33.1237 36.3134 33.5593C35.3991 34.4665 34.488 35.378 33.58 36.2939C33.1209 36.7565 33.1103 37.0864 33.5283 37.5936C34.1236 38.3099 34.2034 39.0907 33.8535 39.9337C33.6622 40.3928 33.4673 40.8495 33.2806 41.311C32.9553 42.1141 32.373 42.5802 31.5076 42.6894C30.6857 42.7939 30.5261 42.9794 30.5261 43.8248C30.5261 45.0541 30.5261 46.2905 30.5261 47.5151C30.5261 48.1562 30.7738 48.4086 31.4149 48.4662C32.2779 48.5425 32.8955 48.9734 33.2418 49.7706C33.468 50.2935 33.6853 50.8207 33.8935 51.3522C34.2082 52.1588 34.0849 52.9009 33.5342 53.5701C33.1033 54.0938 33.1162 54.4132 33.6023 54.9016C34.4806 55.7845 35.3608 56.6651 36.2429 57.5434C36.7713 58.0706 37.0648 58.0882 37.6413 57.6232C38.3176 57.0726 39.0632 56.9786 39.864 57.2945C40.3536 57.487 40.8362 57.6984 41.3234 57.8968C42.1641 58.2373 42.6208 58.8631 42.7206 59.7567C42.797 60.433 43.0318 60.6584 43.7022 60.6607C44.9625 60.6654 46.2223 60.6654 47.4818 60.6607C48.1581 60.6607 48.4023 60.4377 48.4727 59.7661C48.5702 58.8479 49.0469 58.2244 49.9017 57.8874C50.3772 57.6972 50.848 57.4953 51.3224 57.3004C52.1231 56.9763 52.8676 57.0655 53.545 57.6185C54.1215 58.0882 54.4198 58.0718 54.9446 57.5493C55.8158 56.6804 56.6858 55.8104 57.5547 54.9392C58.0819 54.4096 58.0983 54.1102 57.6357 53.5396C57.0991 52.8786 56.99 52.1471 57.2952 51.3581C57.5019 50.8262 57.7214 50.3013 57.9481 49.7765C58.2921 48.9793 58.9061 48.5448 59.7703 48.4662C60.4149 48.4086 60.6638 48.1562 60.6662 47.5268C60.6662 46.2376 60.6662 44.9484 60.6662 43.6592C60.6662 43.0334 60.4419 42.7716 59.8231 42.7129C58.8427 42.6213 58.2052 42.1141 57.8612 41.2006C57.6921 40.7497 57.4901 40.3106 57.3117 39.8621C56.9946 39.0613 57.0874 38.3204 57.6275 37.6312C57.765 37.4458 57.8778 37.2433 57.9633 37.0289C58.1253 36.652 58.4423 36.4759 58.8028 36.5886C58.888 36.6125 58.9672 36.6541 59.0352 36.7107C59.1033 36.7674 59.1586 36.8377 59.1976 36.9171C59.2366 36.9966 59.2584 37.0834 59.2616 37.1718C59.2648 37.2603 59.2493 37.3484 59.2161 37.4304C59.098 37.7735 58.9268 38.096 58.7089 38.3862C58.44 38.7302 58.3942 39.0543 58.5645 39.4429C58.7582 39.8844 58.9437 40.3306 59.1163 40.7803C59.1697 40.9481 59.2721 41.0962 59.4104 41.2052C59.5488 41.3143 59.7167 41.3793 59.8924 41.392C61.3554 41.5834 61.9859 42.3172 61.9871 43.8001C61.9871 45.06 61.9871 46.3186 61.9871 47.5785C61.9871 48.8383 61.1863 49.692 59.9511 49.7765C59.7673 49.7758 59.5881 49.8335 59.4393 49.9414C59.2905 50.0492 59.1799 50.2016 59.1234 50.3765C58.9433 50.8407 58.7543 51.3001 58.5562 51.7549C58.473 51.9185 58.4425 52.104 58.469 52.2857C58.4955 52.4673 58.5776 52.6363 58.7042 52.7694C59.5343 53.7603 59.4803 54.8746 58.568 55.7951C57.6557 56.7156 56.7269 57.642 55.8017 58.559C54.8765 59.476 53.7728 59.5253 52.7771 58.6917C52.644 58.5652 52.4749 58.4833 52.2931 58.4572C52.1114 58.4311 51.926 58.4622 51.7627 58.5461C51.3087 58.7457 50.8492 58.9344 50.3842 59.112C49.9979 59.2612 49.816 59.5336 49.7807 59.9422C49.6739 61.1985 48.8414 61.9734 47.5851 61.9805C46.2544 61.9883 44.9218 61.9883 43.5872 61.9805C42.359 61.9711 41.5089 61.1821 41.4138 59.9656C41.381 59.5383 41.1954 59.2612 40.7892 59.105C40.3383 58.9348 39.891 58.7528 39.4507 58.5543C39.2822 58.4653 39.0898 58.4319 38.9012 58.4592C38.7125 58.4864 38.5374 58.5727 38.401 58.7058C37.4358 59.5207 36.3063 59.4655 35.4081 58.5755C34.4688 57.6463 33.5369 56.7141 32.6125 55.7787C31.7155 54.8746 31.6591 53.7533 32.4739 52.7881C32.6075 52.6507 32.6946 52.4748 32.723 52.2853C32.7514 52.0957 32.7198 51.902 32.6325 51.7314C32.4329 51.277 32.2438 50.8168 32.0618 50.3542C32.006 50.1867 31.8993 50.0409 31.7566 49.9371C31.6138 49.8334 31.4422 49.7768 31.2658 49.7753C30.0259 49.6826 29.2345 48.8677 29.2134 47.6419C29.2134 47.2897 29.0643 47.0889 28.7637 46.9703C28.206 46.7496 27.6459 46.5359 27.087 46.3186C26.7665 46.2012 26.4929 46.2764 26.2322 46.4866C25.1473 47.3589 24.0918 47.3002 23.109 46.3186C22.2073 45.4185 21.3071 44.5183 20.4085 43.6181C19.4915 42.6941 19.4363 41.5927 20.2711 40.5947C20.3978 40.462 20.4801 40.2933 20.5069 40.1118C20.5336 39.9303 20.5033 39.745 20.4203 39.5814C20.2171 39.1118 20.0222 38.6421 19.8332 38.1643C19.7076 37.8496 19.495 37.6406 19.1534 37.6242C18.0121 37.5702 17.3217 36.9619 16.9906 35.8982V30.8928C17.3581 29.8608 18.0356 29.2584 19.1804 29.1903C19.4152 29.1762 19.6923 28.8757 19.8273 28.6373C20.0715 28.2099 20.2159 27.7262 20.4144 27.2718C20.503 27.1018 20.5358 26.9083 20.5082 26.7186C20.4806 26.5289 20.394 26.3527 20.2606 26.2151C19.4469 25.2488 19.4997 24.1263 20.3909 23.2281C21.3169 22.2934 22.2472 21.3628 23.1818 20.436C24.0988 19.5248 25.2037 19.4732 26.2005 20.308C26.3333 20.4342 26.5018 20.5162 26.6831 20.5426C26.8643 20.5691 27.0493 20.5388 27.2127 20.4559C27.667 20.2575 28.1273 20.0685 28.5899 19.89C28.9739 19.7409 29.1429 19.4685 29.2028 19.0681C29.2489 18.709 29.3515 18.3595 29.5069 18.0325C29.8028 17.4454 30.3758 17.2024 30.964 17.0051L35.8026 17.0063ZM40.8373 32.0353C40.8103 31.8803 40.7986 31.75 40.7645 31.6267C40.0013 28.8146 38.239 26.9207 35.441 26.127C32.643 25.3333 30.1773 26.0296 28.0627 28.0056C27.8385 28.2146 27.6553 28.4682 27.4298 28.6761C27.1539 28.9285 26.8428 28.9367 26.5586 28.6878C26.2745 28.4389 26.2522 28.136 26.4553 27.8189C26.4982 27.7596 26.5445 27.7027 26.5939 27.6487C30.0153 23.5239 36.574 23.45 40.0507 27.5313C40.7152 28.3132 41.2178 29.2326 41.7931 30.0862C42.2768 29.3723 43.0564 29.161 43.9582 29.2056C44.5206 29.2338 45.0854 29.2056 45.7347 29.2056C45.4998 28.6584 45.3061 28.1923 45.1135 27.7227C44.773 26.8914 44.8787 26.1211 45.4517 25.4237C45.8685 24.9212 45.8615 24.583 45.4047 24.1227C44.5077 23.2187 43.6075 22.3185 42.7042 21.4222C42.2181 20.9385 41.8976 20.9221 41.3716 21.3553C40.6671 21.9342 39.9063 22.0316 39.0738 21.6853C38.6288 21.4997 38.185 21.3095 37.7353 21.1357C36.8406 20.7917 36.3486 20.1518 36.2594 19.1949C36.203 18.5843 35.9423 18.346 35.32 18.3436C34.0324 18.3366 32.7436 18.3366 31.4536 18.3436C30.8337 18.3436 30.5777 18.589 30.5143 19.1996C30.4227 20.1389 29.9495 20.7765 29.0736 21.1228C28.6122 21.3048 28.1531 21.4974 27.694 21.6876C26.8616 22.0398 26.0972 21.9318 25.3974 21.353C24.8749 20.9209 24.5532 20.9397 24.0648 21.4258C23.1826 22.304 22.3024 23.1842 21.4241 24.0664C20.897 24.5948 20.8828 24.8883 21.3466 25.466C21.8926 26.1423 21.9901 26.8867 21.6695 27.6886C21.464 28.2052 21.2586 28.7207 21.0355 29.2291C20.6833 30.0228 20.0715 30.4596 19.2097 30.5382C18.5463 30.5993 18.3162 30.8435 18.315 31.5269C18.315 32.7574 18.315 33.9875 18.315 35.2172C18.315 36.0156 18.4959 36.2234 19.2907 36.315C20.1408 36.4148 20.7197 36.8645 21.052 37.6476C21.2093 38.0245 21.3373 38.4167 21.5216 38.7819C22.0171 39.774 21.983 40.6863 21.2198 41.5446C21.1507 41.6125 21.0962 41.6939 21.0599 41.7837C21.0236 41.8735 21.0063 41.9699 21.0089 42.0668C21.0116 42.1637 21.0341 42.2589 21.0753 42.3467C21.1164 42.4344 21.1752 42.5127 21.248 42.5767C22.2327 43.581 23.2276 44.5747 24.2327 45.5578C24.298 45.6284 24.3767 45.6854 24.4641 45.7255C24.5516 45.7656 24.6462 45.788 24.7423 45.7914C24.8385 45.7948 24.9343 45.7791 25.0244 45.7453C25.1145 45.7114 25.197 45.6601 25.2671 45.5942C26.1207 44.8205 27.0283 44.7923 28.0251 45.2866C28.395 45.4709 28.7907 45.6012 29.2181 45.7738C29.2181 44.966 29.2181 44.2334 29.2181 43.5019C29.2135 42.9683 29.4164 42.4539 29.784 42.0671C29.9049 41.954 30.0327 41.8485 30.1668 41.7513C29.993 41.6691 29.9143 41.6338 29.8345 41.5963C26.4025 40.0628 24.2996 36.7189 24.498 32.9687C24.545 32.0764 24.8174 31.1911 25.0381 30.3152C25.0563 30.2238 25.0945 30.1376 25.1499 30.0628C25.2053 29.9879 25.2765 29.9263 25.3585 29.8822C25.4406 29.8381 25.5313 29.8127 25.6243 29.8077C25.7173 29.8028 25.8102 29.8185 25.8964 29.8537C26.2487 29.9711 26.3966 30.3375 26.2686 30.7602C26.2475 30.8306 26.2228 30.8999 26.1994 30.9692C25.6369 32.6376 25.624 34.3143 26.2393 35.9604C27.2443 38.6539 29.1981 40.266 32.016 40.9059C32.2626 40.3188 32.5268 39.7846 32.7076 39.2198C32.7349 39.1018 32.7368 38.9792 32.7131 38.8604C32.6894 38.7416 32.6407 38.6292 32.5702 38.5306C32.1839 38.0609 31.9303 37.5608 31.9068 36.9702C30.256 36.1213 29.413 34.8109 29.6032 32.9699C29.6752 32.1885 29.9957 31.4508 30.5176 30.8648C31.0395 30.2789 31.7354 29.8756 32.5033 29.714C34.5193 29.2866 35.9658 30.1296 36.938 31.9002C37.5556 31.9073 38.0535 32.1656 38.5337 32.5413C38.7215 32.6893 39.0949 32.7221 39.3391 32.6517C39.8393 32.5073 40.3101 32.2595 40.842 32.0329L40.8373 32.0353ZM35.6148 32.3558C35.4005 31.8742 35.0347 31.4758 34.573 31.2214C34.1113 30.967 33.5791 30.8706 33.0575 30.9468C31.8716 31.1324 30.9934 32.0447 30.89 33.1988C30.7949 34.265 31.4137 35.3123 32.3213 35.6422L35.6148 32.3558Z" fill="#EF6C1B"/>
<path d="M45.5973 34.9683C51.4398 34.953 56.215 39.7247 56.2197 45.5825C56.2244 51.4403 51.495 56.1896 45.6619 56.2084C44.2672 56.2127 42.8854 55.9422 41.5953 55.4124C40.3052 54.8826 39.132 54.1039 38.1429 53.1207C37.1537 52.1376 36.3679 50.9692 35.8303 49.6823C35.2926 48.3955 35.0137 47.0153 35.0095 45.6207C35.0053 44.226 35.2758 42.8442 35.8055 41.5541C36.3353 40.264 37.114 39.0908 38.0972 38.1017C39.0804 37.1125 40.2487 36.3267 41.5356 35.789C42.8225 35.2514 44.2026 34.9725 45.5973 34.9683ZM45.6067 36.2927C43.7676 36.2913 41.9695 36.8353 40.4395 37.8558C38.9096 38.8762 37.7166 40.3275 37.0114 42.0259C36.3061 43.7244 36.1204 45.5938 36.4775 47.3979C36.8347 49.2019 37.7187 50.8595 39.0179 52.1612C40.3171 53.4628 41.973 54.35 43.7764 54.7106C45.5797 55.0711 47.4495 54.8889 49.1493 54.1869C50.8491 53.4849 52.3026 52.2946 53.326 50.7666C54.3494 49.2386 54.8967 47.4415 54.8988 45.6025C54.9002 44.381 54.6609 43.1712 54.1946 42.0422C53.7284 40.9132 53.0443 39.8871 52.1814 39.0226C51.3185 38.1581 50.2937 37.472 49.1656 37.0036C48.0375 36.5352 46.8282 36.2936 45.6067 36.2927Z" fill="#EF6C1B"/>
<path d="M46.195 51.1128C46.195 51.3981 46.2067 51.6611 46.195 51.9217C46.1738 52.3069 45.9155 52.5722 45.5691 52.5851C45.3992 52.5861 45.235 52.5231 45.1093 52.4087C44.9836 52.2943 44.9055 52.1368 44.8905 51.9675C44.8781 51.8364 44.8746 51.7046 44.8799 51.573C44.8799 51.4427 44.8799 51.3135 44.8799 51.2959C44.1402 51.0036 43.4545 50.7734 42.8076 50.4635C42.2839 50.2122 42.1618 49.8095 42.3908 49.4385C42.608 49.0862 42.9778 49.071 43.4698 49.321C43.8901 49.5359 44.3375 49.6956 44.8482 49.9081V45.5344C43.532 44.9767 42.3966 44.2159 42.5997 42.5216C42.7582 41.1925 43.5391 40.3541 44.8835 39.9949C44.8835 39.76 44.8682 39.5111 44.8835 39.2669C44.9152 38.8477 45.177 38.6012 45.5562 38.607C45.9355 38.6129 46.1738 38.8595 46.1938 39.2927C46.2032 39.4959 46.1938 39.7001 46.1938 39.8727C46.6822 40.0759 47.1436 40.252 47.5886 40.4598C47.7739 40.5479 47.9366 40.6773 48.0642 40.8379C48.161 40.9517 48.2107 41.0981 48.2033 41.2474C48.1959 41.3966 48.1319 41.5374 48.0243 41.641C47.7894 41.9028 47.5029 41.9416 47.1906 41.7702C46.8783 41.5987 46.5918 41.4461 46.2231 41.2477V44.6761C47.8669 45.1681 49.0634 46.098 48.8978 48.0248C48.7628 49.6568 47.807 50.656 46.195 51.1128ZM46.2325 46.1532V49.6756C46.6634 49.5332 47.0328 49.2482 47.28 48.8677C47.5272 48.4871 47.6373 48.0337 47.5922 47.5821C47.537 46.8448 47.0063 46.2871 46.2325 46.1532ZM44.8494 44.0398V41.4567C44.5769 41.5477 44.3391 41.7206 44.1685 41.9517C43.9979 42.1828 43.9027 42.461 43.896 42.7482C43.8572 43.3588 44.0874 43.6863 44.8494 44.0421V44.0398Z" fill="#EF6C1B"/>
</g>
<defs>
<clipPath id="clip0_38_863">
<rect width="45" height="44.9871" fill="white" transform="translate(17 17.0063)"/>
</clipPath>
</defs>
</svg>
