<svg width="84" height="84" viewBox="0 0 84 84" fill="none" xmlns="http://www.w3.org/2000/svg">
<g filter="url(#filter0_d_82_748)">
<circle cx="42" cy="38" r="22" fill="#0AB38C"/>
</g>
<g clip-path="url(#clip0_82_748)">
<path d="M54.9939 32.909C54.9968 32.7398 54.983 32.5707 54.9527 32.4042C54.9107 32.2008 54.8273 32.0083 54.7075 31.8386C54.5878 31.6689 54.4343 31.5257 54.2568 31.4181C54.0792 31.3104 53.8814 31.2405 53.6756 31.2127C53.4698 31.185 53.2605 31.2 53.0607 31.2569C52.374 31.4497 51.9512 32.043 51.9507 32.8301C51.9487 35.225 51.95 37.6201 51.9548 40.0156C51.9606 40.1752 51.9323 40.3341 51.8716 40.4818C51.811 40.6295 51.7195 40.7626 51.6032 40.872C50.2922 42.1705 48.9914 43.4786 47.686 44.7827C47.628 44.8442 47.5666 44.9023 47.5019 44.9567C47.3996 45.0392 47.2777 45.0938 47.148 45.1154C47.0184 45.1369 46.8854 45.1245 46.7619 45.0796C46.6385 45.0346 46.5287 44.9585 46.4433 44.8586C46.3578 44.7587 46.2996 44.6385 46.2743 44.5095C46.2179 44.2073 46.345 43.9701 46.5562 43.7605C47.3962 42.925 48.2339 42.0874 49.0693 41.2475C49.1655 41.1523 49.256 41.0515 49.3404 40.9457C49.5456 40.684 49.6582 40.3617 49.6606 40.0291C49.663 39.6965 49.555 39.3725 49.3536 39.1079C48.7661 38.3416 47.7257 38.2938 47.0018 39.0087C46.0047 39.9978 45.0178 40.9987 44.0202 41.9868C43.2006 42.7978 42.8028 43.7722 42.8084 44.9242C42.8165 46.6084 42.8216 48.2925 42.8028 49.9767C42.7977 50.4489 42.9289 50.7974 43.369 51.0005H48.3443C48.7844 50.7969 48.9319 50.4494 48.909 49.9762C48.8826 49.4282 48.9029 48.8772 48.9029 48.2875C48.9767 48.2244 49.0723 48.1526 49.1573 48.0692C50.6835 46.5427 52.2035 45.0117 53.7358 43.4949C54.589 42.6518 55.0076 41.651 54.999 40.4491C54.9863 37.9361 54.9964 35.4225 54.9939 32.909Z" fill="white"/>
<path d="M41.1871 44.8978C41.1901 43.7646 40.7969 42.803 39.9931 42.0041C39.0026 41.0201 38.0187 40.0294 37.0303 39.0428C36.9413 38.9524 36.8459 38.8685 36.7449 38.792C35.9339 38.187 34.7344 38.5686 34.4205 39.5303C34.2109 40.1709 34.3925 40.7107 34.8539 41.1737C35.714 42.0367 36.5756 42.8983 37.4388 43.7585C37.6636 43.9824 37.7949 44.2343 37.7079 44.5558C37.5476 45.1598 36.8512 45.3191 36.3826 44.853C35.0452 43.5219 33.7154 42.1827 32.3759 40.8537C32.2655 40.7496 32.1786 40.6231 32.121 40.4827C32.0634 40.3423 32.0366 40.1912 32.0422 40.0396C32.05 37.6614 32.05 35.2833 32.0422 32.9055C32.0453 32.7364 32.0315 32.5675 32.001 32.4012C31.9504 32.1603 31.842 31.9352 31.685 31.7456C31.528 31.556 31.3272 31.4074 31.1 31.3128C30.8727 31.2181 30.6259 31.1803 30.3807 31.2025C30.1355 31.2246 29.8995 31.3062 29.6929 31.4401C29.3139 31.6828 29.1272 32.0507 28.9975 32.4618V41.0465C29.0585 41.3009 29.1084 41.5553 29.1831 41.8052C29.3785 42.4514 29.7509 42.9871 30.2255 43.4603C31.7649 44.9949 33.3026 46.5314 34.8387 48.0697C34.9221 48.1532 35.0152 48.2274 35.09 48.2941C35.09 48.8777 35.1103 49.4283 35.0839 49.9768C35.0615 50.4494 35.209 50.7975 35.6485 51H40.6244C41.0639 50.7965 41.1952 50.4484 41.1901 49.9762C41.1743 48.2839 41.1815 46.5911 41.1871 44.8978Z" fill="white"/>
<path d="M48.8622 31.8721C48.8424 28.0707 45.7702 24.9914 42.0056 25C38.2593 25.0087 35.1302 28.1628 35.1612 31.8996C35.1927 35.6953 38.2609 38.7589 42.0153 38.7437C45.8124 38.7284 48.8815 35.648 48.8622 31.8721Z" fill="white"/>
</g>
<defs>
<filter id="filter0_d_82_748" x="0" y="0" width="84" height="84" filterUnits="userSpaceOnUse" color-interpolation-filters="sRGB">
<feFlood flood-opacity="0" result="BackgroundImageFix"/>
<feColorMatrix in="SourceAlpha" type="matrix" values="0 0 0 0 0 0 0 0 0 0 0 0 0 0 0 0 0 0 127 0" result="hardAlpha"/>
<feOffset dy="4"/>
<feGaussianBlur stdDeviation="10"/>
<feComposite in2="hardAlpha" operator="out"/>
<feColorMatrix type="matrix" values="0 0 0 0 0.0392157 0 0 0 0 0.701961 0 0 0 0 0.54902 0 0 0 0.5 0"/>
<feBlend mode="normal" in2="BackgroundImageFix" result="effect1_dropShadow_82_748"/>
<feBlend mode="normal" in="SourceGraphic" in2="effect1_dropShadow_82_748" result="shape"/>
</filter>
<clipPath id="clip0_82_748">
<rect width="26" height="26" fill="white" transform="translate(29 25)"/>
</clipPath>
</defs>
</svg>
