<svg width="79" height="79" viewBox="0 0 79 79" fill="none" xmlns="http://www.w3.org/2000/svg">
<rect width="79" height="79" rx="8" fill="#292929"/>
<g clip-path="url(#clip0_38_862)">
<path d="M17.5229 65.8098C17.1112 65.5572 16.9972 65.1936 17.0069 64.7228C17.0467 62.8412 16.9533 60.9501 17.1043 59.0795C17.3033 56.6242 18.5426 54.6987 20.5518 53.2728C20.6204 53.2234 20.689 53.1712 20.792 53.0916C20.6547 52.4205 20.501 51.7398 20.3597 51.0577C20.0468 49.559 21.0678 48.2648 22.5967 48.2278C23.0907 48.2154 23.5862 48.2278 24.1667 48.2278C24.0734 47.9931 24.0089 47.8161 23.9293 47.6322C23.1926 45.953 22.7337 44.1652 22.5706 42.3388C22.5624 42.2537 22.5583 42.1686 22.5555 42.0835C22.5322 41.4975 22.7655 41.1613 23.228 41.1132C23.6905 41.0652 24.0514 41.3877 24.0926 41.9765C24.2427 44.0293 24.8027 46.0313 25.7395 47.8641C25.793 47.9698 25.8548 48.0727 25.9234 48.1976H27.5881C27.5044 47.182 27.3891 46.1829 27.3452 45.1783C27.1476 40.6178 27.466 36.1122 28.9262 31.7493C29.5726 29.8183 30.4126 27.9738 32.0649 26.6713C32.6894 26.18 33.4181 25.8136 34.1236 25.4362C34.6135 25.1795 35.0637 25.3552 35.2462 25.782C35.4287 26.2088 35.2325 26.6054 34.7192 26.847C33.3317 27.5085 32.7031 27.9806 32.1459 28.8054C32.9296 28.8439 33.6913 28.8329 34.4379 28.9303C35.2333 29.0262 36.0189 29.1906 36.786 29.4216C37.8757 29.7661 38.6361 30.499 38.9462 31.6655H40.0304C40.7166 29.5205 42.5447 29.1458 44.4482 28.9303C45.2113 28.8439 45.9839 28.848 46.8582 28.8068C46.7031 28.616 46.5947 28.4582 46.4629 28.3237C45.1921 27.0364 43.5809 26.4023 41.8489 26.1718C40.5725 26.0016 39.2632 26.0675 37.9677 26.0345C37.814 26.0345 37.6603 26.0634 37.5066 26.0675C37.0262 26.0798 36.6639 25.8053 36.6461 25.3813C36.6282 24.9215 36.8752 24.6072 37.3323 24.5647C38.1978 24.4647 39.0686 24.4166 39.9398 24.4206C42.0149 24.4755 44.0077 24.8941 45.8412 25.9179C47.6061 26.9005 48.678 28.45 49.4671 30.241C50.5527 32.7113 51.0907 35.3189 51.4022 37.9731C51.74 40.8998 51.7809 43.8532 51.5244 46.7881C51.4846 47.2451 51.4036 47.6981 51.3377 48.1853H53.056C53.8884 46.6762 54.446 45.0311 54.7029 43.3269C55.2958 39.1864 54.8401 35.0993 54.0276 31.037C53.3607 27.7267 52.3986 24.5057 50.8862 21.4685C48.6711 17.0205 44.9478 14.9866 40.1114 14.7533C37.8987 14.6301 35.6882 15.0327 33.6611 15.9281C30.6843 17.247 28.8384 19.5979 27.5799 22.5074C25.8562 26.4874 24.8118 30.6568 24.2861 34.9566C24.1489 36.1451 24.0761 37.3418 23.9897 38.5372C23.9458 39.1658 23.6562 39.524 23.1662 39.4979C22.6763 39.4718 22.4238 39.1095 22.4457 38.5043C22.5692 35.2545 23.0291 32.0263 23.8181 28.8713C24.5043 26.0935 25.4033 23.3913 26.6714 20.8166C28.9153 16.2671 32.6304 13.8544 37.604 13.2972C40.261 13.0007 42.8645 13.2725 45.3677 14.2702C48.936 15.6934 51.2279 18.3531 52.7335 21.802C54.589 26.0565 55.691 30.499 56.2345 35.0924C56.5639 37.873 56.6462 40.6534 56.2345 43.4367C56.0266 44.8589 55.6277 46.2466 55.0487 47.5622C54.9623 47.7612 54.8799 47.9629 54.7743 48.2141C55.9477 48.1537 56.8205 48.5435 57.3118 49.5865C57.7798 50.576 57.2803 51.5298 57.1513 52.5276C58.3319 53.0807 59.3696 53.8977 60.1843 54.9156C61.3027 56.299 61.9302 58.0146 61.9684 59.7931C62.0055 61.4867 61.9684 63.1816 61.9876 64.871C61.9876 65.3006 61.79 65.5737 61.473 65.8043H60.9583C60.5466 65.5614 60.4258 65.2004 60.4327 64.7269C60.4547 63.172 60.4986 61.6115 60.4176 60.0607C60.375 59.1768 60.2016 58.304 59.903 57.471C59.354 55.9613 58.2753 54.8634 56.8178 54.0853C56.7821 54.2019 56.7601 54.2623 56.7464 54.3254C55.9696 57.8608 55.2011 61.3988 54.4023 64.93C54.3309 65.2457 54.0523 65.5147 53.8698 65.8056H48.0151C47.6254 65.5792 47.3673 65.269 47.5183 64.7983C47.6693 64.3276 48.0673 64.2493 48.5133 64.2617C48.8715 64.2754 49.2325 64.2617 49.592 64.2617H52.9311C52.9942 64.1944 53.0121 64.1835 53.0162 64.1697C53.9924 59.7286 54.9659 55.2875 55.9367 50.8463C56.0986 50.0984 55.7912 49.7594 55.0062 49.7594C44.273 49.7594 33.5398 49.7594 22.8067 49.7594C22.0093 49.7594 21.7293 50.1231 21.8995 50.904C22.6379 54.2939 23.3767 57.6842 24.116 61.0749C24.3479 62.1358 24.5894 63.1939 24.8268 64.2617H25.4993C31.9542 64.2617 38.4082 64.2617 44.8613 64.2617C45.2922 64.2617 45.693 64.2891 45.881 64.7612C46.069 65.2333 45.774 65.527 45.4611 65.8056H23.8854C23.7179 65.5215 23.4737 65.2567 23.3982 64.9506C22.8492 62.5503 22.34 60.1472 21.8158 57.7386C21.6017 56.7628 21.3807 55.7898 21.1447 54.7344C20.921 54.9252 20.759 55.0473 20.6163 55.1859C19.9716 55.7912 19.4567 56.5212 19.1028 57.3316C18.7489 58.142 18.5634 59.0159 18.5577 59.9002C18.5289 61.5086 18.5371 63.1185 18.5577 64.7269C18.5577 65.2004 18.4451 65.5613 18.0307 65.8056L17.5229 65.8098ZM36.421 37.0989C34.0179 38.2737 31.6381 38.1598 29.3284 36.856C29.0113 37.7988 29.1376 38.6223 29.4834 39.4636C30.6939 42.4019 32.7772 44.6609 35.1721 46.6248C37.8277 48.7987 41.0474 48.7823 43.7689 46.6934C44.4639 46.1378 45.1201 45.5353 45.7328 44.8901C47.3646 43.2363 48.7946 41.4412 49.6222 39.2234C49.8895 38.557 49.9191 37.8189 49.7059 37.1332C48.6011 37.6814 47.3787 37.95 46.1459 37.9155C44.8998 37.9031 43.703 37.6753 42.5914 37.092C41.7226 39.2508 37.3199 39.2907 36.4141 37.0989H36.421ZM30.9725 30.5003L29.4299 35.382C29.7603 35.5888 30.1016 35.7776 30.4524 35.9475C31.6875 36.4635 32.9858 36.469 34.2828 36.2219C36.012 35.8967 37.0633 34.8372 37.4105 33.1175C37.6589 31.8824 37.2595 31.1893 36.0697 30.7844C35.9077 30.7292 35.7428 30.6834 35.5756 30.6472C34.1112 30.3494 32.6304 30.3288 30.9725 30.5003ZM47.9479 30.3631C46.5754 30.4221 45.3403 30.4523 44.1051 30.5443C43.6293 30.5925 43.1624 30.7061 42.7176 30.8819C41.7871 31.2222 41.4728 31.752 41.5415 32.7346C41.6554 34.3582 42.6394 35.6304 44.1902 36.0929C45.4577 36.4837 46.8127 36.49 48.0837 36.1108C48.56 35.9735 48.9991 35.699 49.5467 35.4465C49.0087 33.7365 48.4996 32.1129 47.952 30.3631H47.9479ZM34.5943 48.2045C32.3312 46.3215 30.4002 44.278 28.8604 41.8694C28.8247 44.0021 28.7616 46.1156 29.2364 48.2045H34.5943ZM50.0902 41.9531C48.5449 44.3288 46.6372 46.3448 44.4139 48.188H49.7251C50.1863 46.1115 50.1327 44.0433 50.0943 41.9518L50.0902 41.9531ZM39.8218 33.2301L39.1507 33.2905C38.739 34.2512 38.3396 35.1734 37.954 36.0998C37.7948 36.4813 37.9306 36.786 38.2984 36.9425C38.6744 37.1094 39.0811 37.1957 39.4924 37.1957C39.9038 37.1957 40.3105 37.1094 40.6864 36.9425C41.0035 36.8052 41.1997 36.5499 41.0639 36.2055C40.6796 35.2269 40.2582 34.2608 39.8259 33.2287L39.8218 33.2301Z" fill="#EF6C1B"/>
<path d="M39.0286 53.3757C39.7909 53.3741 40.5366 53.5988 41.1712 54.0213C41.8057 54.4438 42.3006 55.0452 42.5931 55.7492C42.8855 56.4532 42.9625 57.2282 42.8142 57.976C42.6658 58.7238 42.2989 59.4107 41.7598 59.9498C41.2208 60.4888 40.5338 60.8558 39.7861 61.0041C39.0383 61.1524 38.2633 61.0755 37.5593 60.783C36.8553 60.4905 36.2539 59.9956 35.8314 59.3611C35.4089 58.7265 35.1842 57.9808 35.1858 57.2185C35.1909 56.2009 35.5973 55.2264 36.3169 54.5068C37.0365 53.7873 38.0109 53.3808 39.0286 53.3757ZM39.0286 54.917C38.7247 54.9153 38.4237 54.9741 38.1428 55.0899C37.8619 55.2058 37.6069 55.3763 37.3926 55.5917C37.1783 55.807 37.0089 56.0628 36.8944 56.3443C36.7799 56.6257 36.7226 56.927 36.7257 57.2308C36.7291 57.8359 36.9691 58.4157 37.3943 58.8462C37.8194 59.2768 38.3961 59.524 39.0011 59.5351C39.3089 59.5442 39.6154 59.4917 39.9026 59.3806C40.1898 59.2696 40.4519 59.1022 40.6734 58.8884C40.895 58.6745 41.0715 58.4186 41.1927 58.1355C41.3139 57.8524 41.3773 57.548 41.3792 57.2401C41.381 56.9322 41.3212 56.627 41.2034 56.3425C41.0856 56.058 40.9121 55.8 40.6931 55.5835C40.474 55.3671 40.214 55.1966 39.9281 55.0821C39.6423 54.9677 39.3364 54.9115 39.0286 54.917Z" fill="#EF6C1B"/>
<path d="M39.5473 43.0264C37.8469 42.9907 36.2288 42.6915 34.6986 41.982C34.6684 41.9683 34.6355 41.9573 34.6053 41.9422C33.887 41.5826 33.6611 41.1608 33.9273 40.6768C34.1757 40.2226 34.5641 40.2308 35.2997 40.5588C38.1489 41.8146 41.0007 41.8105 43.8293 40.4833C44.4071 40.2088 44.8394 40.25 45.0644 40.6837C45.2895 41.1174 45.1303 41.5469 44.558 41.8461C42.9893 42.6709 41.2862 42.9756 39.5473 43.0264Z" fill="#EF6C1B"/>
</g>
<defs>
<clipPath id="clip0_38_862">
<rect width="45" height="52.6196" fill="white" transform="translate(17 13.1902)"/>
</clipPath>
</defs>
</svg>
