<svg width="54" height="54" viewBox="0 0 54 54" fill="none" xmlns="http://www.w3.org/2000/svg">
<rect width="54" height="54" rx="8" fill="#FF2626" fill-opacity="0.22"/>
<rect x="8" y="8" width="38" height="38" rx="8" fill="#FF2626"/>
<g clip-path="url(#clip0_41_5165)">
<path d="M14.9772 29.7661C15.1024 29.4919 15.279 29.2765 15.6084 29.2439C15.8739 29.2176 16.0718 29.3322 16.2527 29.5131C17.8228 31.0836 19.3937 32.6529 20.9654 34.2208C21.032 34.3019 21.0925 34.3877 21.1464 34.4776C21.2147 34.3811 21.2879 34.2881 21.3656 34.1989C23.628 31.9396 25.8986 29.6854 28.1485 27.4154C28.6494 26.9094 29.0583 26.9044 29.5712 27.4242C31.5931 29.4706 33.6414 31.4944 35.6734 33.5283C35.7398 33.6077 35.8008 33.6914 35.8562 33.7788C36.1261 33.4932 36.3465 33.2515 36.5757 33.0192C36.9433 32.6435 37.3409 32.2991 37.6803 31.9027C38.0704 31.4468 38.7449 31.4218 39.0229 32.1081V38.4827C38.9155 38.7092 38.7329 38.8915 38.5063 38.9987H32.1191C31.4228 38.7156 31.4591 38.0381 31.9137 37.6593C32.2488 37.38 32.5399 37.0462 32.8486 36.7375C33.1411 36.4463 33.4348 36.1564 33.7097 35.884L28.8141 30.9953C28.7703 31.0467 28.7189 31.1162 28.6582 31.1769C26.3563 33.4755 24.054 35.7734 21.7513 38.0707C21.343 38.4783 20.9661 38.4777 20.5559 38.0707C18.8393 36.3591 17.1244 34.6458 15.4111 32.9309C15.2489 32.7687 15.1212 32.5721 14.9772 32.3911V29.7661Z" fill="white"/>
<path d="M23.2811 18.0095V17.7303C23.2811 17.0584 23.2773 16.3865 23.2811 15.7152C23.2855 15.2981 23.5754 15.0038 23.9918 15.0032C25.9956 14.9986 27.9994 14.9986 30.0032 15.0032C30.4203 15.0032 30.7102 15.2969 30.7146 15.7146C30.7215 16.3865 30.7146 17.0577 30.7146 17.7296V18.0095H34.3008C35.0196 18.0095 35.262 18.2419 35.2451 18.9682C35.2344 19.4028 35.2351 19.8505 35.1305 20.2682C34.7961 21.6026 33.6276 22.4949 32.2268 22.5338C31.9858 22.5407 31.7447 22.5338 31.5105 22.5338C31.3339 21.9702 31.1272 21.7698 30.7396 21.7823C30.3746 21.7955 30.1692 22.0071 30.0352 22.5187H23.9724C23.7539 21.9276 23.5616 21.7529 23.1627 21.7848C22.8108 21.8136 22.5992 22.0441 22.5052 22.5137C21.5384 22.6008 20.6267 22.4793 19.8502 21.8205C19.1232 21.2025 18.7606 20.4097 18.7468 19.4585C18.7431 19.2319 18.7431 19.0052 18.7468 18.7785C18.7556 18.2963 19.043 18.0095 19.5302 18.0083C20.6805 18.0045 21.8308 18.0083 22.9818 18.0083L23.2811 18.0095ZM24.7 17.9951H29.2963V16.424H24.6988L24.7 17.9951Z" fill="white"/>
<path d="M33.9144 29.788L31.8611 27.7329C31.3852 27.2576 30.9112 26.7804 30.4328 26.3077C29.4754 25.3621 28.2249 25.3684 27.2699 26.3171C26.057 27.525 24.8466 28.7367 23.6224 29.959C22.9029 29.959 22.1759 29.959 21.4489 29.959C20.9711 29.959 20.4914 29.9803 20.0462 29.7599C19.2321 29.3566 18.77 28.6953 18.7562 27.7924C18.7306 26.1449 18.7481 24.4961 18.7481 22.8455C18.7543 22.813 18.764 22.7813 18.7769 22.7509C19.8414 23.7215 21.1076 24.0302 22.4839 23.9269C22.648 24.4742 22.8741 24.6965 23.2354 24.6896C23.5967 24.6827 23.8071 24.471 23.9624 23.9482H30.0314C30.2005 24.4873 30.4378 24.7121 30.8041 24.6883C31.1705 24.6645 31.4065 24.4197 31.4929 23.9294C32.875 24.0302 34.1543 23.7365 35.2432 22.7346C35.2488 22.8367 35.2538 22.8874 35.2538 22.9381C35.2538 24.5161 35.2582 26.0941 35.2538 27.6721C35.2482 28.639 34.803 29.3372 33.9144 29.788Z" fill="white"/>
</g>
<defs>
<clipPath id="clip0_41_5165">
<rect width="24.0457" height="24" fill="white" transform="translate(14.9772 15)"/>
</clipPath>
</defs>
</svg>
