<svg width="183" height="95" viewBox="0 0 183 95" fill="none" xmlns="http://www.w3.org/2000/svg">
<path d="M26.1101 48.9383C25.421 49.7272 24.6931 50.481 23.9289 51.1969C23.3986 51.6418 22.7818 51.9714 22.1181 52.165C21.814 52.2428 21.4924 52.2089 21.2109 52.0694C20.9294 51.9299 20.7066 51.6941 20.5832 51.4043C20.4265 51.1207 20.3679 50.7931 20.416 50.4724C20.4641 50.1517 20.6163 49.8559 20.8493 49.6312C21.1875 49.3101 21.553 49.0195 21.9419 48.7626H13.7781C13.1649 52.2535 16.8632 57.7527 21.1497 59.8273C24.0922 61.204 27.4339 61.4568 30.5487 60.5382C33.6635 59.6196 36.3379 57.5927 38.071 54.8371H39.7422C38.4406 57.3823 36.4209 59.4861 33.9351 60.8855C31.4493 62.2849 28.6078 62.9179 25.7656 62.7055C22.154 62.45 18.7608 60.8751 16.2276 58.2785C13.6945 55.6819 12.1969 52.2436 12.0181 48.6138C11.8393 44.9839 12.9913 41.4141 15.2568 38.5792C17.5224 35.7444 20.7442 33.8411 24.3131 33.2292C27.8921 32.5828 31.5823 33.3153 34.6469 35.2803C36.847 36.6549 38.6436 38.5919 39.8525 40.8929H38.0612C36.4154 38.2833 33.9223 36.3243 31.0035 35.3472C28.0846 34.3701 24.9192 34.4349 22.0424 35.5306C17.2558 37.4213 13.6267 42.3603 13.7121 47.0103H22.139C21.8121 46.8396 21.4949 46.6512 21.1884 46.4459C20.8385 46.2236 20.5845 45.8775 20.4766 45.4762C20.3686 45.0749 20.4145 44.6475 20.6054 44.2787C20.819 43.9211 21.1633 43.6615 21.5648 43.5551C21.9663 43.4486 22.3933 43.5038 22.7549 43.7088C23.304 44.0258 23.8092 44.4136 24.2579 44.8623C24.725 45.2938 25.1153 45.8083 25.5644 46.262C25.7514 46.4135 25.9547 46.5434 26.1706 46.6492L26.1403 46.6811L26.1511 46.659C25.9348 45.8471 25.6731 45.0421 25.5146 44.2192C25.3429 43.4977 25.2722 42.7556 25.3051 42.0145C25.3503 41.6344 25.5376 41.2857 25.8288 41.0385C26.1201 40.7914 26.4937 40.6642 26.8747 40.6826C27.2546 40.7045 27.6133 40.8654 27.8832 41.1347C28.153 41.4041 28.3153 41.7633 28.3393 42.1446C28.3572 42.8219 28.2824 43.4986 28.1173 44.1556C27.9285 44.9854 27.6367 45.8014 27.3887 46.623L27.5333 46.7184C27.7175 46.5757 27.8942 46.4233 28.0624 46.262C28.5957 45.6991 29.0831 45.0891 29.6536 44.5691C30.0677 44.1839 30.5426 43.8703 31.059 43.6411C31.407 43.489 31.7986 43.4704 32.1593 43.589C32.52 43.7076 32.8248 43.955 33.0158 44.2842C33.197 44.6065 33.2564 44.9835 33.1833 45.3462C33.1102 45.7089 32.9093 46.0331 32.6175 46.2592C32.0842 46.637 31.4925 46.9239 30.8662 47.1084C29.9886 47.385 29.0749 47.5469 28.1751 47.7585L28.1671 47.9826C28.9938 48.1776 29.8302 48.338 30.6473 48.5773C31.2591 48.7347 31.8466 48.9748 32.3941 49.2909C32.581 49.3896 32.7461 49.5252 32.8795 49.6895C33.0129 49.8538 33.1119 50.0435 33.1705 50.2471C33.2291 50.4507 33.2462 50.6641 33.2206 50.8745C33.195 51.0849 33.1275 51.288 33.0218 51.4715C32.9162 51.655 32.7745 51.8152 32.6057 51.9425C32.4369 52.0698 32.2443 52.1615 32.0392 52.2121C31.8342 52.2628 31.621 52.2714 31.4125 52.2374C31.2041 52.2034 31.0047 52.1275 30.8262 52.0142C30.2488 51.6581 29.718 51.2312 29.2459 50.7432C28.6589 50.19 28.1269 49.5676 27.5717 48.977L27.3856 49.0849C27.6047 49.8138 27.872 50.5316 28.0305 51.2729C28.2222 52.0385 28.3247 52.8238 28.3353 53.6131C28.3114 53.9945 28.1487 54.3537 27.8781 54.6225C27.6075 54.8913 27.2478 55.0509 26.8676 55.0709C26.4865 55.0845 26.1142 54.9534 25.8251 54.7037C25.536 54.454 25.3515 54.1041 25.3081 53.7238C25.2825 52.9833 25.3532 52.2426 25.5187 51.5205C25.6675 50.6574 25.891 49.8068 26.0811 48.9507L26.1265 48.9701L26.0946 48.9825L26.1101 48.9383Z" fill="#034EA2"/>
<path d="M60.9735 55.0348V56.9269H48.2725V38.8264H60.844V40.6728H50.3944V46.6506H60.1634V48.5205H50.4028V55.0348H60.9735Z" fill="#808285"/>
<path d="M109.043 56.9644H107.002L102.762 43.702C103.114 43.6854 103.336 43.6674 103.558 43.666C103.985 43.666 104.413 43.666 104.892 43.666L107.948 53.9202L108.068 53.9299L110.971 43.7117H113.107L116.023 53.9465H116.135L119.186 43.7227H121.327C119.894 48.1652 118.482 52.5454 117.043 57.0073H115.044L112.029 46.7309L109.043 56.9644Z" fill="#808285"/>
<path d="M76.7411 56.9408H74.9088V55.2991C74.3616 55.7813 73.7759 56.2175 73.1576 56.6033C69.5242 58.4802 65.8205 56.6932 64.7761 52.6104C64.31 50.7819 64.4158 48.8537 65.0792 47.0877C65.3958 46.1606 65.9493 45.3331 66.6844 44.6882C67.4196 44.0432 68.3103 43.6033 69.2679 43.4125C70.2256 43.2216 71.2165 43.2865 72.1413 43.6006C73.0662 43.9148 73.8927 44.4671 74.5381 45.2025C74.5967 45.2495 74.6599 45.2903 74.7268 45.3243V38.8237H76.7411V56.9408ZM74.7487 50.396C74.7924 49.1814 74.49 47.9794 73.8768 46.9314C73.5248 46.3245 73.0083 45.8303 72.3876 45.5064C71.7668 45.1825 71.067 45.0421 70.3699 45.1016C69.7146 45.1022 69.0741 45.2965 68.5282 45.6603C67.9822 46.0241 67.555 46.5412 67.3 47.1471C66.8305 48.0903 66.5741 49.1258 66.5489 50.1798C66.5236 51.2338 66.7302 52.2805 67.154 53.2452C67.387 53.9215 67.8233 54.5087 68.4027 54.9256C68.9822 55.3425 69.6765 55.5687 70.3894 55.5729C71.1451 55.638 71.9023 55.4681 72.5585 55.0863C73.2146 54.7046 73.7378 54.1294 74.0571 53.4388C74.5386 52.499 74.7764 51.4525 74.7487 50.396Z" fill="#808285"/>
<path d="M93.0774 50.9905H83.2161C83.1275 51.9486 83.3636 52.9086 83.8866 53.715C84.4095 54.5213 85.1883 55.1267 86.097 55.433C88.2326 56.0526 89.6876 55.1481 91.02 52.3446H92.8718C92.7651 53.5527 92.2646 54.6918 91.4479 55.5857C90.6312 56.4795 89.5437 57.0782 88.3538 57.2891C87.4808 57.4691 86.579 57.4518 85.7135 57.2385C84.848 57.0251 84.0404 56.6211 83.3497 56.0557C82.659 55.4903 82.1025 54.7777 81.7202 53.9696C81.3379 53.1614 81.1396 52.278 81.1396 51.3833C81.0244 50.0399 81.1648 48.6867 81.553 47.3959C81.9308 46.1884 82.685 45.1346 83.7046 44.3901C84.7242 43.6455 85.955 43.2495 87.2158 43.2605C88.5006 43.3034 89.7343 43.7757 90.7213 44.6026C91.7083 45.4294 92.3921 46.5634 92.6639 47.8246C92.856 48.8721 92.994 49.9288 93.0774 50.9905ZM83.2131 49.1413H90.8037C90.8437 48.1728 90.5246 47.2238 89.9079 46.4778C89.2912 45.7318 88.4211 45.2419 87.4654 45.1027C86.9218 45.0869 86.3803 45.1789 85.8723 45.3734C85.3642 45.5679 84.8995 45.8612 84.5045 46.2363C84.1095 46.6115 83.7919 47.0612 83.5704 47.5597C83.3488 48.0582 83.2274 48.5957 83.2131 49.1413Z" fill="#808285"/>
<path d="M134.16 52.3502H136.067C135.951 53.5572 135.445 54.693 134.626 55.5846C133.807 56.4762 132.721 57.0748 131.532 57.2892C130.648 57.4723 129.734 57.4523 128.859 57.2308C127.984 57.0093 127.17 56.592 126.478 56.0101C125.787 55.4283 125.235 54.6969 124.865 53.8708C124.495 53.0446 124.316 52.1451 124.341 51.2396C124.287 50.035 124.401 48.8287 124.681 47.656C124.99 46.3516 125.747 45.1981 126.818 44.3981C127.89 43.5981 129.209 43.2027 130.542 43.2813C131.919 43.3664 133.221 43.9372 134.22 44.8928C135.218 45.8485 135.847 47.1274 135.997 48.5038C136.111 49.2853 136.135 50.0819 136.198 50.9727H126.389C126.298 51.9952 126.576 53.0166 127.172 53.8511C127.767 54.6857 128.642 55.2779 129.636 55.5202C131.594 55.967 133.111 54.9172 134.16 52.3502ZM126.471 49.1249H134.003C134.033 48.114 133.673 47.1307 132.998 46.3799C132.323 45.629 131.386 45.1686 130.381 45.0945C129.34 45.1375 128.354 45.5792 127.627 46.3287C126.9 47.0782 126.486 48.0787 126.471 49.1249Z" fill="#808285"/>
<path d="M160.993 52.4638H162.909C162.955 52.5456 162.989 52.633 163.011 52.7239C163.034 53.3234 163.246 53.9 163.618 54.3697C163.99 54.8394 164.501 55.1777 165.078 55.3352C165.752 55.5905 166.48 55.668 167.193 55.5603C167.906 55.4525 168.579 55.1631 169.148 54.7197C169.381 54.5587 169.567 54.3379 169.686 54.0802C169.805 53.8225 169.853 53.5375 169.825 53.2548C169.797 52.9722 169.694 52.7023 169.526 52.4734C169.359 52.2445 169.133 52.065 168.873 51.9535C167.733 51.515 166.567 51.1487 165.381 50.8567C164.753 50.6645 164.114 50.4999 163.505 50.2565C162.895 50.0463 162.365 49.6519 161.988 49.1274C161.611 48.6028 161.405 47.974 161.398 47.3271C161.346 46.7055 161.474 46.0822 161.764 45.5311C162.055 44.9799 162.498 44.5242 163.039 44.2179C163.917 43.6794 164.912 43.3635 165.939 43.2974C166.965 43.2314 167.993 43.4172 168.932 43.8389C169.709 44.1689 170.358 44.7437 170.78 45.4766C171.203 46.2094 171.376 47.0605 171.274 47.9011H169.447C169.386 47.8143 169.342 47.7166 169.318 47.6134C169.263 46.0491 168.021 45.1169 166.225 45.1238C165.636 45.1455 165.056 45.2714 164.512 45.4959C164.196 45.606 163.924 45.8137 163.734 46.0891C163.543 46.3644 163.445 46.6933 163.452 47.0283C163.43 47.3531 163.517 47.6759 163.699 47.945C163.882 48.2141 164.149 48.4139 164.458 48.5124C165.501 48.8789 166.588 49.1223 167.658 49.4156C168.16 49.5539 168.676 49.6534 169.166 49.8305C169.895 50.0941 170.532 50.5633 171.001 51.1816C171.47 51.7998 171.752 52.5409 171.812 53.3159C171.858 53.8788 171.746 54.4435 171.487 54.9452C171.228 55.447 170.834 55.8654 170.35 56.1526C169.327 56.8694 168.13 57.2926 166.885 57.3767C165.641 57.4608 164.397 57.2025 163.288 56.6297C162.534 56.2461 161.912 55.6439 161.502 54.9011C161.093 54.1583 160.916 53.3092 160.993 52.4638Z" fill="#808285"/>
<path d="M156.985 47.9051H155.077C155.023 47.8359 155.002 47.8207 154.998 47.8014C154.921 47.2717 154.715 46.7692 154.398 46.3384C154.082 45.9077 153.664 45.5618 153.183 45.3314C152.702 45.1011 152.171 44.9933 151.639 45.0176C151.106 45.0419 150.587 45.1976 150.129 45.4709C149.82 45.5959 149.556 45.8102 149.37 46.0866C149.183 46.363 149.083 46.6888 149.081 47.0226C149.06 47.3475 149.148 47.6703 149.332 47.9386C149.516 48.2069 149.784 48.4051 150.094 48.5012C151.14 48.8635 152.226 49.1153 153.296 49.4071C153.71 49.5205 154.137 49.6021 154.552 49.7197C155.303 49.9293 155.976 50.3573 156.486 50.9499C156.996 51.5425 157.32 52.2732 157.417 53.0501C157.507 53.5257 157.473 54.0166 157.319 54.4751C157.164 54.9336 156.894 55.3441 156.534 55.6669C155.664 56.5188 154.539 57.0614 153.332 57.2118C151.803 57.5301 150.212 57.3103 148.825 56.5895C148.097 56.1944 147.502 55.5897 147.119 54.853C146.735 54.1164 146.58 53.2814 146.673 52.4554H148.526C148.557 52.5813 148.588 52.7072 148.619 52.8344C148.794 53.4495 149.12 54.011 149.566 54.4683C150.012 54.9257 150.564 55.2644 151.173 55.454C151.782 55.6437 152.428 55.6782 153.053 55.5546C153.679 55.4309 154.264 55.153 154.756 54.7458C154.987 54.5746 155.17 54.3451 155.285 54.0805C155.4 53.8159 155.443 53.5255 155.411 53.2386C155.379 52.9516 155.272 52.6784 155.101 52.4462C154.93 52.214 154.701 52.0311 154.437 51.916C153.316 51.491 152.169 51.1371 151.004 50.8566C150.374 50.6657 149.736 50.4956 149.127 50.2535C148.529 50.0454 148.009 49.659 147.636 49.1458C147.263 48.6327 147.055 48.0173 147.04 47.3823C146.972 46.7484 147.092 46.1085 147.384 45.5427C147.677 44.9769 148.129 44.5103 148.685 44.2012C149.591 43.6402 150.624 43.3217 151.688 43.2762C152.751 43.2307 153.808 43.4596 154.758 43.9411C155.479 44.3054 156.076 44.8769 156.473 45.5828C156.869 46.2887 157.047 47.0971 156.985 47.9051Z" fill="#808285"/>
<path d="M99.082 56.9395H97.1528V38.8376H99.082V56.9395Z" fill="#808285"/>
<path d="M140.348 43.707H142.234V56.9266H140.348V43.707Z" fill="#808285"/>
<path d="M142.255 41.7156H140.346V38.8291H142.255V41.7156Z" fill="#808285"/>
</svg>
