<svg width="85" height="84" viewBox="0 0 85 84" fill="none" xmlns="http://www.w3.org/2000/svg">
<g filter="url(#filter0_d_82_765)">
<circle cx="42.5" cy="38" r="22" fill="#0AB38C"/>
</g>
<g clip-path="url(#clip0_82_765)">
<path d="M29 28.8051C29.1508 28.512 29.4066 28.3424 29.7046 28.206C30.2126 27.9767 30.7171 27.7378 31.2089 27.4787C31.3635 27.3934 31.4909 27.269 31.5774 27.119C31.8726 26.5919 32.1467 26.0525 32.4187 25.513C32.5737 25.207 32.8006 25.0049 33.1656 25.0001C33.5432 24.9947 33.7793 25.1996 33.9406 25.5151C34.2224 26.0762 34.5127 26.6366 34.8122 27.1903C34.8742 27.2977 34.9668 27.3858 35.0792 27.4441C35.6387 27.7254 36.2024 27.9982 36.7703 28.2623C37.1113 28.4218 37.3579 28.6402 37.353 29.0304C37.348 29.4069 37.1106 29.622 36.7766 29.7767C36.2129 30.0366 35.6584 30.3032 35.1095 30.5848C34.9761 30.6569 34.8666 30.7639 34.7939 30.8935C34.4986 31.4309 34.2196 31.9791 33.9427 32.5219C33.7835 32.8361 33.5503 33.0444 33.1719 33.0417C32.7935 33.0389 32.5674 32.8286 32.4088 32.5117C32.1317 31.9567 31.8442 31.4062 31.5464 30.8603C31.4809 30.746 31.3832 30.6519 31.2646 30.5889C30.7375 30.3216 30.2046 30.0646 29.6658 29.8181C29.3706 29.6824 29.1247 29.5128 29 29.2115V28.8051Z" fill="white"/>
<path d="M29 46.7853C29.1247 46.4833 29.3706 46.3103 29.6666 46.1746C30.2133 45.9249 30.7544 45.663 31.2913 45.3937C31.396 45.3378 31.4818 45.2542 31.5387 45.1528C31.8421 44.5906 32.1376 44.0252 32.425 43.4566C32.5814 43.1485 32.8147 42.9538 33.1796 42.9531C33.5446 42.9524 33.7786 43.1485 33.935 43.4559C34.2168 44.017 34.5078 44.5781 34.8094 45.1318C34.8747 45.2461 34.9725 45.3403 35.0912 45.4032C35.6584 45.6888 36.2334 45.9616 36.8083 46.2323C37.1338 46.3856 37.3537 46.6082 37.353 46.9732C37.3522 47.3383 37.1345 47.5588 36.8069 47.7121C36.2305 47.9808 35.6584 48.2581 35.0905 48.5439C34.9716 48.6067 34.8739 48.7009 34.8087 48.8153C34.5301 49.3229 34.2631 49.8365 34.0075 50.3562C33.8666 50.6405 33.6891 50.8766 33.3734 50.9981H33.0042C32.6949 50.8915 32.511 50.6765 32.3701 50.3949C32.1117 49.867 31.8405 49.3468 31.5563 48.8343C31.4811 48.7055 31.3701 48.5995 31.2357 48.5283C30.7326 48.2696 30.2222 48.024 29.7046 47.7915C29.4037 47.6558 29.1473 47.4855 29 47.1924V46.7853Z" fill="white"/>
<path d="M51.6259 51.0011C51.313 50.8804 51.1327 50.6436 50.996 50.3593C50.7472 49.8558 50.4908 49.3551 50.216 48.8666C50.1334 48.7243 50.0114 48.6069 49.8637 48.5273C49.3071 48.2403 48.7363 47.9737 48.1727 47.7077C47.8528 47.5584 47.6491 47.3352 47.6484 46.9831C47.6477 46.6309 47.8478 46.4064 48.1677 46.2557C48.7518 45.9843 49.3331 45.7041 49.9081 45.4137C50.0281 45.3512 50.1271 45.2571 50.1934 45.1423C50.4943 44.5887 50.7825 44.0282 51.0671 43.4664C51.2228 43.1591 51.4547 42.9623 51.8203 42.9609C52.186 42.9596 52.42 43.1523 52.5764 43.4603C52.8934 44.0825 53.219 44.6999 53.5424 45.3228C54.1709 45.6261 54.7958 45.9334 55.4272 46.2286C55.7597 46.384 55.9986 46.5997 56.0007 46.9749C56.0028 47.3501 55.7689 47.5727 55.437 47.7281C54.8924 47.9825 54.3562 48.2546 53.8094 48.5056C53.6338 48.5793 53.4927 48.7129 53.4134 48.8808C53.1619 49.3924 52.8829 49.8911 52.632 50.4027C52.4911 50.6843 52.3044 50.898 51.9979 51.0059L51.6259 51.0011Z" fill="white"/>
<path d="M42.4929 29.8897C47.1165 29.8748 50.8995 33.5095 50.9206 37.9896C50.9424 42.4365 47.1566 46.0902 42.5099 46.1064C37.8891 46.1227 34.0956 42.4772 34.0822 38.0059C34.0681 33.5536 37.849 29.9053 42.4929 29.8897ZM42.4774 41.2633C44.3193 41.2403 45.9025 40.6364 47.225 39.4151C47.5893 39.0759 47.6189 38.6043 47.3046 38.2874C46.9904 37.9706 46.5148 37.9767 46.1322 38.3166C43.9839 40.2259 41.0204 40.2232 38.8573 38.3098C38.4775 37.9706 38.0005 37.9706 37.6848 38.2949C37.3691 38.6192 37.4121 39.0854 37.7799 39.4226C39.101 40.6323 40.6751 41.2362 42.4774 41.2633ZM39.9409 34.4472C39.4386 34.4543 38.9576 34.6435 38.5937 34.9771C38.2668 35.2776 38.2351 35.7349 38.5162 36.0498C38.7974 36.3646 39.2532 36.3951 39.6091 36.1407C39.924 35.9154 39.9987 35.9147 40.301 36.1339C40.6695 36.4012 41.1324 36.3605 41.41 36.0362C41.6876 35.7119 41.6559 35.2722 41.3163 34.9669C40.943 34.6317 40.4513 34.4459 39.9409 34.4472ZM45.0316 34.4472C44.5171 34.4535 44.0248 34.6503 43.6569 34.9967C43.5074 35.1305 43.4182 35.3153 43.4085 35.5117C43.3987 35.708 43.4692 35.9002 43.6048 36.0471C43.7363 36.1921 43.9199 36.2838 44.1187 36.3037C44.3176 36.3236 44.5169 36.2702 44.6765 36.1543C45.0386 35.9066 45.0675 35.9059 45.4093 36.1488C45.569 36.2682 45.7703 36.324 45.9715 36.3046C46.1727 36.2852 46.3585 36.1922 46.4906 36.0448C46.6227 35.8973 46.6909 35.7066 46.6813 35.5121C46.6716 35.3176 46.5848 35.1341 46.4387 34.9995C46.049 34.631 45.5777 34.4607 45.0316 34.4465V34.4472Z" fill="white"/>
<path d="M53.5395 30.6813C53.2267 31.2838 52.911 31.8781 52.6102 32.4793C52.4453 32.8084 52.2191 33.0458 51.814 33.0424C51.4229 33.039 51.1996 32.8104 51.0389 32.4881C50.7782 31.9623 50.5119 31.4378 50.2223 30.9276C50.1297 30.7711 49.9942 30.6422 49.8306 30.5551C49.2901 30.2735 48.7363 30.017 48.1839 29.7585C47.857 29.6059 47.6421 29.3806 47.6463 29.0156C47.6463 28.6634 47.8577 28.4429 48.1755 28.2936C48.7518 28.0222 49.3261 27.7508 49.8933 27.4638C50.0203 27.3967 50.1249 27.2963 50.1948 27.1741C50.4901 26.6361 50.7712 26.0885 51.046 25.5457C51.2073 25.2234 51.437 25.0029 51.8288 25.0029C52.2064 25.0029 52.4333 25.2207 52.5905 25.5356C52.8617 26.0783 53.1372 26.6137 53.4303 27.1429C53.5077 27.2795 53.6234 27.3924 53.7643 27.4686C54.3223 27.7549 54.8916 28.0236 55.4553 28.2902C55.7823 28.4436 55.9979 28.6682 55.9958 29.0318C55.9936 29.3955 55.7675 29.6154 55.4434 29.768C54.8078 30.0659 54.1737 30.3753 53.5395 30.6813Z" fill="white"/>
</g>
<defs>
<filter id="filter0_d_82_765" x="0.5" y="0" width="84" height="84" filterUnits="userSpaceOnUse" color-interpolation-filters="sRGB">
<feFlood flood-opacity="0" result="BackgroundImageFix"/>
<feColorMatrix in="SourceAlpha" type="matrix" values="0 0 0 0 0 0 0 0 0 0 0 0 0 0 0 0 0 0 127 0" result="hardAlpha"/>
<feOffset dy="4"/>
<feGaussianBlur stdDeviation="10"/>
<feComposite in2="hardAlpha" operator="out"/>
<feColorMatrix type="matrix" values="0 0 0 0 0.0392157 0 0 0 0 0.701961 0 0 0 0 0.54902 0 0 0 0.5 0"/>
<feBlend mode="normal" in2="BackgroundImageFix" result="effect1_dropShadow_82_765"/>
<feBlend mode="normal" in="SourceGraphic" in2="effect1_dropShadow_82_765" result="shape"/>
</filter>
<clipPath id="clip0_82_765">
<rect width="27" height="26" fill="white" transform="translate(29 25)"/>
</clipPath>
</defs>
</svg>
