<svg width="46" height="46" viewBox="0 0 46 46" fill="none" xmlns="http://www.w3.org/2000/svg">
<g clip-path="url(#clip0_81_36)">
<path d="M-0.00237986 1.00082C0.342023 0.235217 0.936028 -0.00119547 1.76164 4.54061e-06C11.4585 0.0192047 21.1558 0.0236176 30.8535 0.0132175C32.0331 0.0132175 32.5143 0.493212 32.5143 1.66802V21.977C26.9143 23.405 23.3978 26.9191 21.965 32.5191H12.7765C11.8453 33.4791 10.8565 34.5027 9.86651 35.5191C9.2269 36.1707 8.57049 36.8043 7.92609 37.4511C7.49529 37.8831 6.99968 38.0631 6.41888 37.8111C5.83807 37.5591 5.56207 37.0995 5.56567 36.4635C5.56567 35.1771 5.56567 33.8895 5.56567 32.5299H5.12767C4.00566 32.5299 2.88245 32.4939 1.76164 32.5407C0.933628 32.5755 0.340822 32.3007 -0.00358105 31.5411L-0.00237986 1.00082ZM21.6098 21.7502C21.9254 21.7502 22.2098 21.7502 22.4918 21.7502C25.091 21.7058 26.9319 19.4366 26.4351 16.8818C25.919 14.2417 25.3946 11.6017 24.8618 8.96169C24.4898 7.11367 23.1194 5.79366 21.3026 5.61005C20.4626 5.52485 19.5986 5.57647 18.7454 5.57887C17.428 5.58664 16.1244 5.84735 14.9054 6.34686C13.7735 6.80829 12.7276 7.45741 11.8117 8.26688H7.11608C6.08767 8.26688 5.56807 8.78529 5.56687 9.8077C5.56687 12.3677 5.56687 14.9277 5.56687 17.4878C5.56687 18.539 6.08167 19.0478 7.14128 19.0478H11.7013C12.4189 19.8845 12.9608 20.857 13.2949 21.9074C13.7065 23.1578 13.6405 24.4454 13.6549 25.7306C13.6549 26.5706 14.2297 27.1358 15.0734 27.1274C16.0791 27.1256 17.0704 26.888 17.9678 26.4338C19.901 25.463 21.0878 23.8946 21.6098 21.7502Z" fill="#6E6E6E"/>
<path d="M34.2207 46.0036C33.5667 45.8632 32.9007 45.7636 32.2599 45.5788C30.3982 45.0468 28.7143 44.0228 27.3854 42.6146C26.0565 41.2065 25.1317 39.4661 24.7083 37.5768C24.2848 35.6874 24.3785 33.7189 24.9793 31.8783C25.5801 30.0376 26.6659 28.3929 28.1224 27.1172C29.579 25.8415 31.3524 24.982 33.2562 24.629C35.16 24.276 37.1237 24.4427 38.9408 25.1115C40.7578 25.7802 42.361 26.9263 43.5818 28.4293C44.8025 29.9322 45.5956 31.7363 45.8776 33.6519C46.7752 39.6256 42.49 45.2248 36.4923 45.9208C36.392 45.9406 36.2934 45.9679 36.1971 46.0024L34.2207 46.0036ZM39.4264 39.058C39.3124 38.8732 39.1672 38.5011 38.908 38.2443C36.9627 36.3243 33.5175 36.3123 31.5363 38.2035C30.8967 38.8144 30.8271 39.5644 31.3551 40.1476C31.9047 40.756 32.6439 40.7476 33.3447 40.1847C33.6874 39.9009 34.0813 39.6854 34.5051 39.55C35.4975 39.2668 36.3891 39.5223 37.1451 40.2352C37.5831 40.6468 38.0968 40.7332 38.6344 40.4752C39.136 40.234 39.3856 39.8056 39.4264 39.058ZM32.5119 32.5119C32.5085 32.2452 32.426 31.9856 32.2749 31.7659C32.1237 31.5461 31.9107 31.3763 31.6629 31.2777C31.4151 31.1792 31.1436 31.1566 30.8828 31.2126C30.6221 31.2686 30.3839 31.4008 30.1983 31.5923C30.0128 31.7839 29.8884 32.0263 29.8408 32.2887C29.7932 32.5511 29.8246 32.8217 29.9311 33.0663C30.0375 33.3108 30.2141 33.5182 30.4386 33.6622C30.6631 33.8062 30.9253 33.8803 31.1919 33.8751C31.5475 33.8688 31.8861 33.7218 32.1336 33.4662C32.381 33.2107 32.517 32.8675 32.5119 32.5119ZM39.232 33.8751C39.4989 33.8803 39.7613 33.8061 39.9859 33.6618C40.2105 33.5176 40.3872 33.3098 40.4934 33.0649C40.5997 32.8201 40.6308 32.5491 40.5827 32.2865C40.5347 32.024 40.4096 31.7816 40.2235 31.5902C40.0374 31.3989 39.7986 31.2671 39.5374 31.2118C39.2763 31.1564 39.0046 31.18 38.7569 31.2794C38.5091 31.3788 38.2965 31.5497 38.1461 31.7702C37.9956 31.9907 37.9141 32.251 37.912 32.5179C37.9093 32.8716 38.0459 33.2122 38.2922 33.4661C38.5385 33.72 38.8747 33.8669 39.2284 33.8751H39.232Z" fill="#6E6E6E"/>
<path d="M13.6621 17.2298V10.2061C15.089 9.0061 16.7222 8.34609 18.5822 8.28609C19.3154 8.26089 20.0486 8.27409 20.783 8.28609C21.5402 8.28609 22.0394 8.6713 22.1906 9.4105C22.7354 12.0613 23.2706 14.7122 23.789 17.3678C23.9846 18.3782 23.381 19.055 22.349 19.0622C21.7346 19.0622 21.1214 19.0622 20.507 19.0622C19.5962 19.0682 19.067 19.5854 19.037 20.5022C18.9746 22.1906 17.891 23.693 16.3586 24.1646C16.2878 21.5222 15.395 19.2026 13.6621 17.2298Z" fill="#6E6E6E"/>
<path d="M10.9237 16.3405H8.28369V11.0077H10.9237V16.3405Z" fill="#6E6E6E"/>
</g>
<defs>
<clipPath id="clip0_81_36">
<rect width="46" height="46.0024" fill="white" transform="translate(-0.00238037)"/>
</clipPath>
</defs>
</svg>
