<svg width="24" height="24" viewBox="0 0 24 24" fill="none" xmlns="http://www.w3.org/2000/svg">
<g id="Facebook" clip-path="url(#clip0_165_632)">
<path id="Vector" d="M12 -0.000427246C5.37225 -0.000427246 0 5.37182 0 11.9996C0 18.6266 5.37225 23.9996 12 23.9996C18.6278 23.9996 24 18.6266 24 11.9996C24 5.37182 18.6278 -0.000427246 12 -0.000427246Z" fill="#999999"/>
<path id="Vector_2" d="M10.2672 18.6768H13.0264V11.9988H14.8669L15.1107 9.69783H13.0264L13.0294 8.54583C13.0294 7.94583 13.0864 7.62408 13.9474 7.62408H15.0979V5.32233H13.2567C11.0449 5.32233 10.2672 6.43908 10.2672 8.31633V9.69783H8.88867V11.9996H10.2672V18.6768Z" fill="white"/>
</g>
<defs>
<clipPath id="clip0_165_632">
<rect width="24" height="24" fill="white" transform="translate(0 -0.000427246)"/>
</clipPath>
</defs>
</svg>
