<svg width="56" height="56" viewBox="0 0 56 56" fill="none" xmlns="http://www.w3.org/2000/svg">
<g clip-path="url(#clip0_28_623)">
<path d="M2.44351e-05 28.5452C0.875025 27.3005 1.76425 26.0613 2.63378 24.8111C4.37065 22.313 6.10351 19.8123 7.83237 17.3091C8.4394 16.4341 8.98737 16.4341 9.59331 17.3091C12.0834 20.9039 14.5732 24.4987 17.0625 28.0935C17.115 28.1679 17.1719 28.2422 17.2167 28.3188C17.6542 29.01 17.3261 29.6641 16.5135 29.6915C15.6778 29.7199 14.8411 29.698 13.9114 29.698L13.9114 47.6508C13.9114 48.7008 13.7167 48.8966 12.6777 48.8977L4.63861 48.8977C3.76361 48.8977 3.50659 48.645 3.50659 47.7591C3.50659 41.9812 3.50659 36.2033 3.50659 30.4254L3.50659 29.7013C2.72346 29.7013 1.98299 29.6816 1.24471 29.709C0.741587 29.7265 0.317215 29.6182 0.00330883 29.2025L2.44351e-05 28.5452ZM12.2653 47.2308L12.2653 46.5374C12.2653 40.7587 12.2653 34.9805 12.2653 29.2025C12.2653 28.3275 12.5235 28.0661 13.4039 28.0607C13.9081 28.0607 14.4124 28.0607 15.0347 28.0607L8.71065 18.9202C6.59643 21.974 4.53143 24.9588 2.38878 28.0552C3.00347 28.0552 3.47159 28.0552 3.93971 28.0552C4.93393 28.0552 5.14284 28.274 5.14284 29.2824L5.14284 47.2308L12.2653 47.2308Z" fill="#353435"/>
<path d="M56 22.967C55.7692 23.4374 55.3777 23.5795 54.8756 23.5664C54.0969 23.5467 53.317 23.5609 52.4967 23.5609L52.4967 41.5039C52.5 42.5452 52.2812 42.7639 51.2641 42.7639C48.5661 42.7639 45.8682 42.7639 43.1703 42.7639C42.3544 42.7639 42.0941 42.5047 42.0919 41.6877C42.0919 40.3752 42.0919 39.0627 42.0919 37.7502C42.0919 37.0797 42.3642 36.7406 42.887 36.7308C43.4098 36.7209 43.7281 37.0863 43.7314 37.7709C43.7314 38.8647 43.7314 39.9584 43.7314 41.085L50.8539 41.085L50.8539 23.1125C50.8539 22.1489 51.0869 21.9094 52.0417 21.9094C52.5131 21.9094 52.9856 21.9094 53.6003 21.9094L47.2883 12.7875L40.9708 21.9094C41.6117 21.9094 42.1313 21.9039 42.6508 21.9094C43.4525 21.9203 43.7325 22.2014 43.7336 23.0031C43.7336 26.4842 43.7336 29.9656 43.7336 33.4474C43.7417 33.5938 43.7318 33.7408 43.7041 33.8849C43.5892 34.3311 43.2917 34.5849 42.8291 34.5411C42.4014 34.4995 42.14 34.2338 42.0995 33.7897C42.0853 33.6267 42.0919 33.4616 42.0919 33.2975C42.0919 30.2707 42.0919 27.2447 42.0919 24.2194L42.0919 23.5631C41.2978 23.5631 40.5552 23.5631 39.8125 23.5631C39.375 23.5631 38.9134 23.5905 38.675 23.1038C38.4563 22.6542 38.698 22.3053 38.9419 21.952C41.4334 18.3587 43.9228 14.7643 46.41 11.1688C47.0138 10.2938 47.565 10.3014 48.1731 11.1786C50.7347 14.8784 53.2963 18.5778 55.8578 22.2769C55.9008 22.3288 55.9484 22.3768 56 22.4202L56 22.967Z" fill="#353435"/>
<path d="M22.7872 40.2286C21.9319 40.2286 21.152 40.2286 20.3733 40.2286C19.9697 40.2286 19.6 40.1641 19.3889 39.7725C19.1778 39.381 19.3495 39.0419 19.5781 38.7116C22.12 35.0453 24.6608 31.3784 27.2005 27.7107C27.7003 26.9899 28.2942 26.9975 28.805 27.7271C31.3403 31.3787 33.872 35.0308 36.4 38.6832C36.6384 39.0277 36.8878 39.428 36.5783 39.7769C36.3595 40.0219 35.9461 40.1838 35.6059 40.2144C34.8326 40.2768 34.0506 40.2341 33.2128 40.2341L33.2128 40.9352C33.2128 45.2526 33.2128 49.5703 33.2128 53.8885C33.2128 54.9122 32.994 55.1288 31.9539 55.1288L23.9695 55.1288C23.0267 55.1288 22.785 54.8849 22.785 53.9257C22.785 49.6083 22.785 45.2905 22.785 40.9724L22.7872 40.2286ZM24.4333 53.4422L31.5667 53.4422L31.5667 52.7543C31.5667 48.3997 31.5667 44.0458 31.5667 39.6927C31.5667 38.8275 31.8095 38.5924 32.6681 38.588C33.1833 38.588 33.6984 38.588 34.3273 38.588L28 29.4442C25.8825 32.5067 23.8109 35.4971 21.6726 38.588C22.2851 38.588 22.7544 38.588 23.2236 38.588C24.2298 38.588 24.4333 38.7914 24.4344 39.8021C24.4344 44.1202 24.4344 48.4376 24.4344 52.7543L24.4333 53.4422Z" fill="#353435"/>
<path d="M28 0.873329C34.242 0.87333 39.3499 5.97568 39.351 12.2133C39.352 18.451 34.2617 23.5501 28 23.5511C21.7383 23.5522 16.6491 18.4707 16.648 12.221C16.6469 5.9713 21.7569 0.873329 28 0.873329ZM27.9858 21.904C30.5565 21.9069 33.0234 20.8902 34.8456 19.0768C36.6677 17.2635 37.6964 14.8015 37.706 12.2308C37.7158 6.89989 33.3485 2.52052 28.0175 2.51395C25.4466 2.51739 22.9814 3.53774 21.1601 5.35228C19.3388 7.16683 18.3093 9.62821 18.2963 12.1991C18.2788 17.5377 22.6319 21.8974 27.9847 21.9083L27.9858 21.904Z" fill="#353435"/>
<path d="M27.1775 6.09597C27.1775 5.53707 27.1687 5.01207 27.1775 4.48817C27.1917 3.88442 27.4991 3.5202 27.9803 3.50379C28.4791 3.49176 28.8028 3.87238 28.8192 4.50129C28.8312 4.99238 28.8323 5.48566 28.8411 5.97457C28.8411 6.00629 28.8684 6.03801 28.9111 6.1266C29.6986 6.1266 30.5145 6.10691 31.3294 6.13863C31.5831 6.14847 31.9222 6.22504 32.0578 6.40004C32.2197 6.60785 32.3367 7.02457 32.2317 7.22364C32.1016 7.47192 31.7297 7.73223 31.453 7.74207C30.0311 7.79348 28.6092 7.75519 27.1873 7.77159C26.1625 7.78362 25.4253 8.45081 25.328 9.41222C25.3008 9.65308 25.3233 9.89696 25.3941 10.1288C25.4649 10.3606 25.5825 10.5754 25.7397 10.76C25.8968 10.9445 26.0902 11.0948 26.3078 11.2016C26.5254 11.3084 26.7626 11.3695 27.0047 11.381C27.6412 11.4072 28.2811 11.3722 28.9176 11.3974C30.8219 11.4718 32.2601 12.9089 32.3203 14.7782C32.3794 16.5938 31.0133 18.0889 29.12 18.2782C29.0489 18.2858 28.98 18.3022 28.8159 18.3307C28.8159 18.8852 28.8159 19.4408 28.8159 19.9964C28.8159 20.4154 28.6661 20.7511 28.233 20.8813C27.6937 21.0421 27.218 20.6986 27.1851 20.0927C27.1545 19.5163 27.1786 18.9355 27.1786 18.288C26.3123 18.288 25.5161 18.288 24.7198 18.288C24.0319 18.288 23.66 17.9839 23.6742 17.4568C23.6873 16.9569 24.0636 16.6539 24.7067 16.6507C26.0192 16.6441 27.3317 16.6507 28.6442 16.6507C29.8725 16.6507 30.6764 15.9321 30.6797 14.858C30.683 13.7839 29.8517 13.0402 28.6016 13.0347C28.1094 13.0347 27.6172 13.0413 27.1261 13.0347C25.2262 12.9932 23.8131 11.6544 23.6786 9.77535C23.5539 8.04504 24.8051 6.5094 26.6033 6.18675C26.7684 6.15394 26.9303 6.13316 27.1775 6.09597Z" fill="#353435"/>
</g>
<defs>
<clipPath id="clip0_28_623">
<rect width="56" height="54.2467" fill="white" transform="translate(56 55.1233) rotate(-180)"/>
</clipPath>
</defs>
</svg>
