<svg width="48" height="56" viewBox="0 0 48 56" fill="none" xmlns="http://www.w3.org/2000/svg">
<g clip-path="url(#clip0_6_168)">
<path d="M3.39444 55.5C3.21138 55.4354 3.03121 55.3651 2.84671 55.3077C1.22087 54.7926 0.0663429 53.3806 0.0389572 51.686C-0.00716619 48.9597 -0.0172557 46.2434 0.0389572 43.5242C0.06609 42.4995 0.495511 41.5261 1.23515 40.8128C1.97479 40.0995 2.96573 39.7032 3.99547 39.7088C7.08718 39.6887 10.1803 39.7088 13.2735 39.7088H13.9538C15.9054 35.4859 19.0706 32.5644 23.5474 30.9659C21.6737 29.4578 20.3909 27.6068 19.7034 25.3224C17.5269 25.7084 15.8117 25.0555 14.8979 23.0036C14.1613 21.3449 14.5894 19.8196 15.8737 18.498C15.6517 18.0833 15.4197 17.6658 15.2049 17.2396C13.855 14.5981 13.1419 11.6799 13.1221 8.71626C13.1135 7.8467 13.4738 7.52672 14.3184 7.69317C16.1922 8.0605 17.8469 7.67451 19.219 6.29126C19.5851 5.92249 19.9758 5.57381 20.3721 5.23517C20.7685 4.89653 21.2211 4.89798 21.5339 5.20792C21.6138 5.2874 21.6762 5.38267 21.7169 5.48761C21.7575 5.59255 21.7757 5.70483 21.7701 5.81717C21.7645 5.92952 21.7354 6.03945 21.6845 6.13989C21.6336 6.24033 21.5622 6.32905 21.4748 6.40032C20.7022 7.09481 19.9224 7.785 19.1009 8.4221C18.1755 9.13955 17.083 9.40931 15.9198 9.42653C15.5623 9.42653 15.1991 9.42653 14.7783 9.42653C14.9109 12.3939 15.7872 15.1045 17.2631 17.6156L19.245 17.4591C19.258 17.3314 19.2681 17.1722 19.2897 17.0186C19.4425 15.9238 20.1358 15.1375 21.224 14.9065C24.2797 14.2579 27.1551 13.1645 29.7078 11.3594C30.8868 10.5257 31.9621 9.53415 33.0229 8.55268C33.8877 7.75056 34.7525 7.76779 35.4156 8.73491C36.8713 10.8471 38.4078 12.8961 40.26 14.6898C41.0311 15.4374 41.3107 16.4117 41.364 17.3888L44.1502 17.8638C44.4096 16.8292 44.7613 15.6885 44.9732 14.5219C45.4056 12.1184 45.2859 9.74796 44.3029 7.4679C44.2539 7.3531 44.205 7.23687 44.1487 7.12495C42.3961 3.60656 39.3044 2.84318 35.7889 4.23217C34.9615 4.55933 34.8491 4.55647 34.3187 3.84188C33.7537 3.08425 32.9364 2.70256 32.0572 2.47441C29.2566 1.75696 26.6406 2.0712 24.3142 3.90932C24.1621 4.03506 24.0028 4.15195 23.8371 4.25943C23.6665 4.37935 23.456 4.42926 23.2493 4.3988C23.0427 4.36834 22.8558 4.25987 22.7273 4.09586C22.6005 3.92932 22.5446 3.71983 22.5716 3.5126C22.5986 3.30537 22.7062 3.117 22.8714 2.9881C24.4915 1.68521 26.2644 0.680771 28.3947 0.548759C30.2944 0.426792 32.1768 0.568858 33.905 1.47429C34.4542 1.76127 34.9414 2.16734 35.4112 2.48876C36.4014 2.32805 37.383 2.09703 38.3761 2.02098C41.5932 1.77417 43.8533 3.28371 45.3753 5.99712C46.7547 8.45081 47.0848 11.1226 46.6898 13.8504C46.4318 15.644 45.9101 17.3989 45.4733 19.3145C47.4221 22.3177 44.6575 26.2422 40.923 25.3411C40.2553 27.5629 38.9149 29.5254 37.0847 30.9602C37.5171 31.1353 37.8947 31.2859 38.268 31.4423C39.8593 32.1139 41.3288 33.0413 42.618 34.1873C43.0807 34.5948 43.1614 35.0784 42.8342 35.4486C42.507 35.8188 42.0429 35.8331 41.5543 35.4041C40.0889 34.1042 38.3722 33.1159 36.5096 32.4998C36.3424 32.4439 36.1708 32.3965 35.9431 32.3277C35.6418 34.0653 34.8102 35.4515 33.3184 36.3956C32.3091 37.0343 31.1216 37.3359 29.9283 37.2566C27.393 37.1274 25.6835 35.5462 24.6544 32.332C20.6777 33.5445 17.7359 35.9709 15.7728 39.693H19.0389C20.1516 38.7245 21.3105 37.7086 22.478 36.7013C23.0704 36.1904 23.7608 36.1273 24.2753 36.6367C24.529 36.8849 24.7582 37.3025 24.7596 37.6411C24.7899 42.3132 24.8014 46.9852 24.7495 51.6573C24.7495 52.3905 24.3935 53.1209 24.1989 53.8613H38.6283V45.7354C38.6283 45.5919 38.6283 45.4485 38.6283 45.305C38.6529 44.731 38.9728 44.3622 39.447 44.3708C39.9212 44.3794 40.2383 44.7411 40.2455 45.3294C40.2585 46.3338 40.2455 47.3382 40.2455 48.3427V48.9525H46.3079C46.5962 45.0969 46.2027 41.4221 43.9484 38.1491C43.4785 37.4675 43.4785 37.0012 43.9239 36.6955C44.3693 36.3899 44.8305 36.552 45.3062 37.2695C47.0711 39.8869 48.0051 42.9719 47.9871 46.1243C47.9871 48.8994 47.9784 51.6745 47.9972 54.4468C48.0014 54.6488 47.9607 54.8493 47.878 55.0339C47.7952 55.2185 47.6725 55.3825 47.5186 55.5143H11.3781C11.0192 55.2446 10.7107 54.9404 10.8967 54.4425C11.0826 53.9445 11.4934 53.8972 11.9546 53.8986C14.7768 53.9072 17.5985 53.9072 20.4197 53.8986C22.1911 53.8986 23.1583 52.943 23.1583 51.1852C23.1583 47.0871 23.1583 42.9895 23.1583 38.8924C23.1583 38.7216 23.1439 38.5509 23.1309 38.294C22.8815 38.4992 22.6913 38.6513 22.5082 38.8091C21.7083 39.5036 20.9011 40.1881 20.1185 40.8998C19.9626 41.0455 19.779 41.1587 19.5785 41.2326C19.3779 41.3065 19.1646 41.3398 18.951 41.3303C14.0446 41.3188 9.13773 41.3188 4.23039 41.3303C2.63337 41.3303 1.64604 42.3118 1.63595 43.9131C1.62538 46.3821 1.62538 48.8516 1.63595 51.3215C1.63595 52.91 2.6449 53.9044 4.23039 53.9044C5.52761 53.9044 6.81765 53.913 8.11199 53.9044C8.57466 53.9044 8.98975 53.9575 9.16848 54.4496C9.34721 54.9418 9.04742 55.2546 8.68276 55.5201L3.39444 55.5ZM34.1328 9.77091C30.6389 13.2879 26.4676 15.4187 21.6939 16.4332C21.0957 16.5609 20.8954 16.8292 20.8925 17.4591C20.8925 18.5683 20.8708 19.679 20.8925 20.7881C20.9141 21.8055 20.8665 22.8429 21.0481 23.8359C21.9764 28.9097 26.3812 32.1282 31.5398 31.5571C35.6995 31.0951 39.3029 27.5193 39.6301 23.3781C39.7886 21.3693 39.718 19.3389 39.7195 17.3185C39.7195 16.6714 39.4139 16.1319 38.9628 15.6497C38.0691 14.6955 37.1769 13.737 36.3467 12.7283C35.5784 11.7855 34.888 10.784 34.1328 9.77091ZM46.3338 50.6098H40.2801V53.8584H46.3338V50.6098ZM26.4431 32.5716C26.8193 34.4815 28.7277 35.8016 30.7153 35.6208C32.3873 35.4672 34.1039 33.9549 34.0996 32.596C31.5758 33.4842 29.0448 33.4813 26.4503 32.5716H26.4431ZM41.3294 19.2743V23.6766C41.8039 23.8428 42.3197 23.8506 42.799 23.6989C43.2783 23.5471 43.6949 23.2442 43.9859 22.8358C44.2841 22.4184 44.4391 21.9163 44.428 21.4042C44.4168 20.8921 44.24 20.3973 43.9239 19.9932C43.6288 19.6108 43.2171 19.3341 42.7506 19.2045C42.2841 19.0748 41.788 19.0993 41.3367 19.2743H41.3294ZM19.2767 23.6895V19.2413C18.2404 18.9213 17.2329 19.2528 16.6361 20.0664C16.3468 20.4674 16.1896 20.9479 16.1862 21.4416C16.1829 21.9354 16.3335 22.418 16.6174 22.8228C17.2257 23.668 18.2462 23.9995 19.2825 23.6895H19.2767Z" fill="#353435"/>
<path d="M7.12897 24.9839C8.18642 24.9858 9.21952 25.3 10.0976 25.8866C10.9757 26.4732 11.6594 27.3058 12.0621 28.2792C12.4647 29.2526 12.5684 30.323 12.3599 31.3551C12.1515 32.3872 11.6402 33.3345 10.8909 34.0773C10.1415 34.8201 9.18776 35.3249 8.15016 35.528C7.11257 35.7311 6.03777 35.6233 5.06173 35.2182C4.0857 34.8131 3.25227 34.129 2.66685 33.2523C2.08144 32.3756 1.77034 31.3457 1.7729 30.293C1.77175 29.5936 1.90966 28.9008 2.17871 28.2546C2.44775 27.6085 2.84259 27.0217 3.34048 26.5282C3.83837 26.0347 4.42947 25.6441 5.07968 25.3791C5.72989 25.114 6.42637 24.9797 7.12897 24.9839ZM3.93926 32.1699L9.00417 27.1362C7.69542 26.2337 5.74239 26.4489 4.50715 27.6643C3.27191 28.8796 3.03118 30.8526 3.945 32.1699H3.93926ZM5.22494 33.4469C6.56108 34.4141 8.63663 34.1256 9.87764 32.7955C11.1907 31.3864 11.0235 29.2082 10.2783 28.4248L5.22494 33.4469Z" fill="#353435"/>
<path d="M15.9399 47.7558C15.9399 48.7214 15.95 49.6886 15.9399 50.6543C15.9241 51.8209 14.954 52.4135 13.8874 51.9141C13.3513 51.6645 12.8122 51.4176 12.2919 51.1364C11.4934 50.7059 10.6862 50.4118 9.73925 50.4649C8.89029 50.5122 8.36707 49.9325 8.35554 49.0931C8.34112 48.1614 8.34112 47.2311 8.35554 46.3022C8.36851 45.5316 8.87586 44.9204 9.60951 44.9763C10.6977 45.0624 11.6 44.6535 12.5124 44.1829C12.9929 43.936 13.4767 43.7017 13.9638 43.4797C14.944 43.0364 15.8996 43.6232 15.9399 44.6965C15.9399 44.7324 15.9399 44.7683 15.9399 44.8027V47.7558ZM9.99434 48.8936C11.6778 48.5981 12.8295 49.812 14.2665 50.2482V45.1758C12.8079 45.6436 11.6533 46.8317 9.99434 46.5404V48.8936Z" fill="#353435"/>
<path d="M27.2128 26.4718C27.2445 24.8432 28.67 23.4915 30.3477 23.5015C32.0255 23.5116 33.4336 24.8876 33.4524 26.5148C33.4524 27.0142 33.1641 27.3758 32.7144 27.4088C32.2647 27.4418 31.9173 27.1778 31.8496 26.6554C31.7617 25.9609 31.4821 25.4286 30.7772 25.1976C30.5765 25.133 30.3642 25.1116 30.1545 25.1347C29.9448 25.1578 29.7424 25.225 29.5607 25.3317C29.379 25.4384 29.2221 25.5823 29.1004 25.7538C28.9786 25.9254 28.8948 26.1207 28.8545 26.3268C28.8343 26.4316 28.8357 26.5406 28.817 26.6454C28.7233 27.1562 28.3947 27.4432 27.945 27.4116C27.4953 27.3801 27.2027 27.0213 27.2128 26.4718Z" fill="#353435"/>
<path d="M24.3315 20.9877C23.8616 20.8944 23.5445 20.7007 23.4537 20.2515C23.4318 20.1504 23.4302 20.046 23.449 19.9442C23.4678 19.8425 23.5067 19.7454 23.5633 19.6587C23.62 19.572 23.6934 19.4973 23.7792 19.439C23.8651 19.3807 23.9617 19.3398 24.0634 19.3189C24.7841 19.1251 25.5163 18.9386 26.2442 18.7449C26.7026 18.6272 27.109 18.8152 27.2532 19.2285C27.3973 19.6675 27.2647 20.0578 26.8467 20.2114C26.0193 20.5141 25.169 20.7322 24.3315 20.9877Z" fill="#353435"/>
<path d="M36.3409 21.0063C35.4761 20.7365 34.5882 20.5055 33.7464 20.1841C33.3256 20.0234 33.2247 19.5958 33.4092 19.1796C33.4754 18.9999 33.6094 18.853 33.7828 18.7702C33.9562 18.6874 34.1552 18.6752 34.3374 18.7362C35.1013 18.9285 35.8681 19.1122 36.622 19.336C37.0544 19.4637 37.2561 19.7995 37.1769 20.2529C37.0947 20.6863 36.7906 20.8757 36.3409 21.0063Z" fill="#353435"/>
</g>
<defs>
<clipPath id="clip0_6_168">
<rect width="48" height="55" fill="white" transform="translate(0 0.5)"/>
</clipPath>
</defs>
</svg>
