<svg width="64" height="64" viewBox="0 0 64 64" fill="none" xmlns="http://www.w3.org/2000/svg">
<path d="M52.7677 0C53.6111 0.194035 54.4655 0.352079 55.2948 0.591493C56.5013 0.938878 56.7752 1.98103 55.8754 2.86358C54.1995 4.50661 52.4845 6.1121 50.94 7.5877V10.5389L53.935 13.2194H56.0115C57.761 11.5122 59.415 9.87856 61.1003 8.27465C61.3881 7.98402 61.7529 7.78154 62.1518 7.69098C62.4241 7.63952 62.7058 7.69783 62.9353 7.85319C63.1648 8.00855 63.3236 8.24836 63.377 8.52032C63.5894 9.33866 63.7462 10.1704 63.8465 11.0099C63.9216 11.6671 63.8543 12.3384 63.8621 13.0035C63.9169 17.3974 61.8013 20.6162 58.2883 22.9775C55.2635 25.0117 51.9024 25.4092 48.4442 24.5939L41.0067 32.0424L42.897 33.7855C43.0847 33.5007 43.2256 33.1831 43.4587 32.9593C44.044 32.3976 44.8013 32.3976 45.2911 32.9077C45.7809 33.4178 45.7605 34.1001 45.2238 34.6963C45.0037 34.9049 44.7683 35.0969 44.5196 35.2705L49.8713 40.184C53.5924 43.5984 57.2868 47.0409 61.0455 50.4115C62.9702 52.1328 63.9873 54.1123 63.9044 56.7881C63.8105 59.8519 62.363 61.9034 59.7733 63.2147C56.772 64.7325 53.2935 63.9971 50.9619 61.4668C45.9546 56.0422 40.9582 50.6175 35.9727 45.1929C35.7912 44.9958 35.6081 44.8017 35.533 44.7235C34.8602 45.0364 34.2812 45.3807 33.6662 45.57C33.4597 45.6342 33.0779 45.3744 32.8838 45.1647C32.3064 44.556 32.4817 44.0381 33.6756 42.6986L32.0999 40.9774L24.775 48.3006C24.8689 49.4492 25.0598 50.6854 25.0536 51.92C25.0254 57.5266 20.4484 62.8125 14.9278 63.742C12.8591 64.091 10.8374 64.0268 8.83602 63.3915C7.63895 63.0113 7.36979 62.002 8.2539 61.1116C9.77801 59.5781 11.3193 58.0634 12.8575 56.5455C13.0054 56.4128 13.1623 56.2905 13.327 56.1794V53.6506L10.4102 50.7667H8.10525L3.38114 55.3735C3.18867 55.5613 3.00871 55.7663 2.80529 55.9431C2.03384 56.6112 0.961956 56.375 0.733495 55.3844C0.420536 54.0591 0.10758 52.6883 0.131052 51.3457C0.248412 46.1224 2.7912 42.3747 7.46056 40.1105C9.99553 38.8821 12.6854 38.7021 15.4269 39.3281L15.7305 39.3938C15.7493 39.3938 15.7712 39.386 15.7305 39.3938L24.8814 30.2428L9.38995 14.8671C8.703 14.8671 7.77039 14.8515 6.83777 14.8671C6.55721 14.8868 6.277 14.8242 6.03155 14.6868C5.7861 14.5495 5.58608 14.3435 5.45604 14.0941C3.7645 11.2587 2.05888 8.43269 0.367338 5.59728C-0.0285556 4.93537 -0.00665152 4.38925 0.481565 3.88539C1.62543 2.7071 2.79433 1.55541 3.96167 0.400588C4.13318 0.254668 4.31576 0.122305 4.50779 0.0046942H5.25733C8.20071 1.7823 11.141 3.56617 14.0937 5.32501C14.6962 5.68334 14.9778 6.15591 14.9638 6.84912C14.945 7.76139 14.9638 8.67367 14.9638 9.58751L30.2988 24.802L39.2698 15.8326C39.2385 14.1379 39.0163 12.5278 39.2134 10.9692C39.7846 6.43132 42.2335 3.11708 46.3693 1.17986C47.6586 0.577409 49.1405 0.383375 50.5332 0.00156394L52.7677 0ZM11.6401 61.3307C11.6871 61.3667 11.7152 61.4073 11.7512 61.4152C11.8544 61.4363 11.959 61.4494 12.0642 61.4543C14.3817 61.545 16.5082 60.9629 18.3938 59.6C21.744 57.1808 23.4481 52.8025 22.1352 48.6151C21.9052 47.8812 22.0304 47.3132 22.5875 46.7577C30.6775 38.6865 38.7581 30.6059 46.8293 22.5159C47.3817 21.9635 47.9434 21.8399 48.6867 22.0543C54.3513 23.6832 59.9533 20.3893 61.3131 14.6449C61.5632 13.6264 61.6163 12.5695 61.4695 11.531C60.2177 12.7562 59.0112 13.9251 57.8267 15.1206C57.6389 15.3283 57.4076 15.4921 57.1493 15.6003C56.891 15.7085 56.6121 15.7584 56.3323 15.7466C55.3778 15.7184 54.4201 15.7184 53.4656 15.7466C53.1858 15.7574 52.9071 15.7051 52.6503 15.5935C52.3935 15.4819 52.1651 15.3139 51.9822 15.1019C50.9995 14.0581 49.962 13.0676 49.02 11.9848C48.7015 11.5905 48.5067 11.1109 48.4598 10.6062C48.3738 9.65793 48.4442 8.69714 48.4301 7.74105C48.421 7.46139 48.4721 7.18304 48.5801 6.92492C48.6881 6.66679 48.8504 6.43494 49.056 6.2451C50.1185 5.192 51.1591 4.11542 52.2059 3.04666C52.3249 2.9246 52.4266 2.78534 52.5925 2.58974C51.4281 2.42336 50.2419 2.50116 49.1092 2.8182C43.5996 4.26251 40.4371 9.75651 41.98 15.2474C42.2272 16.1268 42.0582 16.7277 41.4245 17.3599C33.4138 25.3393 25.4187 33.3312 17.4393 41.3357C16.8008 41.9757 16.1874 42.1353 15.3205 41.8975C9.86095 40.3906 4.49839 43.4075 2.93986 48.8436C2.59967 50.0203 2.50644 51.2547 2.66602 52.4692C2.71147 52.4448 2.75536 52.4177 2.79745 52.3879C3.9867 51.197 5.18221 50.0125 6.36207 48.8123C6.53627 48.6206 6.75046 48.4695 6.9895 48.3698C7.22853 48.27 7.48655 48.2239 7.74534 48.2349C8.72178 48.2568 9.69979 48.2615 10.6762 48.2349C10.956 48.2222 11.235 48.2729 11.4924 48.3832C11.7498 48.4935 11.979 48.6605 12.1628 48.8718C12.8075 49.5477 13.485 50.1924 14.1407 50.859C16.0795 52.8338 15.7383 52.1265 15.8619 54.9635C15.9292 56.4829 15.5318 57.6237 14.3488 58.6064C13.3724 59.42 12.5399 60.4137 11.6401 61.3307ZM37.2152 42.8113C37.2391 42.8512 37.2658 42.8893 37.295 42.9255C42.4985 48.5786 47.704 54.2296 52.9117 59.8785C53.4096 60.4443 54.0364 60.8818 54.7391 61.1542C55.4418 61.4265 56.1997 61.5257 56.9488 61.4433C59.0363 61.2368 60.5322 60.1336 61.2286 58.1494C61.9687 56.0401 61.421 54.1795 59.7811 52.6726C54.4326 47.7508 49.0784 42.8332 43.7185 37.9197C43.4305 37.6568 43.1426 37.3971 42.8891 37.1686L37.2152 42.8113ZM28.482 26.6939C28.3037 26.5061 28.1503 26.3402 27.9907 26.1806C23.0616 21.24 18.1293 16.3026 13.194 11.3683C12.6682 10.8456 12.4116 10.2917 12.4507 9.54996C12.4898 8.80824 12.4679 8.04775 12.4679 7.26535L5.21664 2.91209L2.99775 5.11376L7.34163 12.3666C8.11308 12.3666 8.85948 12.3963 9.60432 12.3588C10.3492 12.3212 10.9407 12.5951 11.4821 13.1412C16.3851 18.0797 21.2949 23.0098 26.2115 27.9316C26.3744 28.1272 26.52 28.3367 26.6465 28.5576L28.482 26.6939ZM35.3452 40.8115L40.8565 35.2987L39.2259 33.809L33.8493 39.1872L35.3452 40.8115Z" fill="white"/>
<path d="M24.5169 41.0322C23.3339 41.0478 22.722 40.051 23.1711 39.2311C23.3113 38.9998 23.483 38.7891 23.6813 38.6052C28.6886 33.5978 33.696 28.5904 38.7033 23.5831C38.8738 23.4032 39.0662 23.2455 39.276 23.1137C39.783 22.8179 40.2791 22.8946 40.7141 23.2701C40.9181 23.4503 41.0536 23.6955 41.0975 23.9642C41.1414 24.2328 41.0911 24.5084 40.9551 24.7442C40.8124 24.9737 40.6409 25.184 40.4449 25.3701C35.4376 30.3775 30.4302 35.3848 25.4229 40.3922C25.1425 40.6346 24.839 40.8489 24.5169 41.0322Z" fill="white"/>
<path d="M43.3899 19.4097C43.6322 19.4076 43.8697 19.4773 44.0724 19.6101C44.2751 19.743 44.4338 19.9329 44.5285 20.156C44.6233 20.379 44.6497 20.6251 44.6046 20.8632C44.5594 21.1013 44.4447 21.3206 44.2749 21.4935C44.1051 21.6664 43.8878 21.785 43.6506 21.8344C43.4133 21.8838 43.1668 21.8618 42.9421 21.771C42.7174 21.6803 42.5246 21.525 42.3882 21.3247C42.2518 21.1245 42.1778 20.8882 42.1756 20.6459C42.1763 20.3221 42.3038 20.0114 42.5308 19.7803C42.7577 19.5493 43.0661 19.4163 43.3899 19.4097Z" fill="white"/>
<path d="M20.6925 42.115C20.9346 42.1138 21.1716 42.1844 21.3735 42.3179C21.5755 42.4514 21.7333 42.6418 21.827 42.865C21.9207 43.0882 21.9461 43.3342 21.9 43.5718C21.8539 43.8095 21.7383 44.0281 21.5679 44.2C21.3974 44.372 21.1799 44.4895 20.9426 44.5378C20.7054 44.586 20.4592 44.5628 20.2352 44.4711C20.0111 44.3794 19.8193 44.2233 19.684 44.0226C19.5487 43.8218 19.476 43.5855 19.4751 43.3434C19.4779 43.0203 19.6067 42.7112 19.8341 42.4817C20.0615 42.2523 20.3695 42.1207 20.6925 42.115Z" fill="white"/>
<path d="M56.9082 55.3563C56.8878 56.5221 55.9255 57.1042 55.1243 56.6786C54.8922 56.5407 54.6814 56.3699 54.4984 56.1716C50.9515 52.6445 47.4046 49.1138 43.8577 45.5795C43.7377 45.4652 43.6238 45.3445 43.5166 45.218C43.0597 44.6515 43.0613 44.0022 43.5166 43.5218C43.972 43.0414 44.6808 43.0085 45.2598 43.4607C45.3871 43.5671 45.5078 43.681 45.6213 43.8019C49.1682 47.3352 52.7082 50.8706 56.2416 54.4081C56.5545 54.7273 56.7642 55.156 56.9082 55.3563Z" fill="white"/>
<g filter="url(#filter0_d_17_44767)">
<circle cx="32" cy="32.0001" r="14.65" fill="#FFC400"/>
</g>
<g clip-path="url(#clip0_17_44767)">
<path d="M21.0125 31.719C21.1881 30.8429 21.3707 29.7493 21.6341 28.6751C21.7734 28.1297 22.31 27.8758 22.8201 27.9944C23.3775 28.1241 23.6841 28.5719 23.6158 29.162C23.5865 29.3507 23.5441 29.5371 23.489 29.72C22.8973 31.8729 23.1579 34.1713 24.2165 36.1368C25.0906 37.7956 26.4672 39.1345 28.1487 39.9615C29.8302 40.7886 31.7303 41.0612 33.5762 40.7402C35.4387 40.4117 37.1475 39.4961 38.4534 38.1269C39.7594 36.7577 40.594 35.0067 40.8357 33.1293C41.6482 26.8645 35.8478 21.7924 29.7409 23.43C29.6406 23.4566 29.543 23.4928 29.4413 23.5151C28.7444 23.6784 28.2121 23.3952 28.0476 22.7772C27.8971 22.1997 28.2176 21.7128 28.8838 21.4938C34.8946 19.5409 41.6579 23.6226 42.7882 29.886C43.9031 36.074 39.9869 41.7069 33.7978 42.8187C28.1312 43.8496 22.3365 39.8237 21.3121 34.1295C21.1825 33.4138 21.131 32.6843 21.0125 31.719Z" fill="black"/>
<path d="M30.9882 26.9817C31.0607 25.6816 31.3199 25.2449 32.0181 25.2212C32.7163 25.1975 33.0313 25.6481 33.1233 26.8185C33.4257 26.9454 33.749 27.0626 34.057 27.2118C34.1816 27.2643 34.2946 27.341 34.3895 27.4375C34.4844 27.5339 34.5592 27.6482 34.6097 27.7737C34.6603 27.8992 34.6855 28.0335 34.6839 28.1689C34.6823 28.3042 34.654 28.4379 34.6005 28.5622C34.3789 29.0853 33.834 29.3127 33.2556 29.1202C33.0578 29.0532 32.871 28.9542 32.6731 28.8914C32.092 28.7045 31.5387 28.9486 31.3352 29.4689C31.1317 29.9892 31.3533 30.5444 31.9122 30.8081C32.2411 30.9629 32.5839 31.0871 32.9198 31.2266C34.1601 31.7483 34.8709 32.6857 34.9322 34.0235C34.9921 35.2943 34.4082 36.2624 33.3016 36.9041C33.2417 36.939 33.186 36.978 33.1386 37.0101C32.9992 38.3786 32.7525 38.7789 32.0655 38.7845C31.3784 38.7901 31.115 38.3841 30.9729 37.1789C30.6802 37.0575 30.3708 36.9459 30.0768 36.8036C29.5193 36.533 29.2963 35.9904 29.504 35.4617C29.7116 34.933 30.2844 34.6833 30.8865 34.8939C31.0983 34.9679 31.3046 35.0725 31.5192 35.1311C31.762 35.2096 32.0254 35.1943 32.2575 35.0882C32.4897 34.9821 32.6737 34.7929 32.7735 34.5577C32.8806 34.3156 32.888 34.0409 32.7941 33.7933C32.7002 33.5457 32.5125 33.3452 32.2717 33.2353C31.9331 33.0609 31.5749 32.9242 31.2209 32.7792C29.975 32.27 29.2587 31.3382 29.1862 30.0032C29.1165 28.71 29.7088 27.728 30.8405 27.0849C30.8767 27.064 30.9171 27.0277 30.9882 26.9817Z" fill="black"/>
<path d="M25.0387 26.0358C24.9006 26.0329 24.7643 26.0027 24.6378 25.947C24.5113 25.8912 24.3971 25.811 24.3017 25.711C24.2062 25.6109 24.1315 25.493 24.0817 25.3639C24.0319 25.2348 24.0081 25.0972 24.0116 24.9589C24.0168 24.6883 24.129 24.4308 24.3237 24.243C24.5184 24.0552 24.7796 23.9525 25.0499 23.9573C25.32 23.9597 25.5787 24.0663 25.7722 24.255C25.9656 24.4437 26.0788 24.6999 26.0882 24.9701C26.0861 25.2494 25.9753 25.517 25.7794 25.716C25.5834 25.9149 25.3178 26.0297 25.0387 26.0358Z" fill="black"/>
</g>
<defs>
<filter id="filter0_d_17_44767" x="5.35004" y="5.3501" width="53.2999" height="53.2999" filterUnits="userSpaceOnUse" color-interpolation-filters="sRGB">
<feFlood flood-opacity="0" result="BackgroundImageFix"/>
<feColorMatrix in="SourceAlpha" type="matrix" values="0 0 0 0 0 0 0 0 0 0 0 0 0 0 0 0 0 0 127 0" result="hardAlpha"/>
<feOffset/>
<feGaussianBlur stdDeviation="6"/>
<feComposite in2="hardAlpha" operator="out"/>
<feColorMatrix type="matrix" values="0 0 0 0 1 0 0 0 0 0.768627 0 0 0 0 0 0 0 0 0.6 0"/>
<feBlend mode="normal" in2="BackgroundImageFix" result="effect1_dropShadow_17_44767"/>
<feBlend mode="normal" in="SourceGraphic" in2="effect1_dropShadow_17_44767" result="shape"/>
</filter>
<clipPath id="clip0_17_44767">
<rect width="21.9749" height="21.9749" fill="white" transform="translate(21.0125 21.0126)"/>
</clipPath>
</defs>
</svg>
