<svg width="79" height="79" viewBox="0 0 79 79" fill="none" xmlns="http://www.w3.org/2000/svg">
<rect width="79" height="79" rx="8" fill="#292929"/>
<g clip-path="url(#clip0_38_860)">
<path d="M45.6741 14C46.2308 14.1104 46.7928 14.1982 47.3441 14.3353C48.4399 14.6014 49.4195 15.1017 50.1342 15.8415C51.1219 15.6805 52.0258 15.4663 52.9392 15.3944C55.9982 15.1536 58.1371 16.572 59.5706 19.132C60.8407 21.394 61.1434 23.8583 60.7732 26.3718C60.5286 28.0337 60.0408 29.661 59.6328 31.428C61.4393 34.157 58.9234 37.8614 55.3659 37.0164C54.7541 39.0497 53.5226 40.8488 51.838 42.1698C52.8581 42.6794 53.8823 43.1371 54.8484 43.692C55.5415 44.0912 56.1725 44.6021 56.8048 45.0958C57.3994 45.5601 57.4993 46.0112 57.1561 46.3904C56.813 46.7696 56.4022 46.7257 55.805 46.2121C54.4669 45.0655 52.9096 44.1938 51.2246 43.6481C51.1287 43.6175 51.0327 43.5882 50.9354 43.5603C50.8733 43.543 50.8084 43.5297 50.6963 43.5017C50.4112 45.1264 49.6154 46.4197 48.1913 47.2939C47.2254 47.8929 46.0844 48.1579 44.9485 48.047C43.0015 47.878 40.71 46.5501 40.1573 43.5643C37.6172 43.6468 32.7098 47.6332 31.8613 50.3183H34.8446C35.8945 49.4148 36.9808 48.4728 38.0752 47.5387C38.6292 47.0664 39.2791 47.0145 39.7588 47.4842C40.0167 47.732 40.1767 48.0622 40.21 48.4156C40.2384 52.748 40.2506 57.0803 40.2006 61.4127C40.1925 62.0927 39.8655 62.7686 39.6831 63.4552H53.2108V56.0145C53.2108 55.8988 53.2108 55.783 53.2108 55.6659C53.2189 55.0006 53.4959 54.6427 53.9823 54.6533C54.4687 54.664 54.7281 55.0232 54.7308 55.6939C54.7308 56.5734 54.7308 57.4529 54.7308 58.3338V58.8966H60.3813C60.4002 58.8753 60.4408 58.8527 60.4421 58.8274C60.6651 55.2109 60.2894 51.7314 58.0614 48.6684C57.7412 48.228 57.8087 47.7835 58.1803 47.5294C58.5519 47.2752 58.991 47.3724 59.3058 47.8181C60.8907 50.0801 61.8554 52.5803 61.9405 55.3319C62.0311 58.2512 61.9824 61.1745 61.9851 64.0952C61.9851 64.7472 61.7068 64.9827 60.9921 64.9827H28.3294C28.1613 64.9938 27.9925 64.9889 27.8254 64.968C27.4092 64.8869 27.1633 64.6261 27.1796 64.2043C27.1944 63.8051 27.4376 63.5656 27.8362 63.4991C27.987 63.4835 28.1388 63.48 28.2902 63.4884H36.1782C37.7996 63.4884 38.7116 62.5916 38.713 60.9896C38.713 57.1753 38.713 53.3574 38.713 49.5359C38.713 49.3922 38.7008 49.2472 38.69 49.0037C37.9469 49.6397 37.2159 50.1733 36.6025 50.8146C35.8242 51.6303 34.9433 51.8711 33.8178 51.8551C29.5873 51.7939 25.3569 51.8299 21.1251 51.8312C19.4199 51.8312 18.5403 52.6934 18.539 54.3699C18.539 56.5778 18.539 58.7853 18.539 60.9923C18.539 62.5969 19.4483 63.4871 21.0737 63.4911C22.2897 63.4911 23.5058 63.4911 24.7137 63.4911C25.2974 63.4911 25.65 63.7812 25.646 64.2389C25.6419 64.6966 25.2934 64.9813 24.7002 64.9827C23.4031 64.9827 22.1046 64.9947 20.8075 64.9827C18.7119 64.9587 17.0689 63.4139 17.0243 61.3462C16.9784 58.8908 16.9784 56.4346 17.0243 53.9774C17.0622 51.8831 18.7092 50.3476 20.8454 50.3409C23.7274 50.3303 26.6094 50.3409 29.4927 50.3409H30.0778C31.9072 46.421 34.8771 43.7146 39.0697 42.2243C37.3482 40.8889 36.0889 39.0612 35.4648 36.9925C33.4475 37.3491 31.8491 36.7556 30.983 34.8848C30.2629 33.3321 30.6628 31.907 31.8208 30.7188C31.3195 29.5984 30.7763 28.5153 30.3439 27.3923C29.6465 25.5359 29.2919 23.5717 29.2968 21.5923C29.2968 20.786 29.6265 20.4906 30.4196 20.6449C32.1829 20.9869 33.7272 20.6276 35.0135 19.3449C35.3567 19.003 35.7242 18.6797 36.0944 18.3656C36.4647 18.0516 36.8889 18.0529 37.1835 18.3404C37.2584 18.4143 37.3167 18.5028 37.3548 18.6003C37.3928 18.6977 37.4097 18.802 37.4043 18.9063C37.399 19.0106 37.3715 19.1126 37.3237 19.2058C37.2759 19.299 37.2088 19.3813 37.1267 19.4474C36.4011 20.0914 35.6702 20.7314 34.9014 21.3222C34.0339 21.9875 33.0098 22.2363 31.9194 22.2536C31.5843 22.2536 31.2438 22.2536 30.8493 22.2536C30.9736 25.0052 31.7951 27.5174 33.1786 29.8459L35.0365 29.7022C35.0486 29.5825 35.0581 29.4361 35.0784 29.2924C35.2216 28.2772 35.8715 27.5493 36.8916 27.3338C39.7561 26.7323 42.4516 25.7184 44.8431 24.0459C45.9497 23.2715 46.9577 22.3521 47.9575 21.4419C48.7682 20.6995 49.5789 20.7141 50.1991 21.6096C51.5651 23.5696 53.0041 25.4683 54.7416 27.1315C55.4645 27.8261 55.7253 28.7282 55.7766 29.637L58.3884 30.0761C58.6302 29.1181 58.9613 28.0603 59.1599 26.9798C59.5652 24.7511 59.4531 22.5516 58.533 20.4373C58.5059 20.3775 58.4803 20.3163 58.4505 20.2564C56.8292 16.874 53.885 16.1316 50.5544 17.4355C49.7721 17.7416 49.6721 17.7403 49.1749 17.0763C48.6466 16.3724 47.8805 16.0185 47.0563 15.8069C44.4324 15.1336 41.9787 15.4317 39.7979 17.1375C39.6628 17.24 39.5277 17.3437 39.3926 17.4355C39.0007 17.6923 38.5603 17.6391 38.3117 17.3145C38.2494 17.2347 38.2042 17.1433 38.1788 17.0458C38.1534 16.9483 38.1483 16.8467 38.1638 16.7473C38.1793 16.6478 38.2152 16.5524 38.2692 16.467C38.3231 16.3815 38.3941 16.3077 38.4779 16.25C39.852 15.1749 41.3342 14.3153 43.1136 14.0692C43.1928 14.0495 43.2694 14.0209 43.342 13.984L45.6741 14ZM48.9979 22.5942C45.7227 25.8595 41.7949 27.8381 37.3024 28.7761C36.793 28.8826 36.5822 29.2086 36.5863 29.7075C36.5863 30.6868 36.5687 31.6662 36.5863 32.6441C36.6106 33.6541 36.5606 34.6839 36.7443 35.6686C37.6172 40.3482 41.7517 43.3208 46.555 42.7925C50.4869 42.3601 53.8377 39.0576 54.1552 35.1629C54.3025 33.348 54.2336 31.5158 54.2431 29.6916C54.2431 29.0343 53.9634 28.494 53.4986 28.0057C52.7109 27.1887 51.9312 26.3598 51.2016 25.4869C50.4504 24.5675 49.7559 23.5895 48.9979 22.5942ZM54.7606 63.4711H60.4354V60.4654H54.7606V63.4711ZM49.0047 43.7425C46.6896 44.5777 44.1494 44.58 41.8328 43.7492C42.0125 45.2967 43.7163 46.5873 45.4809 46.5714C47.1779 46.5567 48.8628 45.2368 49.0047 43.7425ZM55.7604 35.481C56.2035 35.6364 56.6859 35.6452 57.1346 35.5062C57.5833 35.3671 57.9736 35.0878 58.2465 34.7105C58.5222 34.3312 58.6687 33.8756 58.6648 33.4091C58.6609 32.9426 58.5069 32.4894 58.2249 32.1146C57.9516 31.7445 57.5619 31.4737 57.1163 31.344C56.6707 31.2143 56.1941 31.2331 55.7604 31.3974V35.481ZM35.0973 31.3774C34.1001 31.0687 33.1341 31.3934 32.5814 32.1758C32.3086 32.5675 32.171 33.0353 32.189 33.51C32.207 33.9847 32.3797 34.4411 32.6814 34.8117C32.9604 35.1604 33.3454 35.4121 33.7801 35.5299C34.2148 35.6477 34.6764 35.6254 35.0973 35.4663V31.3774Z" fill="#EF6C1B"/>
<path d="M28.6929 41.6296C28.6931 42.606 28.3992 43.5604 27.8484 44.3722C27.2976 45.1839 26.5146 45.8165 25.5985 46.1898C24.6824 46.5632 23.6745 46.6604 22.7022 46.4693C21.73 46.2783 20.8372 45.8074 20.1368 45.1164C19.4364 44.4254 18.96 43.5453 18.7678 42.5875C18.5756 41.6297 18.6763 40.6372 19.0571 39.7358C19.4379 38.8344 20.0817 38.0645 20.9071 37.5236C21.7324 36.9827 22.7022 36.695 23.6936 36.6972C25.02 36.7007 26.291 37.2218 27.228 38.1463C28.165 39.0708 28.6918 40.3234 28.6929 41.6296ZM25.4731 38.7143C24.257 37.8228 22.3033 38.065 21.1494 39.2772C20.0455 40.4308 19.8698 42.3588 20.744 43.3674L25.4731 38.7143ZM26.6958 39.9238L21.952 44.5809C23.2356 45.3912 24.9988 45.1863 26.1527 44.0486C27.3066 42.911 27.5106 41.1892 26.6958 39.9238Z" fill="#EF6C1B"/>
<path d="M31.9478 57.8082C31.9478 58.7051 31.9559 59.6005 31.9478 60.496C31.9342 61.5791 31.0263 62.1326 30.0291 61.6723C29.5103 61.4328 28.9901 61.1959 28.4888 60.9285C27.7538 60.5293 27.0026 60.2791 26.1405 60.3257C25.342 60.3696 24.8502 59.8361 24.838 59.059C24.8245 58.195 24.8245 57.3323 24.838 56.471C24.8502 55.7552 25.3217 55.1843 26.0081 55.2376C27.0471 55.3187 27.8997 54.9209 28.7739 54.4778C29.1914 54.2649 29.617 54.0666 30.044 53.871C31.0182 53.424 31.9194 53.9708 31.9478 55.0207C31.9478 55.0539 31.9478 55.0872 31.9478 55.1205V57.8082ZM30.398 60.1261V55.4185C29.0239 55.8337 27.9362 56.97 26.3891 56.6879V58.8687C27.9605 58.596 29.036 59.7349 30.398 60.1261Z" fill="#EF6C1B"/>
<path d="M45.4241 35.3186C46.1725 35.3179 46.893 35.5986 47.4384 36.1033C47.9838 36.608 48.313 37.2987 48.3588 38.0343C48.3912 38.5346 48.1372 38.8832 47.7021 38.9378C47.267 38.9924 46.9509 38.7316 46.8536 38.2233C46.8265 38.0269 46.7789 37.8339 46.7117 37.6471C46.5946 37.3791 46.3938 37.1547 46.1385 37.0066C45.8831 36.8585 45.5865 36.7944 45.2917 36.8235C44.9803 36.8583 44.6893 36.9932 44.4637 37.2073C44.238 37.4213 44.0902 37.7026 44.0432 38.0077C44.0081 38.2166 44 38.5067 43.8649 38.6052C43.6283 38.7872 43.3369 38.8864 43.0366 38.8872C42.6596 38.8553 42.5178 38.524 42.5124 38.1514C42.4853 36.6412 43.8338 35.3226 45.4241 35.3186Z" fill="#EF6C1B"/>
<path d="M39.8087 32.9928C39.3696 32.9036 39.0723 32.7267 38.998 32.3036C38.9781 32.2097 38.9773 32.1129 38.9955 32.0187C39.0138 31.9245 39.0508 31.8348 39.1044 31.7548C39.1581 31.6747 39.2272 31.606 39.308 31.5524C39.3888 31.4988 39.4795 31.4615 39.575 31.4427C40.2559 31.2653 40.9374 31.0878 41.6193 30.9104C42.0476 30.8013 42.4299 30.9796 42.5542 31.3642C42.6894 31.7727 42.5542 32.1332 42.1678 32.2729C41.3909 32.555 40.5937 32.7586 39.8087 32.9928Z" fill="#EF6C1B"/>
<path d="M51.0057 32.9874C50.2355 32.7586 49.4559 32.5563 48.6993 32.2902C48.2858 32.1438 48.1494 31.718 48.3034 31.3402C48.4574 30.9623 48.8249 30.8079 49.2614 30.9224C49.9252 31.0998 50.59 31.2714 51.2556 31.4373C51.4485 31.4733 51.6194 31.5821 51.732 31.7404C51.8446 31.8987 51.8899 32.0941 51.8583 32.2849C51.8029 32.6774 51.4637 32.9355 51.0057 32.9874Z" fill="#EF6C1B"/>
</g>
<defs>
<clipPath id="clip0_38_860">
<rect width="45" height="51" fill="white" transform="translate(17 14)"/>
</clipPath>
</defs>
</svg>
