<svg width="79" height="79" viewBox="0 0 79 79" fill="none" xmlns="http://www.w3.org/2000/svg">
<path d="M0 0H63C71.8366 0 79 7.16344 79 16V79H0V0Z" fill="#BE7D5B"/>
<g clip-path="url(#clip0_68_103)">
<path d="M22 19.8601C22.4964 18.4137 23.5338 17.9302 25.0076 17.9358C34.5796 17.9681 44.1516 17.9527 53.7223 17.9527H54.4041C55.9379 14.0577 58.6596 11.8734 62.9304 12.0055C64.6552 12.0576 66.1708 12.7407 67.5122 13.8118C68.8535 14.8828 69.7529 16.28 70.3008 17.9527H73.8759C74.7292 17.9527 75.5825 17.9527 76.4359 17.9527C77.9278 17.9639 78.9902 18.9478 79.0042 20.3225C79.0181 21.6972 77.9668 22.7219 76.4818 22.7416C74.6455 22.7669 72.8078 22.7486 70.9715 22.7486H70.3496C68.8047 26.6843 66.0272 28.8756 61.7536 28.6859C58.9482 28.5622 55.7817 26.6829 54.4473 22.7486H53.7585C44.2046 22.7486 34.6563 22.7331 25.0982 22.7655C23.6174 22.7655 22.5424 22.3241 22.007 20.8707L22 19.8601ZM62.3908 23.9209C63.3268 23.915 64.223 23.5387 64.8862 22.8729C65.5495 22.2072 65.9267 21.3054 65.9366 20.3619C65.9575 18.4151 64.2968 16.7424 62.3601 16.7593C61.4171 16.7634 60.5144 17.145 59.8505 17.8201C59.1866 18.4951 58.8159 19.4085 58.8199 20.3591C58.824 21.3097 59.2025 22.2197 59.8722 22.889C60.5419 23.5583 61.4478 23.932 62.3908 23.9279V23.9209Z" fill="#F2F2F1"/>
<path d="M22 58.1306C22.2259 57.7524 22.403 57.3322 22.6846 57.0061C23.2423 56.3609 24.0092 56.2513 24.8137 56.2513C34.442 56.2513 44.0694 56.2513 53.6958 56.2513H54.418C55.8737 52.4688 58.5104 50.2367 62.579 50.3168C66.4525 50.3927 68.9344 52.6234 70.3357 56.2513H70.9101C72.7464 56.2513 74.5828 56.2358 76.4191 56.2513C78.2554 56.2667 79.3946 57.7693 78.8759 59.3886C78.5496 60.4062 77.6545 61.0359 76.4832 61.0402C74.4433 61.0486 72.4034 61.0402 70.3482 61.0402C68.7726 65.004 65.9923 67.1967 61.6476 66.976C59.2564 66.8552 55.8654 65.2359 54.418 61.0402H53.7739C44.1837 61.0402 34.5935 61.0247 25.0034 61.057C23.5254 61.057 22.4936 60.5777 21.9958 59.1313L22 58.1306ZM58.8297 58.6619C58.8329 59.6067 59.2045 60.5123 59.8641 61.1834C60.5238 61.8545 61.4188 62.2372 62.356 62.249C64.2885 62.2715 65.9366 60.6157 65.9366 58.6506C65.9345 57.7 65.558 56.7891 64.8897 56.1184C64.2215 55.4477 63.3164 55.072 62.3734 55.0741C61.4304 55.0761 60.5268 55.4557 59.8615 56.1293C59.1961 56.803 58.8235 57.7155 58.8255 58.6661L58.8297 58.6619Z" fill="#F2F2F1"/>
<path d="M22 39.0565C22.4685 37.5919 23.4919 37.0563 24.9783 37.1041C26.8662 37.166 28.7569 37.1196 30.6616 37.1196C32.0935 33.3638 34.7051 31.1134 38.7486 31.164C42.6681 31.2132 45.189 33.4524 46.5833 37.1196H47.2931C56.9009 37.1196 66.5087 37.1196 76.1165 37.1196C76.5227 37.1055 76.9288 37.1466 77.324 37.2419C77.8546 37.3974 78.3127 37.7387 78.6161 38.2042C78.9195 38.6698 79.0482 39.2292 78.9791 39.7818C78.9141 40.3335 78.6588 40.8447 78.2579 41.226C77.857 41.6072 77.336 41.8344 76.7858 41.8677C76.5265 41.8846 76.2671 41.8846 76.0078 41.8846H46.5875C45.1862 45.5687 42.6235 47.8388 38.6329 47.843C34.666 47.843 32.0949 45.6221 30.656 41.8846H30.0982C28.3916 41.8846 26.6835 41.8382 24.9797 41.9001C23.4933 41.9521 22.4699 41.4123 22.0014 39.9477L22 39.0565ZM42.1717 39.5218C42.1747 38.8119 41.9685 38.1172 41.5791 37.5258C41.1897 36.9344 40.6347 36.4729 39.9847 36.2001C39.3346 35.9272 38.6188 35.8552 37.9281 35.9933C37.2374 36.1313 36.603 36.4732 36.1053 36.9754C35.6077 37.4776 35.2694 38.1176 35.1333 38.814C34.9971 39.5105 35.0694 40.232 35.3408 40.887C35.6123 41.542 36.0707 42.1009 36.6578 42.4927C37.2449 42.8846 37.9343 43.0917 38.6385 43.0878C39.5749 43.0801 40.4706 42.701 41.1318 42.0325C41.793 41.3641 42.1666 40.4601 42.1717 39.5162V39.5218Z" fill="#F2F2F1"/>
</g>
<defs>
<clipPath id="clip0_68_103">
<rect width="57" height="55" fill="white" transform="translate(22 12)"/>
</clipPath>
</defs>
</svg>
