<svg width="67" height="72" viewBox="0 0 67 72" fill="none" xmlns="http://www.w3.org/2000/svg">
<path d="M63.7362 66.7206C63.3088 67.1929 62.8963 67.6835 62.4473 68.1342C61.3197 69.2668 60.1772 70.3827 59.0347 71.4986C58.401 72.1189 57.631 72.1638 57.1155 71.6183C56.5999 71.0728 56.6598 70.3777 57.2818 69.749C57.9587 69.0589 58.6389 68.3704 59.3673 67.6303H46.7529C46.7529 68.3171 46.7529 68.9923 46.7529 69.6675C46.7602 69.9369 46.7345 70.2061 46.6764 70.4692C46.5957 70.7287 46.4303 70.9537 46.2066 71.1081C45.9828 71.2625 45.7137 71.3374 45.4424 71.3206C45.1477 71.3132 44.8666 71.1951 44.6549 70.9899C44.4432 70.7847 44.3165 70.5074 44.2999 70.213C44.255 69.3682 44.2882 68.5184 44.2882 67.632H36.8044C36.8044 68.2423 36.8044 68.8526 36.8044 69.4613C36.8118 69.751 36.7957 70.0407 36.7562 70.3278C36.7059 70.6176 36.5512 70.8791 36.3215 71.0629C36.0918 71.2467 35.8028 71.3401 35.5089 71.3256C35.2122 71.3262 34.9264 71.2134 34.71 71.0103C34.4937 70.8072 34.363 70.5292 34.3448 70.233C34.2965 69.3865 34.3315 68.5367 34.3315 67.6419H26.8177C26.8177 68.5067 26.8427 69.3516 26.8077 70.1964C26.7828 70.8117 26.392 71.1942 25.8099 71.3007C25.5536 71.3644 25.283 71.3346 25.0468 71.2166C24.8105 71.0986 24.6241 70.9002 24.521 70.6571C24.4065 70.37 24.35 70.0631 24.3547 69.754C24.3331 69.0555 24.3547 68.3571 24.3547 67.627H16.8709C16.8709 68.4934 16.8942 69.3366 16.8709 70.1781C16.8476 70.7934 16.4685 71.176 15.8731 71.299C15.6281 71.3642 15.3681 71.3426 15.1372 71.2381C14.9062 71.1335 14.7185 70.9524 14.6058 70.7253C14.4722 70.4249 14.4047 70.0994 14.4079 69.7707C14.3797 69.0705 14.3979 68.3687 14.3979 67.632H6.91746C6.91746 68.4202 6.91746 69.1969 6.91746 69.9752C6.92554 70.2865 6.91609 70.598 6.88918 70.9082C6.86379 71.2116 6.72311 71.4938 6.49607 71.6967C6.26903 71.8997 5.97288 72.0079 5.6685 71.9992C5.36355 72.0105 5.06632 71.9017 4.84082 71.6961C4.61531 71.4905 4.47956 71.2046 4.46277 70.8999C4.40955 69.9902 4.43617 69.0705 4.42619 68.1641C4.42619 67.9978 4.40955 67.8315 4.39625 67.5954C3.43167 67.5954 2.48373 67.5954 1.53578 67.5954C1.28848 67.6021 1.04179 67.5678 0.805688 67.4939C0.541036 67.3979 0.318328 67.2123 0.176171 66.9693C0.0340138 66.7263 -0.0186385 66.4412 0.0273638 66.1635C0.0741106 65.8732 0.222936 65.6092 0.447028 65.419C0.671121 65.2287 0.955776 65.1247 1.24973 65.1257C2.28084 65.1041 3.31526 65.1257 4.38794 65.1257V57.6319C3.593 57.6319 2.79306 57.6469 1.99312 57.6319C1.19319 57.617 0.680967 57.0698 0.710902 56.3364C0.737511 55.6562 1.23976 55.1723 1.97982 55.1523C2.76313 55.1323 3.54975 55.1523 4.38128 55.1523V47.6735C3.61793 47.6735 2.88452 47.6735 2.13448 47.6735C1.26469 47.6735 0.722542 47.1962 0.709238 46.4528C0.695933 45.6828 1.24639 45.1939 2.14944 45.1855C2.87287 45.1855 3.59631 45.1855 4.37296 45.1855V37.715C3.63456 37.715 2.89283 37.715 2.1511 37.715C1.24806 37.715 0.697596 37.2161 0.709238 36.4494C0.722542 35.706 1.26303 35.2371 2.13281 35.2287C2.87454 35.2287 3.61627 35.2287 4.37962 35.2287V25.3252C3.59465 26.1102 2.90614 26.8219 2.19767 27.5038C1.57402 28.1075 0.710899 28.0593 0.250229 27.419C0.0737511 27.1953 -0.0145837 26.9147 0.00196707 26.6303C0.0185178 26.3458 0.138791 26.0774 0.340021 25.8757C1.80796 24.3534 3.29197 22.8461 4.79206 21.3538C5.31758 20.8299 6.04268 20.8382 6.57486 21.3687C8.05942 22.8467 9.52902 24.3401 10.9837 25.8491C11.0997 25.9623 11.1915 26.098 11.2534 26.2479C11.3153 26.3978 11.346 26.5587 11.3437 26.7209C11.3414 26.883 11.306 27.043 11.2398 27.191C11.1736 27.3391 11.078 27.4721 10.9587 27.582C10.7256 27.8093 10.4122 27.9356 10.0865 27.9335C9.76089 27.9313 9.44922 27.8008 9.21914 27.5703C8.48407 26.8735 7.77395 26.1484 6.98565 25.3684V35.1805H12.1029C12.1711 35.0475 12.2526 34.8612 12.3557 34.6816C13.1307 33.3761 14.2715 32.6859 15.7966 32.7458C17.2933 32.8123 18.4725 33.5457 18.993 34.9361C19.3672 35.9339 19.9393 36.7505 20.5846 37.5537C20.9405 37.9978 21.0386 38.4817 20.7625 38.9989C20.6772 39.1606 20.5567 39.3011 20.4101 39.4102C20.2634 39.5193 20.0942 39.5943 19.9148 39.6295C19.7354 39.6647 19.5504 39.6594 19.3734 39.6139C19.1963 39.5684 19.0317 39.4838 18.8915 39.3665C18.7555 39.2413 18.6272 39.108 18.5074 38.9673L16.8726 40.0932C16.8726 40.7734 16.8726 41.5567 16.8726 42.3417C16.8801 42.6314 16.8701 42.9213 16.8427 43.2098C16.8147 43.513 16.6735 43.7944 16.4473 43.9982C16.221 44.2019 15.9264 44.3129 15.6219 44.3091C15.3167 44.3165 15.0204 44.2053 14.7955 43.9987C14.5706 43.7921 14.4347 43.5063 14.4162 43.2015C14.3647 42.3118 14.3913 41.4187 14.3813 40.5273C14.3813 40.361 14.3647 40.1947 14.353 39.9934C13.8432 39.7959 13.3802 39.4941 12.9938 39.1071C12.6075 38.7202 12.3063 38.2568 12.1096 37.7466H6.95404V65.0559H14.3846C14.3846 64.1911 14.3846 63.3462 14.3846 62.4997C14.3777 62.2305 14.3882 61.961 14.4162 61.6931C14.4505 61.4018 14.5895 61.1329 14.8073 60.9365C15.0252 60.74 15.307 60.6295 15.6003 60.6255C15.9055 60.6084 16.2052 60.7111 16.4357 60.9118C16.6662 61.1125 16.8092 61.3952 16.8343 61.6998C16.8925 62.5313 16.8659 63.3629 16.8742 64.1944C16.8742 64.4771 16.8742 64.7615 16.8742 65.0775H29.3223V63.14C29.3223 62.8074 29.3223 62.4748 29.3223 62.1422C29.3389 61.1809 29.8113 60.6105 30.5813 60.6205C31.3513 60.6304 31.8019 61.1942 31.8119 62.1704C31.8119 62.9172 31.8119 63.6672 31.8119 64.4106V65.0609H44.2583C44.2583 64.2775 44.2583 63.4992 44.2583 62.7209C44.2583 62.4099 44.2467 62.0973 44.2766 61.7879C44.292 61.4744 44.4272 61.1787 44.6544 60.962C44.8816 60.7454 45.1834 60.6243 45.4973 60.6238C45.6541 60.6198 45.8102 60.6468 45.9566 60.7031C46.103 60.7595 46.2368 60.8441 46.3505 60.9522C46.4642 61.0604 46.5555 61.1898 46.6191 61.3332C46.6827 61.4766 46.7174 61.6311 46.7213 61.7879C46.7679 62.6976 46.7413 63.6173 46.7496 64.5237C46.7496 64.69 46.7646 64.8563 46.7729 65.0625H59.4122L58.1233 63.7786C57.7907 63.446 57.4281 63.1217 57.1122 62.7658C56.8931 62.5374 56.7708 62.2332 56.7707 61.9167C56.7706 61.6003 56.8928 61.296 57.1117 61.0675C57.3306 60.8389 57.6293 60.7037 57.9455 60.6902C58.2616 60.6766 58.5708 60.7857 58.8085 60.9947C60.3651 62.4914 61.8902 64.0131 63.4218 65.5315C63.5414 65.671 63.6493 65.82 63.7445 65.9772L63.7362 66.7206ZM16.851 36.4528C16.851 36.1268 16.7215 35.8142 16.491 35.5837C16.2605 35.3532 15.9479 35.2238 15.6219 35.2238C15.296 35.2238 14.9834 35.3532 14.7529 35.5837C14.5224 35.8142 14.3929 36.1268 14.3929 36.4528C14.3929 36.6142 14.4247 36.774 14.4865 36.9231C14.5483 37.0722 14.6388 37.2077 14.7529 37.3218C14.867 37.4359 15.0025 37.5265 15.1516 37.5882C15.3007 37.65 15.4606 37.6818 15.6219 37.6818C15.7833 37.6818 15.9432 37.65 16.0923 37.5882C16.2414 37.5265 16.3769 37.4359 16.491 37.3218C16.6051 37.2077 16.6956 37.0722 16.7574 36.9231C16.8192 36.774 16.851 36.6142 16.851 36.4528Z" fill="white"/>
<path d="M63.7362 49.2934C63.0709 50.268 62.6369 50.3794 61.5526 49.8389C58.9415 48.5367 56.3322 47.2312 53.6896 45.9124C52.2349 47.0865 50.7847 48.2607 49.339 49.4348C49.2466 49.5155 49.1797 49.6212 49.1461 49.7391C48.8135 51.0363 47.9969 51.9144 46.723 52.4699C46.723 53.3962 46.7529 54.3292 46.7113 55.2572C46.6946 55.53 46.5863 55.7893 46.4039 55.9929C46.2215 56.1965 45.9757 56.3327 45.7064 56.3792C45.437 56.4258 45.1598 56.3801 44.9196 56.2495C44.6794 56.1189 44.4904 55.9111 44.383 55.6596C44.2866 55.3876 44.2426 55.0999 44.2533 54.8115C44.2367 54.0265 44.2533 53.2415 44.2533 52.4516C43.7385 52.2539 43.2704 51.9511 42.879 51.5626C42.4876 51.174 42.1814 50.7082 41.9799 50.1948H34.0837C33.8815 50.712 33.5721 51.1806 33.176 51.5698C32.7799 51.9591 32.306 52.2601 31.7853 52.4532C31.7853 53.3862 31.8152 54.3175 31.7753 55.2455C31.7571 55.5153 31.6494 55.7713 31.4694 55.9731C31.2893 56.1748 31.0471 56.3108 30.7811 56.3594C30.5151 56.4081 30.2405 56.3667 30.0007 56.2418C29.7609 56.1168 29.5696 55.9155 29.457 55.6696C29.3584 55.398 29.3121 55.1102 29.3206 54.8215C29.304 54.0365 29.3206 53.2515 29.3206 52.4616C27.9802 51.8695 27.2086 50.8983 26.841 49.5046C26.7013 48.9691 26.1059 48.5683 25.8132 48.0511C25.6153 47.7002 25.4357 47.2196 25.5072 46.8587C25.7068 45.8342 26.7662 45.643 27.7341 46.4413C28.7153 45.4883 29.8711 44.9811 31.2698 45.2605C32.6401 45.5332 33.5482 46.3747 34.097 47.6486H41.935C43.1224 44.9029 46.5384 44.2211 48.6388 46.7988C49.9111 45.771 51.2 44.7649 52.4489 43.7072C53.0875 43.165 53.6779 43.0902 54.4313 43.476C57.1953 44.8913 59.9859 46.2533 62.7466 47.6686C63.1291 47.8648 63.4118 48.249 63.7445 48.545L63.7362 49.2934ZM30.533 47.6736C30.2864 47.676 30.0461 47.7519 29.8429 47.8916C29.6396 48.0312 29.4825 48.2283 29.3918 48.4576C29.301 48.6869 29.2807 48.9381 29.3333 49.179C29.3859 49.4199 29.5092 49.6397 29.6873 49.8103C29.8655 49.9808 30.0904 50.0944 30.3334 50.1366C30.5764 50.1787 30.8264 50.1475 31.0516 50.0469C31.2767 49.9462 31.4668 49.7808 31.5975 49.5716C31.7282 49.3625 31.7936 49.1191 31.7853 48.8727C31.7766 48.5481 31.6402 48.2402 31.4057 48.0157C31.1712 47.7911 30.8576 47.6682 30.533 47.6736ZM46.7246 48.8876C46.7169 48.6446 46.6373 48.4093 46.4958 48.2115C46.3544 48.0138 46.1574 47.8624 45.9299 47.7766C45.7024 47.6908 45.4545 47.6744 45.2177 47.7295C44.9809 47.7847 44.7657 47.9088 44.5994 48.0862C44.4332 48.2637 44.3233 48.4864 44.2837 48.7264C44.244 48.9663 44.2765 49.2125 44.3769 49.434C44.4773 49.6555 44.6411 49.8422 44.8477 49.9705C45.0542 50.0988 45.2942 50.163 45.5372 50.1549C45.8619 50.1436 46.169 50.0047 46.3919 49.7684C46.6149 49.5321 46.7356 49.2174 46.728 48.8926L46.7246 48.8876Z" fill="white"/>
<path d="M38.0168 40.2379C35.5704 40.2379 33.119 40.3427 30.6793 40.213C29.7689 40.1644 28.8855 39.8862 28.1116 39.4041C27.3377 38.922 26.6985 38.2519 26.2535 37.456C25.8085 36.6602 25.5723 35.7647 25.5669 34.853C25.5614 33.9412 25.7869 33.043 26.2223 32.2419C28.2867 28.4368 30.4143 24.6672 32.6051 20.933C35.0216 16.8386 40.9837 16.8086 43.4151 20.8915C45.6403 24.6267 47.764 28.4268 49.8279 32.2535C50.2629 33.0553 50.4875 33.9543 50.4807 34.8664C50.4739 35.7785 50.236 36.6741 49.7891 37.4693C49.3423 38.2645 48.7011 38.9334 47.9255 39.4135C47.1499 39.8936 46.2653 40.1693 45.3542 40.2146C42.9212 40.3427 40.4698 40.2379 38.0168 40.2379ZM37.9918 37.7832C40.2735 37.7832 42.5553 37.8182 44.8337 37.7733C47.3516 37.725 48.7436 35.4034 47.5478 33.2447C45.5289 29.6043 43.4949 25.9705 41.4111 22.3666C39.8445 19.6558 36.2007 19.6575 34.6358 22.3666C32.5536 25.9721 30.5125 29.6004 28.5123 33.2514C28.2342 33.78 28.0946 34.3705 28.1066 34.9677C28.1431 36.6307 29.4487 37.7583 31.2664 37.7782C33.5265 37.8032 35.76 37.7849 37.9985 37.7832H37.9918Z" fill="white"/>
<path d="M14.3796 52.4832C14.3796 51.6733 14.3647 50.8634 14.3796 50.0551C14.3979 49.2236 14.8786 48.6931 15.587 48.6748C16.2955 48.6565 16.8493 49.1986 16.8576 50.0551C16.8765 51.7182 16.8765 53.3779 16.8576 55.0343C16.8476 55.8576 16.3337 56.3847 15.6203 56.3847C14.9068 56.3847 14.4046 55.8559 14.383 55.0343C14.363 54.1845 14.3796 53.328 14.3796 52.4832Z" fill="white"/>
<path d="M23.139 41.5617C23.3038 41.5554 23.4682 41.5826 23.6221 41.6418C23.776 41.701 23.9163 41.7909 24.0344 41.906C24.1525 42.0212 24.2459 42.1591 24.309 42.3115C24.372 42.4638 24.4035 42.6275 24.4013 42.7924C24.3973 43.1143 24.2701 43.4226 24.0459 43.6537C23.8216 43.8847 23.5173 44.0211 23.1956 44.0347C22.8623 44.0347 22.5422 43.9042 22.3041 43.671C22.0659 43.4378 21.9286 43.1206 21.9217 42.7874C21.9251 42.4648 22.0542 42.1563 22.2815 41.9274C22.5089 41.6985 22.8165 41.5673 23.139 41.5617Z" fill="white"/>
<path d="M39.2725 26.2831C39.2725 26.9666 39.2908 27.6518 39.2725 28.3337C39.2459 29.1652 38.7536 29.6741 38.0285 29.6641C37.3034 29.6542 36.8078 29.1502 36.7962 28.3171C36.7762 26.9289 36.7762 25.5403 36.7962 24.1511C36.8095 23.3545 37.2951 22.8622 38.0052 22.8489C38.7153 22.8356 39.2409 23.3478 39.2691 24.1627C39.2908 24.8728 39.2725 25.578 39.2725 26.2831Z" fill="white"/>
<path d="M38.0501 35.2721C37.8894 35.2769 37.7293 35.2498 37.5791 35.1922C37.429 35.1346 37.2918 35.0477 37.1756 34.9365C37.0593 34.8254 36.9664 34.6923 36.9021 34.5449C36.8378 34.3975 36.8035 34.2388 36.8011 34.078C36.794 33.9122 36.821 33.7468 36.8805 33.5918C36.9399 33.4369 37.0305 33.2959 37.1466 33.1774C37.2628 33.0589 37.402 32.9655 37.5557 32.903C37.7094 32.8405 37.8743 32.8102 38.0401 32.814C38.2008 32.8132 38.3601 32.8442 38.5087 32.9053C38.6573 32.9665 38.7923 33.0565 38.9058 33.1702C39.0194 33.2839 39.1092 33.419 39.1702 33.5677C39.2311 33.7164 39.2619 33.8757 39.2608 34.0364C39.2632 34.1972 39.2338 34.357 39.1741 34.5063C39.1144 34.6557 39.0257 34.7918 38.9131 34.9067C38.8006 35.0216 38.6663 35.113 38.5182 35.1757C38.37 35.2385 38.211 35.2712 38.0501 35.2721Z" fill="white"/>
<path d="M61.502 26.1331C61.502 24.008 61.502 21.8829 61.502 19.7579C61.502 18.7944 61.9779 18.235 62.771 18.255C63.5391 18.2667 63.9983 18.8144 64 19.7428C64 24.0142 64 28.2849 64 32.5551C64 33.4702 63.5208 34.0362 62.7627 34.0429C62.0046 34.0496 61.5053 33.4785 61.5037 32.5768C61.4987 30.4312 61.502 28.2788 61.502 26.1331Z" fill="white"/>
<path d="M18.4356 23.1002C18.4356 20.9751 18.4356 18.85 18.4356 16.7249C18.4356 15.7614 18.9115 15.202 19.7046 15.2221C20.4727 15.2338 20.9319 15.7815 20.9336 16.7099C20.9336 20.9812 20.9336 25.252 20.9336 29.5222C20.9336 30.4372 20.4544 31.0033 19.6963 31.01C18.9382 31.0166 18.4389 30.4456 18.4373 29.5439C18.4323 27.3982 18.4356 25.2458 18.4356 23.1002Z" fill="white"/>
<path d="M58.3777 18.4089C58.3777 19.4258 58.3777 20.4444 58.3777 21.4613C58.3777 22.2962 57.8551 22.879 57.1337 22.8823C56.4124 22.8856 55.8847 22.3096 55.8814 21.4713C55.8747 19.4576 55.8747 17.4432 55.8814 15.4284C55.8814 14.5584 56.3673 14.0274 57.1254 14.0241C57.8835 14.0207 58.3694 14.5551 58.376 15.4183C58.3844 16.4202 58.3777 17.4171 58.3777 18.4089Z" fill="white"/>
<path d="M15.3113 15.376C15.3113 16.3929 15.3113 17.4115 15.3113 18.4284C15.3113 19.2633 14.7887 19.846 14.0673 19.8494C13.346 19.8527 12.8183 19.2766 12.815 18.4384C12.8083 16.4246 12.8083 14.4103 12.815 12.3954C12.815 11.5254 13.3009 10.9945 14.059 10.9911C14.8171 10.9878 15.303 11.5221 15.3096 12.3854C15.318 13.3873 15.3113 14.3841 15.3113 15.376Z" fill="white"/>
<g filter="url(#filter0_d_20_44904)">
<circle cx="38.6897" cy="28.5064" r="15.5282" fill="#FFC400"/>
</g>
<path d="M36.2272 37.44C36.2272 37.1663 36.2161 36.9156 36.2272 36.6673C36.234 36.4649 36.3189 36.2728 36.4642 36.1312C36.6096 35.9896 36.8043 35.9094 37.0076 35.9072C37.2109 35.9051 37.4072 35.9812 37.5556 36.1197C37.7039 36.2582 37.7929 36.4484 37.8039 36.6507C37.8239 36.9101 37.8079 37.1727 37.8079 37.4575H39.5662C39.5662 37.2195 39.559 36.9815 39.5662 36.7348C39.5845 36.2294 39.9214 35.8907 40.3824 35.9034C40.8307 35.9153 41.1365 36.2445 41.1509 36.7403C41.158 36.9783 41.1509 37.2084 41.1509 37.436C42.2203 37.5947 43.1648 36.8466 43.2173 35.8225C43.238 35.4147 43.2173 35.0046 43.2269 34.5952C43.2356 33.9931 43.4809 33.7226 44.071 33.6639C45.6071 33.5053 46.4719 32.5533 46.4734 31.0088C46.4734 29.5015 46.4384 27.999 46.4814 26.4957C46.561 23.6398 45.142 21.7399 42.7101 20.4579C42.4186 20.304 42.1017 20.1977 41.807 20.0494C41.6262 19.9621 41.4861 19.8089 41.4155 19.6215C41.345 19.4341 41.3494 19.2269 41.428 19.0427C41.5002 18.8545 41.6444 18.7026 41.8288 18.62C42.0133 18.5375 42.2231 18.5312 42.4122 18.6024C45.2081 19.7035 47.226 21.5328 47.9172 24.5601C48.0156 25.0243 48.0642 25.4976 48.0621 25.9721C48.0796 27.5421 48.0119 29.1152 48.0828 30.6827C48.18 32.8246 47.0564 34.5952 44.8179 35.1934C44.8179 35.3687 44.8219 35.5615 44.8179 35.7543C44.7741 37.5527 43.3646 39.0179 41.5689 39.0528C39.6493 39.0909 37.7288 39.0909 35.8076 39.0528C34.0286 39.0171 32.6128 37.5566 32.565 35.7884C32.5594 35.5924 32.565 35.3973 32.565 35.2497C32.0649 35.0157 31.5831 34.8531 31.1682 34.5841C29.9738 33.8139 29.3415 32.6897 29.3208 31.2713C29.2945 29.4245 29.2666 27.5754 29.3264 25.7302C29.406 23.2003 30.6554 21.271 32.6749 19.8249C33.292 19.383 33.9968 19.0554 34.6832 18.7206C35.208 18.4636 35.6547 18.6325 35.8458 19.0855C36.0369 19.5385 35.8275 19.9439 35.2836 20.1707C33.8176 20.7832 32.596 21.6915 31.7464 23.0512C31.1909 23.9258 30.8983 24.9404 30.9031 25.9753C30.9031 27.6912 30.8991 29.4063 30.9031 31.1214C30.907 32.5105 31.7949 33.4918 33.1813 33.6528C33.9601 33.7432 34.1481 33.9566 34.1497 34.7484C34.1497 35.0919 34.1417 35.4354 34.1552 35.7796C34.1966 36.8276 35.1212 37.586 36.2272 37.44Z" fill="black"/>
<path d="M37.7594 28.6097C37.7594 30.1169 36.5808 31.3069 35.1108 31.2878C33.6408 31.2688 32.4949 30.0892 32.4949 28.6097C32.4949 27.1111 33.6735 25.9244 35.1506 25.9339C36.6055 25.9442 37.7594 27.1238 37.7594 28.6097ZM36.1667 28.593C36.1604 27.983 35.7152 27.5213 35.1315 27.5197C34.5478 27.5181 34.0748 28.0068 34.082 28.6255C34.0884 29.2245 34.5478 29.6981 35.1236 29.7005C35.7208 29.7036 36.1715 29.2237 36.1667 28.593Z" fill="black"/>
<path d="M44.8896 28.6296C44.8921 28.9767 44.8259 29.3209 44.6947 29.6424C44.5635 29.9639 44.37 30.2565 44.1252 30.5035C43.8803 30.7504 43.589 30.9468 43.2679 31.0814C42.9468 31.216 42.6022 31.2862 42.2538 31.288C40.779 31.288 39.6172 30.098 39.6259 28.5908C39.6347 27.1081 40.7965 25.934 42.2538 25.9348C43.7317 25.9348 44.896 27.1271 44.8896 28.6296ZM42.2713 27.519C41.69 27.5071 41.2297 27.9664 41.2162 28.5717C41.2018 29.2064 41.6358 29.6887 42.2371 29.7006C42.808 29.7125 43.2842 29.2397 43.2993 28.6455C43.3161 28.0259 42.8646 27.5309 42.2713 27.5198V27.519Z" fill="black"/>
<path d="M38.7221 34.3453C38.5095 34.446 38.3136 34.619 38.136 34.6023C37.8844 34.5785 37.5531 34.4793 37.4257 34.2953C37.358 34.1758 37.3159 34.0436 37.3022 33.907C37.2885 33.7704 37.3034 33.6325 37.3461 33.502C37.5133 33.0641 37.7793 32.6579 38.0429 32.2637C38.1123 32.1539 38.2086 32.0635 38.3228 32.001C38.4369 31.9384 38.5651 31.9059 38.6954 31.9063C38.8256 31.9067 38.9536 31.94 39.0674 32.0032C39.1811 32.0665 39.2769 32.1574 39.3456 32.2676C39.6069 32.6642 39.8444 33.0759 40.0568 33.5004C40.2303 33.8431 40.1619 34.1779 39.8696 34.4333C39.5774 34.6888 39.2469 34.6967 38.914 34.4944C38.8471 34.4487 38.783 34.3989 38.7221 34.3453Z" fill="black"/>
<path d="M39.4197 18.7064C39.4232 18.8088 39.4063 18.911 39.37 19.0069C39.3338 19.1028 39.2789 19.1906 39.2084 19.2653C39.1379 19.34 39.0534 19.4001 38.9595 19.4421C38.8657 19.4841 38.7644 19.5072 38.6616 19.51C38.5576 19.5117 38.4543 19.493 38.3575 19.455C38.2608 19.4169 38.1725 19.3602 38.0977 19.2882C38.023 19.2162 37.9632 19.1302 37.9218 19.0351C37.8804 18.94 37.8582 18.8378 37.8565 18.7342C37.8548 18.6306 37.8735 18.5276 37.9117 18.4313C37.95 18.3349 38.0068 18.247 38.0792 18.1725C38.1515 18.098 38.2378 18.0385 38.3332 17.9972C38.4287 17.956 38.5313 17.9339 38.6353 17.9322C38.7379 17.9313 38.8397 17.9507 38.9348 17.9892C39.0299 18.0278 39.1164 18.0847 39.1893 18.1566C39.2622 18.2286 39.3201 18.3142 39.3596 18.4086C39.3992 18.5029 39.4196 18.6042 39.4197 18.7064Z" fill="black"/>
<defs>
<filter id="filter0_d_20_44904" x="11.1615" y="0.978271" width="55.0563" height="55.0564" filterUnits="userSpaceOnUse" color-interpolation-filters="sRGB">
<feFlood flood-opacity="0" result="BackgroundImageFix"/>
<feColorMatrix in="SourceAlpha" type="matrix" values="0 0 0 0 0 0 0 0 0 0 0 0 0 0 0 0 0 0 127 0" result="hardAlpha"/>
<feOffset/>
<feGaussianBlur stdDeviation="6"/>
<feComposite in2="hardAlpha" operator="out"/>
<feColorMatrix type="matrix" values="0 0 0 0 1 0 0 0 0 0.768627 0 0 0 0 0 0 0 0 0.6 0"/>
<feBlend mode="normal" in2="BackgroundImageFix" result="effect1_dropShadow_20_44904"/>
<feBlend mode="normal" in="SourceGraphic" in2="effect1_dropShadow_20_44904" result="shape"/>
</filter>
</defs>
</svg>
