<svg width="54" height="54" viewBox="0 0 54 54" fill="none" xmlns="http://www.w3.org/2000/svg">
<rect width="54" height="54" rx="8" fill="#4EB4BE" fill-opacity="0.22"/>
<rect x="8" y="8" width="38" height="38" rx="8" fill="#4EB4BE"/>
<path d="M30.8809 21.823L33.1056 21.823C33.3174 21.823 33.5312 21.8348 33.741 21.8131C34.3403 21.7512 34.7729 21.4583 34.9697 20.8881C35.1585 20.3387 35.0406 19.8364 34.6061 19.4422C32.4323 17.4762 30.2526 15.5158 28.0669 13.561C27.4045 12.9712 26.5085 13.0361 25.8012 13.6701C24.3467 14.9755 22.8939 16.2825 21.4427 17.5912C20.7994 18.1712 20.1531 18.7482 19.5137 19.3311C18.9743 19.8226 18.8144 20.377 19.0472 20.9481C19.28 21.5192 19.7844 21.82 20.5117 21.822C21.4107 21.822 22.3028 21.822 23.2718 21.822C23.3111 22.0246 23.3375 22.2295 23.3507 22.4354C23.3554 27.9283 23.3554 26.7085 23.3507 32.202C23.3507 32.5952 23.3957 32.9599 23.6664 33.2676C23.7878 33.4167 23.9417 33.5371 24.1166 33.6199C24.2916 33.7027 24.4832 33.7459 24.6774 33.7463C26.2757 33.7463 27.8671 33.7591 29.4614 33.7463C30.2526 33.7384 30.784 33.1712 30.789 32.3583C30.798 30.9821 30.789 29.6119 30.789 28.2386C30.789 24.057 30.789 26.5888 30.789 22.4078C30.8055 22.211 30.8362 22.0155 30.8809 21.823Z" fill="white"/>
<path d="M27.0848 37.575C28.0838 37.575 29.0828 37.575 30.0747 37.575C30.786 37.575 31.2326 37.1818 31.2365 36.5596C31.2405 35.9374 30.783 35.5215 30.0877 35.5186C28.0705 35.5107 26.0529 35.5107 24.035 35.5186C23.4676 35.5186 23.059 35.8253 22.9362 36.2893C22.8743 36.5102 22.8912 36.7453 22.9841 36.9555C23.077 37.1656 23.2402 37.3381 23.4466 37.4443C23.6388 37.5281 23.8468 37.5706 24.057 37.5691C25.0669 37.5809 26.0759 37.575 27.0848 37.575Z" fill="white"/>
<path d="M27.0749 40.8396C28.0738 40.8396 29.0728 40.8484 30.0638 40.8396C30.814 40.8298 31.2625 40.4002 31.2345 39.7514C31.2262 39.5168 31.1336 39.2926 30.9732 39.1188C30.8128 38.9449 30.595 38.8327 30.3584 38.8019C30.2591 38.7892 30.159 38.7829 30.0588 38.7832C28.0655 38.7832 26.0729 38.7832 24.081 38.7832C23.4256 38.7832 22.9931 39.1135 22.9182 39.6443C22.8243 40.3068 23.2708 40.816 24.009 40.8347C24.9181 40.8563 25.8271 40.8406 26.7362 40.8416L27.0749 40.8396Z" fill="white"/>
</svg>
