<svg width="79" height="79" viewBox="0 0 79 79" fill="none" xmlns="http://www.w3.org/2000/svg">
<path d="M0 0H63C71.8366 0 79 7.16344 79 16V79H0V0Z" fill="#BE7D5B"/>
<g clip-path="url(#clip0_68_98)">
<path d="M72.2454 53.3709C68.3154 52.1185 64.5278 52.31 60.8772 54.1349C58.0244 55.5468 55.7109 57.8603 54.2916 60.7206C51.4776 66.249 52.2287 73.885 58.2074 78.9607C57.9262 78.9768 57.7215 78.9983 57.515 78.9983C49.6336 78.9983 41.7517 78.9983 33.8691 78.9983C29.3143 78.9983 26.0162 75.6938 26.0108 71.1029C26.0001 61.3045 26.0001 51.506 26.0108 41.7076C26.0108 36.7535 26.0001 31.7977 26.0108 26.8436C26.0215 23.0703 28.3247 20.0664 31.8845 19.2219C32.5335 19.0765 33.197 19.0056 33.862 19.0108C44.0537 18.9977 54.2454 18.9977 64.437 19.0108C68.9402 19.0108 72.2383 22.1525 72.2686 26.704C72.3416 35.4707 72.2917 44.2464 72.2899 53.0184C72.2935 53.1007 72.2686 53.1813 72.2454 53.3709ZM49.1709 33.5993H46.307C42.822 33.5993 39.3369 33.5993 35.8519 33.5993C34.581 33.5993 33.7338 34.5314 33.8477 35.7463C33.9474 36.7857 34.7893 37.4656 36.0174 37.4656C44.765 37.4656 53.512 37.4656 62.2584 37.4656C62.524 37.4685 62.7889 37.4378 63.0469 37.3744C63.4658 37.2692 63.8365 37.0237 64.098 36.6784C64.3594 36.333 64.496 35.9084 64.4852 35.4746C64.4745 35.0408 64.3169 34.6236 64.0387 34.2918C63.7604 33.96 63.3779 33.7334 62.9544 33.6494C62.6686 33.6081 62.3796 33.5938 62.0911 33.6065L49.1709 33.5993ZM46.3764 50.9234H56.3581C56.5788 50.9234 56.8013 50.9234 57.022 50.9109C57.5019 50.8816 57.953 50.6702 58.2839 50.3195C58.6148 49.9688 58.8008 49.5048 58.8045 49.0215C58.8081 48.5381 58.629 48.0714 58.3033 47.7158C57.9777 47.3601 57.53 47.1419 57.0505 47.1054C56.8529 47.0875 56.6535 47.0857 56.4524 47.0857H36.2257C35.9599 47.0794 35.694 47.092 35.43 47.1233C35.022 47.1888 34.6468 47.3873 34.3622 47.6883C34.0775 47.9893 33.8993 48.3761 33.8548 48.789C33.732 50.0074 34.5988 50.9162 35.932 50.9198C39.4134 50.927 42.8949 50.9198 46.3764 50.9198V50.9234ZM41.3233 64.4062C43.1032 64.4062 44.8724 64.4062 46.6469 64.4062C47.9427 64.4062 48.8006 63.6172 48.7917 62.4614C48.781 61.3325 47.9392 60.5507 46.6754 60.5471C43.1026 60.5375 39.5309 60.5375 35.9605 60.5471C34.6985 60.5471 33.8584 61.3361 33.8513 62.465C33.8442 63.5939 34.7074 64.4009 35.9996 64.4044C37.7635 64.4116 39.5434 64.4062 41.3233 64.4062Z" fill="#F2F2F1"/>
<path d="M55.9023 67.3869C55.903 65.0882 56.5826 62.8415 57.8549 60.9314C59.1272 59.0214 60.935 57.534 63.0491 56.6577C65.1632 55.7814 67.4886 55.5557 69.7304 56.0092C71.9723 56.4626 74.0299 57.5748 75.6423 59.2049C77.2547 60.8349 78.3494 62.9094 78.7877 65.1655C79.226 67.4215 78.9881 69.7576 78.1043 71.8777C77.2204 73.9977 75.7304 75.8063 73.823 77.0743C71.9155 78.3422 69.6765 79.0125 67.3897 79.0001C64.3345 78.9906 61.4082 77.7619 59.254 75.5842C57.0998 73.4064 55.8942 70.4579 55.9023 67.3869ZM69.3708 66.6462C69.3708 65.0878 69.3815 63.6154 69.3708 62.143C69.3583 60.8906 68.5645 60.0139 67.4609 60.0067C66.3574 59.9996 65.5529 60.8655 65.5458 62.1197C65.5351 63.8158 65.5458 65.519 65.5458 67.208C65.5347 67.5203 65.5897 67.8314 65.7072 68.1207C65.8247 68.41 66.002 68.6709 66.2274 68.8862C67.0053 69.6501 67.7617 70.4355 68.5413 71.2013C69.4313 72.0851 70.5864 72.1352 71.3891 71.3426C72.1919 70.55 72.1527 69.405 71.2646 68.48C70.6416 67.8628 70.0062 67.2688 69.3708 66.6462Z" fill="#F2F2F1"/>
</g>
<defs>
<clipPath id="clip0_68_98">
<rect width="53" height="60" fill="white" transform="translate(26 19)"/>
</clipPath>
</defs>
</svg>
