<svg width="46" height="46" viewBox="0 0 46 46" fill="none" xmlns="http://www.w3.org/2000/svg">
<g clip-path="url(#clip0_26_127)">
<path d="M22.0086 46C21.2381 45.6663 20.9656 45.0794 20.9932 44.2501C21.0376 42.9202 21.0052 41.588 21.0052 40.2605L18.0311 39.0195C17.0925 39.9592 16.1311 40.9218 15.1673 41.8832C14.3428 42.7066 13.649 42.7018 12.8173 41.8712L8.88051 37.9333C8.09676 37.1495 8.10036 36.4366 8.89251 35.6444C11.5706 32.9655 14.2487 30.2874 16.9268 27.6101C17.8654 26.6715 18.8568 26.8551 19.4113 28.065C20.5779 30.6119 23.2449 32.2106 25.8782 31.9441C28.8871 31.6381 31.1484 29.7033 31.8301 26.8503C32.1617 25.4176 32.0029 23.9151 31.3793 22.5833C30.7556 21.2515 29.7031 20.1676 28.3902 19.5049C28.2558 19.4377 28.1178 19.3849 27.9822 19.3165C26.9464 18.8364 26.7519 17.7982 27.5645 16.9833C30.2266 14.3115 32.8935 11.6434 35.5652 8.97892C35.66 8.8841 35.7524 8.78568 35.8509 8.69326C36.4582 8.12436 37.2287 8.10395 37.8168 8.68486C39.2571 10.1035 40.6862 11.5326 42.1041 12.9721C42.7042 13.5722 42.6886 14.3487 42.0813 14.9705C41.1931 15.8814 40.2809 16.7708 39.3831 17.6698C39.2757 17.7611 39.1595 17.8415 39.0363 17.9098C39.4828 18.9828 39.8764 19.9322 40.3001 20.9452H40.7298C41.972 20.9452 43.2143 20.9452 44.4565 20.9452C45.4491 20.9452 45.994 21.4853 45.9952 22.4647C45.9952 24.4107 45.9952 26.3567 45.9952 28.3026C45.9952 29.2532 45.4455 29.7981 44.4817 29.8029C43.2395 29.8029 41.996 29.8029 40.7538 29.8029H40.2989C39.886 30.7967 39.4912 31.7461 39.0735 32.7531C39.1503 32.8335 39.2595 32.9511 39.3723 33.0639C40.2497 33.9437 41.1331 34.8187 42.0056 35.7044C42.715 36.4246 42.7258 37.1639 42.0261 37.8648C40.6554 39.2467 39.2795 40.623 37.8985 41.9936C37.2167 42.6706 36.4582 42.6622 35.7717 41.978C34.7743 40.9866 33.7829 39.9904 32.8131 39.0195L29.8377 40.2557V43.3895C29.8377 43.674 29.8149 43.9608 29.8377 44.2429C29.9157 45.071 29.5977 45.6615 28.8319 45.9952L22.0086 46Z" fill="#6E6E6E"/>
<path d="M-0.00235794 17.0708C0.332506 16.3015 0.915821 16.0278 1.74878 16.0591C3.06303 16.1071 4.37968 16.0711 5.65912 16.0711L6.90257 13.0873C6.06241 12.2471 5.21384 11.3374 4.29807 10.5056C3.09784 9.41219 3.21786 8.63084 4.28246 7.63225C5.5367 6.45482 6.72493 5.20658 7.94316 3.99075C8.78332 3.15058 9.46745 3.15059 10.298 3.97875C11.1286 4.8069 11.9939 5.66867 12.8329 6.52323C12.9241 6.63295 13.0007 6.75397 13.0609 6.8833L16.1203 5.60985V5.18137C16.1203 3.96914 16.1203 2.75691 16.1203 1.54468C16.1203 0.523281 16.6532 0.00718167 17.6806 0.00598145H23.4321C24.4439 0.00598145 24.9708 0.540084 24.9732 1.56628C24.9732 2.92614 24.9732 4.2872 24.9732 5.54144C26.1735 6.11275 27.3005 6.64925 28.4275 7.19296C28.5878 7.27387 28.7404 7.36907 28.8836 7.47741C29.5617 7.97671 29.6877 8.87808 29.0996 9.48059C27.5729 11.0409 26.021 12.5832 24.4667 14.1183C24.0094 14.5708 23.4609 14.5576 22.88 14.3427C22.0898 14.0351 21.2466 13.8865 20.3988 13.9057C19.551 13.9249 18.7154 14.1113 17.9399 14.4543C16.4019 15.1112 15.174 16.3323 14.5087 17.8666C13.8435 19.401 13.7914 21.1319 14.3632 22.7035C14.662 23.5221 14.5096 24.1222 13.8963 24.7163C12.4872 26.0798 11.1178 27.4828 9.72911 28.8679C8.91055 29.6829 7.93716 29.6024 7.39346 28.5906C6.82095 27.5284 6.35766 26.4086 5.85116 25.3128C5.79595 25.1928 5.76115 25.0632 5.70714 24.9119C4.38688 24.9119 3.06663 24.8807 1.74638 24.9228C0.918219 24.9492 0.327703 24.6827 -0.00476074 23.9074L-0.00235794 17.0708Z" fill="#6E6E6E"/>
<path d="M24.3443 20.2142C24.3443 20.782 24.3527 21.3497 24.3443 21.9174C24.3298 22.7179 23.7573 23.2928 22.994 23.2904C22.2306 23.288 21.6617 22.7083 21.6545 21.9054C21.6449 20.7852 21.6449 19.6649 21.6545 18.5447C21.6629 17.7514 22.2547 17.1621 23.0048 17.1657C23.7549 17.1693 24.331 17.7658 24.3443 18.5579C24.3515 19.1076 24.3443 19.6609 24.3443 20.2142Z" fill="#6E6E6E"/>
<path d="M23.0084 28.671C22.7431 28.672 22.4834 28.5942 22.2623 28.4474C22.0412 28.3007 21.8686 28.0917 21.7664 27.8468C21.6642 27.6019 21.637 27.3322 21.6881 27.0718C21.7393 26.8114 21.8666 26.5721 22.0539 26.3841C22.2412 26.1961 22.4801 26.068 22.7403 26.0159C23.0005 25.9637 23.2703 25.99 23.5156 26.0913C23.7608 26.1927 23.9705 26.3645 24.118 26.5851C24.2655 26.8056 24.3443 27.065 24.3443 27.3304C24.3424 27.6845 24.2012 28.0237 23.9512 28.2746C23.7012 28.5255 23.3626 28.6679 23.0084 28.671Z" fill="#6E6E6E"/>
</g>
<defs>
<clipPath id="clip0_26_127">
<rect width="46" height="46" fill="white" transform="translate(-0.00238037)"/>
</clipPath>
</defs>
</svg>
