<svg width="54" height="54" viewBox="0 0 54 54" fill="none" xmlns="http://www.w3.org/2000/svg">
<rect width="54" height="54" rx="8" fill="#FF2626" fill-opacity="0.22"/>
<rect x="8" y="8" width="38" height="38" rx="8" fill="#FF2626"/>
<g clip-path="url(#clip0_41_5160)">
<path d="M39 30.0475C38.8848 30.0814 38.7708 30.1415 38.6549 30.1452C38.2723 30.1571 37.8896 30.1452 37.507 30.1509C37.3235 30.1509 37.2377 30.0663 37.2195 29.8878C36.969 27.4266 35.9619 25.3248 34.2247 23.5688C34.2103 23.5536 34.1967 23.5377 34.184 23.5212L35.4666 22.2473C35.5386 22.3369 35.6413 22.4828 35.7609 22.6124C37.5771 24.5777 38.658 26.8792 38.9593 29.5428C38.9687 29.5872 38.9824 29.6306 39 29.6724V30.0475Z" fill="white"/>
<path d="M26.9875 36.535C25.8631 36.5332 24.7646 36.1977 23.8312 35.5709C22.8978 34.9441 22.1715 34.0543 21.7443 33.0143C21.3172 31.9742 21.2084 30.8308 21.4319 29.7289C21.6553 28.627 22.2009 27.6162 22.9994 26.8247C23.7979 26.0332 24.8135 25.4966 25.9173 25.2829C27.0212 25.0692 28.1636 25.1881 29.1998 25.6244C30.2361 26.0608 31.1194 26.795 31.7379 27.7339C32.3564 28.6728 32.6822 29.7742 32.674 30.8986C32.6641 32.3991 32.0602 33.8345 30.9945 34.8909C29.9288 35.9472 28.488 36.5384 26.9875 36.535ZM26.9975 31.3683C26.5496 31.3694 26.1141 31.5153 25.7559 31.7841C25.3977 32.0529 25.1359 32.4303 25.0097 32.86C24.8895 33.2759 25.0786 33.6648 25.4594 33.7844C25.8401 33.904 26.2015 33.7011 26.3468 33.3041C26.472 32.9552 26.68 32.788 26.9862 32.7843C27.2925 32.7805 27.5217 32.9552 27.6507 33.3053C27.7966 33.7018 28.1667 33.9015 28.5394 33.7838C28.912 33.6661 29.108 33.2728 28.9865 32.8582C28.8599 32.4286 28.5978 32.0515 28.2394 31.783C27.8809 31.5145 27.4453 31.369 26.9975 31.3683ZM24.6803 29.589C24.8658 29.5919 25.045 29.5216 25.179 29.3934C25.3131 29.2652 25.3913 29.0893 25.3967 28.9039C25.3966 28.7144 25.322 28.5326 25.189 28.3976C25.0561 28.2627 24.8754 28.1854 24.6859 28.1824C24.5003 28.1834 24.3227 28.2581 24.1921 28.3899C24.0616 28.5218 23.9887 28.7001 23.9895 28.8857C23.9876 28.9777 24.0041 29.069 24.038 29.1545C24.072 29.24 24.1227 29.3178 24.1872 29.3833C24.2517 29.4489 24.3287 29.5008 24.4136 29.5362C24.4985 29.5715 24.5896 29.5895 24.6815 29.589H24.6803ZM29.3034 29.589C29.3954 29.5909 29.4867 29.5743 29.5722 29.5402C29.6576 29.5062 29.7353 29.4554 29.8008 29.3909C29.8663 29.3263 29.9182 29.2493 29.9535 29.1644C29.9887 29.0795 30.0066 28.9883 30.0061 28.8964C30.0078 28.8025 29.9906 28.7092 29.9556 28.622C29.9206 28.5348 29.8685 28.4556 29.8024 28.3889C29.7362 28.3222 29.6574 28.2695 29.5705 28.2338C29.4836 28.1981 29.3905 28.1802 29.2965 28.1812C29.1111 28.187 28.9351 28.2641 28.8053 28.3966C28.6754 28.529 28.6017 28.7065 28.5995 28.892C28.6011 29.0779 28.6762 29.2556 28.8083 29.3864C28.9404 29.5171 29.1188 29.5904 29.3047 29.5903L29.3034 29.589Z" fill="white"/>
<path d="M21.6003 20.1266C25.2477 18.1852 30.4451 18.2998 34.2585 21.2777L33.0279 22.5133C29.3316 20.0842 25.5224 19.9429 21.6003 22.0894V20.1266Z" fill="white"/>
<path d="M20.1555 19.4528C20.1555 20.4273 20.1611 21.3166 20.1523 22.2084C20.1549 22.2718 20.1431 22.3351 20.1178 22.3933C20.0925 22.4516 20.0542 22.5033 20.006 22.5447C19.9578 22.586 19.9008 22.6159 19.8394 22.6321C19.7779 22.6482 19.7136 22.6503 19.6513 22.638C18.8027 22.5127 17.956 22.3818 17.1099 22.2428C17.0217 22.22 16.9433 22.1692 16.8863 22.0981C16.4104 21.5408 15.9407 20.9777 15.4703 20.4154C15.2154 20.111 15.233 19.8937 15.5367 19.6375C16.3363 18.9637 17.1368 18.2915 17.9385 17.6209C18.189 17.4092 18.4357 17.4149 18.6368 17.651C19.1628 18.2654 19.6826 18.8891 20.1555 19.4528Z" fill="white"/>
<path d="M19.2749 24.0058C18.8478 24.6452 18.3981 25.2464 18.0224 25.8903C17.3153 27.1065 16.9214 28.4329 16.7792 29.8358C16.7511 30.1076 16.706 30.1533 16.4279 30.1539C16.0452 30.1539 15.6626 30.1539 15.2799 30.1539C15.0676 30.1539 14.9818 30.0537 15.0006 29.8477C15.1908 27.6262 15.9945 25.5014 17.3222 23.7102L19.2749 24.0058Z" fill="white"/>
</g>
<defs>
<clipPath id="clip0_41_5160">
<rect width="24" height="19.07" fill="white" transform="translate(15 17.4651)"/>
</clipPath>
</defs>
</svg>
