<svg width="54" height="54" viewBox="0 0 54 54" fill="none" xmlns="http://www.w3.org/2000/svg">
<rect width="54" height="54" rx="8" fill="#FF2626" fill-opacity="0.22"/>
<rect x="8" y="8" width="38" height="38" rx="8" fill="#FF2626"/>
<g clip-path="url(#clip0_41_5142)">
<path d="M28.1254 15H30.3754C30.4095 15.0168 30.4449 15.0306 30.4814 15.0413C31.3579 15.2203 32.0109 15.8667 32.1834 16.7377C32.2162 16.9055 32.2125 17.0803 32.2383 17.2495C32.2601 17.4178 32.3415 17.5728 32.4677 17.6862C32.594 17.7996 32.7567 17.8641 32.9264 17.8678C33.1608 17.8772 33.3951 17.8706 33.6295 17.8711C34.0589 17.8711 34.4892 17.8608 34.9181 17.8762C35.3353 17.8917 35.6362 18.2152 35.6212 18.6009C35.6062 18.9867 35.3081 19.2727 34.8951 19.2755C34.2159 19.2802 33.5358 19.2755 32.8565 19.2722C32.4948 19.2675 32.1419 19.16 31.8389 18.9623C31.1653 18.5367 30.8433 17.9128 30.8076 17.1244C30.7875 16.7128 30.502 16.4212 30.112 16.4109C29.542 16.3987 28.9718 16.3987 28.4015 16.4109C28.2312 16.4155 28.0683 16.4814 27.9426 16.5964C27.8169 16.7115 27.7368 16.8679 27.7172 17.0372C27.6914 17.3212 27.712 17.6095 27.712 17.8917C28.635 18.1064 29.2861 18.8292 29.2336 19.9514C29.2167 20.3086 29.2308 20.6677 29.2308 21.0267C29.3011 21.052 29.3503 21.0736 29.4018 21.0881C33.9872 22.3809 36.7772 26.752 36.0047 31.4325C35.4154 34.9983 32.5964 37.98 29.0615 38.7609C28.5834 38.8669 28.0945 38.9217 27.6084 39H26.3897C26.3225 38.9827 26.2544 38.9692 26.1858 38.9597C25.3918 38.8947 24.6104 38.7212 23.8636 38.4441C19.8037 36.9408 17.3479 32.9316 17.9601 28.6439C18.4443 25.2572 20.3508 22.8881 23.4609 21.4852C23.8767 21.2977 24.3206 21.1734 24.7823 21.0094C24.7823 20.528 24.757 20.0353 24.7879 19.5464C24.8348 18.803 25.3467 18.187 26.0536 17.9616C26.1328 17.9363 26.2125 17.9147 26.2973 17.888C26.2973 17.6161 26.2893 17.3583 26.2973 17.1014C26.3259 16.3364 26.6587 15.7322 27.3112 15.3337C27.5597 15.1828 27.8531 15.1088 28.1254 15ZM26.2973 26.8594C25.4147 27.1491 25.1358 27.5367 25.1353 28.4503C25.1353 28.6612 25.1353 28.8722 25.1353 29.0831C25.1353 30.0614 25.6603 30.5831 26.6409 30.5873H27.4378V31.4902C26.9048 31.4902 26.3906 31.4869 25.8764 31.4902C25.4545 31.4934 25.1447 31.7864 25.1376 32.1773C25.1306 32.5683 25.44 32.8716 25.8562 32.8927C25.9968 32.8997 26.1333 32.8927 26.2978 32.8927C26.2978 33.0923 26.294 33.2677 26.2978 33.4477C26.3076 33.8573 26.6208 34.1695 27.0103 34.1634C27.3998 34.1573 27.6928 33.8522 27.7036 33.4519C27.7087 33.2644 27.7036 33.0797 27.7036 32.902C28.5886 32.6091 28.8651 32.2242 28.8656 31.3083C28.8656 31.0895 28.8656 30.8708 28.8656 30.652C28.8656 29.7052 28.3345 29.1787 27.3815 29.1773H26.5645V28.2717C27.0965 28.2717 27.6108 28.2769 28.125 28.2717C28.5506 28.2661 28.8567 27.9745 28.8637 27.5831C28.8708 27.1917 28.5529 26.88 28.1217 26.8683C27.9909 26.8641 27.8601 26.8683 27.704 26.8683C27.704 26.6677 27.7078 26.49 27.704 26.3123C27.6933 25.9017 27.3811 25.59 26.9915 25.5961C26.6095 25.6022 26.3081 25.9092 26.2983 26.3072C26.2931 26.4966 26.2973 26.6827 26.2973 26.8594Z" fill="white"/>
</g>
<defs>
<clipPath id="clip0_41_5142">
<rect width="18.2644" height="24" fill="white" transform="translate(17.8678 15)"/>
</clipPath>
</defs>
</svg>
