<svg width="68" height="69" viewBox="0 0 68 69" fill="none" xmlns="http://www.w3.org/2000/svg">
<path d="M26.2265 5C26.7188 5.334 27.1474 5.71643 27.0637 6.39111C27.0276 6.67053 26.8995 6.93009 26.6995 7.12899C26.4995 7.3279 26.2388 7.45487 25.9586 7.48996C25.6885 7.51785 25.4166 7.45754 25.1838 7.31811C24.951 7.17868 24.7698 6.96766 24.6676 6.71676C24.5657 6.46555 24.5488 6.18803 24.6196 5.92639C24.6903 5.66475 24.8447 5.43329 25.0594 5.2672C25.1883 5.167 25.3323 5.08851 25.4696 5H26.2265Z" fill="white"/>
<path d="M4.00025 27.5065C4.00366 22.7967 5.48589 18.2062 8.23884 14.3796C10.9918 10.5529 14.8772 7.68226 19.3496 6.1706C19.4685 6.13219 19.5857 6.08876 19.7063 6.05536C20.4899 5.83326 21.1396 6.14388 21.3673 6.85028C21.5833 7.51828 21.2501 8.11614 20.51 8.42175C19.3948 8.881 18.2261 9.25675 17.1796 9.83958C10.1638 13.7657 6.43318 19.7761 6.56211 27.7904C6.70109 36.2923 10.9457 42.3327 18.6514 45.9532C18.7636 46.0067 18.8808 46.0518 18.9863 46.1069C19.7331 46.4626 20.0227 47.1089 19.7331 47.7769C19.4434 48.4449 18.772 48.7021 17.9984 48.3848C14.5392 46.9789 11.4882 44.7311 9.12396 41.8467C5.78821 37.8107 3.97534 32.7369 4.00025 27.5065Z" fill="white"/>
<path d="M31.8726 5.59448C32.3749 5.74311 33.1318 5.92013 33.8551 6.17731C40.0929 8.38838 44.582 12.5021 47.3224 18.5186C47.3995 18.6856 47.4765 18.8526 47.5384 19.0363C47.798 19.7527 47.5284 20.4424 46.8921 20.7063C46.2558 20.9701 45.6095 20.6846 45.2328 20.0065C44.3956 18.5036 43.6638 16.9154 42.6542 15.5343C39.9316 11.8102 36.2562 9.39539 31.7989 8.16962C31.5551 8.11514 31.316 8.04142 31.0839 7.94918C30.8253 7.83083 30.6153 7.62728 30.4894 7.37273C30.3634 7.11818 30.3292 6.82815 30.3924 6.55139C30.5247 5.97524 31.027 5.6045 31.8726 5.59448Z" fill="white"/>
<path d="M67.9697 46.8769C67.9697 47.1474 67.9881 47.4196 67.9697 47.6868C67.9551 48.0015 67.8208 48.2987 67.5941 48.518C67.3673 48.7373 67.0653 48.8621 66.7496 48.867C66.4338 48.8719 66.128 48.7565 65.8946 48.5444C65.6611 48.3322 65.5176 48.0393 65.4932 47.7252C65.458 47.102 65.4748 46.4769 65.5434 45.8565C65.5784 45.5526 65.728 45.2734 65.9618 45.0755C66.1957 44.8776 66.4963 44.7759 66.8026 44.791C67.1077 44.8031 67.3976 44.9273 67.6165 45.1397C67.8353 45.3521 67.9677 45.6378 67.9881 45.9417C68.0149 46.2506 67.9881 46.5646 67.9881 46.8769H67.9697Z" fill="white"/>
<path d="M30.0977 33.136C30.023 33.3605 29.9259 33.577 29.808 33.7823C29.5301 34.1964 29.2237 34.5922 28.9106 34.9796C28.4467 35.5508 27.7385 35.6627 27.1893 35.2736C26.6401 34.8845 26.4743 34.1396 26.8962 33.5134C27.2066 33.0447 27.5496 32.5982 27.9227 32.1774C28.083 31.9815 28.3043 31.8445 28.5515 31.7882C28.7987 31.732 29.0576 31.7596 29.2873 31.8668C29.808 32.0822 30.0408 32.4913 30.0977 33.136Z" fill="white"/>
<path d="M64.1604 58.774C64.1134 58.9692 64.0408 59.1573 63.9444 59.3335C63.6217 59.8173 63.2699 60.2813 62.8911 60.7229C62.6821 60.9556 62.3924 61.1006 62.0803 61.1286C61.7683 61.1566 61.4573 61.0656 61.2099 60.8738C60.9626 60.682 60.7974 60.4038 60.7477 60.0953C60.698 59.7868 60.7675 59.471 60.9421 59.2115C61.254 58.7469 61.5928 58.3008 61.9568 57.8756C62.1184 57.667 62.346 57.519 62.6025 57.4557C62.859 57.3923 63.1295 57.4173 63.37 57.5265C63.8908 57.7253 64.1185 58.1494 64.1604 58.774Z" fill="white"/>
<path d="M25.0359 54.6356C24.8158 54.6191 24.6057 54.5374 24.4326 54.4007C24.2595 54.2641 24.1314 54.0789 24.0648 53.869C23.8573 53.3042 23.6835 52.7276 23.544 52.1423C23.4841 51.8544 23.5322 51.5547 23.6791 51.2998C23.826 51.045 24.0615 50.8527 24.3411 50.7595C24.9489 50.5508 25.6203 50.7879 25.8631 51.3841C26.1179 51.9974 26.3125 52.6338 26.4441 53.2845C26.5831 54.0143 25.9301 54.6606 25.0359 54.6356Z" fill="white"/>
<path d="M65.4598 55.3787C64.5355 55.3787 63.9109 54.6439 64.1202 53.864C64.2772 53.2825 64.4764 52.7132 64.7163 52.1606C64.8419 51.8696 65.077 51.6393 65.371 51.5194C65.6651 51.3995 65.9946 51.3995 66.2886 51.5193C66.5751 51.6264 66.8112 51.8362 66.9509 52.1076C67.0905 52.3791 67.1236 52.6927 67.0438 52.9873C66.8837 53.5462 66.6913 54.0954 66.4678 54.6322C66.3912 54.8413 66.255 55.0234 66.0759 55.156C65.8967 55.2887 65.6825 55.3661 65.4598 55.3787Z" fill="white"/>
<path d="M28.3128 60.5156C27.4019 60.4872 26.0071 58.5517 26.265 57.6766C26.5379 56.7548 27.7184 56.4492 28.3597 57.1756C28.7875 57.658 29.1589 58.1875 29.4665 58.7538C29.565 58.9438 29.6111 59.1566 29.6003 59.3703C29.5894 59.584 29.5219 59.7909 29.4046 59.9701C29.2872 60.1492 29.1244 60.2941 28.9326 60.39C28.7408 60.4858 28.5269 60.5292 28.3128 60.5156Z" fill="white"/>
<path d="M66.0223 42.2058C65.448 42.1574 65.0361 41.8718 64.8503 41.3291C64.6828 40.8181 64.5154 40.302 64.3797 39.7793C64.3025 39.4845 64.3382 39.1715 64.4801 38.9016C64.6219 38.6316 64.8596 38.4242 65.1466 38.3197C65.4289 38.1985 65.7477 38.1926 66.0343 38.3035C66.3209 38.4144 66.5523 38.6331 66.6787 38.9126C66.9455 39.5433 67.1442 40.2005 67.2715 40.8732C67.4004 41.5746 66.7407 42.2192 66.0223 42.2058Z" fill="white"/>
<path d="M62.4658 32.3696C63.4135 32.3846 64.81 34.3585 64.517 35.2503C64.224 36.1421 63.082 36.436 62.4524 35.7296C62.0101 35.2326 61.6294 34.6843 61.3188 34.0963C60.8952 33.2881 61.5466 32.3545 62.4658 32.3696Z" fill="white"/>
<path d="M26.7171 39.0295C26.5178 39.5522 26.3001 40.2937 25.9535 40.97C25.6856 41.4961 25.0075 41.623 24.4683 41.3809C24.2051 41.2733 23.9885 41.0763 23.857 40.8247C23.7256 40.5732 23.6876 40.2833 23.75 40.0065C23.9108 39.4048 24.1162 38.8159 24.3645 38.2446C24.4776 37.983 24.6826 37.7716 24.941 37.6502C25.1994 37.5287 25.4934 37.5055 25.7677 37.585C26.3504 37.7353 26.7355 38.2329 26.7171 39.0295Z" fill="white"/>
<path d="M22.8357 46.0587C22.8357 45.7881 22.819 45.5176 22.8357 45.2487C22.8479 44.9344 22.9794 44.6364 23.2035 44.415C23.4276 44.1936 23.7277 44.0654 24.043 44.0564C24.3604 44.0425 24.6707 44.1524 24.9083 44.3628C25.1458 44.5732 25.2919 44.8676 25.3155 45.1836C25.3544 45.7842 25.342 46.387 25.2787 46.9855C25.2497 47.3 25.0998 47.5911 24.8604 47.7978C24.621 48.0045 24.3107 48.1108 23.9944 48.0944C23.3431 48.056 22.8642 47.5633 22.8223 46.867C22.8039 46.5981 22.8223 46.3275 22.8223 46.0587H22.8357Z" fill="white"/>
<path d="M38.1366 46.446C38.1098 47.1474 37.353 47.3729 36.72 47.7019C36.0871 48.0309 35.4994 48.3999 34.8012 47.904C34.6368 47.7932 34.5021 47.644 34.4091 47.4693C34.316 47.2946 34.2673 47.0998 34.2673 46.902C34.2673 46.7041 34.316 46.5093 34.4091 46.3346C34.5021 46.1599 34.6368 46.0107 34.8012 45.9C35.325 45.5606 35.8821 45.2753 36.4639 45.0483C37.3111 44.7143 38.1617 45.3505 38.1366 46.446Z" fill="white"/>
<path d="M45.0034 66.5076C45.2947 66.5076 45.5877 66.4875 45.8774 66.5076C46.1919 66.5312 46.4856 66.673 46.6994 66.9042C46.9132 67.1354 47.0311 67.4389 47.0294 67.7534C47.0343 68.0584 46.923 68.3539 46.7178 68.5802C46.5127 68.8065 46.2291 68.9467 45.9243 68.9725C45.3022 69.0184 44.6772 69.0067 44.0573 68.9374C43.3675 68.8539 42.9622 68.2878 43.0075 67.6181C43.0527 66.9484 43.5483 66.5076 44.2549 66.4842C44.5044 66.4758 44.7572 66.4842 45.0034 66.4842V66.5076Z" fill="white"/>
<path d="M35.0339 28.5603C35.0339 29.5623 32.9928 30.9735 32.0618 30.6061C31.2531 30.2854 30.9969 29.2016 31.6466 28.6021C32.1373 28.1543 32.6831 27.7705 33.2707 27.4598C33.4573 27.3648 33.6654 27.3197 33.8747 27.3288C34.084 27.3379 34.2874 27.401 34.465 27.5118C34.6426 27.6226 34.7883 27.7775 34.888 27.9613C34.9877 28.145 35.038 28.3514 35.0339 28.5603Z" fill="white"/>
<path d="M47.309 36.7116C46.8754 37.4531 46.5003 38.2397 45.9879 38.9227C45.653 39.3569 44.9548 39.3051 44.4994 38.9795C44.2666 38.8155 44.0981 38.576 44.0227 38.3018C43.9473 38.0277 43.9696 37.736 44.0858 37.4765C44.3222 36.9453 44.5906 36.4289 44.8895 35.9301C45.2076 35.4007 45.7267 35.2621 46.2994 35.4057C46.8352 35.546 47.1835 36.0637 47.309 36.7116Z" fill="white"/>
<path d="M45.7954 26.3828C45.4839 26.3828 45.1691 26.4078 44.8594 26.3828C44.577 26.3588 44.3124 26.2357 44.1125 26.0354C43.9126 25.8351 43.7904 25.5706 43.7677 25.2889C43.7107 24.666 44.054 24.0581 44.6718 23.9913C45.4339 23.915 46.2024 23.9307 46.9608 24.0381C47.5183 24.1149 47.8482 24.7528 47.7829 25.3373C47.7558 25.6079 47.6364 25.861 47.4447 26.0543C47.2531 26.2476 47.0006 26.3694 46.7297 26.3995C46.4185 26.4162 46.1066 26.4162 45.7954 26.3995V26.3828Z" fill="white"/>
<path d="M39.6469 24.6257C40.4573 24.6257 40.9563 24.9931 41.1087 25.5242C41.2611 26.0552 41.0266 26.7316 40.4892 26.947C39.8538 27.2041 39.1957 27.4009 38.5234 27.5349C37.9306 27.6501 37.4149 27.2526 37.2391 26.6815C37.0633 26.1104 37.2391 25.5125 37.7615 25.2837C38.3784 25.0327 39.0077 24.8131 39.6469 24.6257Z" fill="white"/>
<path d="M43.5517 41.9736C43.3608 42.3911 43.2855 42.7084 43.0963 42.9305C42.7318 43.3569 42.3337 43.7534 41.9057 44.1162C41.6667 44.3258 41.3561 44.4357 41.0381 44.4233C40.7201 44.4109 40.4191 44.2771 40.1972 44.0496C39.9753 43.8221 39.8495 43.5182 39.8459 43.2008C39.8423 42.8835 39.9611 42.5768 40.1777 42.3443C40.5567 41.9315 40.9569 41.5386 41.3766 41.167C41.7701 40.818 42.2741 40.7161 42.7028 41.0117C43.0443 41.2438 43.2704 41.6429 43.5517 41.9736Z" fill="white"/>
<path d="M58.3518 62.0938C58.6867 62.3593 59.1053 62.5697 59.3464 62.9037C59.4955 63.0988 59.5653 63.3428 59.542 63.587C59.5188 63.8312 59.4041 64.0577 59.2208 64.2213C58.6582 64.7097 58.0466 65.1389 57.3957 65.5022C56.9336 65.7644 56.4547 65.5707 56.093 65.2016C55.9219 65.0296 55.8067 64.8101 55.7625 64.5717C55.7183 64.3334 55.7471 64.0873 55.8452 63.8656C56.0344 63.3546 57.6988 62.234 58.3518 62.0938Z" fill="white"/>
<path d="M60.0999 29.7711C60.0999 30.8616 59.0953 31.4761 58.2798 30.9952C57.7309 30.6578 57.2142 30.271 56.736 29.8396C56.3107 29.4655 56.2789 28.7607 56.5903 28.2965C56.9018 27.8322 57.5448 27.5466 58.0069 27.8189C58.6714 28.2362 59.2993 28.7088 59.8839 29.2317C60.0463 29.3703 60.0648 29.6759 60.0999 29.7711Z" fill="white"/>
<path d="M32.0903 61.738C32.2843 61.7935 32.4709 61.872 32.6462 61.9718C33.0944 62.2737 33.527 62.5981 33.9422 62.9438C34.1872 63.1415 34.3484 63.4241 34.3938 63.7352C34.4391 64.0463 34.3651 64.363 34.1866 64.6221C34.0066 64.8811 33.7337 65.0613 33.4244 65.1256C33.1151 65.1899 32.7928 65.1335 32.5239 64.9678C32.0191 64.6386 31.5374 64.2754 31.0823 63.8806C30.8884 63.7173 30.7538 63.4949 30.6994 63.2477C30.6449 63.0005 30.6735 62.7423 30.7809 62.5129C30.9818 62.0069 31.392 61.743 32.0903 61.738Z" fill="white"/>
<path d="M40.5394 66.7615C40.392 67.6182 39.7256 68.2111 38.9822 68.0441C38.3554 67.8956 37.7438 67.6893 37.1554 67.4278C36.8858 67.3056 36.6713 67.0881 36.5531 66.8173C36.435 66.5465 36.4217 66.2416 36.5158 65.9616C36.5918 65.6768 36.774 65.4318 37.0252 65.2765C37.2763 65.1213 37.5775 65.0677 37.867 65.1266C38.5375 65.2625 39.1868 65.4871 39.7976 65.7946C40.1241 65.9699 40.2966 66.4292 40.5394 66.7615Z" fill="white"/>
<path d="M51.1802 68.2745C50.3129 68.2745 49.7989 67.8921 49.6733 67.3393C49.5477 66.7866 49.7938 66.1536 50.343 65.9382C50.9403 65.7023 51.5565 65.5168 52.1849 65.3838C52.4637 65.3299 52.7526 65.3782 52.9986 65.5196C53.2446 65.661 53.4313 65.8861 53.5244 66.1536C53.727 66.7014 53.5562 67.3794 53.0338 67.6182C52.4281 67.8696 51.8093 68.0887 51.1802 68.2745Z" fill="white"/>
<path d="M54.3181 26.3392C54.3181 27.3412 53.6484 27.9507 52.8731 27.7737C52.2471 27.6239 51.6361 27.4171 51.048 27.1558C50.4988 26.917 50.2728 26.3208 50.4184 25.7413C50.5524 25.2103 51.0631 24.7393 51.614 24.8612C52.3803 25.0251 53.1245 25.279 53.8309 25.6177C54.1038 25.748 54.2261 26.1939 54.3181 26.3392Z" fill="white"/>
<path d="M30.0023 49.8394C29.2839 49.851 28.7314 49.3935 28.6276 48.7822C28.5809 48.4926 28.6396 48.1959 28.7932 47.9456C28.9467 47.6954 29.1849 47.5082 29.4648 47.4179C29.8464 47.3091 30.2401 47.2485 30.6369 47.2375C30.9317 47.2295 31.219 47.3304 31.4437 47.5209C31.6684 47.7115 31.8146 47.9781 31.8542 48.2696C31.8994 48.5486 31.8457 48.8346 31.7024 49.0784C31.5591 49.3222 31.335 49.5086 31.0689 49.6056C30.7188 49.7064 30.3625 49.7845 30.0023 49.8394Z" fill="white"/>
<path d="M48.9198 31.1554C48.87 31.4883 48.7979 31.8175 48.7038 32.1407C48.6104 32.4192 48.4179 32.6538 48.1627 32.8003C47.9075 32.9468 47.6074 32.9949 47.3191 32.9356C47.0181 32.8831 46.7474 32.7212 46.559 32.4813C46.3707 32.2413 46.2782 31.9403 46.2993 31.6364C46.3285 31.2855 46.3958 30.9389 46.5003 30.6026C46.5815 30.3083 46.7723 30.056 47.0336 29.8971C47.295 29.7382 47.6073 29.6848 47.9068 29.7476C48.4979 29.8478 48.9131 30.3538 48.9198 31.1554Z" fill="white"/>
<g filter="url(#filter0_d_20_44872)">
<ellipse cx="27.0742" cy="27.5546" rx="15.0759" ry="15.0766" fill="#FFC400"/>
</g>
<path d="M28.8842 20.2048L28.4842 29.7848H25.5842L25.1842 20.2048H28.8842ZM27.0842 34.9048C26.4842 34.9048 25.9908 34.7315 25.6042 34.3848C25.2308 34.0248 25.0442 33.5848 25.0442 33.0648C25.0442 32.5315 25.2308 32.0848 25.6042 31.7248C25.9908 31.3648 26.4842 31.1848 27.0842 31.1848C27.6708 31.1848 28.1508 31.3648 28.5242 31.7248C28.9108 32.0848 29.1042 32.5315 29.1042 33.0648C29.1042 33.5848 28.9108 34.0248 28.5242 34.3848C28.1508 34.7315 27.6708 34.9048 27.0842 34.9048Z" fill="black"/>
<defs>
<filter id="filter0_d_20_44872" x="-0.00170898" y="0.478027" width="54.1517" height="54.1531" filterUnits="userSpaceOnUse" color-interpolation-filters="sRGB">
<feFlood flood-opacity="0" result="BackgroundImageFix"/>
<feColorMatrix in="SourceAlpha" type="matrix" values="0 0 0 0 0 0 0 0 0 0 0 0 0 0 0 0 0 0 127 0" result="hardAlpha"/>
<feOffset/>
<feGaussianBlur stdDeviation="6"/>
<feComposite in2="hardAlpha" operator="out"/>
<feColorMatrix type="matrix" values="0 0 0 0 1 0 0 0 0 0.768627 0 0 0 0 0 0 0 0 0.6 0"/>
<feBlend mode="normal" in2="BackgroundImageFix" result="effect1_dropShadow_20_44872"/>
<feBlend mode="normal" in="SourceGraphic" in2="effect1_dropShadow_20_44872" result="shape"/>
</filter>
</defs>
</svg>
