<svg width="46" height="46" viewBox="0 0 46 46" fill="none" xmlns="http://www.w3.org/2000/svg">
<path d="M45.9976 23.2674C45.2097 25.5524 44.1752 27.7136 42.7795 29.6981C40.8571 32.4425 38.3841 34.7564 35.518 36.4924C32.8562 38.1236 29.8966 39.2092 26.8113 39.6858C22.5879 40.342 18.4479 39.9627 14.4496 38.4183C8.45905 36.1063 4.03307 32.0608 1.22013 26.2807C0.809275 25.4364 0.491844 24.5449 0.132769 23.6748C-0.0405729 23.2554 -0.0474077 22.7856 0.113642 22.3612C2.14653 16.6318 5.75979 12.2013 11.0435 9.17673C15.4053 6.67896 20.1217 5.64789 25.1138 6.11616C31.7922 6.74088 37.3055 9.66301 41.6302 14.7993C43.6102 17.1518 45.0071 19.8297 45.9942 22.7282L45.9976 23.2674ZM23.0179 8.50699C15.0575 8.46534 8.5491 14.9501 8.50408 22.9668C8.46018 30.9261 14.9472 37.4379 22.965 37.4807C30.9232 37.5246 37.435 31.0364 37.4777 23.0208C37.5194 15.0615 31.0313 8.54976 23.0179 8.50699Z" fill="#6E6E6E"/>
<path d="M34.2742 22.9781C34.3181 29.1499 29.2089 34.2693 22.9909 34.2828C16.7999 34.2952 11.6794 29.1758 11.6986 22.9871C11.7177 16.777 16.7065 11.7792 22.9549 11.7061C29.1143 11.634 34.2348 16.7388 34.2742 22.9781ZM22.9909 21.5609C22.7067 21.5598 22.4286 21.6432 22.1918 21.8004C21.9551 21.9577 21.7704 22.1817 21.6613 22.4441C21.5521 22.7065 21.5233 22.9955 21.5787 23.2742C21.634 23.553 21.7709 23.809 21.9721 24.0098C22.1732 24.2106 22.4294 24.3471 22.7083 24.402C22.9871 24.4569 23.276 24.4277 23.5382 24.3181C23.8004 24.2086 24.0242 24.0235 24.1811 23.7865C24.3379 23.5496 24.4209 23.2713 24.4193 22.9871C24.4155 22.6102 24.2642 22.2499 23.9978 21.9833C23.7314 21.7167 23.3711 21.565 22.9943 21.5609H22.9909ZM16.514 22.986C16.5125 23.2701 16.5954 23.5482 16.7522 23.785C16.9091 24.0219 17.1328 24.2068 17.3949 24.3162C17.6571 24.4256 17.9458 24.4547 18.2245 24.3996C18.5032 24.3446 18.7593 24.208 18.9602 24.0071C19.161 23.8062 19.2977 23.5502 19.3527 23.2715C19.4077 22.9928 19.3787 22.704 19.2693 22.4419C19.1598 22.1797 18.975 21.956 18.7381 21.7991C18.5013 21.6423 18.2231 21.5594 17.9391 21.5609C17.5625 21.5645 17.2025 21.7159 16.9365 21.9824C16.6706 22.249 16.52 22.6094 16.5174 22.986H16.514ZM29.4587 22.9747C29.4544 22.6911 29.3659 22.4151 29.2045 22.1818C29.0431 21.9485 28.816 21.7685 28.5521 21.6644C28.2882 21.5604 27.9993 21.5371 27.7221 21.5976C27.4449 21.658 27.192 21.7994 26.9953 22.0039C26.7986 22.2083 26.6671 22.4665 26.6174 22.7458C26.5678 23.0252 26.6022 23.3129 26.7163 23.5726C26.8305 23.8323 27.0192 24.0523 27.2586 24.2046C27.4979 24.3568 27.7771 24.4346 28.0607 24.4279C28.4386 24.4191 28.7977 24.2615 29.0601 23.9894C29.3225 23.7173 29.467 23.3527 29.4621 22.9747H29.4587Z" fill="#6E6E6E"/>
</svg>
