<svg width="131" height="47" viewBox="0 0 131 47" fill="none" xmlns="http://www.w3.org/2000/svg">
<path d="M49.7922 15.3725C49.7959 13.3411 50.2049 11.3305 50.9957 9.45651C51.7865 7.5825 52.9436 5.88211 54.4002 4.45328C55.8567 3.02444 57.5841 1.89539 59.4827 1.13116C61.3814 0.366923 63.4138 -0.0173925 65.4629 0.000342857C74.0526 0.0596853 80.9687 7.04877 80.9137 15.6232C80.8611 24.0486 73.7545 30.9008 65.1257 30.8475C56.6753 30.7882 49.7446 23.7955 49.7922 15.3725ZM72.0674 17.2981L65.3395 28.9062C69.1561 29.1024 74.4802 27.0012 77.3036 21.9401C79.9766 17.1467 79.5271 11.3214 76.055 7.06694C72.892 3.19151 68.7407 1.54567 63.7379 1.94896C61.4863 5.81106 59.2738 9.60292 56.9856 13.5256H65.2931L63.1087 17.2496H52.618C54.0657 14.7669 55.467 12.363 56.8671 9.95777C58.2671 7.55258 59.677 5.13407 61.1149 2.65138C55.7846 3.47975 51.2815 10.3017 51.7286 16.6998C52.1391 22.5892 57.8627 28.601 63.2358 28.7306L69.8879 17.2726H65.3994L67.5398 13.5946H78.039L75.8888 17.2981H72.0674Z" fill="#004B88"/>
<path d="M9.69792 40.2198L10.7793 41.7613L10.9391 41.7923C11.1745 41.2038 11.4117 40.6153 11.6726 39.9612H12.9015C12.7757 41.0508 12.3051 42.0729 11.5573 42.8811L12.4289 44.1743H10.7803L10.4683 43.7901C9.4616 44.3139 8.40854 44.477 7.31105 44.223C6.42437 44.0169 5.76172 43.5493 5.56415 42.6C5.35619 41.6039 5.70122 40.813 6.50945 40.2255C6.84692 39.98 7.24394 39.815 7.58141 39.6304C7.44623 39.1741 7.22787 38.7158 7.18911 38.2436C7.10687 37.2549 7.61922 36.5915 8.58153 36.2832C9.22761 36.0631 9.93187 36.0797 10.5666 36.33C11.8986 36.8576 12.185 38.4291 11.0913 39.3577C10.6933 39.6951 10.1961 39.9172 9.69792 40.2198ZM8.33859 40.5637C7.98411 40.784 7.64758 40.933 7.38668 41.1663C6.78547 41.7023 6.91403 42.7096 7.62206 43.0236C8.366 43.3534 9.08443 43.2297 9.78489 42.7921C9.71116 42.6544 9.66106 42.541 9.59584 42.4388C9.19692 41.841 8.79611 41.2459 8.33859 40.5637ZM9.05229 39.3193C9.50509 39.0195 9.92385 38.8264 10.2254 38.5209C10.6262 38.1161 10.509 37.4958 10.0543 37.3027C9.86896 37.2148 9.6615 37.1833 9.45809 37.2121C9.25469 37.241 9.06446 37.3289 8.91144 37.4648C8.76203 37.5818 8.65568 37.7444 8.60886 37.9273C8.56204 38.1103 8.57735 38.3034 8.65243 38.4769C8.74223 38.7158 8.87268 38.9435 9.05229 39.3193Z" fill="#004B88"/>
<path d="M75.841 39.096L76.0301 38.3735H77.4282C77.2665 39.1373 77.1096 39.8729 76.9555 40.615C76.7192 41.7264 76.4923 42.8415 76.2428 43.9501C75.7701 46.0576 74.4637 46.9787 72.298 46.7229C71.7422 46.6573 71.1949 46.5205 70.5842 46.4052C70.7298 45.9507 70.8489 45.5759 70.9784 45.173C72.0249 45.5131 73.0486 45.9142 74.0459 45.2517C74.7227 44.8019 74.8314 44.0241 75.0233 43.3916C74.5705 43.6333 74.1253 43.9744 73.6224 44.1197C72.4502 44.4589 71.4993 43.8779 71.1571 42.7094C70.7024 41.1595 71.4038 39.2469 72.6696 38.5572C73.543 38.0793 74.9638 38.0559 75.6813 39.0014C75.7039 39.0295 75.754 39.0464 75.841 39.096ZM75.4733 40.7828L75.3466 40.734C75.3466 40.0125 75.0829 39.5796 74.5327 39.4174C73.9826 39.2553 73.3776 39.483 73.0817 40.0931C72.8365 40.6096 72.6744 41.1611 72.6015 41.7273C72.5221 42.3439 72.8596 42.8575 73.2764 43.0018C73.5577 43.0885 73.8601 43.0797 74.1358 42.9769C74.4114 42.874 74.6446 42.6829 74.7984 42.4339C75.0933 41.9251 75.254 41.3375 75.4733 40.7846V40.7828Z" fill="#004B88"/>
<path d="M44.8324 44.1961H43.3483C43.4428 43.7117 43.5298 43.2478 43.6168 42.783C43.7642 42.0034 43.9221 41.2247 44.0507 40.4403C44.1121 40.0655 44.0374 39.715 43.6725 39.5033C43.2755 39.2709 42.8775 39.3477 42.506 39.5595C42.0069 39.8406 41.7734 40.3288 41.6458 40.8517C41.4086 41.8206 41.2072 42.7971 40.9841 43.7698C40.9539 43.9066 40.9142 44.0406 40.8745 44.1914H39.397C40.0086 41.3502 40.6126 38.5399 41.2233 35.6987H42.7178C42.4862 36.7492 42.2612 37.7706 42.0145 38.8848C42.2262 38.7555 42.3557 38.6824 42.4796 38.6037C42.7489 38.4246 43.0538 38.3048 43.3737 38.2525C43.6936 38.2001 44.0212 38.2163 44.3343 38.3C45.3259 38.5353 45.8212 39.432 45.5972 40.6362C45.3769 41.816 45.0962 42.9826 44.8324 44.1961Z" fill="#004B88"/>
<path d="M87.3228 43.9124C87.4598 43.4626 87.5818 43.0643 87.7103 42.6417C88.2236 42.7954 88.7048 43.0166 89.2029 43.0672C89.6661 43.1217 90.1357 43.0644 90.5717 42.9004C91.3592 42.5733 91.4707 41.61 90.8232 41.0562C90.5396 40.8144 90.2002 40.6373 89.8779 40.4499C88.787 39.8249 88.3654 39.1474 88.5091 38.2187C88.6707 37.1692 89.3249 36.4955 90.4942 36.2396C91.4991 36.0213 92.4907 36.1206 93.5305 36.472L93.2044 37.6246C92.5266 37.5356 91.9122 37.4466 91.2949 37.3829C91.1379 37.3789 90.9819 37.4083 90.8374 37.4691C90.0433 37.7427 89.8864 38.4942 90.5377 39.0181C90.9158 39.3207 91.3535 39.5456 91.7581 39.8155C92.745 40.4715 93.0522 41.2464 92.8045 42.3915C92.6608 43.0606 92.2922 43.576 91.6891 43.8796C90.2551 44.5965 88.8088 44.4016 87.3228 43.9124Z" fill="#004B88"/>
<path d="M78.3555 38.3784H79.8831C80.0646 39.7775 80.2461 41.1896 80.4285 42.5953L80.5382 42.6374L82.8466 38.3794H84.4838C84.2948 38.7017 84.1398 38.9828 83.9743 39.2611C82.787 41.2602 81.5988 43.2593 80.4096 45.2584C79.9899 45.9622 79.4795 46.5872 78.6003 46.6893C78.1022 46.7465 77.5889 46.6781 77.0056 46.664C77.1408 46.203 77.24 45.8656 77.3563 45.473C78.3687 45.8422 78.934 45.3006 79.3868 44.4788C79.0478 42.4753 78.704 40.4419 78.3555 38.3784Z" fill="#004B88"/>
<path d="M66.67 44.3304C64.457 44.3885 63.5382 42.5874 64.146 40.5633C64.6848 38.7726 66.7153 37.7886 68.5095 38.3752C69.5304 38.7088 70.1373 39.5728 70.1713 40.7404C70.2309 42.7992 68.7468 44.3219 66.67 44.3304ZM65.5451 41.7356C65.528 42.4459 65.7946 42.9454 66.2824 43.1187C66.8779 43.3296 67.586 43.1693 67.9461 42.5883C68.24 42.0834 68.4507 41.5352 68.57 40.9644C68.7213 40.3187 68.4036 39.6918 67.9442 39.4801C67.3865 39.2233 66.6492 39.4107 66.202 39.9317C65.7549 40.4527 65.5659 41.0637 65.5451 41.7356Z" fill="#004B88"/>
<path d="M56.4077 44.3296C54.2023 44.3914 53.3487 42.5698 53.8393 40.735C54.346 38.8402 56.3822 37.7663 58.2643 38.3754C59.4752 38.7671 60.1085 39.9581 59.8713 41.4012C59.581 43.2032 58.251 44.3268 56.4077 44.3296ZM58.3352 40.913C58.3352 40.2571 58.2406 39.722 57.6366 39.4606C57.0817 39.2197 56.3954 39.4231 55.935 39.946C55.4917 40.452 55.3149 41.062 55.2837 41.7133C55.2488 42.4208 55.5248 42.9315 56.0107 43.1123C56.5778 43.3297 57.2188 43.1573 57.6697 42.6391C58.0834 42.1557 58.3182 41.5467 58.3352 40.913Z" fill="#004B88"/>
<path d="M98.8477 43.0367C98.808 43.3 98.7598 43.6195 98.7135 43.9288C97.9308 44.4254 95.7604 44.5632 94.8378 43.7817C93.987 43.0564 93.8783 42.1202 94.0522 41.0979C94.1935 40.2095 94.6842 39.4128 95.4168 38.8824C96.1495 38.3519 97.0644 38.131 97.961 38.2679C98.9508 38.4178 99.5936 39.0176 99.7013 40.0146C99.7609 40.5712 99.6853 41.1391 99.6692 41.7473H95.5269C95.2584 42.3732 95.8105 43.2138 96.6197 43.2138C97.3485 43.2147 98.0726 43.1032 98.8477 43.0367ZM98.2503 40.6884C98.3997 39.9087 98.1558 39.4383 97.5886 39.338C96.665 39.1759 95.8804 39.7279 95.7112 40.6884H98.2503Z" fill="#004B88"/>
<path d="M125.297 41.7608H121.118C121.023 42.5854 121.459 43.1842 122.261 43.2095C122.985 43.231 123.714 43.1017 124.476 43.0352C124.442 43.2807 124.393 43.6255 124.34 44.0032C123.256 44.363 122.166 44.5092 121.069 44.1063C120.057 43.7314 119.641 42.9134 119.623 41.9013C119.59 40.1827 120.681 38.6478 122.283 38.3189C122.776 38.2252 123.283 38.2271 123.776 38.3245C124.755 38.5119 125.289 39.136 125.377 40.149C125.418 40.6513 125.33 41.1648 125.297 41.7608ZM123.879 40.6981C123.99 40.2914 124.012 39.8894 123.69 39.5736C123.312 39.1988 122.818 39.2625 122.367 39.4078C121.764 39.6017 121.496 40.0918 121.287 40.6972L123.879 40.6981Z" fill="#004B88"/>
<path d="M33.7225 41.7471H29.5207C29.3439 42.5342 29.8043 43.1817 30.6314 43.207C31.3555 43.2286 32.0843 43.0983 32.8453 43.0327C32.8075 43.2792 32.7508 43.6222 32.6969 44.0026C31.5219 44.3709 30.3601 44.5368 29.2059 44.0026C28.531 43.6887 28.185 43.1199 28.0385 42.4002C27.683 40.6451 28.8486 38.7138 30.6031 38.3361C31.1769 38.2124 31.8319 38.2715 32.4095 38.4045C33.2073 38.5919 33.6838 39.2826 33.7178 40.1006C33.7405 40.6226 33.7225 41.1511 33.7225 41.7471ZM32.2356 40.6854C32.436 39.9863 32.176 39.4484 31.6089 39.3379C31.3945 39.291 31.1726 39.2897 30.9578 39.3339C30.7429 39.3782 30.5399 39.4671 30.3622 39.5948C30.1845 39.7224 30.0361 39.886 29.9267 40.0746C29.8174 40.2632 29.7495 40.4726 29.7277 40.6891L32.2356 40.6854Z" fill="#004B88"/>
<path d="M49.145 38.8121C49.6933 38.515 50.2208 38.1974 50.8967 38.233C52.031 38.2929 52.8374 39.0763 52.6823 40.1924C52.4933 41.5287 52.1709 42.8471 51.9025 44.1871H50.3824C50.5271 43.4806 50.6717 42.79 50.8097 42.0984C50.9099 41.5943 51.012 41.091 51.0933 40.5841C51.1642 40.1652 51.1339 39.7585 50.7227 39.5083C50.3115 39.2581 49.8502 39.3031 49.5317 39.5936C49.2131 39.8841 48.8785 40.2983 48.7546 40.7181C48.438 41.791 48.2338 42.8959 47.9833 43.9875C47.97 44.0466 47.9521 44.1047 47.9294 44.1871H46.4519C46.8669 42.2521 47.279 40.3311 47.6969 38.3857H49.0751C49.0997 38.5338 49.1243 38.6809 49.1488 38.8261L49.1176 38.8158L49.145 38.8121Z" fill="#004B88"/>
<path d="M26.9543 37.4543C26.4524 39.7455 25.9665 41.9635 25.4787 44.1928H23.8434C24.3245 41.9682 24.8009 39.7689 25.2944 37.4871H23.0342L23.2913 36.312H29.4518C29.3762 36.6868 29.3043 37.0467 29.2221 37.4552L26.9543 37.4543Z" fill="#004B88"/>
<path d="M15.4538 37.4742H13.2012C13.2881 37.0526 13.3628 36.6852 13.4403 36.3066H19.6074C19.5242 36.7049 19.4467 37.0769 19.3645 37.4742H17.1024C16.6099 39.7232 16.1212 41.9478 15.6315 44.1856H13.9943C14.4783 41.9544 14.9547 39.7551 15.4538 37.4742Z" fill="#004B88"/>
<path d="M1.68924 36.3047H3.25938C2.78673 38.5134 2.32259 40.6949 1.84144 42.9523H4.99021L4.71797 44.1949H0L1.68924 36.3047Z" fill="#004B88"/>
<path d="M106.269 44.1914C105.946 42.2788 105.63 40.4065 105.316 38.5333C105.318 38.4811 105.328 38.4295 105.347 38.3806H106.813C107.008 39.755 107.202 41.1315 107.396 42.5103L107.525 42.5543L109.804 38.374H111.393C110.234 40.3419 109.103 42.2601 107.966 44.1886L106.269 44.1914Z" fill="#004B88"/>
<path d="M130.706 38.5043C130.601 38.8529 130.504 39.1771 130.4 39.5257C130.076 39.4458 129.749 39.3832 129.418 39.3383C129.138 39.3071 128.853 39.3233 128.578 39.3861C128.035 39.5304 127.932 39.9887 128.346 40.3635C128.547 40.5385 128.764 40.6953 128.993 40.832C129.76 41.3062 130.263 41.9087 130.033 42.8748C129.814 43.7847 129.11 44.1474 128.278 44.272C127.407 44.4032 126.526 44.4032 125.654 43.9909L125.93 42.9704C126.566 43.0641 127.159 43.1813 127.75 43.2122C127.963 43.2225 128.252 43.0679 128.391 42.8973C128.619 42.6162 128.518 42.2901 128.248 42.068C127.936 41.8103 127.586 41.5948 127.26 41.353C126.126 40.5097 126.306 39.0441 127.614 38.4856C128.395 38.1529 129.793 38.152 130.706 38.5043Z" fill="#004B88"/>
<path d="M38.6305 42.9659C38.5719 43.3604 38.5209 43.709 38.4623 44.1017C37.4224 44.4043 36.4062 44.5337 35.4732 43.888C34.5402 43.2424 34.3833 42.2734 34.5346 41.2558C34.9127 38.6882 37.0547 37.8055 39.3414 38.4071C39.383 38.4174 39.417 38.4586 39.4822 38.5055C39.3726 38.8653 39.262 39.2298 39.1429 39.6178C39.0483 39.5878 38.9954 39.5709 38.9406 39.5494C38.1238 39.2383 37.3421 39.2682 36.7267 39.9345C36.065 40.657 35.8939 41.5275 36.2181 42.458C36.4072 43.0015 36.9592 43.278 37.6002 43.188C37.9244 43.1468 38.2411 43.0596 38.6305 42.9659Z" fill="#004B88"/>
<path d="M118.585 44.0488C117.173 44.6644 115.182 44.3627 114.731 42.6956C114.225 40.8383 115.273 38.2454 118.008 38.2417C118.322 38.2433 118.636 38.2617 118.948 38.297C119.168 38.3339 119.385 38.3821 119.599 38.4413C119.479 38.8536 119.368 39.2322 119.274 39.5536C118.801 39.488 118.381 39.3503 117.976 39.3868C116.304 39.533 115.802 41.6761 116.438 42.6816C116.733 43.1454 117.214 43.2438 117.722 43.1885C118.032 43.1557 118.334 43.0592 118.714 42.9749C118.669 43.3403 118.628 43.6842 118.585 44.0488Z" fill="#004B88"/>
<path d="M62.3508 35.6997H63.8529C63.2422 38.5568 62.641 41.3681 62.037 44.1915H60.5349C61.1456 41.3465 61.7449 38.5362 62.3508 35.6997Z" fill="#004B88"/>
<path d="M101.734 44.1895H100.281C100.683 42.2414 101.079 40.325 101.479 38.3844H102.874C102.836 38.6655 102.798 38.9307 102.741 39.342C103.374 38.5521 104.033 38.0517 105.041 38.3028C104.947 38.7714 104.852 39.223 104.758 39.6691C103.208 39.656 102.653 40.1123 102.324 41.6369C102.152 42.4447 101.977 43.2515 101.799 44.0574C101.782 44.1034 101.76 44.1477 101.734 44.1895Z" fill="#004B88"/>
<path d="M112.429 38.374H113.927C113.511 40.3156 113.1 42.2357 112.684 44.1839H111.178C111.59 42.2507 112.006 40.3363 112.429 38.374Z" fill="#004B88"/>
<path d="M112.993 35.844H114.485C114.39 36.3125 114.296 36.7483 114.195 37.2159H112.696C112.797 36.7483 112.891 36.3125 112.993 35.844Z" fill="#004B88"/>
</svg>
