<svg width="56" height="56" viewBox="0 0 56 56" fill="none" xmlns="http://www.w3.org/2000/svg">
<g clip-path="url(#clip0_28_646)">
<path d="M56 30.9334C55.8542 31.2834 55.7434 31.6625 55.5465 31.9775C54.9456 32.9532 54.0429 33.4359 52.8996 33.4359C51.4063 33.4446 49.9129 33.4359 48.3788 33.4359V42.8669C48.6194 42.6292 48.8163 42.4294 49.0131 42.2428C49.7758 41.5223 50.75 41.5136 51.5069 42.2311C51.9167 42.619 52.3177 43.0186 52.7042 43.4298C53.3852 44.159 53.4129 45.1288 52.7217 45.8317C50.9848 47.5963 49.2392 49.3536 47.46 51.0817C47.002 51.5282 46.3886 51.7795 45.749 51.7825C45.1094 51.7855 44.4936 51.54 44.0315 51.0978C42.2217 49.355 40.4513 47.57 38.6911 45.7778C38.4003 45.4776 38.237 45.0766 38.2354 44.6588C38.2338 44.2409 38.3939 43.8387 38.6823 43.5363C39.1196 43.0478 39.583 42.5833 40.0706 42.145C40.3818 41.8566 40.791 41.6972 41.2153 41.6991C41.6395 41.701 42.0473 41.864 42.3558 42.1553C42.5705 42.3765 42.7703 42.6118 42.9538 42.8596L43.0996 42.7838C43.1142 42.638 43.1404 42.4921 43.1419 42.3463C43.1419 41.5996 43.1302 40.853 43.1579 40.1092C43.1546 39.9991 43.174 39.8895 43.2149 39.7872C43.2557 39.6849 43.3172 39.5922 43.3954 39.5146C43.4736 39.4371 43.567 39.3764 43.6696 39.3365C43.7723 39.2965 43.882 39.2781 43.9921 39.2823C44.0976 39.283 44.2019 39.305 44.2987 39.3468C44.3955 39.3886 44.483 39.4495 44.5558 39.5259C44.6286 39.6022 44.6853 39.6924 44.7225 39.7911C44.7597 39.8899 44.7766 39.9951 44.7723 40.1005C44.7898 41.7046 44.8015 43.3088 44.7563 44.9028C44.7563 45.1623 44.4836 45.5605 44.2546 45.6319C44.0947 45.6639 43.9297 45.6606 43.7712 45.622C43.6128 45.5835 43.4647 45.5107 43.3373 45.4088C42.6082 44.7584 41.9417 44.035 41.2402 43.3307L39.919 44.6782C40.0123 44.7817 40.1144 44.9042 40.2281 45.018C41.7613 46.5492 43.295 48.0795 44.8292 49.6088C45.5146 50.2913 45.955 50.2942 46.6317 49.619C48.1678 48.0907 49.7015 46.5599 51.2327 45.0267C51.3465 44.9144 51.45 44.7905 51.5521 44.6782L50.1886 43.3657C49.5746 43.9884 48.9184 44.6403 48.2782 45.3053C47.9646 45.6305 47.6263 45.8507 47.1669 45.6523C46.7075 45.454 46.6886 45.069 46.6886 44.6446C46.6944 41.1524 46.6944 37.6592 46.6886 34.165V33.4738H44.7825C44.7825 34.1884 44.7825 34.9103 44.7825 35.6307C44.7825 35.8494 44.7913 36.0682 44.7709 36.2855C44.7242 36.7842 44.4194 37.0701 43.9615 37.0671C43.8559 37.0724 43.7503 37.0558 43.6514 37.0182C43.5526 36.9806 43.4626 36.9229 43.3873 36.8487C43.3119 36.7746 43.2527 36.6856 43.2135 36.5874C43.1742 36.4891 43.1558 36.3839 43.1594 36.2782C43.1273 35.549 43.1448 34.8198 43.1419 34.0907V33.4738H12.8596V35.0955C12.8596 35.8771 12.8713 36.6603 12.8596 37.4419C12.845 38.0515 12.5271 38.3796 12.0152 38.3651C11.5267 38.3519 11.2379 38.0355 11.2306 37.4448C11.2161 36.3175 11.2306 35.1888 11.2306 34.0615V33.4578H9.32459V34.098C9.32459 37.5912 9.32459 41.0839 9.32459 44.5761C9.32459 45.0136 9.3246 45.4365 8.85502 45.6436C8.38543 45.8507 8.02814 45.6028 7.70293 45.2688C7.07147 44.6169 6.42399 43.9826 5.76774 43.3263C5.33024 43.7973 4.91314 44.2305 4.48002 44.6913C4.56022 44.7803 4.66231 44.9042 4.77168 45.018C6.31752 46.5609 7.86433 48.1038 9.41211 49.6467C10.0436 50.2753 10.5059 50.2782 11.1373 49.6467C12.7006 48.0912 14.2601 46.5356 15.8156 44.9801C15.9163 44.8794 16.0038 44.7671 16.1073 44.6563L14.7831 43.3292C14.1225 43.9913 13.4619 44.6417 12.8188 45.3038C12.5023 45.629 12.1625 45.8448 11.7061 45.6465C11.2496 45.4482 11.2263 45.053 11.2292 44.6344C11.2292 43.6136 11.2292 42.5928 11.2292 41.5719C11.2292 40.9346 11.55 40.5511 12.0458 40.5584C12.5417 40.5657 12.8494 40.9405 12.8654 41.5792C12.8742 41.9423 12.8654 42.3084 12.88 42.6701C12.88 42.6992 12.9106 42.7298 13.0142 42.9121C13.1769 42.6861 13.3522 42.4695 13.5392 42.2632C14.3121 41.5048 15.2892 41.5005 16.0679 42.2486C16.4632 42.6248 16.8511 43.0113 17.2259 43.4153C17.9288 44.1561 17.955 45.1405 17.2463 45.8609C15.5327 47.5977 13.8119 49.3288 12.0619 51.0292C11.0265 52.0355 9.49815 52.0165 8.46711 51.0059C6.73753 49.3113 5.02836 47.5948 3.32211 45.8755C2.60898 45.1565 2.61044 44.1721 3.30607 43.4357C3.69398 43.0244 4.09502 42.6278 4.50335 42.2384C5.24856 41.5267 6.20086 41.5092 6.9519 42.2107C7.14856 42.4219 7.32847 42.6482 7.49002 42.8873L7.63585 42.7794V33.4461C6.15564 33.4461 4.68419 33.4869 3.21565 33.4271C2.62029 33.3956 2.037 33.2469 1.49919 32.9896C0.659191 32.593 0.265443 31.7938 0.00585938 30.9348V2.44337C0.176918 1.8752 0.486288 1.35834 0.906245 0.939148C1.3262 0.519954 1.84362 0.211528 2.41211 0.0415039H9.41211C9.75336 0.333171 10.0727 0.624844 9.87003 1.14255C9.66732 1.66026 9.25023 1.68359 8.7894 1.68213C6.94898 1.67532 5.10808 1.67532 3.26669 1.68213C2.18898 1.68213 1.64794 2.21588 1.64794 3.2863C1.64794 12.2531 1.64794 21.2199 1.64794 30.1867C1.64794 31.2586 2.18753 31.8055 3.25211 31.8069H52.7319C53.83 31.8069 54.3623 31.2659 54.3623 30.1561C54.3623 21.2253 54.3623 12.2944 54.3623 3.36359C54.3623 2.19692 53.8446 1.68359 52.6546 1.68359H13.6734C13.5275 1.68359 13.3817 1.67484 13.2359 1.68359C12.7634 1.7113 12.3375 1.61942 12.1713 1.11921C12.005 0.619006 12.2821 0.289423 12.6904 0.0444234H53.4844C54.81 0.395882 55.6456 1.23588 56 2.55421V30.9334Z" fill="#353435"/>
<path d="M39.1971 16.7307C39.2029 18.9471 38.5508 21.1153 37.3235 22.9609C36.0962 24.8065 34.3488 26.2464 32.3026 27.0982C30.2564 27.9501 28.0035 28.1756 25.8291 27.7462C23.6547 27.3168 21.6566 26.2518 20.0878 24.6861C18.519 23.1204 17.4501 21.1244 17.0165 18.9508C16.5828 16.7773 16.8039 14.5239 17.6518 12.476C18.4996 10.4282 19.9361 8.67801 21.7793 7.44708C23.6224 6.21615 25.7894 5.55985 28.0059 5.56128C30.971 5.55858 33.8158 6.73378 35.9145 8.8284C38.0132 10.923 39.194 13.7655 39.1971 16.7307ZM18.4421 16.7307C18.4383 18.6218 18.9957 20.4716 20.0437 22.0459C21.0916 23.6202 22.5831 24.8482 24.3292 25.5745C26.0754 26.3008 27.9977 26.4928 29.853 26.1262C31.7083 25.7595 33.4132 24.8507 34.7518 23.5148C36.0903 22.1788 37.0025 20.4758 37.3729 18.6213C37.7432 16.7667 37.555 14.8439 36.8322 13.0964C36.1093 11.3488 34.8843 9.85491 33.3121 8.80383C31.7399 7.75275 29.8912 7.19171 28 7.19171C26.7451 7.18921 25.5021 7.43434 24.3421 7.91306C23.1821 8.39178 22.128 9.09467 21.2401 9.98147C20.3522 10.8683 19.648 11.9215 19.1679 13.0809C18.6878 14.2403 18.4411 15.4831 18.4421 16.738V16.7307Z" fill="#353435"/>
<path d="M5.24269 10.0252V23.4681C6.43453 23.6644 7.53641 24.2248 8.39707 25.0723C9.26598 25.9416 9.83463 27.0656 10.0202 28.2806H18.7235C18.9055 28.2748 19.0877 28.2806 19.2689 28.2981C19.4635 28.3102 19.6457 28.3977 19.7767 28.5421C19.9077 28.6864 19.9772 28.8762 19.9704 29.0711C19.987 29.2561 19.9334 29.4406 19.8202 29.5878C19.7069 29.7351 19.5424 29.8343 19.3594 29.8658C19.163 29.9043 18.9629 29.9209 18.7629 29.9154C15.7189 29.9154 12.6758 29.9154 9.63375 29.9154C8.69312 29.9154 8.4802 29.7127 8.41895 28.7837C8.29061 26.8062 6.69375 25.2342 4.6375 25.0606C3.7625 24.9863 3.58167 24.801 3.58167 23.9027C3.58167 19.1194 3.58167 14.3365 3.58167 9.55417C3.58167 8.69083 3.76104 8.49833 4.6025 8.42104C6.79 8.22416 8.27165 6.6973 8.4204 4.50834C8.46415 3.86667 8.74123 3.56918 9.37998 3.56772C12.5883 3.55897 15.7966 3.55897 19.005 3.56772C19.5985 3.56772 19.9733 3.90167 19.9806 4.38C19.9806 4.88167 19.6131 5.19813 18.9729 5.19959C16.2225 5.19959 13.4711 5.19959 10.7187 5.19959H10.045C9.4777 7.84063 7.88519 9.4375 5.24269 10.0252Z" fill="#353435"/>
<path d="M45.9536 28.2778C46.5252 25.6426 48.1017 24.0559 50.7355 23.4653V10.0282C48.1338 9.44489 46.5282 7.86698 45.955 5.20698H37.2634C37.0813 5.2131 36.8991 5.20676 36.718 5.18802C36.5376 5.16273 36.3713 5.0765 36.2468 4.94365C36.1222 4.8108 36.0469 4.63933 36.0332 4.45773C36.0196 4.27613 36.0685 4.09533 36.1719 3.94537C36.2752 3.79542 36.4267 3.68535 36.6013 3.63343C36.795 3.58637 36.9942 3.56624 37.1934 3.57363C40.2549 3.57363 43.3174 3.57363 46.3809 3.57363C47.3069 3.57363 47.5227 3.78363 47.5855 4.71842C47.7167 6.68863 49.2975 8.23593 51.3771 8.42989C52.2419 8.51156 52.4213 8.69677 52.4213 9.54552C52.4213 14.3464 52.4213 19.1477 52.4213 23.9495C52.4213 24.8011 52.2302 25.0024 51.3829 25.0709C49.2582 25.2416 47.7036 26.8209 47.5796 28.9384C47.5373 29.6443 47.2675 29.9213 46.55 29.9228C43.3796 29.9306 40.2092 29.9306 37.0388 29.9228C36.4059 29.9228 36.0179 29.5932 36.0179 29.0974C36.0179 28.6016 36.3913 28.2909 37.0388 28.2909C39.7902 28.2851 42.5416 28.2851 45.2929 28.2909L45.9536 28.2778Z" fill="#353435"/>
<path d="M30.7431 47.0363C30.9165 46.8115 31.102 46.5963 31.2987 46.3917C32.0177 45.715 32.9831 45.7048 33.705 46.3742C34.1425 46.7825 34.5698 47.2083 34.9781 47.6473C35.63 48.3458 35.6475 49.3258 34.9781 50.0054C33.2412 51.7671 31.4971 53.5229 29.7194 55.2452C29.2588 55.7017 28.6371 55.9585 27.9887 55.9601C27.3402 55.9618 26.7172 55.7081 26.2544 55.254C24.4635 53.5215 22.7062 51.754 20.9592 49.9748C20.3146 49.32 20.3423 48.3415 20.9737 47.6561C21.3675 47.2273 21.7846 46.8204 22.206 46.4194C22.9687 45.6902 23.921 45.6902 24.6852 46.4194C24.8733 46.6168 25.05 46.8247 25.2146 47.0421L25.3808 46.9779V46.4238C25.3808 43.6043 25.3808 40.7849 25.3808 37.9654C25.3808 36.6267 26.0502 35.9661 27.4006 35.9631C27.8206 35.9631 28.2392 35.9631 28.6577 35.9631C29.8637 35.9719 30.5535 36.6456 30.5535 37.859C30.5623 40.6765 30.5535 43.494 30.5535 46.3173V46.94L30.7431 47.0363ZM27.0273 37.6373V38.3548C27.0273 41.8441 27.0273 45.3344 27.0273 48.8256C27.0273 49.2719 26.969 49.6627 26.4921 49.8465C26.0152 50.0302 25.7294 49.775 25.4377 49.4775C24.7902 48.8169 24.1412 48.165 23.5769 47.5817L22.1871 48.8942C23.8058 50.5086 25.4406 52.1404 27.0769 53.7694C27.7725 54.4621 28.1881 54.4665 28.875 53.7825C30.4208 52.2425 31.9657 50.7001 33.5096 49.1552C33.619 49.0459 33.7137 48.9219 33.7429 48.8883L32.3837 47.4854C32.2794 47.6446 32.1644 47.7967 32.0396 47.9404C31.4927 48.499 30.9633 49.0823 30.3654 49.5825C30.1437 49.7677 29.696 49.8873 29.4554 49.7867C29.2148 49.6861 29.0748 49.2865 28.9391 48.9948C28.8764 48.8607 28.926 48.6725 28.926 48.5092C28.926 45.0918 28.926 41.6745 28.926 38.2571C28.926 38.0486 28.8998 37.84 28.8852 37.6242L27.0273 37.6373Z" fill="#353435"/>
<path d="M27.1337 10.3097C27.2606 9.16486 27.44 8.8761 28 8.8761C28.56 8.8761 28.7408 9.16777 28.8531 10.2834C29.4131 10.5649 29.9789 10.8069 30.4996 11.1234C31.0202 11.4399 31.1369 11.9634 30.8452 12.3703C30.5535 12.7772 30.116 12.8078 29.5925 12.4782C29.3825 12.3469 29.155 12.2376 28.8633 12.0757V15.7011C30.5812 16.229 31.8121 17.2411 31.78 19.1632C31.7479 21.0853 30.695 22.3351 28.8633 22.9315C28.7175 23.5761 29.0996 24.5999 27.9533 24.5794C26.9835 24.5605 27.2431 23.668 27.1702 23.2101C26.2631 22.8236 25.4304 22.494 24.6239 22.1119C24.2666 21.9413 24.0698 21.5636 24.2637 21.1961C24.4221 20.9279 24.6708 20.7247 24.9652 20.623C25.1548 20.5617 25.4318 20.7513 25.6623 20.8461C26.1231 21.0342 26.5796 21.2326 27.1323 21.4674V16.7657C26.7517 16.5542 26.3448 16.3282 25.9321 16.1007C24.7873 15.4867 24.2302 14.5228 24.3279 13.2409C24.4329 11.8715 25.2029 10.9732 26.4921 10.5109C26.6991 10.4322 26.9092 10.3797 27.1337 10.3097ZM28.8619 21.1261C29.7237 20.7017 30.2283 19.8471 30.1496 19.0319C30.0708 18.2167 29.6377 17.7194 28.8619 17.5226V21.1261ZM27.141 12.0757C26.4119 12.2507 25.9918 12.729 25.9496 13.3882C25.9073 14.0474 26.2748 14.514 27.141 14.8159V12.0757Z" fill="#353435"/>
</g>
<defs>
<clipPath id="clip0_28_646">
<rect width="56" height="55.9169" fill="white" transform="translate(0 0.0415039)"/>
</clipPath>
</defs>
</svg>
