<svg width="48" height="56" viewBox="0 0 48 56" fill="none" xmlns="http://www.w3.org/2000/svg">
<g clip-path="url(#clip0_28_641)">
<path d="M23.5602 56C22.3768 55.6202 21.3688 54.9496 21.249 53.6625C21.1029 52.2015 21.1628 50.7187 21.2563 49.2519C21.2899 48.7332 21.6946 48.2394 21.9546 47.6638C21.2592 46.983 21.0941 46.0246 21.1423 44.9873C21.173 44.3328 21.1715 43.6725 21.1423 43.0194C21.0985 42.0143 21.2884 41.0983 22.0554 40.3386C21.2592 39.554 21.0927 38.5956 21.1423 37.5627C21.173 36.9258 21.1701 36.2858 21.1423 35.6489C21.0985 34.6262 21.2577 33.6868 22.0583 32.9198C21.2709 32.144 21.1014 31.2076 21.1394 30.1864C21.173 29.3317 21.1394 28.4741 21.1496 27.618C21.1463 26.8893 21.4153 26.1856 21.904 25.645C22.3927 25.1045 23.0657 24.766 23.791 24.6961C24.0268 24.6705 24.2639 24.6588 24.5011 24.661C28.7749 24.661 33.0482 24.661 37.321 24.661C38.2122 24.661 38.5964 24.9167 38.5906 25.4996C38.5847 26.0825 38.2268 26.3002 37.3005 26.3002H24.5902C23.2096 26.3002 22.7903 26.7166 22.7903 28.0855C22.7903 28.9431 22.7903 29.7992 22.7903 30.6553C22.8005 31.567 23.2987 32.0812 24.2191 32.0812C30.9395 32.089 37.6599 32.089 44.3803 32.0812C45.3256 32.0812 45.8033 31.567 45.8091 30.6057C45.815 29.6745 45.815 28.7449 45.8091 27.8167C45.8091 26.8057 45.3212 26.3163 44.2927 26.3017C43.2335 26.287 42.1743 26.3119 41.1165 26.29C40.443 26.2768 40.0252 25.6559 40.3598 25.1358C40.4453 25.0136 40.5553 24.9105 40.6828 24.833C40.8104 24.7556 40.9526 24.7054 41.1005 24.6858C42.3223 24.6276 43.5462 24.633 44.7675 24.7019C46.3482 24.8159 47.4294 26.0431 47.4513 27.6238C47.4644 28.5895 47.4352 29.5552 47.46 30.5209C47.484 30.9598 47.4165 31.3989 47.2618 31.8103C47.1071 32.2218 46.8687 32.5966 46.5615 32.911C47.5287 33.8212 47.4863 35.0104 47.4571 36.2011C47.4425 36.7665 47.4571 37.3319 47.4571 37.8973C47.4571 39.0135 47.3022 39.4459 46.5805 40.3444C47.4761 41.202 47.5068 42.3211 47.4659 43.4665C47.444 44.0669 47.441 44.6703 47.4659 45.2693C47.5053 46.2072 47.2672 47.0371 46.5645 47.7529C47.441 48.5944 47.5097 49.6653 47.4659 50.78C47.4381 51.4901 47.4659 52.2015 47.4659 52.913C47.4556 54.4397 46.6974 55.4566 45.2394 55.9094C45.1726 55.9358 45.1081 55.9675 45.0465 56.0044H40.0062C39.6644 55.7122 39.3824 55.3703 39.5782 54.8809C39.7739 54.3915 40.2151 54.3565 40.6768 54.3608C41.8996 54.3711 43.1224 54.3608 44.3467 54.3608C45.2964 54.3608 45.8077 53.8524 45.8208 52.9218C45.8296 51.9556 45.8296 50.9894 45.8208 50.0232C45.8208 49.0897 45.2993 48.5769 44.3599 48.5769C37.6765 48.5769 30.9931 48.5769 24.3097 48.5769C23.3308 48.5769 22.818 49.0868 22.8107 50.0525C22.8107 50.9451 22.8107 51.8378 22.8107 52.7319C22.8107 53.8919 23.2768 54.3608 24.4295 54.3623H31.7693C33.4684 54.3623 35.1661 54.3623 36.8652 54.3623C37.3312 54.3623 37.695 54.4938 37.8323 54.9803C37.9623 55.439 37.6775 55.7254 37.3853 56.003L23.5602 56ZM34.2793 46.9319C37.62 46.9319 40.9607 46.9319 44.3014 46.9319C45.3241 46.9319 45.8062 46.4366 45.8121 45.4198C45.8121 44.4731 45.8194 43.5205 45.8121 42.5782C45.8033 41.6783 45.2905 41.1654 44.3789 41.145C43.8135 41.1318 43.2481 41.145 42.6812 41.145H24.4426C23.2592 41.145 22.7932 41.6169 22.7917 42.8047C22.7917 43.6423 22.7917 44.4804 22.7917 45.319C22.7917 46.4746 23.2549 46.9333 24.4222 46.9333C27.7084 46.9343 30.9941 46.9338 34.2793 46.9319ZM34.2895 39.5H44.2561C45.3475 39.5 45.8077 39.0295 45.8121 37.9294C45.8121 37.0733 45.8121 36.2172 45.8121 35.3611C45.8121 34.1762 45.3489 33.7204 44.1495 33.7189C41.849 33.7189 39.5485 33.7189 37.2479 33.7189H24.4339C23.2651 33.7189 22.7947 34.1908 22.7917 35.326C22.7917 36.1821 22.7917 37.0382 22.7917 37.8944C22.7917 39.0251 23.2549 39.4926 24.3769 39.5014L34.2895 39.5Z" fill="#353435"/>
<path d="M9.09673 56C9.07278 55.9731 9.04405 55.9508 9.01199 55.9343C7.32167 55.3674 6.63794 54.428 6.63647 52.6471C6.63647 45.5576 6.63647 38.4675 6.63647 31.377C6.63647 30.3017 6.63647 29.2265 6.63647 28.1512C6.63647 27.9759 6.61894 27.8006 6.60433 27.5376C5.52469 28.2199 4.52393 28.8788 3.49395 29.4865C3.15551 29.6952 2.7736 29.8231 2.37778 29.8605C2.1445 29.8759 1.91055 29.8433 1.69034 29.7648C1.47013 29.6863 1.26833 29.5636 1.09737 29.4041C0.926417 29.2446 0.789923 29.0519 0.696307 28.8376C0.602691 28.6234 0.553933 28.3923 0.553042 28.1585C0.528206 26.3718 0.51944 24.585 0.553042 22.7997C0.579339 21.4323 2.05199 20.6375 3.2602 21.3388C4.22297 21.8925 5.14776 22.5075 6.09008 23.1051C6.23617 23.1971 6.39395 23.2818 6.63501 23.4221V22.7544C6.63501 19.8569 6.63501 16.9588 6.63501 14.0603C6.62617 13.842 6.63791 13.6233 6.67008 13.4072C6.70794 13.2295 6.80512 13.07 6.94565 12.9548C7.08618 12.8397 7.26169 12.7757 7.44337 12.7735C7.62504 12.7713 7.80206 12.831 7.94535 12.9427C8.08864 13.0544 8.18967 13.2115 8.23184 13.3882C8.26847 13.6034 8.28316 13.8217 8.27567 14.0398C8.27567 17.3513 8.27567 20.6682 8.27567 23.9904V24.6186H14.3635V24.0415C14.3635 17.1517 14.3635 10.2623 14.3635 3.37337C14.3635 2.10525 13.8916 1.64359 12.6103 1.64359C11.6972 1.64359 10.7841 1.64359 9.87103 1.64359C8.8133 1.64359 8.29028 2.15784 8.28444 3.22142C8.27421 5.39094 8.28444 7.55901 8.28444 9.72854C8.28444 9.89216 8.28444 10.0573 8.28444 10.2209C8.24353 10.7804 7.92358 11.0974 7.43416 11.0872C6.96957 11.0711 6.65693 10.757 6.65547 10.2106C6.6467 7.75039 6.61456 5.29014 6.67592 2.82988C6.71537 1.21553 8.03023 0.0263017 9.65335 0.00438728C10.7856 -0.0102223 11.9178 -0.0131442 13.0501 0.00438728C13.8347 0.00896697 14.5861 0.322212 15.1416 0.876379C15.6971 1.43055 16.0122 2.1811 16.0188 2.96575C16.0275 3.36606 16.0188 3.76782 16.0188 4.16812C16.0188 20.189 16.0261 36.2108 16.0407 52.2337C16.0407 54.111 15.4198 55.3937 13.5965 55.9956L9.09673 56ZM8.28005 26.3265V52.5872C8.28005 52.6968 8.28005 52.8064 8.28005 52.9145C8.32534 53.8334 8.85421 54.3477 9.78192 54.3579C10.7096 54.3681 11.6812 54.3579 12.6308 54.3579C13.8974 54.3579 14.3649 53.8845 14.3649 52.6047C14.3649 44.0406 14.3649 35.477 14.3649 26.9138C14.3649 26.7209 14.3474 26.5281 14.3386 26.3294L8.28005 26.3265ZM6.78695 25.4777L2.23753 22.6127V28.3514L6.78695 25.4777Z" fill="#353435"/>
</g>
<defs>
<clipPath id="clip0_28_641">
<rect width="46.9406" height="56" fill="white" transform="translate(0.529663)"/>
</clipPath>
</defs>
</svg>
