<svg width="79" height="79" viewBox="0 0 79 79" fill="none" xmlns="http://www.w3.org/2000/svg">
<rect width="79" height="79" rx="8" fill="#292929"/>
<g clip-path="url(#clip0_38_864)">
<path d="M62 61.5557C61.7875 61.9079 61.4775 62.003 61.0748 62.0019C54.8655 61.9925 48.6558 61.9901 42.4458 61.9948C41.6803 61.9948 41.5006 61.8128 41.4995 61.0309C41.4995 58.0722 41.4995 55.1139 41.4995 52.1561C41.4995 50.0639 40.4968 48.8205 38.4469 48.3685L36.4392 47.9259L34.3059 49.8525C33.9689 50.1578 33.6296 50.4595 33.2974 50.7683C32.7338 51.2908 32.1057 51.4117 31.3965 51.0982C31.1453 50.9879 30.8882 50.8927 30.5571 50.7601V51.2814C30.5571 54.503 30.5571 57.7251 30.5571 60.9475C30.563 61.1081 30.5583 61.2689 30.543 61.4289C30.5322 61.5783 30.466 61.7183 30.3574 61.8214C30.2489 61.9246 30.1057 61.9835 29.9559 61.9866C29.8083 62.0106 29.657 61.9773 29.5331 61.8935C29.4091 61.8097 29.3218 61.6817 29.2891 61.5358C29.2466 61.3511 29.2289 61.1616 29.2362 60.9722C29.2362 57.7505 29.2362 54.5285 29.2362 51.306V50.7695C28.9404 50.8869 28.6962 50.9738 28.4613 51.0806C27.724 51.414 27.0783 51.2955 26.483 50.746C25.4604 49.8067 24.4237 48.878 23.3623 47.9176C22.4489 48.1325 21.5085 48.2934 20.6068 48.5787C19.2155 49.0213 18.3244 50.3398 18.3197 51.8402C18.3114 54.8928 18.3197 57.9337 18.3197 60.9792C18.3291 61.1252 18.3256 61.2718 18.3091 61.4172C18.2422 61.7811 18.0168 61.9972 17.6434 61.9889C17.2912 61.9819 17.0787 61.7682 17.0141 61.4254C16.9978 61.2945 16.9939 61.1625 17.0024 61.0309C17.0024 58.0284 17.0024 55.0263 17.0024 52.0246C17.0024 49.4862 18.4465 47.6805 20.9226 47.124C21.593 46.9713 22.2634 46.8222 22.9655 46.6637C23.4046 45.9241 23.8519 45.1703 24.2981 44.4165C24.8464 43.4914 25.2256 43.3599 26.24 43.7755V42.1447C25.1238 41.3119 24.2781 40.1684 23.8085 38.8573C23.441 38.8573 23.0629 38.8573 22.6861 38.8573C21.2032 38.8362 20.1829 37.81 20.1724 36.3283C20.1724 35.7718 20.1559 35.2153 20.1724 34.6588C20.192 34.282 20.2466 33.9078 20.3356 33.5411C20.0244 32.475 19.8659 31.3714 20.2581 30.31C20.5692 29.4553 21.0459 28.6569 21.4955 27.8585C21.5369 27.7796 21.595 27.7105 21.6657 27.6562C21.7363 27.6018 21.818 27.5634 21.9049 27.5436C21.9919 27.5239 22.0821 27.5232 22.1693 27.5417C22.2565 27.5602 22.3387 27.5974 22.4101 27.6507C22.7354 27.8679 22.7624 28.2237 22.564 28.6182C22.1824 29.352 21.7304 30.0717 21.4991 30.8489C21.3288 31.4207 21.465 32.0817 21.465 32.7169C21.5673 32.738 21.6708 32.7529 21.775 32.7615C23.6194 32.7615 25.4651 32.7615 27.3107 32.7615C28.4097 32.7615 29.329 32.3823 30.0757 31.5252C29.1728 30.9041 28.5799 30.0975 28.3827 29.0338C28.3434 28.8177 28.3257 28.5982 28.3298 28.3787C28.3298 27.9865 28.5799 27.7271 28.9357 27.7083C29.2914 27.6895 29.5661 27.9137 29.6295 28.2953C29.6612 28.482 29.6518 28.6769 29.6929 28.8612C29.943 29.9719 30.8529 30.7069 32.0411 30.7397C32.641 30.7573 33.241 30.7397 33.8421 30.7397C35.5715 30.7397 35.9836 31.0509 36.4439 32.7274H38.2649C38.5842 31.7424 38.4692 30.7796 38.0089 29.8592C36.8712 27.5873 35.0972 26.0164 32.6692 25.2674C29.9113 24.4173 27.2908 24.7907 24.8604 26.3769C24.7865 26.425 24.7172 26.4802 24.6421 26.5248C24.2898 26.7396 23.92 26.6856 23.7028 26.3886C23.6463 26.3152 23.6066 26.2304 23.5865 26.14C23.5663 26.0496 23.5662 25.956 23.5861 25.8655C23.606 25.7751 23.6455 25.6902 23.7018 25.6166C23.758 25.5431 23.8297 25.4828 23.9118 25.4399C24.7912 24.9527 25.66 24.4044 26.6016 24.0815C28.9429 23.2723 31.4977 23.3354 33.7962 24.2592C36.0948 25.1831 37.9826 26.9056 39.1126 29.1101C39.8428 30.526 39.9555 31.9819 39.5094 33.2546C39.5693 34.2314 39.6162 34.9828 39.6667 35.7941H41.8399C42.6277 35.7941 42.8179 35.9878 42.8191 36.785C42.8191 37.9591 42.8191 39.1262 42.8191 40.3601H43.3099C44.4663 40.3601 45.624 40.3601 46.7804 40.3601C47.3757 40.3601 47.6023 40.5867 47.6023 41.182C47.6023 42.4101 47.6023 43.637 47.6023 44.9237H51.4415C52.2282 44.9237 52.4113 45.1116 52.4125 45.9158V49.4909H52.9009C54.075 49.4909 55.2491 49.4909 56.4161 49.4909C56.9597 49.4909 57.191 49.7187 57.1945 50.2646C57.2039 51.3483 57.1945 52.432 57.1945 53.5156V54.0557H58.1796C59.1611 54.0557 60.1426 54.071 61.1241 54.0487C61.5186 54.0393 61.8016 54.1661 61.9977 54.5019L62 61.5557ZM46.2462 60.6646V41.7279H42.8156C42.8156 42.268 42.8309 42.7846 42.8156 43.2894C42.8003 43.7943 42.4023 44.1113 41.9656 43.9681C41.5781 43.8506 41.4959 43.5336 41.5018 43.1661C41.5018 41.3358 41.5018 39.5054 41.5018 37.675V37.1478H39.5282C39.4108 37.5026 39.2167 37.8271 38.9596 38.0982C38.7024 38.3694 38.3887 38.5804 38.0406 38.7164V46.8903C38.677 47.0711 39.3051 47.1838 39.8757 47.4292C40.4463 47.6746 40.9406 48.048 41.5042 48.3861C41.5042 47.7216 41.4912 47.0664 41.5042 46.4113C41.5011 46.3265 41.5154 46.242 41.5462 46.163C41.577 46.0839 41.6236 46.012 41.6832 45.9517C41.7428 45.8913 41.8141 45.8437 41.8927 45.8119C41.9714 45.7801 42.0557 45.7648 42.1405 45.7667C42.3041 45.762 42.4633 45.8202 42.5852 45.9295C42.7071 46.0387 42.7825 46.1906 42.7956 46.3538C42.8135 46.5136 42.819 46.6745 42.8121 46.8351C42.8121 51.2731 42.8121 55.7104 42.8121 60.1468V60.6622L46.2462 60.6646ZM24.6491 34.087C24.7419 35.4325 24.6961 36.7252 24.9462 37.9615C25.3876 40.1241 27.4223 41.8876 29.4182 42.0555C31.9237 42.2668 34.4527 40.4423 34.8765 37.8288C35.1524 36.1287 35.0221 34.3606 35.0479 32.6218C35.0479 32.2625 34.7743 32.0841 34.4209 32.0829C33.3995 32.0829 32.3769 32.0829 31.3378 32.0829C30.1473 33.5481 29.0155 34.0882 27.1053 34.0894L24.6491 34.087ZM52.4442 50.861V60.6575H55.8795C55.8795 60.3135 55.8702 59.9942 55.8795 59.6748C55.8983 59.1935 56.1566 58.9152 56.5582 58.9258C56.9421 58.9352 57.1781 59.2029 57.1922 59.6666C57.2016 59.9965 57.1922 60.3276 57.1922 60.6493H60.6416V55.4282H57.1839C57.1839 55.8309 57.2051 56.209 57.1769 56.5847C57.1511 56.9369 56.9069 57.1377 56.5629 57.1529C56.4143 57.1668 56.2659 57.1244 56.147 57.0342C56.0281 56.944 55.9473 56.8125 55.9206 56.6657C55.8884 56.5081 55.875 56.3473 55.8807 56.1867C55.8807 54.7238 55.8807 53.2601 55.8807 51.7956V50.8563L52.4442 50.861ZM51.0588 60.6634V46.2998H47.6281V60.6575L51.0588 60.6634ZM32.2419 42.9137C31.5042 43.2295 30.7102 43.3923 29.9078 43.3923C29.1054 43.3923 28.3114 43.2295 27.5737 42.9137V45.5906C28.3428 46.6038 29.1094 47.6124 29.9078 48.6655C30.685 47.6406 31.4341 46.6532 32.1785 45.6634C32.2184 45.6024 32.2393 45.5309 32.2383 45.4579C32.243 44.6302 32.2419 43.799 32.2419 42.9137ZM35.9872 38.8831C35.5135 40.1824 34.6709 41.3151 33.5627 42.1424V43.7861C34.5301 43.347 34.9657 43.4855 35.4729 44.3414C35.6972 44.7195 35.9202 45.0963 36.1457 45.4732C36.303 45.735 36.4638 45.9957 36.6717 46.3385V38.8855L35.9872 38.8831ZM28.8652 49.4803L25.4768 45.0188L24.311 46.9866L27.6242 49.9852L28.8652 49.4803ZM34.3352 45.0188L30.948 49.4803L32.1879 49.9887L33.8421 48.4941L35.4999 46.9948C35.4389 46.8774 35.4013 46.8011 35.3579 46.7271C35.0303 46.1753 34.6969 45.6235 34.3352 45.0165V45.0188ZM21.4908 34.1305C21.4908 34.8431 21.4908 35.4818 21.4908 36.1264C21.4908 37.3005 22.3127 37.8675 23.4257 37.4742V34.1363L21.4908 34.1305ZM36.3887 34.1211V37.4989C37.5463 37.682 38.4222 37.4378 38.3048 35.9268C38.2872 35.692 38.3048 35.4572 38.3048 35.2224V34.1175L36.3887 34.1211Z" fill="#EF6C1B"/>
<path d="M56.2001 16.9983C56.4795 17.0699 56.7613 17.1345 57.0407 17.212C58.4379 17.599 59.6471 18.4798 60.4441 19.6909C61.241 20.902 61.5715 22.3611 61.3742 23.7974C61.3108 24.267 61.0349 24.5417 60.6463 24.5112C60.2377 24.4783 60.0135 24.1707 60.0663 23.6483C60.2541 21.8261 59.6683 20.3268 58.196 19.2196C57.4382 18.6566 56.5255 18.3407 55.5818 18.3149C54.6382 18.2891 53.7095 18.5545 52.922 19.0752C52.1344 19.5872 51.5205 20.3258 51.1612 21.1938C50.8019 22.0618 50.7142 23.0183 50.9097 23.9371C51.1051 24.8559 51.5745 25.694 52.2559 26.3406C52.9374 26.9872 53.7988 27.4121 54.7266 27.5591C56.2294 27.7939 57.5303 27.3689 58.6515 26.3545C58.7627 26.2391 58.8873 26.1374 59.0225 26.0516C59.3419 25.8802 59.6307 25.9694 59.8374 26.2453C60.0639 26.5482 60.0064 26.8535 59.7516 27.12C58.9089 28.0087 57.8082 28.6099 56.6051 28.8389C55.0815 29.1439 53.4991 28.8435 52.1931 28.0016C50.8872 27.1597 49.9604 25.8423 49.6093 24.3287C49.2581 22.8151 49.5102 21.2242 50.312 19.8933C51.1139 18.5624 52.4025 17.596 53.9047 17.1991C54.1701 17.1286 54.4378 17.0652 54.7031 16.9983H56.2001Z" fill="#EF6C1B"/>
<path d="M52.7988 38.0941C52.7988 37.507 52.7988 36.9998 52.7988 36.4879C52.7988 35.8574 53.0265 35.632 53.6394 35.6309C54.855 35.6309 56.0705 35.6309 57.2861 35.6309C57.8731 35.6309 58.1079 35.8657 58.1138 36.4527C58.1208 36.9775 58.1138 37.5094 58.1138 38.0894C58.5024 38.0894 58.8629 38.0894 59.2221 38.0894C59.7552 38.0894 60.1673 38.2972 60.3962 38.7809C60.6181 39.2447 60.543 39.6908 60.2295 40.0982C58.9709 41.7349 57.7217 43.3774 56.4537 45.0059C55.8831 45.7385 55.0154 45.7314 54.4436 44.9965C53.1862 43.3786 51.9452 41.7466 50.6936 40.1241C50.3708 39.7049 50.2733 39.2529 50.5128 38.7703C50.7523 38.2878 51.1633 38.0811 51.6951 38.0894C52.0544 38.0988 52.3972 38.0941 52.7988 38.0941ZM55.4592 44.1558L59.0989 39.4126C58.5306 39.4126 58.0645 39.4126 57.5984 39.4126C57.0301 39.4055 56.8047 39.1777 56.7988 38.613C56.793 38.0753 56.7988 37.5364 56.7988 36.9799H54.1161C54.1161 37.5352 54.1161 38.06 54.1161 38.5848C54.1102 39.186 53.8906 39.4067 53.2942 39.4067C52.8316 39.4067 52.369 39.4067 51.8102 39.4067C53.0594 41.0328 54.2476 42.579 55.4592 44.1558Z" fill="#EF6C1B"/>
<path d="M55.4592 34.2818C54.8452 34.2818 54.23 34.2818 53.6147 34.2818C53.0277 34.2747 52.7929 34.0469 52.7929 33.4458C52.7859 32.6694 52.7859 31.8929 52.7929 31.1164C52.7929 30.5294 53.0371 30.2946 53.6288 30.2946C54.8436 30.2875 56.0592 30.2875 57.2755 30.2946C57.8719 30.2946 58.115 30.5294 58.1197 31.1164C58.1275 31.907 58.1275 32.6975 58.1197 33.4881C58.1138 34.0469 57.8731 34.2829 57.3072 34.2912C56.692 34.2888 56.0768 34.2818 55.4592 34.2818ZM56.7765 31.633H54.136V32.9339H56.7789L56.7765 31.633Z" fill="#EF6C1B"/>
<path d="M56.1273 25.6606C56.0697 26.3275 55.8725 26.5999 55.4557 26.5999C55.0389 26.5999 54.8252 26.351 54.7653 25.744C54.5388 25.6442 54.2957 25.5538 54.0609 25.4317C53.6594 25.218 53.5302 24.8716 53.6993 24.5229C53.8684 24.1742 54.2218 24.0862 54.6385 24.247C54.8801 24.3456 55.1329 24.4142 55.3911 24.4513C55.6647 24.483 55.9242 24.3409 55.9171 24.0545C55.9112 23.8713 55.741 23.6576 55.5872 23.5238C55.4545 23.4064 55.2408 23.3817 55.0612 23.3195C54.3568 23.0765 53.8566 22.635 53.785 21.8589C53.7169 21.1052 54.0856 20.5675 54.7395 20.2282C54.8569 19.4873 55.0283 19.2584 55.4581 19.2725C55.8666 19.2854 56.0451 19.519 56.1308 20.153C56.3145 20.2336 56.4932 20.325 56.6662 20.4266C56.9714 20.6297 57.0783 20.9162 56.9221 21.2637C56.7742 21.5901 56.4337 21.7122 56.0733 21.583C55.896 21.5185 55.721 21.4116 55.5367 21.4163C55.3947 21.4163 55.2538 21.5596 55.1129 21.6394C55.2033 21.7685 55.269 21.9306 55.3888 22.0174C55.5425 22.1018 55.7068 22.1653 55.8772 22.2065C56.6357 22.4753 57.1863 22.9379 57.2567 23.7903C57.3377 24.6697 56.9139 25.2732 56.1273 25.6606Z" fill="#EF6C1B"/>
<path d="M22.888 58.2742C22.888 59.2404 22.888 60.2055 22.888 61.1718C22.888 61.6837 22.6379 61.9936 22.2352 61.9936C21.8325 61.9936 21.573 61.6931 21.573 61.187C21.573 59.2404 21.573 57.2938 21.573 55.3472C21.573 54.8423 21.8372 54.5347 22.2423 54.5465C22.6473 54.5582 22.8845 54.8564 22.888 55.3331C22.8927 56.3123 22.888 57.2938 22.888 58.2742Z" fill="#EF6C1B"/>
<path d="M36.9358 58.2577C36.9358 57.2926 36.9358 56.3263 36.9358 55.3612C36.9358 54.8482 37.1871 54.5394 37.5874 54.5452C37.9878 54.5511 38.2496 54.8564 38.2508 55.3671C38.2555 57.2981 38.2555 59.2294 38.2508 61.1612C38.2508 61.6977 37.9831 62.01 37.5639 61.9959C37.1636 61.9818 36.937 61.6872 36.9358 61.16C36.9335 60.189 36.9358 59.2239 36.9358 58.2577Z" fill="#EF6C1B"/>
<path d="M27.5843 54.4407C27.415 54.4353 27.2543 54.365 27.1354 54.2443C27.0165 54.1237 26.9485 53.962 26.9456 53.7926C26.9496 53.6157 27.0228 53.4474 27.1494 53.3238C27.2761 53.2003 27.4461 53.1312 27.623 53.1316C27.7111 53.1355 27.7975 53.1569 27.8771 53.1946C27.9568 53.2323 28.0281 53.2855 28.0869 53.3511C28.1457 53.4167 28.1909 53.4934 28.2197 53.5766C28.2485 53.6599 28.2604 53.7481 28.2547 53.836C28.2435 54.0042 28.1673 54.1614 28.0421 54.2743C27.9169 54.3872 27.7527 54.4469 27.5843 54.4407Z" fill="#EF6C1B"/>
<path d="M27.6125 56.3792C27.7001 56.3817 27.7863 56.4016 27.8661 56.4378C27.9459 56.4739 28.0178 56.5255 28.0775 56.5896C28.1373 56.6537 28.1837 56.729 28.2141 56.8112C28.2445 56.8934 28.2583 56.9808 28.2547 57.0683C28.2471 57.2374 28.174 57.397 28.0508 57.5131C27.9277 57.6292 27.7641 57.6929 27.5949 57.6906C27.4254 57.6871 27.2637 57.6189 27.1429 57.4999C27.0222 57.3809 26.9516 57.2201 26.9456 57.0507C26.9462 56.8736 27.0165 56.7039 27.1413 56.5782C27.2661 56.4525 27.4354 56.381 27.6125 56.3792Z" fill="#EF6C1B"/>
<path d="M27.5878 59.6302C27.7571 59.628 27.9208 59.6911 28.0449 59.8063C28.1691 59.9214 28.2442 60.0799 28.2547 60.2489C28.2601 60.3363 28.2478 60.4239 28.2186 60.5065C28.1894 60.589 28.1438 60.6649 28.0846 60.7294C28.0254 60.7939 27.9539 60.8459 27.8741 60.8822C27.7944 60.9184 27.7082 60.9383 27.6207 60.9405C27.4512 60.9436 27.2869 60.8817 27.1615 60.7676C27.0362 60.6534 26.9593 60.4955 26.9468 60.3264C26.9401 60.1492 27.0037 59.9766 27.1238 59.8462C27.2439 59.7158 27.4107 59.6381 27.5878 59.6302Z" fill="#EF6C1B"/>
</g>
<defs>
<clipPath id="clip0_38_864">
<rect width="45" height="45.0035" fill="white" transform="translate(17 16.9983)"/>
</clipPath>
</defs>
</svg>
