<svg width="73" height="64" viewBox="0 0 73 64" fill="none" xmlns="http://www.w3.org/2000/svg">
<path d="M9.00251 51.1232C9.23296 50.596 9.41958 50.0436 9.70139 49.5464C10.2262 48.6208 11.0791 48.0635 12.0673 47.6827C12.8388 44.3503 13.6087 41.0254 14.3769 37.708C14.9818 35.0941 15.5943 32.4815 16.1829 29.8638C16.3232 29.2376 16.3683 28.5913 16.4772 27.9563C17.0283 24.7325 19.5683 22.0296 22.7171 21.2619C23.0929 21.1709 23.4383 20.983 23.719 20.717C29.5939 14.8672 35.4597 9.00853 41.3162 3.14113C43.8725 0.589846 47.536 0.281739 50.2789 2.36835C50.5767 2.59619 50.8587 2.84391 51.1231 3.10982C55.9275 7.90928 60.7287 12.7104 65.5265 17.5132C67.3175 19.3105 67.9237 21.4547 66.8353 23.7831C66.3531 24.8151 66.2955 25.7945 66.2917 26.8429C66.2917 28.1968 66.2917 29.5507 66.2917 30.956C66.4258 31.1 66.576 31.2691 66.7351 31.4294C68.5996 33.3056 70.4658 35.181 72.3336 37.0555C73.1277 37.8546 73.1828 38.2203 72.6543 39.2035C71.7099 40.9645 70.7681 42.7254 69.8112 44.4789C69.4793 45.0876 68.9132 45.3656 68.3696 45.2028C67.826 45.04 67.4565 44.6592 67.4478 44.0756C67.46 43.7463 67.5506 43.4247 67.712 43.1375C68.4222 41.7711 69.1624 40.4209 69.8901 39.0645C69.9878 38.8829 70.0792 38.6975 70.1594 38.5409L64.2728 32.7583H59.4269L53.5616 38.5159C54.3423 39.9679 55.1255 41.4291 55.9113 42.8995C56.0385 43.1144 56.1478 43.3393 56.2382 43.5721C56.3426 43.8582 56.3391 44.1726 56.2285 44.4564C56.1178 44.7402 55.9075 44.974 55.637 45.1139C55.0871 45.3995 54.4308 45.2178 54.0463 44.6668C53.9548 44.5279 53.8712 44.3841 53.7958 44.2359C52.8982 42.566 52.0015 40.8985 51.1055 39.2335C50.5645 38.2241 50.6196 37.8558 51.4412 37.0342C53.2782 35.1881 55.1151 33.344 56.9521 31.5021C57.1019 31.3647 57.26 31.2367 57.4255 31.1188V25.0556L47.9693 15.6145L33.234 30.3548C34.5429 36.0134 35.8918 41.8424 37.2419 47.6852C38.4944 48.1674 39.4776 48.954 39.9323 50.2215C40.1487 50.8477 40.2613 51.5052 40.2654 52.1678C40.303 54.689 40.2804 57.209 40.2804 59.7302V60.4955H60.3625C61.5023 60.4955 62.1072 60.9201 62.116 61.7267C62.1248 62.5332 61.5048 62.9954 60.33 62.9954C43.8099 62.9954 27.2902 62.9996 10.771 63.0079C9.99196 63.0079 9.39328 62.805 9 62.1224L9.00251 51.1232ZM37.7492 60.4767C37.7605 60.2537 37.7767 60.0909 37.7767 59.9269C37.7767 57.3255 37.7767 54.7228 37.7767 52.1215C37.7767 50.6999 37.0503 49.9985 35.6037 49.9985C28.2968 49.9985 20.9907 49.9985 13.6855 49.9985C12.2264 49.9985 11.51 50.7212 11.5074 52.1891C11.5074 54.7508 11.5074 57.3113 11.5074 59.8705C11.5074 60.0696 11.5262 60.2688 11.5363 60.4767H37.7492ZM34.6293 47.4685L31.5219 34.0671C29.7184 36.4355 27.4689 37.6617 24.6333 37.6604C21.7977 37.6592 19.5458 36.3842 17.7823 34.0771C16.7353 38.6061 15.7145 43.016 14.6837 47.4698L34.6293 47.4685ZM39.6241 8.64197L26.9191 21.3633C29.7722 22.2313 31.716 24.1751 32.6266 26.9781L45.2916 14.3107C42.1679 13.7095 40.2429 11.7669 39.6241 8.64448V8.64197ZM24.6446 35.163C27.8171 35.1755 30.451 32.5604 30.4711 29.3779C30.4911 26.2292 27.8522 23.5802 24.6709 23.5564C21.4896 23.5326 18.8732 26.1603 18.8607 29.3516C18.8594 30.8885 19.4674 32.3633 20.5516 33.4526C21.6358 34.542 23.1077 35.1571 24.6446 35.163ZM52.884 8.43907C52.6436 10.7273 51.2959 12.2616 49.7529 13.6581C49.785 13.7262 49.8241 13.7908 49.8693 13.851C53.1684 17.1517 56.4665 20.4498 59.7639 23.7455C59.8391 23.8178 59.9186 23.8855 60.0018 23.9484C60.5319 24.3795 61.1953 24.6129 61.8785 24.6086C62.5618 24.6042 63.2222 24.3624 63.7467 23.9246C65.182 22.7448 65.2372 20.7759 63.8344 19.3656C60.3099 15.8211 56.7759 12.2854 53.2322 8.75845C53.1508 8.67454 53.0581 8.59814 52.884 8.43907ZM50.4254 7.79906C50.449 6.68437 50.0292 5.6059 49.2582 4.80045C48.4873 3.995 47.4282 3.52839 46.3136 3.50309C44.0366 3.44422 42.1491 5.27408 42.0865 7.60368C42.0239 9.87941 43.8612 11.7982 46.162 11.8621C47.2649 11.884 48.3317 11.4693 49.1302 10.7083C49.9287 9.94733 50.3943 8.90168 50.4254 7.79906ZM63.7492 30.2183V26.9756H59.9918V30.2233L63.7492 30.2183Z" fill="white"/>
<path d="M66.0964 60.5055C66.2624 60.4988 66.4281 60.5256 66.5835 60.5841C66.739 60.6426 66.8812 60.7318 67.0016 60.8463C67.122 60.9607 67.2182 61.0982 67.2844 61.2506C67.3507 61.4029 67.3857 61.567 67.3874 61.7332C67.3891 61.8993 67.3574 62.0641 67.2942 62.2178C67.231 62.3714 67.1376 62.5108 67.0196 62.6277C66.9015 62.7446 66.7612 62.8366 66.6069 62.8983C66.4526 62.9599 66.2875 62.99 66.1214 62.9867C65.7988 62.9802 65.4913 62.8483 65.2643 62.619C65.0372 62.3897 64.9084 62.0809 64.9052 61.7582C64.9019 61.4355 65.0245 61.1243 65.2468 60.8904C65.4692 60.6565 65.7739 60.5185 66.0964 60.5055Z" fill="white"/>
<path d="M24.6484 53.9977C25.5013 53.9977 26.353 53.9889 27.2047 53.9977C28.0914 54.009 28.6275 54.4699 28.6437 55.2138C28.6613 55.9841 28.1152 56.4863 27.2047 56.4926C25.4996 56.5035 23.7954 56.5035 22.0921 56.4926C21.2028 56.4863 20.6154 55.954 20.638 55.2126C20.6605 54.4711 21.2254 54.009 22.0933 53.9977C22.9613 53.9864 23.7967 53.9977 24.6484 53.9977Z" fill="white"/>
<path d="M16.0039 54.0064C16.3273 54.0098 16.6366 54.1392 16.8659 54.3671C17.0953 54.5951 17.2267 54.9035 17.232 55.2269C17.2374 55.5502 17.1164 55.8629 16.8948 56.0983C16.6731 56.3338 16.3683 56.4734 16.0452 56.4876C15.8796 56.4948 15.7141 56.4688 15.5587 56.411C15.4033 56.3533 15.261 56.265 15.1402 56.1513C15.0195 56.0376 14.9228 55.9009 14.8557 55.7493C14.7887 55.5976 14.7528 55.434 14.75 55.2682C14.7472 55.1024 14.7777 54.9377 14.8397 54.7839C14.9016 54.6301 14.9937 54.4903 15.1106 54.3726C15.2275 54.255 15.3668 54.162 15.5202 54.0991C15.6736 54.0362 15.8381 54.0047 16.0039 54.0064Z" fill="white"/>
<path d="M33.2152 56.4851C32.5589 56.4475 31.9915 55.8263 32.0316 55.1887C32.0717 54.5312 32.6854 53.9726 33.3292 54.0077C33.6577 54.0228 33.9667 54.1678 34.1884 54.4108C34.41 54.6538 34.526 54.9748 34.5109 55.3034C34.4958 55.6319 34.3508 55.9409 34.1078 56.1625C33.8648 56.3842 33.5437 56.5002 33.2152 56.4851Z" fill="white"/>
<path d="M25.8846 29.3954C25.871 29.7207 25.7324 30.0283 25.4977 30.2539C25.2629 30.4796 24.9502 30.6059 24.6246 30.6066C23.9733 30.5853 23.3909 29.9803 23.4122 29.3341C23.4319 29.0089 23.5744 28.7035 23.8109 28.4795C24.0474 28.2556 24.3602 28.1299 24.6859 28.1279C25.0113 28.1419 25.3184 28.2821 25.5422 28.5187C25.766 28.7553 25.8888 29.0698 25.8846 29.3954Z" fill="white"/>
<path d="M60.628 21.5737C60.6446 21.2481 60.7874 20.9418 61.0262 20.7199C61.265 20.4979 61.5809 20.3778 61.9068 20.3851C62.5631 20.4176 63.133 21.0339 63.0992 21.6739C63.0732 21.9982 62.9256 22.3008 62.6858 22.5208C62.4461 22.7408 62.132 22.8619 61.8066 22.86C61.4815 22.8409 61.1766 22.6959 60.9565 22.4558C60.7365 22.2156 60.6187 21.8992 60.628 21.5737Z" fill="white"/>
<path d="M47.496 7.6813C47.4882 8.00652 47.3541 8.31593 47.1222 8.54408C46.8903 8.77223 46.5788 8.90121 46.2535 8.90371C45.9274 8.90441 45.6142 8.77665 45.3817 8.54809C45.1491 8.31953 45.016 8.00858 45.011 7.68256C45.0182 7.35712 45.1518 7.04725 45.3835 6.81861C45.6151 6.58996 45.9267 6.46049 46.2522 6.45764C46.578 6.45984 46.89 6.58884 47.1222 6.81729C47.3544 7.04574 47.4885 7.35566 47.496 7.6813Z" fill="white"/>
<g filter="url(#filter0_d_16_44660)">
<circle cx="24.5511" cy="28.9363" r="12" fill="#FFC400"/>
</g>
<path d="M20.5511 24.9363L28.5511 32.9363" stroke="black" stroke-width="2" stroke-linecap="round"/>
<path d="M28.5511 24.9363L20.5511 32.9363" stroke="black" stroke-width="2" stroke-linecap="round"/>
<defs>
<filter id="filter0_d_16_44660" x="0.551086" y="4.93628" width="48" height="48" filterUnits="userSpaceOnUse" color-interpolation-filters="sRGB">
<feFlood flood-opacity="0" result="BackgroundImageFix"/>
<feColorMatrix in="SourceAlpha" type="matrix" values="0 0 0 0 0 0 0 0 0 0 0 0 0 0 0 0 0 0 127 0" result="hardAlpha"/>
<feOffset/>
<feGaussianBlur stdDeviation="6"/>
<feComposite in2="hardAlpha" operator="out"/>
<feColorMatrix type="matrix" values="0 0 0 0 1 0 0 0 0 0.768627 0 0 0 0 0 0 0 0 0.6 0"/>
<feBlend mode="normal" in2="BackgroundImageFix" result="effect1_dropShadow_16_44660"/>
<feBlend mode="normal" in="SourceGraphic" in2="effect1_dropShadow_16_44660" result="shape"/>
</filter>
</defs>
</svg>
