<svg width="64" height="71" viewBox="0 0 64 71" fill="none" xmlns="http://www.w3.org/2000/svg">
<path d="M0 15.3568C0.0471538 15.3209 0.0902789 15.2798 0.128586 15.2343C0.562759 14.6063 1.0103 14.4055 1.60311 14.5808C2.19592 14.7561 2.48983 15.2224 2.49985 15.9422C2.49985 16.4953 2.49985 17.0467 2.49985 17.598V26.854H5.71106C5.72442 26.6413 5.74613 26.4388 5.74613 26.2363C5.74613 24.6434 5.74613 23.0522 5.74613 21.4594C5.74613 20.4843 6.21036 19.9754 7.14216 19.9686C9.18278 19.9539 11.224 19.9539 13.2657 19.9686C14.1825 19.9686 14.65 20.4553 14.6584 21.3913C14.6751 22.9603 14.6584 24.5328 14.6584 26.1035V26.8404H18.2787C17.0797 17.6814 20.2242 10.8913 29.0663 7.88089C35.3184 5.75027 41.0294 7.54054 45.3278 12.6459C50.0719 18.2975 50.2573 24.6145 47.0544 31.1255L49.6127 33.7309C49.7797 33.5607 49.9918 33.3412 50.2239 33.1387C50.7633 32.669 51.3928 32.6469 51.9172 33.1387C52.7789 33.9703 53.6188 34.8251 54.4371 35.7033C54.5504 35.8214 54.6398 35.9611 54.7001 36.1145C54.7603 36.2678 54.7903 36.4318 54.7883 36.597C54.7863 36.7622 54.7523 36.9254 54.6883 37.0772C54.6243 37.229 54.5316 37.3664 54.4153 37.4816C53.9311 37.9632 53.218 37.9683 52.667 37.4731C52.3883 37.2181 52.1225 36.9488 51.8704 36.6665C51.6283 36.4027 51.4095 36.1202 51.2175 35.8922L46.3214 40.9226C46.3046 40.8971 46.338 40.9737 46.3915 41.0298C49.4674 44.1679 52.5317 47.3264 55.631 50.4373C57.3594 52.1748 60.2199 51.6625 61.1918 49.4638C61.7946 48.1024 61.5642 46.8176 60.6608 45.6484C60.4535 45.4148 60.2844 45.1488 60.1598 44.8605C60.0785 44.5937 60.0895 44.3065 60.191 44.0469C60.2925 43.7873 60.4784 43.5711 60.7176 43.4344C61.2436 43.1196 61.8147 43.2183 62.304 43.7101C63.9622 45.3779 64.4748 48.1347 63.528 50.3794C61.8848 54.2935 56.8918 55.2584 53.8426 52.2139C51.3143 49.6868 48.8329 47.1086 46.328 44.5559C46.161 44.3942 46.0041 44.2411 45.7035 43.9467V69.087C45.7035 70.6442 45.3562 70.9981 43.8315 70.9981C41.7909 70.9981 39.7486 70.9981 37.708 70.9981C36.5391 70.9981 36.1266 70.5608 36.1233 69.3814C36.1233 68.0915 36.1233 66.8033 36.1233 65.4793H9.62865C9.61863 65.726 9.59859 65.9711 9.59859 66.2161C9.59859 67.341 9.61361 68.4659 9.59023 69.5908C9.57186 70.4791 9.08927 70.9845 8.22593 70.9913C5.93482 71.01 3.64373 70.9913 1.35262 70.9998C0.716393 70.9998 0.32897 70.6254 0 70.1404V15.3568ZM5.00135 44.9099V44.2581C5.00135 42.9835 5.00135 41.7054 5.00135 40.4376C5.00135 39.551 5.50232 39.0677 6.36065 39.049C6.69463 39.0404 7.01359 39.049 7.39599 39.049V38.2866C7.39599 37.0562 7.38597 35.8241 7.39599 34.5937C7.40768 33.6441 7.85855 33.1506 8.7653 33.1455C11.7433 33.1296 14.7218 33.1296 17.7009 33.1455C18.6144 33.1455 19.0753 33.639 19.0886 34.5767C19.1037 35.8071 19.0886 37.0392 19.0886 38.2695V39.0507H24.1668C25.4509 39.0507 25.8517 39.4557 25.8534 40.7524C25.8534 42.1258 25.8534 43.5008 25.8534 44.8997H43.192C43.192 43.6267 43.2053 42.3998 43.192 41.1728C43.1836 40.5823 43.3439 40.0921 43.7931 39.7058C43.9089 39.5958 44.0156 39.4763 44.1121 39.3485L41.5104 36.7073C37.526 38.986 33.2794 39.5595 28.8542 38.1317C24.429 36.7039 21.2996 33.7071 19.3141 29.4884H2.54326V44.9116L5.00135 44.9099ZM43.1485 57.4503V47.5493H2.54827V57.4401H5.36539V56.71C5.36539 55.0746 5.36539 53.4409 5.36539 51.8055C5.36539 50.8644 5.82963 50.393 6.74974 50.3896C8.97627 50.3805 11.2028 50.3805 13.4293 50.3896C14.3311 50.3896 14.8037 50.8712 14.8204 51.8157C14.8404 53.0069 14.8204 54.1982 14.8204 55.3809V57.4418H18.0232V56.7032C18.0232 55.0916 18.0132 53.4698 18.0232 51.865C18.0332 50.844 18.4992 50.3947 19.4911 50.3879C20.66 50.3879 21.8289 50.3794 22.9979 50.3879C28.1078 50.4236 27.4615 49.7514 27.4949 54.9402C27.4949 55.7638 27.4949 56.5858 27.4949 57.4333H30.7278C30.7278 55.5613 30.7278 53.7319 30.7278 51.9076C30.7278 50.8423 31.167 50.3913 32.204 50.3879C34.3704 50.3879 36.5363 50.3879 38.7016 50.3879C39.7286 50.3879 40.1878 50.8491 40.1962 51.9042C40.2078 53.5175 40.1962 55.1376 40.1962 56.744V57.4537L43.1485 57.4503ZM46.6553 23.0148C46.6517 20.3779 45.8806 17.8014 44.4397 15.6112C42.9987 13.421 40.9527 11.7157 38.5604 10.7109C36.1682 9.70605 33.5372 9.44697 31.0004 9.9664C28.4636 10.4858 26.135 11.7604 24.3092 13.6289C22.4834 15.4974 21.2425 17.8758 20.7435 20.4632C20.2445 23.0506 20.5099 25.7307 21.5059 28.1644C22.502 30.598 24.184 32.6759 26.3392 34.1351C28.4944 35.5943 31.0259 36.3692 33.6134 36.3618C40.8107 36.355 46.6553 30.3733 46.6553 23.0148ZM2.51988 62.8687H43.1485V60.0863H2.51988V62.8687ZM9.9309 39.0115H16.5604V35.7424H9.9309V39.0115ZM16.7207 44.8963H23.3185V41.6374H16.7207V44.8963ZM14.1424 41.6459H7.54461V44.9082H14.1424V41.6459ZM12.3055 52.9729H7.91366V57.435H12.3088L12.3055 52.9729ZM24.9817 52.9729H20.5815V57.4537H24.98L24.9817 52.9729ZM33.2661 57.4401H37.6646V52.978H33.2644L33.2661 57.4401ZM8.28604 26.4915H12.1268V22.5587H8.28604V26.4915ZM7.05365 68.4165V65.481H2.54493V68.4165H7.05365ZM43.1385 68.4165V65.4742H38.6515V68.4165H43.1385ZM47.6473 35.676L45.5115 33.4978L43.9033 35.1536L46.0241 37.3336L47.6473 35.676Z" fill="white"/>
<path d="M56.2172 40.5176C56.2202 40.353 56.2553 40.1907 56.3204 40.0401C56.3856 39.8896 56.4795 39.7537 56.5966 39.6404C56.7138 39.5272 56.8519 39.4388 57.003 39.3805C57.154 39.3222 57.3149 39.2951 57.4763 39.3008C57.8024 39.3075 58.1128 39.4452 58.3398 39.6839C58.5668 39.9226 58.6922 40.243 58.6886 40.5754C58.6856 40.7455 58.6495 40.9132 58.5823 41.069C58.5152 41.2247 58.4184 41.3653 58.2976 41.4826C58.1767 41.5999 58.0342 41.6916 57.8783 41.7523C57.7224 41.813 57.5563 41.8416 57.3894 41.8364C57.0632 41.8175 56.7574 41.6686 56.5381 41.4218C56.3187 41.175 56.2035 40.8502 56.2172 40.5176Z" fill="white"/>
<path d="M23.2149 22.9654C23.2233 20.8714 23.8419 18.8272 24.9921 17.092C26.1423 15.3568 27.7724 14.0089 29.6755 13.2193C31.5786 12.4296 33.669 12.2339 35.6814 12.6568C37.6939 13.0797 39.5377 14.1023 40.979 15.5948C42.4202 17.0873 43.394 18.9824 43.7768 21.0398C44.1595 23.0972 43.934 25.224 43.1288 27.1506C42.3236 29.0771 40.9751 30.7165 39.2542 31.8608C37.5333 33.0051 35.5177 33.6026 33.4631 33.5777C27.7854 33.5437 23.1865 28.7821 23.2149 22.9654ZM25.7198 22.9909C25.7165 24.5789 26.1756 26.1322 27.039 27.4541C27.9025 28.776 29.1314 29.8071 30.5702 30.4168C32.009 31.0265 33.593 31.1875 35.1216 30.8792C36.6502 30.571 38.0547 29.8075 39.1572 28.6853C40.2598 27.5632 41.0108 26.1328 41.3152 24.5754C41.6196 23.018 41.4637 21.4036 40.8672 19.9366C40.2708 18.4695 39.2606 17.2158 37.9645 16.3342C36.6685 15.4526 35.1449 14.9827 33.5867 14.9841C32.5534 14.9812 31.5298 15.1862 30.5746 15.5874C29.6193 15.9885 28.7511 16.578 28.0199 17.3219C27.2887 18.0658 26.7088 18.9495 26.3135 19.9224C25.9182 20.8952 25.7153 21.938 25.7164 22.9909H25.7198Z" fill="white"/>
<path d="M31.9769 23.9235C33.3128 22.5621 34.5368 21.2891 35.7792 20.0383C36.0053 19.7927 36.2787 19.5974 36.5825 19.4648C36.8421 19.3748 37.1246 19.3807 37.3804 19.4815C37.6362 19.5823 37.8491 19.7716 37.9818 20.0162C38.2757 20.5557 38.2323 21.0968 37.8148 21.5478C37.1135 22.3017 36.3804 23.0266 35.6607 23.7601C34.7923 24.6467 33.929 25.5368 33.054 26.4149C32.3426 27.1296 31.703 27.1347 30.9933 26.4285C30.2836 25.7223 29.5706 24.999 28.8742 24.2672C28.2647 23.6274 28.2463 22.8939 28.7991 22.3578C29.3518 21.8218 30.0365 21.8711 30.636 22.465C31.0735 22.9075 31.4843 23.3874 31.9769 23.9235Z" fill="white"/>
<g filter="url(#filter0_d_18_44784)">
<ellipse cx="33.5866" cy="23.025" rx="10.553" ry="10.5535" fill="#FFC400"/>
</g>
<path d="M33.5866 17.6912C30.6722 17.6912 28.3097 20.0792 28.3097 23.025C28.3097 25.9708 30.6722 28.3589 33.5866 28.3589C36.5009 28.3589 38.8634 25.9708 38.8634 23.025" stroke="black" stroke-width="2"/>
<path d="M29.6456 15.9717L33.4476 17.6887L32.2212 21.2454" stroke="black" stroke-width="2" stroke-linecap="round"/>
<defs>
<filter id="filter0_d_18_44784" x="11.0336" y="0.471436" width="45.106" height="45.1069" filterUnits="userSpaceOnUse" color-interpolation-filters="sRGB">
<feFlood flood-opacity="0" result="BackgroundImageFix"/>
<feColorMatrix in="SourceAlpha" type="matrix" values="0 0 0 0 0 0 0 0 0 0 0 0 0 0 0 0 0 0 127 0" result="hardAlpha"/>
<feOffset/>
<feGaussianBlur stdDeviation="6"/>
<feComposite in2="hardAlpha" operator="out"/>
<feColorMatrix type="matrix" values="0 0 0 0 1 0 0 0 0 0.768627 0 0 0 0 0 0 0 0 0.6 0"/>
<feBlend mode="normal" in2="BackgroundImageFix" result="effect1_dropShadow_18_44784"/>
<feBlend mode="normal" in="SourceGraphic" in2="effect1_dropShadow_18_44784" result="shape"/>
</filter>
</defs>
</svg>
