<svg width="46" height="46" viewBox="0 0 46 46" fill="none" xmlns="http://www.w3.org/2000/svg">
<path d="M45.9868 24.2494C45.8981 24.6261 45.8225 25.0064 45.7181 25.3783C44.8219 28.5599 41.8095 30.6173 38.448 30.3486C35.3072 30.0979 32.6319 27.4945 32.266 24.319C32.2308 23.9466 32.2171 23.5724 32.2252 23.1985C32.2252 20.3696 32.2252 17.5411 32.2252 14.713V14.142C31.2534 13.8025 30.2985 13.4678 29.3459 13.1367C28.8661 12.9699 28.3862 12.8043 27.9063 12.6484C27.3281 12.4612 26.9322 12.1049 26.883 11.4787C26.8338 10.8788 27.1565 10.4697 27.6748 10.1854C29.0508 9.4308 30.4209 8.6666 31.7933 7.906C31.9349 7.82682 32.0752 7.74524 32.1532 7.69965C32.2408 6.87547 32.2492 6.10408 32.4148 5.36867C33.0626 2.50501 35.3744 0.449927 38.2932 0.0792233C38.3785 0.0611394 38.4621 0.0354414 38.5428 0.00244141H39.6225C39.7205 0.0350454 39.8208 0.0607041 39.9224 0.0792233C41.3025 0.242671 42.6009 0.819744 43.6471 1.73464C44.6932 2.64954 45.4382 3.85946 45.7841 5.20549C45.8621 5.50542 45.9269 5.80534 45.9976 6.10886L45.9868 24.2494ZM37.1919 21.4193C36.5477 22.2315 36.4553 22.8937 36.952 23.436C37.1436 23.6426 37.3872 23.7938 37.6574 23.8739C38.2476 24.0346 38.7515 23.7983 39.1222 23.3412C39.8972 24.0298 40.6662 24.0898 41.2229 23.5572C41.8023 23.0041 41.7543 22.2855 41.0801 21.4145C41.7507 20.6299 41.8155 19.9221 41.2709 19.3426C40.7262 18.7632 40.0304 18.8088 39.1258 19.4746C38.3232 18.8112 37.5818 18.7548 37.0204 19.3246C36.4589 19.8945 36.5189 20.6215 37.1943 21.4193H37.1919ZM39.1618 7.62287C38.6231 7.62287 38.0821 7.62287 37.5458 7.62287C36.76 7.63247 36.183 8.17113 36.1518 8.91014C36.1206 9.64915 36.6749 10.2394 37.4499 10.3042C37.7318 10.3282 38.0173 10.315 38.3016 10.315C39.1102 10.315 39.9188 10.3306 40.7262 10.3078C41.5516 10.285 42.1466 9.67435 42.1214 8.91614C42.0963 8.15794 41.5132 7.63007 40.689 7.62167C40.1827 7.61567 39.6729 7.61927 39.1642 7.62047L39.1618 7.62287ZM39.1174 13.0119C38.5788 13.0119 38.0377 13.0011 37.5014 13.0119C37.1526 13.0082 36.8162 13.1408 36.5636 13.3814C36.3111 13.6221 36.1625 13.9518 36.1494 14.3003C36.1407 14.4735 36.1661 14.6467 36.2244 14.81C36.2826 14.9733 36.3724 15.1235 36.4888 15.2521C36.6051 15.3807 36.7456 15.485 36.9023 15.5593C37.0589 15.6335 37.2287 15.6762 37.4019 15.6848C38.5524 15.7256 39.7077 15.7256 40.8582 15.6848C41.2055 15.664 41.5311 15.5086 41.7657 15.2517C42.0004 14.9948 42.1257 14.6565 42.1151 14.3087C42.1045 13.9609 41.9588 13.6309 41.7089 13.3888C41.459 13.1467 41.1246 13.0115 40.7766 13.0119C40.2283 12.9951 39.6741 13.0107 39.1198 13.0095L39.1174 13.0119Z" fill="#6E6E6E"/>
<path d="M6.71375 24.3849C11.048 22.8163 15.048 20.4452 18.5043 17.3955C19.8144 20.0348 21.6307 22.0659 24.6647 22.6741C24.6647 23.4048 24.7295 24.1509 24.6539 24.8816C24.4008 27.3253 23.2479 29.3288 21.5011 31.0084C20.4994 31.9681 19.4904 32.9459 18.1996 33.5277C16.4 34.3363 14.5453 34.3447 12.8538 33.3394C10.6127 32.0089 8.75562 30.2394 7.57512 27.8568C7.05218 26.7711 6.75894 25.5891 6.71375 24.3849ZM15.7726 25.4646C14.5729 25.4838 13.6132 25.7945 12.7518 26.4244C12.0752 26.921 11.912 27.7164 12.3667 28.3511C12.8022 28.9665 13.6036 29.0973 14.2742 28.6378C15.2231 27.9888 16.1577 27.9852 17.1103 28.6294C17.8073 29.1021 18.6111 28.9677 19.0466 28.3283C19.4652 27.7116 19.3081 26.9162 18.6579 26.4316C17.8263 25.8045 16.8141 25.4636 15.7726 25.4598V25.4646Z" fill="#6E6E6E"/>
<path d="M19.5384 9.65031L21.0908 10.6796C17.2518 15.614 12.4843 19.1974 6.65976 21.5308C6.65976 20.6431 6.63456 19.8153 6.65976 18.9899C6.74973 16.4705 7.36998 14.118 8.95717 12.0941C9.666 11.1815 10.5498 10.4197 11.5569 9.85306C11.6589 9.79548 11.7572 9.73309 11.8592 9.67191C10.0009 7.19575 10.7243 4.2733 12.543 2.75689C13.4497 2.00667 14.5944 1.60473 15.771 1.62343C16.9477 1.64212 18.079 2.08022 18.9614 2.85886C20.7297 4.42086 21.3212 7.28932 19.5384 9.65031Z" fill="#6E6E6E"/>
<path d="M14.3893 45.965H1.62585C0.520933 45.965 0.0122696 45.4516 0.0110699 44.343C0.0110699 42.3552 0.0566549 40.3649 0.000269448 38.377C-0.0813095 35.4977 1.73022 33.4103 4.126 32.5441C5.06176 32.2058 6.04551 31.9958 6.94648 31.7439C7.6279 32.4073 8.24934 33.0096 8.86598 33.619C8.94765 33.7054 9.01308 33.8057 9.05913 33.9153C10.8083 37.8431 12.5554 41.7717 14.3006 45.7011C14.327 45.7659 14.345 45.8354 14.3893 45.965Z" fill="#6E6E6E"/>
<path d="M24.5195 31.7954C26.4966 32.2249 28.6201 32.682 30.1017 34.5007C30.8911 35.4713 31.3578 36.5702 31.3674 37.8311C31.3818 40.0745 31.3842 42.3187 31.3746 44.5637C31.3746 45.3783 30.8383 45.9542 30.0405 45.9566C25.7312 45.9673 21.4219 45.9566 17.1127 45.9566C17.0815 45.9499 17.051 45.9407 17.0215 45.929C17.0791 45.7778 17.1307 45.6278 17.1942 45.4839C18.8738 41.7025 20.559 37.923 22.2497 34.1456C22.3828 33.8658 22.5662 33.6128 22.7908 33.3994C23.3235 32.8715 23.8861 32.3773 24.5195 31.7954Z" fill="#6E6E6E"/>
<path d="M27.2716 25.8725V19.0415C28.6225 19.1243 29.587 19.6689 30.2036 20.7403C30.9067 21.958 30.8647 23.1948 30.1041 24.3801C29.4526 25.3975 28.241 25.9961 27.2716 25.8725Z" fill="#6E6E6E"/>
<path d="M4.11766 19.0295V25.9014C3.6118 25.9165 3.10957 25.8114 2.65222 25.5947C2.19487 25.378 1.79544 25.0559 1.48674 24.6549C0.60017 23.5584 0.440613 22.3179 1.02366 21.0414C1.59831 19.7973 2.62165 19.1555 4.11766 19.0295Z" fill="#6E6E6E"/>
<path d="M22.9203 12.7551C24.3155 14.9458 24.7786 17.3139 24.7306 19.8333C23.0283 19.6425 21.1963 17.3415 20.6517 15.3608L22.9203 12.7551Z" fill="#6E6E6E"/>
<path d="M18.3459 36.269L15.697 42.2171C14.8032 40.2076 13.949 38.2869 13.0577 36.275C14.781 36.8047 16.6238 36.8026 18.3459 36.269Z" fill="#6E6E6E"/>
</svg>
