<svg width="56" height="44" viewBox="0 0 56 44" fill="none" xmlns="http://www.w3.org/2000/svg">
<g clip-path="url(#clip0_6_178)">
<path d="M56 39.8207C55.8948 40.1495 55.8174 40.4884 55.6815 40.804C54.9831 42.4302 53.7617 43.3974 51.9865 43.5494C50.9915 43.6341 49.9848 43.602 48.9825 43.5903C48.4127 43.5903 48.0781 43.2542 48.0752 42.7808C48.0722 42.3075 48.4214 41.9729 49.0249 41.9641C49.808 41.9524 50.5926 41.9641 51.3757 41.9641C53.2517 41.9305 54.3578 40.8099 54.3578 38.9441C54.3578 27.6451 54.3578 16.3461 54.3578 5.04717C54.3578 3.17846 53.2357 2.05197 51.3655 2.05051C46.281 2.05051 41.1959 2.05051 36.1104 2.05051C35.9105 2.05713 35.7103 2.04981 35.5114 2.0286C35.0176 1.96285 34.7385 1.64579 34.7662 1.18556C34.794 0.725318 35.0716 0.463787 35.5333 0.419955C35.6969 0.405344 35.862 0.411189 36.0257 0.411189H51.1697C53.7573 0.411189 55.2373 1.53914 55.9284 4.03026C55.9476 4.08113 55.9716 4.13005 56 4.17637V39.8207Z" fill="#353435"/>
<path d="M43.8482 15.5012C46.427 15.8621 48.1336 17.6446 48.2183 19.9911C48.306 22.4077 46.7076 24.1902 43.8482 24.8126V34.894C43.8482 36.209 43.2156 37.0608 42.0015 37.3925C40.6865 37.7504 39.2254 37.2902 38.676 36.2616C38.4839 35.873 38.3862 35.4444 38.3911 35.0109C38.3722 31.8038 38.3911 28.5953 38.3911 25.3868V24.8126C35.4851 24.1624 33.9846 22.5289 34.0079 20.0831C34.0269 17.7016 35.5786 16.0549 38.3911 15.469V14.8846C38.3911 12.8245 38.3911 10.7644 38.3751 8.70574C38.3751 7.73997 38.8221 7.0708 39.655 6.65147C40.093 6.42116 40.5796 6.2984 41.0745 6.29332C41.5694 6.28824 42.0584 6.40099 42.5011 6.62225C43.3851 7.04158 43.8526 7.7502 43.8497 8.7525C43.8497 10.798 43.8497 12.8347 43.8497 14.8759L43.8482 15.5012ZM41.1263 17.161C40.2876 17.161 39.4504 17.1478 38.6118 17.161C36.9388 17.1946 35.656 18.4759 35.6458 20.1021C35.6365 20.4903 35.7043 20.8765 35.8454 21.2383C35.9865 21.6001 36.198 21.9302 36.4676 22.2097C36.7372 22.4891 37.0597 22.7122 37.4162 22.8661C37.7727 23.02 38.1563 23.1015 38.5446 23.1061C40.256 23.1431 41.9678 23.1431 43.6802 23.1061C44.468 23.1006 45.2214 22.7825 45.7746 22.2216C46.3278 21.6607 46.6355 20.9031 46.6301 20.1153C46.6247 19.3275 46.3066 18.5741 45.7457 18.0209C45.1848 17.4677 44.4271 17.1599 43.6393 17.1654C42.8021 17.1493 41.9635 17.1654 41.1263 17.1639V17.161ZM40.0553 35.3908C40.2563 35.6151 40.5221 35.7712 40.8159 35.8374C41.1097 35.9037 41.4168 35.8768 41.6946 35.7604C42.2951 35.5383 42.2089 35.0474 42.2089 34.577C42.2089 31.5184 42.2089 28.4604 42.2089 25.4029V24.7922H40.0568L40.0553 35.3908ZM42.206 15.5012C42.206 13.1869 42.2133 10.9295 42.1914 8.6736C42.1727 8.56973 42.1333 8.47068 42.0756 8.38233C42.0178 8.29398 41.943 8.21813 41.8553 8.1593C41.3206 7.78527 40.4878 7.94452 40.0685 8.44129V15.5012H42.206Z" fill="#353435"/>
<path d="M30.9294 24.4956C33.9363 25.3328 35.3682 26.9063 35.3127 29.263C35.2571 31.6198 33.7683 33.1919 30.947 33.8508C30.9017 34.8853 31.1486 36.022 30.1492 36.8124C29.5733 37.2717 28.8497 37.5054 28.114 37.4699C27.1993 37.4421 26.4089 37.128 25.8361 36.3712C25.2634 35.6143 25.5571 34.7172 25.4475 33.8304C24.0113 33.6506 22.7869 33.0501 21.9292 31.8301C21.3193 30.957 21.0297 29.9 21.1096 28.8379C21.1895 27.7758 21.6339 26.774 22.3675 26.0019C23.1989 25.1151 24.2553 24.6724 25.4826 24.5409V23.8527C25.4826 18.8061 25.4826 13.7596 25.4826 8.71305C25.4826 7.38056 26.4323 6.4557 27.8933 6.32858C29.4216 6.19709 30.6694 6.99045 30.9046 8.25136C30.9422 8.50325 30.9564 8.75807 30.947 9.01257C30.947 13.95 30.9441 18.8875 30.9382 23.8249L30.9294 24.4956ZM28.1885 32.1662C29.0271 32.1662 29.8643 32.1808 30.703 32.1662C31.4673 32.1572 32.1996 31.8572 32.7506 31.3273C33.3016 30.7975 33.63 30.0776 33.669 29.3142C33.7552 27.8049 32.6301 26.354 31.0697 26.2591C29.1614 26.1422 27.2477 26.1422 25.3394 26.2591C23.7191 26.3584 22.6569 27.7728 22.7445 29.4106C22.8234 30.9141 24.1092 32.1341 25.674 32.1691C26.5097 32.1808 27.3469 32.1662 28.1855 32.1662H28.1885ZM27.135 24.4956H29.2916V20.4688C29.2916 16.6233 29.3047 12.7778 29.2916 8.92637C29.2891 8.78009 29.2577 8.63574 29.1993 8.50161C29.1409 8.36747 29.0565 8.24618 28.9512 8.1447C28.4383 7.74144 27.5894 7.91677 27.1409 8.43691L27.135 24.4956ZM27.135 35.3645C27.6815 35.8744 28.45 36.0059 28.9541 35.6289C29.6218 35.1366 29.1805 34.4455 29.2872 33.845H27.1307L27.135 35.3645Z" fill="#353435"/>
<path d="M17.8076 19.1188V19.8069C17.8076 24.7833 17.8076 29.7593 17.8076 34.7347C17.8076 36.0614 17.3181 36.827 16.2004 37.2448C15.0111 37.6919 13.5427 37.3997 12.8399 36.4938C12.5598 36.1399 12.3914 35.7106 12.3563 35.2607C12.311 32.6731 12.3271 30.0841 12.3329 27.4965C12.3329 26.8829 12.6383 26.5512 13.1497 26.5556C13.661 26.56 13.9635 26.9048 13.9649 27.5141C13.9737 29.8299 13.9649 32.1442 13.9649 34.4586V35.2826C14.4558 35.8071 15.2156 35.9854 15.7285 35.6303C15.8469 35.5329 15.9441 35.4122 16.0142 35.2758C16.0843 35.1394 16.1258 34.99 16.1361 34.837C16.1741 33.2517 16.1551 31.6664 16.1551 30.0812V19.167H13.9898C13.9898 19.3379 13.9664 19.5293 13.9664 19.7207C13.9664 20.9422 13.9766 22.1636 13.9562 23.3836C13.9474 23.9213 13.569 24.2837 13.1102 24.2603C12.6514 24.2369 12.3446 23.8877 12.3271 23.3252C12.3198 23.125 12.3271 22.9249 12.3271 22.7232V19.129C10.7623 18.9449 9.50429 18.2611 8.65395 16.9374C8.10667 16.0668 7.866 15.0383 7.97018 14.0152C8.13382 11.8981 9.60658 10.4575 12.3125 9.81319C12.3651 8.79044 12.1225 7.6771 13.1453 6.92172C13.7201 6.4859 14.4292 6.2647 15.1499 6.29638C16.0411 6.32707 16.9412 6.5623 17.3576 7.37612C17.7199 8.0862 17.7857 8.94677 18.0121 9.85994C18.6769 9.93404 19.3179 10.1499 19.8921 10.4929C20.4663 10.836 20.9602 11.2982 21.3405 11.8485C21.8973 12.6253 22.1892 13.5607 22.1733 14.5164C22.1711 15.6975 21.7076 16.8309 20.8817 17.6752C20.0562 18.5431 19.0202 18.9843 17.8076 19.1188ZM15.0958 11.4905C14.3127 11.4905 13.5296 11.4905 12.7464 11.4905C10.9449 11.5036 9.62557 12.7426 9.60511 14.4316C9.58319 16.1528 10.8835 17.4473 12.707 17.4751C14.2908 17.4999 15.876 17.4911 17.4613 17.4751C19.1927 17.4561 20.5295 16.1601 20.5398 14.4988C20.55 12.8376 19.2014 11.5124 17.4467 11.492C16.6635 11.4847 15.8804 11.492 15.0958 11.4905ZM16.177 9.82195C16.0397 9.21269 16.5058 8.50699 15.7387 8.08766C15.4569 7.93882 15.1328 7.89028 14.8197 7.95002C14.5067 8.00977 14.2233 8.17424 14.0161 8.4164V9.82195H16.177Z" fill="#353435"/>
<path d="M24.4715 43.6005C17.9288 43.6005 11.3856 43.6005 4.84198 43.6005C3.53432 43.6005 2.35817 43.3083 1.3851 42.3762C0.498224 41.5273 0.0131267 40.4885 0.0116656 39.2655C-2.29757e-05 30.7913 -2.29757e-05 22.3171 0.0116656 13.8429C0.0116656 13.238 0.317028 12.8859 0.813793 12.8756C1.34562 12.8669 1.64956 13.2365 1.64956 13.9203C1.64956 22.2864 1.64956 30.6525 1.64956 39.0186C1.64956 40.4359 2.41515 41.52 3.68482 41.8414C4.11202 41.9322 4.54869 41.9704 4.98516 41.9554C18.1446 41.9612 31.3044 41.9612 44.4648 41.9554C44.665 41.9554 44.8666 41.9466 45.0653 41.9554C45.565 41.9948 45.8587 42.2929 45.866 42.7487C45.8733 43.2046 45.5898 43.51 45.0887 43.5684C44.8711 43.5879 44.6525 43.5942 44.4341 43.5874L24.4715 43.6005Z" fill="#353435"/>
<path d="M17.8572 0.400998H31.2538C31.4364 0.400998 31.6191 0.401 31.8003 0.412689C32.2722 0.459443 32.541 0.747273 32.5483 1.20167C32.5556 1.65606 32.2941 1.95412 31.8265 2.01402C31.5906 2.03743 31.3535 2.04621 31.1165 2.04032C22.2955 2.04032 13.4745 2.04032 4.65351 2.04032C2.97035 2.04032 1.75474 3.07184 1.65392 4.58405C1.62909 4.96539 1.64518 5.34965 1.64518 5.73099C1.64518 7.0255 1.64518 8.32001 1.64518 9.61306C1.64518 10.2968 1.33982 10.668 0.807992 10.6563C0.276162 10.6446 0.00732565 10.2852 0.00586458 9.63352C0.00586458 8.04679 -0.00290186 6.46153 0.00586458 4.87626C0.0204753 2.31793 1.8848 0.433144 4.46214 0.403923C6.72096 0.379084 8.98122 0.403923 11.2415 0.403923L17.8572 0.400998Z" fill="#353435"/>
</g>
<defs>
<clipPath id="clip0_6_178">
<rect width="56" height="43.2127" fill="white" transform="translate(0 0.393677)"/>
</clipPath>
</defs>
</svg>
