<svg width="79" height="79" viewBox="0 0 79 79" fill="none" xmlns="http://www.w3.org/2000/svg">
<path d="M0 0H63C71.8366 0 79 7.16344 79 16V79H0V0Z" fill="#BE7D5B"/>
<g clip-path="url(#clip0_68_76)">
<path d="M0 64.1822V19.598C0.0404781 19.5468 0.0708795 19.4884 0.0895883 19.4259C0.585751 15.8988 3.78668 12.9552 8.05058 12.9948C17.3984 13.0791 26.748 13.0189 36.0976 13.0206C40.7681 13.0206 44 16.2413 44.0052 20.9063C44.0052 26.8738 44.0052 32.8413 44.0052 38.8088V39.4767C37.0038 41.1017 31.7148 44.9077 28.5001 51.2838C25.2854 57.6598 25.3732 64.1942 28.3037 70.7063C28.1607 70.7235 28.0969 70.7372 28.0332 70.7372C21.142 70.7372 14.2354 70.7665 7.33736 70.72C4.96852 70.7045 3.04761 69.6356 1.56429 67.7937C0.716683 66.735 0.316993 65.4767 0 64.1822ZM27.3527 40.4596C28.0418 41.1792 28.6913 41.8367 29.3305 42.5029C30.0058 43.2018 30.8 43.4807 31.7251 43.0985C32.6503 42.7164 33.019 41.971 33.0155 40.995C33.0155 38.826 33.0155 36.6571 33.0155 34.4881C33.0155 33.1334 32.1679 32.2744 30.8034 32.2641C28.6121 32.2469 26.4207 32.2537 24.2276 32.2641C23.2869 32.2641 22.5496 32.6497 22.1843 33.55C21.8191 34.4502 22.0482 35.2369 22.7305 35.8997C23.2835 36.4385 23.8486 36.9652 24.4429 37.5315L21.7278 40.0345C20.5615 39.37 19.4485 38.7227 18.3236 38.0996C17.376 37.5832 16.5026 37.6365 15.7738 38.3544C13.4412 40.6427 11.1263 42.9482 8.82929 45.2709C8.58016 45.5124 8.4007 45.8165 8.30976 46.1512C8.21882 46.4859 8.21975 46.8389 8.31245 47.1731C8.69836 48.774 10.602 49.2869 11.82 48.0975C13.5859 46.3761 15.3208 44.6099 17.0694 42.8661C17.2313 42.7061 17.4019 42.5546 17.5518 42.4169L17.7861 42.5391L20.6356 44.171C21.8656 44.875 22.6288 44.7975 23.6625 43.8508C24.8684 42.7491 26.0658 41.6439 27.3527 40.4596Z" fill="#F2F2F1"/>
<path d="M46.6824 79C45.4885 78.7539 44.2705 78.5817 43.1059 78.2495C36.3284 76.3267 31.2531 70.3483 30.4141 63.3577C29.2564 53.7059 35.7634 45.0662 45.4024 43.4687C54.9242 41.8902 64.3151 48.6725 65.7829 58.1901C67.2835 67.9177 61.1142 76.7639 51.4838 78.6833C50.8774 78.8055 50.2658 78.895 49.6577 79H46.6824ZM49.5198 61.4848C49.5198 58.8477 49.5198 56.2707 49.5198 53.6955C49.5198 52.4251 48.6584 51.5266 47.4714 51.5197C46.2844 51.5128 45.4041 52.4028 45.4041 53.668C45.4041 56.5651 45.4041 59.4639 45.4041 62.3627C45.392 62.7177 45.4667 63.0702 45.622 63.3897C45.7772 63.7092 46.0081 63.986 46.2948 64.196C48.2622 65.7229 50.2227 67.2584 52.1936 68.7818C53.2841 69.6236 54.528 69.5306 55.2808 68.5753C56.0337 67.6199 55.8218 66.3908 54.7347 65.5387C52.9981 64.196 51.2685 62.862 49.5198 61.4848Z" fill="#F2F2F1"/>
</g>
<defs>
<clipPath id="clip0_68_76">
<rect width="66" height="66" fill="white" transform="translate(0 13)"/>
</clipPath>
</defs>
</svg>
