<svg width="56" height="56" viewBox="0 0 56 56" fill="none" xmlns="http://www.w3.org/2000/svg">
<g clip-path="url(#clip0_28_605)">
<path d="M1.46583 56.0002C0.335432 55.5165 -0.0783038 54.6544 0.0133105 53.4665C0.0724165 52.7053 0.0221699 51.9352 0.0251252 51.1696C0.0251252 49.7537 0.756565 49.0275 2.19875 48.9998C2.30662 48.9998 2.41301 48.9896 2.5859 48.9808C2.5859 48.5424 2.5859 48.1319 2.5859 47.7198C2.60954 46.5509 3.34984 45.8203 4.53196 45.7955C5.47027 45.7809 6.41006 45.7955 7.39713 45.7955C8.25564 44.7405 9.14371 43.6944 9.97415 42.6058C10.4278 42.0096 10.515 40.8524 10.3051 39.6835H8.73292C7.97636 39.6835 7.22129 39.6937 6.46621 39.6835C4.78169 39.6557 3.67197 38.5467 3.67197 36.8796C3.67197 30.6093 3.67197 24.3395 3.67197 18.0702C3.67197 16.3373 3.67197 14.6053 3.67197 12.8743C3.67197 12.1876 3.9675 11.815 4.50388 11.8209C5.04027 11.8267 5.32842 12.2022 5.32989 12.8919C5.32989 20.7821 5.32989 28.6723 5.32989 36.5625C5.32989 37.7665 5.60769 38.0397 6.83118 38.0397H50.017C51.2257 38.0397 51.5257 37.7475 51.5257 36.5581C51.5257 25.4037 51.5257 14.2503 51.5257 3.09779C51.5257 1.94348 51.2302 1.65125 50.048 1.65125H6.80607C5.6136 1.65125 5.32842 1.92595 5.32842 3.08756V8.33601C5.32842 8.46459 5.32842 8.59171 5.32842 8.71883C5.29886 9.26383 4.96344 9.62475 4.49059 9.62182C4.01774 9.6189 3.68083 9.25945 3.67492 8.71152C3.66458 7.76324 3.67492 6.81203 3.67492 5.86813C3.67492 4.77519 3.66162 3.67641 3.68231 2.58785C3.69629 1.91513 3.97048 1.2733 4.44846 0.794402C4.92645 0.315503 5.57188 0.0359661 6.25195 0.0133057C6.41744 0.0133057 6.58294 0.0133057 6.74991 0.0133057H50.1027C52.1507 0.0133057 53.191 1.04488 53.1925 3.08172V36.6019C53.1925 38.6578 52.1433 39.6893 50.0613 39.6908H45.6875C45.5767 41.0628 45.556 42.3209 46.5992 43.37C47.3292 44.1093 47.9424 44.9641 48.6413 45.8072C49.5279 45.8072 50.4145 45.8072 51.3218 45.8072C52.7167 45.8159 53.4318 46.5246 53.4378 47.8966C53.4378 48.2415 53.4378 48.5877 53.4378 49.0159C53.6757 49.0159 53.8811 49.0159 54.0998 49.0159C54.6046 49.0228 55.0864 49.2259 55.4409 49.5814C55.7954 49.9369 55.9941 50.4161 55.9941 50.9153C56.0133 51.9542 55.9941 52.9931 55.9941 54.032C56.0044 55.0548 55.3942 55.6144 54.5504 56.0192H46.2549C45.9121 55.7167 45.6299 55.3821 45.8308 54.8926C46.0318 54.4031 46.4765 54.3739 46.939 54.3754C49.1683 54.3822 51.3981 54.3822 53.6284 54.3754C53.8397 54.3754 54.0525 54.3403 54.283 54.3198V50.7093H1.74511V54.3783H42.2002C42.4041 54.3783 42.6347 54.3228 42.8016 54.4002C43.0514 54.5127 43.375 54.6822 43.4488 54.8999C43.5331 55.1439 43.3897 55.4727 43.3085 55.7547C43.2789 55.8584 43.1415 55.9315 43.0543 56.0192L1.46583 56.0002ZM43.9837 39.723H12.0384C12.0384 40.078 12.0237 40.3878 12.0384 40.6961C12.0889 41.3518 12.0019 42.0108 11.783 42.6318C11.5641 43.2528 11.2179 43.8225 10.7662 44.3051C10.1411 44.9948 9.57518 45.7385 9.11268 46.2981L9.43037 48.9647H11.4104C11.4104 48.5264 11.4104 48.1348 11.4104 47.7373C11.4237 46.5567 12.1493 45.8189 13.3314 45.797C14.2889 45.7794 15.2523 45.7823 16.2054 45.797C17.423 45.813 18.1559 46.5524 18.1677 47.752C18.1677 48.1626 18.1677 48.5717 18.1677 48.9735H20.2364C20.2364 48.5483 20.2364 48.1523 20.2364 47.7549C20.2571 46.5319 20.9634 45.816 22.1899 45.797C23.1297 45.7823 24.0695 45.7823 25.0092 45.797C26.2519 45.8145 26.9775 46.548 26.9967 47.7914C26.9967 48.1845 26.9967 48.5775 26.9967 48.9691H29.0344C29.0344 48.541 29.0344 48.1436 29.0344 47.7461C29.0595 46.5451 29.7939 45.8145 31.01 45.797C31.9498 45.7833 32.8896 45.7833 33.8293 45.797C35.0602 45.8145 35.7695 46.5275 35.7931 47.7461C35.7931 48.1552 35.7931 48.5658 35.7931 48.975H37.8619C37.8619 48.5176 37.8619 48.0851 37.8619 47.6526C37.884 46.5816 38.6154 45.8291 39.7015 45.8013C40.7137 45.7765 41.7289 45.7779 42.7411 45.8013C43.8626 45.8247 44.5925 46.5714 44.6117 47.676C44.6117 48.1056 44.6117 48.5366 44.6117 48.9618H46.5933C46.6938 48.1026 46.7898 47.2873 46.9065 46.2981C46.3835 45.6625 45.7348 44.8472 45.058 44.0567C44.3511 43.2498 43.9697 42.2136 43.9867 41.1461C43.9852 40.6756 43.9837 40.2066 43.9837 39.723ZM16.4802 47.4875H13.1171V48.9735H16.4802V47.4875ZM39.5656 47.4612V48.9633H42.9021V47.4612H39.5656ZM4.28224 47.4612V48.9633H7.6365V47.4612H4.28224ZM21.9283 48.9676H25.287V47.4729H21.9283V48.9676ZM34.0805 48.9779V47.4816H30.7278V48.9779H34.0805ZM48.3827 47.4729V48.953H51.7355V47.4729H48.3827Z" fill="black"/>
<path d="M28.4448 3.82092H46.6938C48.4537 3.82092 49.3402 4.69761 49.3402 6.45099V33.2426C49.3402 34.9697 48.4315 35.8639 46.6805 35.8639H10.1825C8.40931 35.8639 7.52272 34.9936 7.52272 33.2528C7.52272 24.3038 7.52272 15.3543 7.52272 6.40423C7.52272 4.68203 8.39503 3.82189 10.1396 3.82384L28.4448 3.82092ZM28.464 5.46179H10.1057C9.3491 5.46179 9.18361 5.61813 9.18361 6.33848C9.18361 15.3236 9.18361 24.3087 9.18361 33.2938C9.18361 34.0419 9.3624 34.2128 10.1382 34.2128H46.6864C47.5006 34.2128 47.6808 34.0302 47.6808 33.2061V6.46706C47.6808 5.60206 47.5331 5.44426 46.6554 5.44426L28.464 5.46179Z" fill="black"/>
<path d="M23.2272 9.58221C25.9727 9.82184 28.6871 10.0323 31.3956 10.3055C32.9324 10.4604 33.85 11.4247 34.1116 12.9545C34.8933 17.5442 34.8888 22.2312 34.0983 26.8194C33.8677 28.1841 32.9531 29.1207 31.5597 29.3326C27.4221 29.9574 23.2255 30.1089 19.0528 29.7841C17.6737 29.6789 16.3014 29.5293 14.9361 29.3355C13.4954 29.1324 12.6044 28.2732 12.3532 26.8734C11.7988 23.822 11.6162 20.7159 11.8094 17.6215C11.9084 16.0799 12.1167 14.5428 12.3192 13.0101C12.526 11.451 13.5013 10.4604 15.0425 10.3055C17.7673 10.0308 20.4994 9.81892 23.2272 9.58221ZM23.2272 11.2231C20.5541 11.4583 17.8973 11.6848 15.2479 11.9332C14.4913 12.0033 14.1012 12.4095 13.9756 13.1533C13.2198 17.5041 13.2108 21.9498 13.949 26.3036C14.1263 27.3366 14.4411 27.6698 15.4769 27.7648C17.5663 27.9547 19.6557 28.1753 21.751 28.2674C24.8851 28.4135 28.0089 28.1797 31.1164 27.7516C31.9926 27.6303 32.3221 27.3133 32.4743 26.4293C33.2388 22.0214 33.2318 17.5164 32.4536 13.1109C32.3265 12.3803 31.9468 11.999 31.2139 11.9303C28.5467 11.6848 25.8943 11.4583 23.2272 11.2231Z" fill="black"/>
<path d="M41.4658 25.4854C42.0012 25.4871 42.5241 25.6458 42.9683 25.9414C43.4125 26.2369 43.7581 26.6561 43.9613 27.1459C44.1646 27.6357 44.2164 28.1741 44.1102 28.693C44.0041 29.2119 43.7447 29.688 43.3649 30.0612C42.985 30.4343 42.5018 30.6877 41.9764 30.7893C41.4509 30.8908 40.9068 30.8361 40.4128 30.6319C39.9189 30.4277 39.4972 30.0832 39.2012 29.6421C38.9052 29.2009 38.7482 28.6828 38.7499 28.1534C38.7527 27.4436 39.0402 26.7639 39.5495 26.2636C40.0587 25.7633 40.748 25.4834 41.4658 25.4854ZM42.5002 28.152C42.4985 28.0158 42.4696 27.8813 42.4152 27.7562C42.3609 27.631 42.2821 27.5177 42.1834 27.4227C42.0848 27.3277 41.9681 27.2529 41.8402 27.2025C41.7122 27.1522 41.5755 27.1272 41.4378 27.1292C41.2311 27.1323 41.03 27.196 40.8598 27.3121C40.6897 27.4282 40.5582 27.5916 40.4818 27.7815C40.4055 27.9715 40.3878 28.1796 40.4309 28.3795C40.4741 28.5794 40.5762 28.7622 40.7243 28.9047C40.8724 29.0473 41.0599 29.1433 41.2632 29.1806C41.4664 29.218 41.6763 29.1949 41.8663 29.1143C42.0563 29.0338 42.2179 28.8994 42.3307 28.7281C42.4435 28.5569 42.5025 28.3564 42.5002 28.152Z" fill="black"/>
<path d="M41.4629 18.1518C42.1693 18.1691 42.8409 18.4589 43.334 18.9594C43.8271 19.4599 44.1026 20.1313 44.1016 20.83C44.1007 21.5288 43.8233 22.1994 43.3288 22.6986C42.8343 23.1977 42.162 23.4857 41.4555 23.5011C41.095 23.5089 40.7365 23.4454 40.4012 23.3143C40.0658 23.1831 39.7604 22.9871 39.5028 22.7375C39.2451 22.488 39.0406 22.1901 38.9011 21.8612C38.7616 21.5324 38.69 21.1793 38.6905 20.8227C38.691 20.4661 38.7636 20.1132 38.904 19.7848C39.0444 19.4563 39.2497 19.1589 39.508 18.9101C39.7663 18.6613 40.0723 18.466 40.408 18.3358C40.7437 18.2056 41.1024 18.143 41.4629 18.1518ZM41.4806 21.8573C41.7588 21.8474 42.0217 21.7293 42.2124 21.5288C42.403 21.3282 42.5059 21.0614 42.4987 20.7863C42.4946 20.6501 42.463 20.5162 42.4058 20.3923C42.3486 20.2684 42.2669 20.1571 42.1656 20.0648C42.0643 19.9725 41.9454 19.9012 41.8159 19.8549C41.6863 19.8087 41.5487 19.7885 41.4112 19.7956C41.1425 19.8087 40.889 19.923 40.703 20.1152C40.5169 20.3073 40.4124 20.5626 40.4108 20.8286C40.4207 21.1034 40.5375 21.3637 40.7368 21.5554C40.9361 21.7471 41.2026 21.8552 41.4806 21.8573Z" fill="black"/>
<path d="M40.6265 12.2021C40.6265 11.3999 40.6265 10.5948 40.6265 9.797C40.6265 9.19939 40.9546 8.85018 41.4629 8.85311C41.9712 8.85603 42.2785 9.20086 42.2815 9.80723C42.2874 11.4116 42.2874 13.0154 42.2815 14.6188C42.2815 15.2193 41.9623 15.5642 41.4525 15.5612C40.9427 15.5583 40.6339 15.2091 40.6265 14.6071C40.6191 13.7991 40.6265 12.9984 40.6265 12.2021Z" fill="black"/>
</g>
<defs>
<clipPath id="clip0_28_605">
<rect width="56" height="56" fill="white"/>
</clipPath>
</defs>
</svg>
