<svg width="127" height="47" viewBox="0 0 127 47" fill="none" xmlns="http://www.w3.org/2000/svg">
<g clip-path="url(#clip0_2276_5143)">
<path d="M42.6818 29.7771C44.9819 32.4209 47.2823 35.0636 49.583 37.7055C49.7509 37.8989 50.0056 38.0708 50.0632 38.2933C50.1651 38.6868 50.2773 39.1638 50.1368 39.5047C50.0292 39.7648 49.549 39.9836 49.215 40.0155C48.5301 40.0813 47.832 39.9967 47.1395 39.9939C39.5373 39.9651 31.9352 39.9382 24.333 39.9132C18.1171 39.8969 11.9011 39.8875 5.68516 39.885C4.50492 39.885 3.32092 39.9038 2.14635 39.8155C1.66331 39.7779 1.20292 39.4784 0.731201 39.2981V38.2229C1.17933 37.7534 1.64634 37.3083 2.07088 36.8228C4.15712 34.437 6.23675 32.0452 8.30979 29.6476C9.99098 27.7544 11.6807 25.8679 13.3534 23.9664C17.073 19.7375 20.7901 15.5068 24.5047 11.2743C24.7613 10.9822 25.1095 10.7709 25.4425 10.5005C25.7576 10.724 26.0227 10.8479 26.1972 11.0479C29.0759 14.3127 31.9477 17.5831 34.8126 20.8591C37.4316 23.8358 40.0546 26.8085 42.6818 29.7771ZM25.8283 26.251C25.6642 27.2258 25.0821 27.7911 24.2688 28.0502C23.6217 28.2559 22.9084 28.2484 22.2367 28.3939C21.9405 28.4578 21.5282 28.6043 21.4329 28.825C21.3169 29.0973 21.4546 29.4917 21.5272 29.8222C21.5574 29.9537 21.7159 30.0617 21.8216 30.1687C23.194 31.5153 24.5689 32.8594 25.9463 34.201C26.2944 34.54 26.6388 34.893 27.034 35.1701C27.4643 35.4724 27.9775 35.5457 28.3473 35.0874C28.7011 34.648 28.5983 34.1737 28.2058 33.7793C27.8803 33.4526 27.5227 33.1568 27.2067 32.8225C26.1944 31.7501 25.1944 30.6627 24.2387 29.6391C26.0651 29.3574 27.5133 28.409 27.8416 26.329C28.5549 26.0304 29.5813 26.7271 29.8908 25.5374C29.4775 24.3608 28.4388 25.1251 27.8445 24.8368C27.4359 24.2884 27.0642 23.7917 26.6312 23.2114H29.7049V21.9634H21.3084V23.1428C22.8999 23.5184 24.8236 22.8273 25.7585 24.8669C24.4623 24.8669 23.3056 24.8744 22.1499 24.8669C21.6386 24.8669 21.1838 24.9336 21.2065 25.5731C21.2291 26.2125 21.6782 26.2642 22.1905 26.2586C23.3924 26.2417 24.5915 26.251 25.8312 26.251H25.8283Z" fill="#223469"/>
<path d="M101.44 0C101.542 0.429142 101.7 0.853587 101.735 1.28836C101.786 1.9194 101.748 2.557 101.748 3.29134C102.286 3.29134 102.764 3.27725 103.243 3.29134C103.792 3.31106 104.082 3.57305 104.067 4.16183C104.044 5.00509 104.044 5.85023 104.067 6.69724C104.083 7.32828 103.791 7.57806 103.179 7.55083C102.747 7.53111 102.314 7.55083 101.773 7.55083V8.4185C101.773 12.0995 101.773 15.7806 101.773 19.4616C101.773 20.4871 101.687 20.5716 100.689 20.5744C100.047 20.5744 99.4053 20.5744 98.7631 20.5744C97.6206 20.5744 97.5612 20.5143 97.5612 19.3405C97.5612 15.7365 97.5612 12.1324 97.5612 8.52838V7.58933H95.397C95.3026 7.25034 95.163 6.97802 95.1526 6.70194C95.1224 5.85681 95.1526 5.01167 95.1375 4.16653C95.1262 3.58338 95.4262 3.2951 95.9715 3.2998C97.565 3.312 98.6725 2.55419 99.5358 1.27052C99.865 0.780335 100.385 0.425376 100.825 0.00186846L101.44 0Z" fill="#01BDF1"/>
<path d="M126.27 29.4728C125.862 30.4438 125.428 31.4035 125.052 32.3838C123.656 36.0311 122.281 39.6858 120.896 43.3368C120.806 43.5753 120.707 43.8064 120.599 44.0411C119.41 46.6132 117.716 47.4329 114.889 46.7869V45.368C114.948 45.3436 114.993 45.306 115.031 45.3116C117.347 45.6328 118.145 45.1173 119.081 42.995C119.513 42.0109 119.516 41.1874 119.094 40.1882C117.584 36.6199 116.178 33.0074 114.711 29.3564H116.779C118.028 32.6843 119.299 36.0677 120.552 39.4145C121.727 36.1212 122.936 32.7313 124.153 29.3179H126.27V29.4728Z" fill="#23376B"/>
<path d="M8.30868 29.6475C6.29603 29.6324 4.28338 29.6177 2.27073 29.6033C1.07729 29.5968 0.802745 29.3085 0.85086 28.0905C2.4179 26.2679 3.96984 24.4283 5.55386 22.6234C11.8434 15.4398 18.1405 8.26047 24.4451 1.08556C25.2225 0.200042 25.6442 0.186902 26.4263 1.07993C34.1964 9.92946 41.964 18.7796 49.729 27.6304C50.1262 28.0821 50.3895 28.5319 50.1168 29.1507C49.8442 29.7695 49.3309 29.7874 48.7686 29.7846C46.7393 29.7724 44.7119 29.778 42.6826 29.778C40.0592 26.805 37.4355 23.8314 34.8115 20.8571C31.9372 17.5892 29.0654 14.3189 26.1961 11.046C26.0197 10.846 25.7546 10.722 25.4414 10.4985C25.1083 10.769 24.7602 10.9802 24.5036 11.2723C20.7796 15.4973 17.0625 19.7281 13.3523 23.9644C11.6796 25.8678 9.98988 27.7544 8.30868 29.6475Z" fill="#01BCF1"/>
<path d="M109.716 20.3622C109.408 20.3989 109.232 20.4374 109.056 20.4383C108.03 20.4439 107.005 20.4383 105.862 20.4383C105.768 20.1125 105.614 19.8138 105.614 19.5143C105.599 14.3984 105.607 9.27873 105.599 4.16659C105.599 3.50926 105.92 3.23974 106.543 3.24256C107.237 3.24256 107.931 3.26416 108.625 3.23693C109.257 3.21252 109.813 3.27262 109.964 4.03606C112.077 2.72985 114.042 2.83596 115.933 4.42482C117.28 3.19749 118.835 2.82844 120.567 3.38624C121.417 3.66095 122.158 4.19653 122.683 4.91618C123.208 5.63583 123.491 6.5026 123.491 7.39219C123.501 11.4085 123.484 15.4248 123.504 19.4401C123.504 20.1566 123.271 20.4731 122.524 20.4477C121.527 20.4111 120.528 20.4383 119.411 20.4383C119.334 19.9885 119.211 19.6044 119.209 19.2175C119.194 15.713 119.203 12.2085 119.198 8.70027C119.198 7.70489 118.537 7.18561 117.585 7.41943C116.846 7.6016 116.678 8.13215 116.681 8.81859C116.694 12.293 116.687 15.776 116.686 19.2551C116.686 20.382 116.574 20.4918 115.466 20.4975C114.823 20.4975 114.181 20.4975 113.538 20.4975C112.582 20.4881 112.415 20.3237 112.415 19.3819C112.415 15.852 112.415 12.3212 112.411 8.79137C112.411 7.79974 112.064 7.45041 111.152 7.45041C110.24 7.45041 109.904 7.77344 109.903 8.70215C109.897 12.232 109.903 15.7619 109.893 19.2917C109.89 19.657 109.776 20.0148 109.716 20.3622Z" fill="#03BDF1"/>
<path d="M76.1735 8.90406C76.7216 8.38947 76.7169 7.91619 76.197 7.36873C74.997 7.36873 73.7668 7.36873 72.5365 7.36873C71.5771 7.36873 71.4374 7.21943 71.4346 6.24188C71.4346 5.57704 71.4195 4.9122 71.4412 4.2483C71.4497 3.98443 71.5356 3.72243 71.6101 3.35151C72.1271 3.35151 72.5799 3.35151 73.0337 3.35151C74.3687 3.35808 75.7074 3.31207 77.0386 3.38719C79.3802 3.51772 80.8604 5.01549 80.8878 7.33868C80.9321 11.1484 80.9067 14.9581 80.8944 18.7678C80.8944 19.7284 80.2123 20.4017 79.2368 20.4111C77.2848 20.4299 75.331 20.4533 73.38 20.4055C71.512 20.3585 70.01 19.0598 69.8204 17.2127C69.6611 15.7154 69.6358 14.207 69.7449 12.7053C69.9232 10.4 71.5506 8.98576 73.896 8.91251C74.664 8.88434 75.4319 8.90406 76.1735 8.90406ZM76.6046 14.6989C76.6046 14.3937 76.6546 14.0782 76.5914 13.7861C76.5282 13.4941 76.4272 13.0828 76.214 12.9654C75.113 12.3673 74.0687 12.9992 74.0677 14.2097C74.0677 14.5909 74.0677 14.9725 74.0677 15.3544C74.0677 16.5535 74.1177 16.6023 75.3168 16.6033C76.5659 16.6033 76.6065 16.5619 76.6065 15.3093C76.6093 15.1064 76.6084 14.9027 76.6084 14.6989H76.6046Z" fill="#213569"/>
<path d="M93.3827 3.29416C93.4563 3.78434 93.5441 4.1008 93.5441 4.42101C93.5535 8.257 93.562 12.0921 93.5441 15.928C93.5328 18.8269 91.8327 20.5012 88.9449 20.5021C87.5061 20.5021 86.0674 20.489 84.6287 20.5087C83.9834 20.5171 83.6758 20.2692 83.6947 19.6063C83.7173 18.8137 83.7192 18.0202 83.6947 17.2286C83.673 16.5478 83.9466 16.252 84.6504 16.2652C85.8825 16.2886 87.1155 16.2529 88.3486 16.2511C88.8288 16.2511 89.2684 16.1675 89.2618 15.5806C89.2552 14.9937 88.8099 14.9355 88.3354 14.9157C87.3637 14.8735 86.3712 14.9158 85.4287 14.7204C83.8654 14.3993 82.5776 13.0142 82.4984 11.446C82.3748 8.97161 82.4239 6.48972 82.4041 4.01159C82.4041 3.8651 82.4776 3.7186 82.5418 3.47915C82.8078 3.42187 83.0946 3.3167 83.3843 3.30637C84.1286 3.28101 84.874 3.28946 85.6193 3.30073C86.5042 3.31294 86.657 3.46225 86.657 4.32805C86.657 6.04086 86.6495 7.75461 86.6646 9.46742C86.6646 9.81111 86.7589 10.1529 86.8306 10.629C87.5127 10.629 88.1316 10.7126 88.7052 10.5877C88.9383 10.5379 89.2194 10.0393 89.2279 9.73787C89.277 7.95369 89.2505 6.15823 89.2524 4.36842C89.2524 3.47445 89.4184 3.30919 90.3373 3.2998C91.3091 3.28759 92.278 3.29416 93.3827 3.29416Z" fill="#22366A"/>
<path d="M61.9344 15.3778C61.9344 16.8577 61.9099 18.1837 61.9439 19.5096C61.9628 20.2477 61.642 20.5256 60.9316 20.5059C60.1108 20.4824 59.2891 20.4984 58.4673 20.5059C57.9305 20.5059 57.6617 20.2561 57.6626 19.7134C57.6626 14.4992 57.6626 9.28466 57.6626 4.06985C57.6626 3.54586 57.9513 3.30922 58.4239 3.31204C60.7825 3.32424 63.1515 3.27447 65.5063 3.40594C67.2922 3.5083 68.6196 5.038 68.7139 6.9527C68.7913 8.55847 68.7951 10.1746 68.7139 11.7803C68.6092 13.8547 67.2045 15.2351 65.1289 15.3693C64.0977 15.4313 63.0732 15.3778 61.9344 15.3778ZM61.9958 11.1737C62.5948 11.1737 63.1279 11.1972 63.659 11.1662C64.1109 11.1399 64.443 10.9277 64.4459 10.415C64.4459 9.7041 64.4959 8.98667 64.4176 8.28333C64.3893 8.03449 64.0732 7.65699 63.8449 7.626C63.2364 7.5321 62.6033 7.59408 61.958 7.59408C61.958 8.72093 61.958 9.75387 61.958 10.7981C61.959 10.8901 61.9778 10.9887 61.9958 11.1737Z" fill="#22366A"/>
<path d="M72.4517 27.6388L67.1166 41.4174H65.5128C64.4892 38.7486 63.4627 36.0583 62.4259 33.3717C61.6645 31.3997 60.89 29.4362 60.1211 27.4679L60.0692 27.1318L59.9683 27.143L59.989 27.4961V41.4061H58.3691V25.2048H61.2325C62.9306 29.6071 64.6288 34.0318 66.3968 38.6266L71.6055 25.218H74.4433V41.4146H72.6649V27.6266L72.73 27.1984L72.6159 27.175L72.4517 27.6388Z" fill="#24376B"/>
<path d="M114.199 35.6141H105.856C105.451 37.9457 107.133 39.9919 109.483 40.0276C110.175 40.0364 110.866 39.9782 111.546 39.8538C112.219 39.7327 112.867 39.4914 113.58 39.2904V40.8117C111.156 42.2456 107.013 41.8127 105.292 39.9318C103.144 37.5842 103.257 32.6514 105.539 30.4052C107.092 28.8764 108.988 28.6661 110.964 29.2924C112.88 29.899 113.777 31.4156 114.065 33.3078C114.177 34.0308 114.155 34.7755 114.199 35.6141ZM112.077 34.0412C112.141 31.9997 111.149 30.6991 109.473 30.5752C107.408 30.423 106.085 31.6644 105.817 34.0412H112.077Z" fill="#23376B"/>
<path d="M88.74 35.5004C88.6042 36.2413 88.5315 37.1691 88.258 38.0358C87.557 40.2557 85.6654 41.5835 83.3342 41.6042C80.5812 41.6295 78.6878 40.451 77.8623 38.1297C77.2259 36.359 77.1987 34.4279 77.7849 32.6401C78.6132 30.0493 80.6661 28.8238 83.7361 29.021C86.0663 29.1703 87.9693 30.8991 88.4664 33.3528C88.6023 33.9951 88.6381 34.6609 88.74 35.5004ZM79.2642 35.2976C79.4274 36.1296 79.5152 37.0001 79.7756 37.8161C80.2265 39.2246 81.369 40.0003 82.8493 40.0379C84.5399 40.0811 85.7069 39.4134 86.2541 37.9541C86.8959 36.2647 86.9076 34.4022 86.2871 32.7049C85.772 31.2494 84.5889 30.5573 82.9077 30.5742C81.3586 30.5902 80.2246 31.3329 79.7548 32.7838C79.4991 33.5744 79.4284 34.4243 79.2642 35.2976Z" fill="#24376B"/>
<path d="M91.2278 29.3377H92.7193C92.8203 29.7828 92.9241 30.2391 92.991 30.5312C93.9128 30.0617 94.7968 29.4043 95.7817 29.1799C96.7402 28.9602 97.8337 29.0362 98.8101 29.2466C100.428 29.595 101.352 30.8298 101.402 32.7107C101.48 35.5936 101.422 38.4783 101.422 41.4053H99.596C99.5847 41.1687 99.562 40.9245 99.562 40.6794C99.562 38.3318 99.562 35.9757 99.562 33.6234C99.562 31.7454 98.862 30.8063 97.3157 30.596C95.3515 30.3237 93.825 31.1491 93.3845 32.8328C93.1797 33.6122 93.1184 34.4432 93.1014 35.2536C93.0637 37.2913 93.0892 39.331 93.0892 41.4091H91.2278V29.3377Z" fill="#25396C"/>
<path d="M72.4517 27.6388L72.613 27.1787L72.7271 27.2022L72.662 27.6304L72.4517 27.6388Z" fill="#A3ABC1"/>
<path d="M59.9861 27.4962L59.9653 27.1431L60.0663 27.1318L60.1182 27.468L60.055 27.4962H59.9861Z" fill="#A3ABC1"/>
</g>
<defs>
<clipPath id="clip0_2276_5143">
<rect width="125.539" height="47" fill="white" transform="translate(0.730225)"/>
</clipPath>
</defs>
</svg>
