<svg width="183" height="68" viewBox="0 0 183 68" fill="none" xmlns="http://www.w3.org/2000/svg">
<rect x="0.5" y="0.5" width="182" height="67" fill="#F2F2F2" stroke="#D9D9D9"/>
<path d="M59.5513 19.0032L47.9268 47.3563H44.3501L55.9373 19.0032H59.5513Z" fill="url(#paint0_linear_153_1846)"/>
<path d="M73.4859 42.8482H69.4621V35.434C69.4621 33.5338 68.7542 32.5651 67.3756 32.5651C66.6677 32.5651 66.0716 32.8259 65.6245 33.3848C65.2147 33.9064 64.9911 34.577 64.9911 35.3967V42.8482H60.9673V23.5115H64.9911V31.7082H65.0284C65.9971 30.2179 67.3384 29.4355 69.0522 29.4355C71.9956 29.4355 73.4859 31.2238 73.4859 34.8006V42.8482Z" fill="#353435"/>
<path d="M82.9127 43.1834C80.7517 43.1834 79.0379 42.5872 77.7711 41.3577C76.5416 40.1282 75.9082 38.4889 75.9082 36.4024C75.9082 34.2415 76.5416 32.5649 77.8456 31.3354C79.1496 30.1059 80.9007 29.5098 83.0989 29.5098C85.2599 29.5098 86.9738 30.1059 88.2033 31.3354C89.4328 32.5649 90.0661 34.167 90.0661 36.1789C90.0661 38.3399 89.4328 40.0537 88.166 41.3205C86.862 42.55 85.1109 43.1834 82.9127 43.1834ZM82.9872 32.5649C82.0185 32.5649 81.3106 32.9002 80.7517 33.5336C80.1928 34.167 79.9693 35.0984 79.9693 36.3279C79.9693 38.8242 80.9753 40.091 82.9872 40.091C84.9246 40.091 85.8933 38.7869 85.8933 36.2162C85.9305 33.7944 84.9618 32.5649 82.9872 32.5649Z" fill="#353435"/>
<path d="M105.044 42.8491H101.02V40.8744H100.946C99.9396 42.402 98.6356 43.1844 96.959 43.1844C93.9411 43.1844 92.4136 41.3587 92.4136 37.7075V29.8088H96.4374V37.3349C96.4374 39.1605 97.1826 40.092 98.6356 40.092C99.3435 40.092 99.9396 39.8312 100.387 39.3468C100.834 38.8252 101.02 38.1546 101.02 37.2976V29.8088H105.044V42.8491Z" fill="#353435"/>
<path d="M116.927 33.422C116.443 33.1612 115.884 33.0122 115.213 33.0122C114.356 33.0122 113.648 33.3475 113.164 33.9809C112.68 34.6143 112.419 35.5085 112.419 36.5889V42.8482H108.432V29.808H112.456V32.2298H112.493C113.127 30.4787 114.282 29.5845 115.921 29.5845C116.331 29.5845 116.666 29.6217 116.927 29.7335V33.422Z" fill="#353435"/>
<path d="M122.853 42.8482H118.83V23.5115H122.853V42.8482Z" fill="#353435"/>
<path d="M138.65 29.8088L133.359 43.8923C132.092 47.2827 130.155 48.9966 127.584 48.9966C126.616 48.9966 125.796 48.8848 125.162 48.6613V45.4571C125.684 45.7552 126.28 45.9414 126.914 45.9414C127.957 45.9414 128.665 45.4571 129.075 44.4884L129.745 42.8863L124.455 29.8461H128.926L131.347 37.782C131.496 38.2663 131.608 38.8625 131.72 39.5331H131.757C131.832 39.0488 131.981 38.4526 132.167 37.8193L134.626 29.8461H138.65V29.8088Z" fill="#353435"/>
<defs>
<linearGradient id="paint0_linear_153_1846" x1="51.9598" y1="47.3734" x2="51.9598" y2="19.0032" gradientUnits="userSpaceOnUse">
<stop stop-color="#00FFFF"/>
<stop offset="1" stop-color="#0071BC"/>
</linearGradient>
</defs>
</svg>
