<svg width="79" height="79" viewBox="0 0 79 79" fill="none" xmlns="http://www.w3.org/2000/svg">
<rect width="79" height="79" rx="8" fill="#292929"/>
<g clip-path="url(#clip0_38_861)">
<path d="M40.782 61.9209C40.543 61.8659 40.3082 61.7943 40.0792 61.7066C39.4081 61.395 38.9852 60.8714 38.929 60.123C38.8864 59.5383 38.8809 58.9514 38.9126 58.366C38.9676 57.2931 39.7126 56.5751 40.7867 56.4709C46.9395 55.8735 51.6048 52.909 54.5517 47.4847C57.1883 42.6309 57.275 37.5849 55.1151 32.5015C55.0636 32.3844 54.998 32.2672 54.9535 32.1419C54.7837 31.7214 54.8902 31.3794 55.2405 31.2049C55.5907 31.0303 55.9432 31.1697 56.133 31.5809C56.4082 32.1923 56.6823 32.8072 56.9014 33.4397C60.5663 43.9989 54.0059 55.3722 43.0297 57.4911C42.3433 57.6234 41.6429 57.6879 40.9483 57.7745C40.4154 57.8401 40.2303 58.024 40.2174 58.5617C40.208 58.9716 40.2057 59.3816 40.2174 59.7892C40.235 60.3549 40.4845 60.5716 41.0572 60.5318C44.796 60.2706 48.2349 59.1098 51.3236 56.9945C56.126 53.7078 59.2498 49.2124 60.2665 43.4836C61.7435 35.1674 59.101 28.2368 52.5851 22.8688C49.2727 20.1408 45.3852 18.7118 41.0971 18.4003C40.4716 18.3546 40.2303 18.5654 40.2162 19.185C40.2069 19.5645 40.2092 19.9452 40.2162 20.3247C40.2268 20.9104 40.4048 21.0989 40.9952 21.154C46.3972 21.6631 50.7782 24.0487 54.1383 28.3106C54.2501 28.4453 54.3534 28.5869 54.4475 28.7346C54.6431 29.0602 54.5763 29.4374 54.28 29.626C53.9837 29.8145 53.658 29.7958 53.4132 29.5159C53.1438 29.209 52.9119 28.8693 52.6472 28.5589C49.521 24.8811 45.5456 22.8594 40.741 22.4576C39.7618 22.3756 38.9993 21.6658 38.9278 20.7007C38.8798 20.0742 38.8798 19.4449 38.9278 18.8184C38.9696 18.3165 39.2085 17.8515 39.5921 17.5251C39.9758 17.1987 40.4731 17.0375 40.9752 17.0767C45.801 17.3941 50.1032 19.0679 53.8244 22.1566C57.952 25.583 60.5382 29.936 61.583 35.2154C61.7458 36.0435 61.8091 36.8915 61.9215 37.7302C61.9414 37.8719 61.9731 38.0124 62 38.1542V40.7954C61.967 40.921 61.942 41.0486 61.925 41.1773C61.6908 44.4885 60.776 47.6089 59.1139 50.4762C55.6785 56.3912 50.6115 60.0925 43.8988 61.4864C42.9032 61.6925 41.8818 61.7804 40.8733 61.9233L40.782 61.9209Z" fill="#EF6C1B"/>
<path d="M33.4005 36.0213C33.4005 34.7938 33.3935 33.5616 33.4005 32.3388C33.4134 30.6498 34.9688 29.7244 36.4294 30.5619C40.568 32.9357 44.7007 35.3228 48.8276 37.7232C50.2847 38.57 50.2788 40.3844 48.8171 41.2371C44.7027 43.6281 40.5825 46.0097 36.4564 48.382C34.97 49.2359 33.411 48.3222 33.4005 46.6063C33.3923 45.5111 33.4005 44.4148 33.4005 43.3197C33.4005 42.809 33.6172 42.5478 34.0224 42.5337C34.4277 42.5196 34.7076 42.8019 34.7112 43.3103C34.7194 44.3914 34.7112 45.4725 34.7112 46.5536C34.7112 47.3278 35.1855 47.5949 35.8649 47.2037C39.9363 44.8564 44.0066 42.5072 48.0756 40.156C48.769 39.7554 48.762 39.2037 48.0628 38.7996C44.0066 36.457 39.9422 34.1262 35.8965 31.7625C35.2839 31.4111 34.6795 31.6641 34.6948 32.4653C34.7381 34.8758 34.71 37.2875 34.71 39.698C34.71 39.8292 34.717 39.9615 34.71 40.0927C34.6702 40.498 34.3926 40.7651 34.0318 40.7545C33.671 40.744 33.4098 40.4769 33.4052 40.0517C33.3958 39.0585 33.4052 38.0605 33.4052 37.072L33.4005 36.0213Z" fill="#EF6C1B"/>
<path d="M23.7701 30.8793C23.4373 30.7887 23.1106 30.6768 22.7921 30.5444C22.3727 30.3429 21.9722 30.0922 21.5774 29.8498C20.4893 29.1892 20.2222 28.005 20.932 26.9497C22.3663 24.8092 24.1635 22.9358 26.2427 21.4141C26.8283 20.9819 27.4456 20.5942 28.0617 20.1983C28.4705 19.9395 28.8465 20.005 29.0597 20.333C29.2728 20.661 29.1616 21.0651 28.7364 21.3216C26.1216 22.8882 23.873 24.9971 22.142 27.506C21.6887 28.1608 21.7543 28.4431 22.4383 28.8366L23.1973 29.2735C23.8251 29.6366 24.0664 29.5897 24.4752 29.0041C25.6455 27.3243 27.0871 25.851 28.7411 24.6445C30.1429 23.616 31.6852 22.7944 33.3208 22.2047C34.0049 21.9588 34.1161 21.7503 33.9334 21.0522C33.8374 20.6856 33.7484 20.3166 33.6359 19.9558C33.493 19.5002 33.1674 19.3339 32.7211 19.4873C32.3475 19.6045 31.9844 19.7638 31.6131 19.8914C31.1867 20.0378 30.8307 19.8914 30.6995 19.54C30.5683 19.1887 30.7229 18.8373 31.1375 18.6698C31.5522 18.5023 31.9762 18.3277 32.4072 18.2012C32.6513 18.1221 32.9086 18.0922 33.1643 18.1132C33.42 18.1343 33.669 18.2059 33.8968 18.3239C34.1246 18.4419 34.3268 18.6039 34.4915 18.8006C34.6562 18.9973 34.7803 19.2248 34.8564 19.4698C35.0389 20.0241 35.1894 20.5884 35.3074 21.1599C35.5006 22.097 34.956 23.0036 33.9826 23.3585C32.4146 23.918 30.9323 24.6934 29.5786 25.6624C27.9782 26.8238 26.5878 28.2498 25.4673 29.8791C25.0187 30.5221 24.4904 30.8079 23.7701 30.8793Z" fill="#EF6C1B"/>
<path d="M17 39.4719C17.1816 38.0042 17.3221 36.5518 17.5505 35.1135C17.7367 33.9422 18.8179 33.2781 19.9645 33.5486C20.4471 33.6658 20.925 33.7958 21.4006 33.9375C22.3973 34.2362 22.9232 35.0772 22.8331 36.1114C22.7159 37.4174 22.5777 38.7258 22.5484 40.0341C22.5309 40.8446 22.6656 41.6645 22.7827 42.4704C23.0064 43.8689 22.4805 44.731 21.1206 45.0929C20.7399 45.1936 20.3628 45.3073 19.9798 45.3986C18.8296 45.6715 17.7332 45.0168 17.5482 43.8572C17.3221 42.4048 17.1804 40.9383 17 39.4719ZM18.3364 39.4836C18.4911 40.8165 18.6293 42.1354 18.805 43.4496C18.8846 44.0493 19.2137 44.239 19.8029 44.0891C20.1707 43.9966 20.5361 43.8935 20.9004 43.7893C21.4427 43.6347 21.5704 43.4273 21.5071 42.8604C21.4064 41.962 21.2272 41.0613 21.2401 40.1665C21.2588 38.7984 21.4052 37.4326 21.513 36.0669C21.5552 35.5281 21.4369 35.3185 20.918 35.1697C20.5537 35.0655 20.1883 34.9647 19.8205 34.8699C19.2067 34.7117 18.8834 34.9015 18.7991 35.5293C18.6258 36.8411 18.4875 38.1612 18.3364 39.4836Z" fill="#EF6C1B"/>
<path d="M28.4939 57.6621C28.5574 57.4 28.6432 57.1437 28.7504 56.8961C28.9847 56.4276 29.2529 55.9755 29.5329 55.5316C29.7783 55.1286 30.161 54.8278 30.6106 54.6844C31.0601 54.5411 31.5463 54.5649 31.9797 54.7515C32.6942 55.042 33.4071 55.3371 34.1185 55.637C34.5545 55.8157 34.9117 56.1452 35.125 56.5653C35.3383 56.9854 35.3934 57.4683 35.2804 57.9257C35.1633 58.4211 35.0391 58.9166 34.8915 59.4039C34.5507 60.5295 33.4427 61.1163 32.3311 60.7169C31.4151 60.3866 30.5144 60.0059 29.6289 59.5995C28.8887 59.2621 28.5302 58.6331 28.4939 57.6621ZM31.0895 55.897C30.9782 55.979 30.7627 56.0704 30.6526 56.2343C30.3804 56.6496 30.1317 57.0797 29.9077 57.5228C29.7132 57.8976 29.8269 58.2513 30.2239 58.4282C31.0477 58.7952 31.8797 59.1415 32.72 59.4671C33.1604 59.6393 33.4977 59.4577 33.6359 59.008C33.7949 58.5549 33.9145 58.0889 33.9932 57.6153C34.0201 57.4009 33.8913 57.0296 33.7261 56.9523C32.9437 56.5717 32.1249 56.266 31.3191 55.9345C31.2434 55.9193 31.1666 55.9095 31.0895 55.9052V55.897Z" fill="#EF6C1B"/>
<path d="M27.3074 51.9837C27.0825 52.4358 26.9209 52.9078 26.6386 53.2908C26.3294 53.709 25.9218 54.058 25.5364 54.4153C24.6837 55.2059 23.4398 55.159 22.6902 54.2724C22.06 53.5263 21.4591 52.7497 20.9028 51.9473C20.2234 50.9693 20.508 49.7617 21.5189 49.1362C21.9421 48.8746 22.3716 48.6263 22.8073 48.3913C23.7244 47.8947 24.7516 48.1277 25.3841 48.9582C25.8351 49.5509 26.3212 50.1201 26.7335 50.7374C26.9712 51.0888 27.1012 51.514 27.3074 51.9837ZM24.132 53.6938C24.3089 53.62 24.4705 53.5954 24.5689 53.504C24.9636 53.1362 25.356 52.7626 25.7156 52.3596C25.9651 52.0785 25.8901 51.774 25.6676 51.4823C25.2272 50.9178 24.7961 50.3474 24.3592 49.7816C24.0863 49.4302 23.7912 49.3564 23.4 49.5673C23.0087 49.7781 22.6093 50.0089 22.2287 50.2478C21.8187 50.5031 21.732 50.8522 22.0213 51.2516C22.5449 51.9708 23.0919 52.6735 23.6506 53.3681C23.7642 53.5145 23.9715 53.5883 24.132 53.6938Z" fill="#EF6C1B"/>
</g>
<defs>
<clipPath id="clip0_38_861">
<rect width="45" height="44.8419" fill="white" transform="translate(17 17.0791)"/>
</clipPath>
</defs>
</svg>
