<svg width="46" height="46" viewBox="0 0 46 46" fill="none" xmlns="http://www.w3.org/2000/svg">
<g clip-path="url(#clip0_81_15)">
<path d="M45.9976 23.0384C45.8776 23.8653 45.7912 24.6958 45.646 25.5179C44.8443 30.0329 42.7884 33.8975 39.5251 37.1091C36.1347 40.4492 32.0625 42.4319 27.3542 43.1316C17.9509 44.5298 8.4348 39.273 4.59787 30.5298C4.19701 29.6153 3.87777 28.6611 3.56573 27.7118C3.26568 26.8057 3.61253 26.0604 4.38904 25.8251C5.16555 25.5899 5.84364 26.0148 6.13048 26.9281C8.19597 33.493 12.4914 37.9024 19.0803 39.8671C29.6682 43.0271 40.6665 36.3386 42.918 25.5071C45.0363 15.3057 38.3574 5.18828 28.1295 3.12039C18.0673 1.0777 8.18877 7.44939 5.87845 17.4612C5.84124 17.6196 5.81484 17.7792 5.78123 17.9545C6.05247 17.8476 6.2877 17.7144 6.53974 17.664C6.79934 17.6175 7.06693 17.6498 7.30801 17.7567C7.54908 17.8637 7.7526 18.0404 7.89233 18.2641C8.19117 18.7442 8.19717 19.3983 7.79991 19.8135C6.85058 20.8109 5.87965 21.7914 4.87871 22.7335C4.37704 23.204 3.63053 23.1464 3.12286 22.6555C2.20033 21.761 1.29101 20.8529 0.394883 19.9311C0.268056 19.8076 0.167364 19.6599 0.0987929 19.4967C0.0302221 19.3335 -0.0048257 19.1581 -0.00426586 18.9811C-0.00370601 18.8041 0.0324491 18.629 0.102051 18.4662C0.171652 18.3035 0.273279 18.1564 0.400884 18.0337C0.922956 17.5164 1.73307 17.5152 2.30315 18.0409C2.48797 18.2125 2.6488 18.4081 2.89363 18.671C2.98604 18.1909 3.04605 17.8236 3.13366 17.4576C5.14875 8.75878 10.4235 2.97037 19.0467 0.775265C27.5043 -1.38504 34.8481 1.0609 40.7169 7.5658C43.7653 10.9443 45.3975 14.9972 45.8968 19.5123C45.9268 19.7931 45.9652 20.0728 46 20.3524L45.9976 23.0384Z" fill="#6E6E6E"/>
<path d="M37.5242 21.6844C37.5242 29.1254 31.4682 35.1826 24.0127 35.2078C16.5573 35.2331 10.4689 29.1386 10.4713 21.6772C10.4737 14.2157 16.5801 8.11528 24.0199 8.15609C31.4826 8.19089 37.5302 14.2493 37.5242 21.6844ZM22.6421 20.3342C20.7939 20.3342 19.0152 20.3258 17.2414 20.3342C17.0652 20.3324 16.8904 20.3654 16.7269 20.4313C16.5635 20.4971 16.4146 20.5945 16.2887 20.7178C16.0346 20.967 15.8899 21.3069 15.8864 21.6628C15.8829 22.0186 16.0209 22.3613 16.2701 22.6154C16.5192 22.8695 16.8591 23.0142 17.215 23.0177C19.4881 23.0322 21.7608 23.0322 24.0331 23.0177C24.3756 23.0184 24.7044 22.8836 24.9479 22.6429C25.1913 22.4021 25.3298 22.0748 25.3329 21.7324C25.3537 20.2522 25.3537 18.772 25.3329 17.2918C25.3292 16.9507 25.1923 16.6247 24.9515 16.3832C24.7107 16.1417 24.385 16.0039 24.0439 15.9992C23.2602 15.9752 22.6589 16.5549 22.6493 17.3734C22.6349 18.3467 22.6445 19.3152 22.6445 20.3342H22.6421Z" fill="#6E6E6E"/>
</g>
<defs>
<clipPath id="clip0_81_15">
<rect width="46" height="46" fill="white" transform="translate(-0.00238037)"/>
</clipPath>
</defs>
</svg>
