<svg width="46" height="46" viewBox="0 0 46 46" fill="none" xmlns="http://www.w3.org/2000/svg">
<g clip-path="url(#clip0_81_2)">
<path d="M-0.0023801 1.00312C0.357689 0.225589 0.971008 -0.0299809 1.80757 0.00361589C2.98499 0.0504114 4.16481 0.0156118 5.38785 0.0156118C5.38785 1.35468 5.38785 2.65536 5.38785 3.95003C5.38785 4.48638 5.58229 4.91595 6.03838 5.20032C6.93615 5.75946 8.06436 5.12112 8.07877 4.03162C8.09677 2.71175 8.07877 1.40028 8.07877 0.0432068C8.22279 0.0336077 8.35122 0.0168129 8.47964 0.0168129C9.64746 0.0168129 10.8141 0.0168129 11.9819 0.0168129C12.9157 0.0168129 13.4678 0.562757 13.469 1.49027C13.469 4.68996 13.469 7.89246 13.469 11.0977C13.469 12.0505 12.9193 12.588 11.9531 12.5892C8.56966 12.5892 5.18741 12.5712 1.80396 12.6024C0.963803 12.6096 0.352884 12.378 -0.00598431 11.6017L-0.0023801 1.00312Z" fill="#6E6E6E"/>
<path d="M5.29783 46.0012C5.18861 45.9604 5.07939 45.916 4.96777 45.8812C4.53769 45.7469 4.14823 45.5069 3.83514 45.183C3.52205 44.8591 3.29536 44.4617 3.17588 44.0275C3.05641 43.5932 3.04797 43.1358 3.15135 42.6974C3.25473 42.259 3.4666 41.8536 3.76754 41.5184C4.0928 41.1488 4.45647 40.8117 4.80574 40.4625C7.10058 38.1659 9.39581 35.8693 11.6915 33.5728C11.8158 33.4258 11.9301 33.2707 12.0335 33.1084C13.0413 34.6481 14.3527 35.966 15.8875 36.9816C15.7674 37.1016 15.6762 37.2144 15.5754 37.314C12.9949 39.8961 10.4252 42.4903 7.81712 45.0449C7.39824 45.4564 6.80412 45.688 6.29162 46.0048L5.29783 46.0012Z" fill="#6E6E6E"/>
<path d="M24.3443 0.0239565C25.7773 0.0239565 27.166 -0.00724225 28.5523 0.0371535C29.2532 0.0587514 29.7309 0.680295 29.7333 1.43502C29.7333 3.35484 29.7333 5.26625 29.7333 7.18127C29.7333 8.48314 29.7333 9.78503 29.7333 11.0869C29.7333 12.0468 29.1884 12.588 28.2294 12.588C24.7415 12.588 21.2541 12.588 17.767 12.588C16.8068 12.588 16.2595 12.0468 16.2583 11.0917C16.2583 7.9048 16.2583 4.71791 16.2583 1.53101C16.2583 0.547106 16.7984 0.0179562 17.7934 0.0155564C19.0621 0.0155564 20.3307 0.0155564 21.6486 0.0155564V1.92338C21.6486 2.62651 21.639 3.32964 21.6486 4.03277C21.663 4.82349 22.2607 5.41384 23.012 5.40304C23.3678 5.39642 23.7065 5.24914 23.9539 4.99345C24.2014 4.73777 24.3374 4.3945 24.3323 4.03878C24.3455 2.87249 24.3323 1.70499 24.3323 0.538705L24.3443 0.0239565Z" fill="#6E6E6E"/>
<path d="M40.605 0.0216566C42.0309 0.0216566 43.4051 -0.00473761 44.7782 0.0324588C45.4983 0.051657 45.9928 0.667193 45.994 1.44472C45.994 3.7485 45.994 6.05348 45.994 8.35726C45.994 9.27038 45.994 10.1835 45.994 11.0954C45.994 12.0301 45.4467 12.5869 44.5261 12.5881C41.0055 12.5881 37.4884 12.5881 33.9749 12.5881C33.0759 12.5881 32.5214 12.0289 32.5202 11.1278C32.5202 7.9105 32.5202 4.69361 32.5202 1.47712C32.5202 0.574804 33.0759 0.0204594 33.9737 0.0168597C35.2712 0.0168597 36.5698 0.0168597 37.9093 0.0168597C37.9093 1.35833 37.9093 2.65661 37.9093 3.95368C37.9093 4.49003 38.1049 4.91959 38.5622 5.20276C39.46 5.75951 40.5858 5.11997 40.6026 4.03167C40.6194 2.7154 40.605 1.39553 40.605 0.0216566Z" fill="#6E6E6E"/>
<path fill-rule="evenodd" clip-rule="evenodd" d="M22.9856 36.395C20.945 36.3909 18.9514 35.7823 17.2566 34.646C15.5618 33.5097 14.242 31.8967 13.4639 30.0108C12.6858 28.1249 12.4843 26.0507 12.8849 24.0503C13.2854 22.05 14.2701 20.2132 15.7145 18.7721C17.1589 17.331 18.9981 16.3503 20.9998 15.9538C23.0015 15.5572 25.0759 15.7628 26.9608 16.5444C28.8457 17.326 30.4565 18.6486 31.5898 20.3451C32.7231 22.0416 33.328 24.0359 33.328 26.0759C33.328 27.4328 33.0603 28.7763 32.5403 30.0296C32.0203 31.2829 31.2582 32.4213 30.2975 33.3798C29.3369 34.3383 28.1966 35.098 26.9419 35.6153C25.6873 36.1327 24.3428 36.3976 22.9856 36.395ZM24.0368 22.7217C24.0558 22.1358 23.586 21.6505 22.9997 21.6505C22.4135 21.6505 21.9437 22.1358 21.9627 22.7217L22.0957 26.8307C22.1115 27.3186 22.5116 27.7059 22.9997 27.7059C23.4879 27.7059 23.888 27.3186 23.9038 26.8307L24.0368 22.7217ZM22.2135 30.1775C22.4323 30.3934 22.6936 30.5014 22.9976 30.5014C23.1965 30.5014 23.3783 30.4516 23.5431 30.3522C23.7107 30.2528 23.8456 30.1193 23.9479 29.9516C24.053 29.784 24.1056 29.598 24.1056 29.3934C24.1056 29.0923 23.9934 28.8352 23.7689 28.6221C23.5473 28.4062 23.2902 28.2982 22.9976 28.2982C22.6936 28.2982 22.4323 28.4062 22.2135 28.6221C21.9976 28.8352 21.8897 29.0923 21.8897 29.3934C21.8897 29.7002 21.9976 29.9616 22.2135 30.1775Z" fill="#6E6E6E"/>
</g>
<defs>
<clipPath id="clip0_81_2">
<rect width="46" height="46" fill="white" transform="translate(-0.00238037)"/>
</clipPath>
</defs>
</svg>
