<svg width="79" height="79" viewBox="0 0 79 79" fill="none" xmlns="http://www.w3.org/2000/svg">
<path d="M0 0H63C71.8366 0 79 7.16344 79 16V79H0V0Z" fill="#BE7D5B"/>
<g clip-path="url(#clip0_68_83)">
<path d="M75.1934 79.004C74.1737 78.6311 73.4419 77.8828 72.6968 77.1357C68.7549 73.1787 64.788 69.2439 60.8552 65.2777C60.1588 64.5766 59.423 64.2274 58.4244 64.3587C57.6084 64.465 56.778 64.4611 55.9541 64.5057C53.5705 64.637 51.5864 63.4291 50.6771 61.2235C49.8888 59.2896 49.1437 57.3334 48.3948 55.3824C48.1149 54.6524 48.2975 54.0551 48.8533 53.7111C49.4092 53.3671 50.0438 53.4971 50.5523 54.0774C51.6968 55.3811 52.8216 56.7032 53.9555 58.0161C54.0869 58.1723 54.2354 58.3207 54.288 58.3771C55.6624 57.0052 57.0092 55.6647 58.3942 54.2835C58.3127 54.21 58.1314 54.0354 57.9448 53.8778C56.6728 52.8275 55.3987 51.7772 54.1224 50.7269C53.4418 50.1663 53.2709 49.5611 53.6205 48.9637C53.9923 48.3282 54.6138 48.1497 55.443 48.474C57.3325 49.2105 59.2246 49.9405 61.101 50.7059C63.3781 51.6407 64.5475 53.5339 64.4227 56.006C64.3793 56.8725 64.3596 57.7404 64.2795 58.6029C64.1967 59.4944 64.4923 60.1784 65.1283 60.8125C69.2148 64.8641 73.275 68.9525 77.3588 73.0001C78.1393 73.7747 78.8266 74.5756 79.0026 75.6994V76.0802C78.7648 77.5821 77.8936 78.534 76.4627 78.9987L75.1934 79.004Z" fill="#F2F2F1"/>
<path d="M65.9205 53.0351C64.776 50.3253 62.5343 49.1345 59.9616 48.3481C61.5278 42.2431 60.4766 36.7356 56.3639 31.9868C52.9659 28.0678 48.5746 26.0893 43.3844 26.0788C33.4047 26.0447 25.1529 34.5772 26.1712 45.1013C27.1239 55.0504 36.9564 62.9973 48.2566 59.9672C49.045 62.4801 50.1829 64.7553 53.0224 65.8621C52.1026 66.1837 51.3642 66.4831 50.6047 66.6958C49.6494 66.9583 49.0897 67.5321 48.8781 68.5076C48.6863 69.3938 48.4327 70.2681 48.1817 71.1412C47.8677 72.2322 47.2908 72.6629 46.1503 72.6668C44.3291 72.6747 42.5084 72.6747 40.6881 72.6668C39.5581 72.6668 38.9878 72.2243 38.6737 71.1189C38.4188 70.2261 38.1718 69.3294 37.9603 68.4249C37.7487 67.5203 37.2126 67.0424 36.3585 66.7181C34.7607 66.1168 33.1853 65.4498 31.6282 64.7369C30.8398 64.3759 30.1473 64.3431 29.4062 64.7868C28.5942 65.2818 27.7677 65.7544 26.9386 66.2205C25.9544 66.7745 25.2186 66.684 24.4144 65.8923C23.1188 64.6153 21.832 63.3282 20.554 62.0311C19.7459 61.2131 19.6618 60.4556 20.2373 59.4486C20.7401 58.5672 21.2499 57.692 21.7668 56.8228C22.1531 56.1664 22.1412 55.5309 21.8364 54.8312C21.1803 53.3231 20.557 51.801 19.9666 50.2649C19.6841 49.5297 19.2268 49.0649 18.4608 48.8759C17.516 48.6435 16.5778 48.3875 15.641 48.1315C14.4847 47.8151 14.0169 47.2348 14.0064 46.04C13.9897 44.2422 13.9897 42.444 14.0064 40.6454C14.0182 39.4638 14.4584 38.9084 15.5897 38.5894C16.5095 38.3268 17.4227 38.0813 18.3491 37.8607C19.2176 37.648 19.7104 37.1229 20.0257 36.2984C20.6249 34.7229 21.2745 33.1667 21.9744 31.6297C22.3305 30.842 22.3686 30.1475 21.9166 29.4096C21.4212 28.5982 20.9455 27.7738 20.4712 26.9466C19.9219 25.9751 20.0126 25.2097 20.7957 24.4154C22.0869 23.1025 23.3895 21.8014 24.7035 20.5121C25.4919 19.7362 26.2041 19.6548 27.1751 20.1971C28.0432 20.6811 28.903 21.1795 29.7544 21.6924C30.4706 22.1244 31.1551 22.1178 31.9212 21.7791C33.406 21.1226 34.9096 20.51 36.4321 19.941C37.2402 19.6378 37.7461 19.1441 37.9445 18.3091C38.1757 17.3651 38.4241 16.4251 38.6961 15.493C38.9944 14.4702 39.5857 14.0225 40.6395 14.0146C42.5027 14.0033 44.3655 14.0033 46.2278 14.0146C47.2567 14.0146 47.848 14.461 48.141 15.447C48.4178 16.3783 48.6688 17.3166 48.8939 18.2618C49.1041 19.1494 49.6415 19.6496 50.493 19.9686C52.0527 20.5542 53.5966 21.1909 55.1077 21.8894C55.9355 22.2727 56.6621 22.3213 57.4426 21.8316C58.1956 21.3616 58.9708 20.927 59.7434 20.4898C60.771 19.9069 61.4923 19.9857 62.3215 20.8023C63.6179 22.0802 64.9052 23.3668 66.1833 24.6622C66.9861 25.4762 67.0676 26.2311 66.4894 27.2447C66.019 28.07 65.5403 28.8919 65.0532 29.7103C64.6393 30.4061 64.659 31.0796 64.9888 31.8201C65.6458 33.3247 66.2857 34.8397 66.8652 36.3824C67.1701 37.1938 67.6654 37.6848 68.5024 37.8843C69.4064 38.101 70.3039 38.3491 71.1974 38.6051C72.2355 38.9031 72.7032 39.448 72.7203 40.5114C72.7518 42.3941 72.7518 44.2759 72.7203 46.1569C72.7045 47.2177 72.2354 47.7862 71.2105 48.0803C70.2908 48.3428 69.371 48.5779 68.4512 48.8089C67.6444 49.0124 67.1254 49.4851 66.8744 50.2899C66.588 51.2141 66.2424 52.1213 65.9205 53.0351Z" fill="#F2F2F1"/>
<path d="M44.8115 45.6106H41.93C41.658 41.9082 41.3873 38.2361 41.1153 34.5232H45.6288C45.3542 38.2229 45.0862 41.8806 44.8115 45.6106Z" fill="#F2F2F1"/>
<path d="M70.3317 57.8007C71.0609 57.3097 71.7192 56.9893 72.2093 56.4996C72.6995 56.0099 72.9977 55.3771 73.4813 54.8033C74.1383 56.0795 74.9135 57.1311 76.439 57.5525C76.284 57.8151 76.2236 58.0908 76.079 58.1473C74.9398 58.5897 74.1882 59.3906 73.7533 60.5105C73.7206 60.5666 73.6757 60.6146 73.6219 60.651C73.537 60.6972 73.4492 60.738 73.3591 60.7731C72.9846 60.2151 72.6666 59.5547 72.1765 59.0663C71.6864 58.5779 71.0373 58.2707 70.3317 57.8007Z" fill="#F2F2F1"/>
<path d="M44.8326 48.172V51.5645H41.93V48.172H44.8326Z" fill="#F2F2F1"/>
</g>
<defs>
<clipPath id="clip0_68_83">
<rect width="65" height="65" fill="white" transform="translate(14 14)"/>
</clipPath>
</defs>
</svg>
