<svg width="79" height="79" viewBox="0 0 79 79" fill="none" xmlns="http://www.w3.org/2000/svg">
<path d="M0 0H63C71.8366 0 79 7.16344 79 16V79H0V0Z" fill="#BE7D5B"/>
<g clip-path="url(#clip0_68_116)">
<path d="M5.55447 52.0867C5.96258 48.9309 6.16666 45.8914 6.75637 42.921C7.8909 37.1182 10.3661 31.9131 14.8695 27.781C21.542 21.6666 30.9754 20.2859 39.1742 24.1971C39.4435 24.3253 39.7027 24.4713 40.0986 24.6764C39.2823 24.9289 38.5682 25.134 37.8724 25.3589C29.5572 28.0531 24.6497 33.6429 22.8704 41.8796C22.2582 44.7297 21.8257 49.9664 22.0134 52.0492C22.2664 52.061 22.5357 52.0847 22.8031 52.0847C24.1967 52.0847 25.5945 52.0453 26.9861 52.1123C27.4044 52.132 27.9962 52.3569 28.1635 52.6646C28.3308 52.9723 28.2084 53.5955 27.9717 53.9131C23.9968 59.207 19.9987 64.4844 15.9775 69.7455C15.3653 70.5344 14.6797 70.562 14.0329 69.8165C9.43896 64.5226 4.85728 59.2182 0.287858 53.9032C0.0455437 53.5563 -0.0487207 53.1323 0.0246717 52.7198C0.126698 52.1971 0.655173 52.0867 1.17551 52.0886C2.68958 52.0906 4.20568 52.0867 5.55447 52.0867Z" fill="#171515"/>
<path d="M26.8901 37.8956C26.9312 37.6223 26.9995 37.3534 27.0942 37.0928C29.4265 32.4183 33.2933 29.4478 38.2722 27.724C38.9109 27.489 39.5637 27.2914 40.227 27.1323C41.7676 26.797 42.6206 25.935 42.6206 24.3709C53.2068 23.6352 66.3376 30.0909 70.7125 43.5603C74.916 56.5149 68.4679 70.582 55.7595 76.3571C49.7709 79.0991 42.9747 79.7154 36.563 78.0978C30.1513 76.4803 24.5335 72.7322 20.6951 67.511L24.4741 62.5307C25.8801 64.1086 27.1268 65.8068 28.6797 67.1737C34.8768 72.6194 42.1472 74.3019 50.1236 71.9449C58.0612 69.6057 63.1625 64.3118 65.0908 56.5169C68.1251 44.2644 59.7855 32.4025 46.8445 30.582C38.8986 29.4656 32.1751 32.0218 26.8616 37.8995L26.8901 37.8956Z" fill="#171515"/>
<path d="M45.2181 50.7851L49.9113 53.4024C50.5378 53.7535 50.8683 54.2644 50.7541 54.9803C50.6582 55.6016 50.2746 56.0435 49.6522 56.1421C49.2341 56.2044 48.8062 56.1396 48.4279 55.9567C46.6118 54.9922 44.8243 53.9843 43.0287 52.9705C42.7585 52.8333 42.5344 52.6243 42.3829 52.3681C42.2315 52.112 42.1588 51.8194 42.1736 51.5247C42.1838 48.931 42.1736 46.3354 42.1736 43.7417C42.1736 42.7358 42.7858 42.1026 43.7163 42.1164C44.5937 42.1302 45.21 42.7653 45.2161 43.72C45.2304 45.8009 45.2161 47.8797 45.2161 49.9606L45.2181 50.7851Z" fill="#171515"/>
<path d="M45.212 35.6212C45.212 35.9388 45.2344 36.2583 45.212 36.5739C45.1936 36.9564 45.0235 37.3174 44.737 37.5818C44.4505 37.8463 44.0696 37.9939 43.6734 37.994C43.2775 37.9863 42.9002 37.8298 42.6217 37.5577C42.3432 37.2855 42.1854 36.9192 42.1818 36.5364C42.1553 35.9013 42.1532 35.2642 42.1818 34.6311C42.1919 34.2602 42.3477 33.907 42.6176 33.6432C42.8875 33.3794 43.2511 33.2249 43.6347 33.211C44.0304 33.2009 44.4149 33.3388 44.708 33.5961C45.0011 33.8533 45.1802 34.2099 45.2079 34.5916C45.2365 34.9309 45.21 35.2741 45.212 35.6212Z" fill="#171515"/>
<path d="M34.285 41.0928C33.9749 41.4735 33.7361 42.008 33.3301 42.1895C32.924 42.3709 32.2058 42.3867 31.8589 42.1619C31.1459 41.6567 30.5139 41.0526 29.9836 40.3689C29.551 39.8364 29.6775 39.2033 30.1325 38.6806C30.5876 38.1579 31.3732 37.9331 31.9058 38.3394C32.6689 38.9311 33.3178 39.649 33.981 40.3433C34.1157 40.4833 34.1034 40.7536 34.1585 40.9626L34.285 41.0928Z" fill="#171515"/>
<path d="M60.2874 53.1142C59.934 53.1339 59.5798 53.1339 59.2264 53.1142C59.0301 53.1016 58.8383 53.0519 58.6619 52.9677C58.4855 52.8835 58.328 52.7665 58.1984 52.6234C58.0688 52.4804 57.9696 52.3141 57.9065 52.134C57.8434 51.9539 57.8176 51.7635 57.8306 51.5738C57.8381 51.2023 57.9972 50.8488 58.2731 50.5902C58.5491 50.3316 58.9196 50.1889 59.3039 50.1931C59.9589 50.1635 60.618 50.1635 61.2751 50.1931C61.659 50.1889 62.029 50.3317 62.3043 50.5904C62.5796 50.8491 62.7378 51.2027 62.7442 51.5738C62.7575 51.7636 62.7318 51.9541 62.6687 52.1343C62.6056 52.3146 62.5062 52.4809 62.3763 52.6239C62.2464 52.7669 62.0886 52.8836 61.9118 52.9674C61.7351 53.0512 61.543 53.1004 61.3465 53.1122C60.9938 53.1326 60.6402 53.1333 60.2874 53.1142Z" fill="#171515"/>
<path d="M45.21 67.7535C45.21 68.0711 45.2365 68.3926 45.21 68.7062C45.1807 69.0879 44.9984 69.4436 44.7019 69.6974C44.4054 69.9512 44.0181 70.0832 43.6225 70.0651C43.2402 70.0509 42.8784 69.8948 42.6123 69.6291C42.3462 69.3635 42.1964 69.0089 42.1941 68.6391C42.1655 68.006 42.1655 67.3689 42.1941 66.7338C42.1924 66.3632 42.3409 66.0068 42.608 65.7409C42.875 65.4751 43.2392 65.321 43.6225 65.3117C43.8184 65.2983 44.0152 65.3225 44.2015 65.3828C44.3878 65.4431 44.56 65.5384 44.708 65.6632C44.8561 65.788 44.9772 65.9399 45.0644 66.11C45.1516 66.2802 45.2032 66.4654 45.2161 66.6549C45.2386 67.0178 45.21 67.3886 45.21 67.7535Z" fill="#171515"/>
<path d="M56.2921 38.0771C56.6186 38.3296 57.1206 38.5821 57.4164 38.9785C57.5878 39.2127 57.668 39.4979 57.643 39.7837C57.6179 40.0695 57.4893 40.3376 57.2797 40.5407C56.7816 41.0941 56.2444 41.6134 55.6718 42.0949C55.409 42.3133 55.0731 42.4319 54.7266 42.4286C54.3801 42.4253 54.0467 42.3004 53.7884 42.0772C53.2721 41.6669 52.9885 40.8642 53.3925 40.3671C54.0046 39.6117 54.778 38.9726 55.5065 38.3079C55.6371 38.1856 55.884 38.1856 56.2921 38.0771Z" fill="#171515"/>
<path d="M34.3115 62.2267C34.0523 62.7198 33.938 63.0807 33.6993 63.3431C33.2691 63.824 32.8055 64.2761 32.3118 64.6961C32.0253 64.961 31.6427 65.1067 31.2463 65.1019C30.8499 65.0971 30.4712 64.9422 30.1917 64.6705C30.0508 64.5373 29.9387 64.3785 29.8618 64.2032C29.7848 64.028 29.7446 63.8397 29.7435 63.6493C29.7424 63.4589 29.7803 63.2701 29.8551 63.094C29.9299 62.9178 30.0401 62.7578 30.1794 62.6231C30.6365 62.1359 31.1242 61.6704 31.6302 61.2286C32.1057 60.8144 32.728 60.6921 33.2422 61.0314C33.6728 61.3134 33.9585 61.8144 34.3115 62.2267Z" fill="#171515"/>
<path d="M56.288 65.2247C55.8105 65.0452 55.4514 64.9998 55.2249 64.8105C54.6309 64.3172 54.0745 63.7833 53.5598 63.2128C53.3376 62.9365 53.2263 62.5918 53.2465 62.2424C53.2667 61.8929 53.417 61.5624 53.6697 61.3117C53.9223 61.061 54.2603 60.9071 54.6211 60.8784C54.982 60.8497 55.3414 60.9482 55.633 61.1556C56.2452 61.6546 56.8859 62.1872 57.3103 62.8282C57.5572 63.203 57.5653 63.8894 57.3837 64.3174C57.2185 64.7079 56.6533 64.9426 56.288 65.2247Z" fill="#171515"/>
<path d="M26.8718 37.9114L26.835 37.8838L26.8881 37.8956L26.8718 37.9114Z" fill="#171515"/>
</g>
<defs>
<clipPath id="clip0_68_116">
<rect width="72" height="57" fill="white" transform="translate(6.10352e-05 22)"/>
</clipPath>
</defs>
</svg>
