<svg width="46" height="46" viewBox="0 0 46 46" fill="none" xmlns="http://www.w3.org/2000/svg">
<rect x="0.5" y="0.5" width="45" height="45" rx="7.5" fill="#FFF4E8"/>
<rect x="0.5" y="0.5" width="45" height="45" rx="7.5" stroke="#F58D20"/>
<g clip-path="url(#clip0_9_577)">
<path d="M28.94 28.94C27.2306 30.243 25.1491 30.9649 23 31C16 31 12 23 12 23C13.2439 20.6819 14.9691 18.6566 17.06 17.06M20.9 15.24C21.5883 15.0789 22.2931 14.9984 23 15C30 15 34 23 34 23C33.393 24.1356 32.6691 25.2048 31.84 26.19M25.12 25.12C24.8454 25.4148 24.5141 25.6512 24.1462 25.8151C23.7782 25.9791 23.3809 26.0673 22.9781 26.0744C22.5753 26.0815 22.1752 26.0074 21.8016 25.8565C21.4281 25.7056 21.0887 25.4811 20.8038 25.1962C20.519 24.9113 20.2944 24.572 20.1435 24.1984C19.9926 23.8249 19.9185 23.4247 19.9256 23.0219C19.9327 22.6191 20.0209 22.2219 20.1849 21.8539C20.3488 21.4859 20.5853 21.1547 20.88 20.88" stroke="#F58D20" stroke-width="2" stroke-linecap="round" stroke-linejoin="round"/>
<path d="M12 12L34 34" stroke="#F58D20" stroke-width="2" stroke-linecap="round" stroke-linejoin="round"/>
</g>
<defs>
<clipPath id="clip0_9_577">
<rect width="24" height="24" fill="white" transform="translate(11 11)"/>
</clipPath>
</defs>
</svg>
