<svg width="54" height="54" viewBox="0 0 54 54" fill="none" xmlns="http://www.w3.org/2000/svg">
<rect width="54" height="54" rx="8" fill="#4EB4BE" fill-opacity="0.22"/>
<rect x="8" y="8" width="38" height="38" rx="8" fill="#4EB4BE"/>
<path d="M23.119 32.177H20.8943C20.6825 32.177 20.4688 32.1652 20.259 32.1869C19.6596 32.2488 19.227 32.5417 19.0302 33.1119C18.8414 33.6613 18.9593 34.1636 19.3939 34.5578C21.5676 36.5238 23.7474 38.4842 25.9331 40.439C26.5954 41.0288 27.4915 40.9639 28.1987 40.3299C29.6532 39.0245 31.1061 37.7175 32.5572 36.4088C33.2006 35.8288 33.8469 35.2518 34.4862 34.6689C35.0257 34.1774 35.1855 33.623 34.9527 33.0519C34.72 32.4808 34.2155 32.18 33.4883 32.178C32.5892 32.178 31.6971 32.178 30.7281 32.178C30.6888 31.9754 30.6625 31.7705 30.6492 31.5646C30.6445 26.0717 30.6445 27.2915 30.6492 21.798C30.6492 21.4048 30.6043 21.0401 30.3335 20.7324C30.2121 20.5833 30.0583 20.4629 29.8833 20.3801C29.7083 20.2973 29.5167 20.2541 29.3226 20.2537C27.7242 20.2537 26.1329 20.2409 24.5385 20.2537C23.7474 20.2616 23.2159 20.8288 23.2109 21.6417C23.2019 23.0179 23.2109 24.3881 23.2109 25.7614C23.2109 29.943 23.2109 27.4112 23.2109 31.5922C23.1944 31.789 23.1637 31.9845 23.119 32.177Z" fill="white"/>
<path d="M26.9151 16.425C25.9161 16.425 24.9172 16.425 23.9252 16.425C23.2139 16.425 22.7674 16.8182 22.7634 17.4404C22.7594 18.0626 23.2169 18.4785 23.9122 18.4814C25.9294 18.4893 27.947 18.4893 29.9649 18.4814C30.5323 18.4814 30.9409 18.1747 31.0638 17.7107C31.1257 17.4898 31.1087 17.2547 31.0159 17.0445C30.923 16.8344 30.7597 16.6619 30.5533 16.5557C30.3612 16.4719 30.1531 16.4294 29.943 16.4309C28.933 16.4191 27.924 16.425 26.9151 16.425Z" fill="white"/>
<path d="M26.9251 13.1604C25.9261 13.1604 24.9272 13.1515 23.9362 13.1604C23.186 13.1702 22.7374 13.5998 22.7654 14.2486C22.7737 14.4832 22.8663 14.7074 23.0267 14.8812C23.1871 15.0551 23.4049 15.1673 23.6415 15.1981C23.7409 15.2108 23.841 15.2171 23.9412 15.2168C25.9344 15.2168 27.927 15.2168 29.919 15.2168C30.5743 15.2168 31.0069 14.8865 31.0818 14.3557C31.1757 13.6932 30.7291 13.184 29.9909 13.1653C29.0818 13.1437 28.1728 13.1594 27.2637 13.1584L26.9251 13.1604Z" fill="white"/>
</svg>
