<svg width="79" height="79" viewBox="0 0 79 79" fill="none" xmlns="http://www.w3.org/2000/svg">
<rect width="79" height="79" rx="8" fill="#292929"/>
<g clip-path="url(#clip0_38_865)">
<path d="M17 50.0486C17.108 49.2676 17.1985 48.4843 17.3288 47.7069C17.907 44.2271 19.3171 40.9385 21.4391 38.1207C21.5166 38.0162 21.5894 37.9069 21.6633 37.8024C19.142 35.5712 18.2448 32.8584 19.539 29.6994C20.6264 27.0489 22.7555 25.6643 25.6233 25.5328C28.0718 25.4154 30.9912 26.787 32.2807 30.1973C32.4099 30.1644 32.5461 30.1351 32.6788 30.0952C38.9886 28.1986 45.0283 28.8175 50.7744 32.0657C51.5365 32.4967 52.2482 33.0181 52.9704 33.5172C53.5212 33.8977 53.6468 34.2735 53.3873 34.6305C53.1278 34.9875 52.7508 34.9934 52.2071 34.5859C50.0059 32.9214 47.4952 31.7122 44.8216 31.0288C40.8553 30.0023 36.6768 30.1458 32.7903 31.4421C32.721 31.4644 32.6565 31.4985 32.5813 31.5302V32.876C33.3247 32.6635 34.0434 32.438 34.7727 32.2524C45.5462 29.5174 56.6872 36.5059 58.9373 47.4074C59.0113 47.7598 59.0853 48.125 59.1299 48.4867C59.2015 49.0739 58.8762 49.4802 58.2879 49.5495C58.113 49.5659 57.9373 49.5718 57.7618 49.5671H42.7911V50.8589H60.6788C60.6348 49.327 60.421 47.8047 60.0412 46.32C59.1736 42.8824 57.4487 39.7209 55.0279 37.1307C54.948 37.045 54.8658 36.9604 54.793 36.8735C54.4489 36.4907 54.4196 36.1067 54.7132 35.8283C55.0067 35.55 55.3954 35.5676 55.7419 35.9646C56.3866 36.7032 57.0536 37.4278 57.6338 38.2158C60.3677 41.9267 61.8027 46.1027 62.0012 50.7039C62.047 51.7702 61.6242 52.2047 60.545 52.2058H42.1546C40.6984 53.8499 38.4296 53.931 36.8783 52.2058H27.8569C27.137 52.2058 26.834 52.0003 26.8434 51.5259C26.8528 51.0515 27.1335 50.8882 27.844 50.8882H36.2324V49.573H21.2817C21.1361 49.573 20.9881 49.573 20.8425 49.573C20.1249 49.526 19.7856 49.1208 19.8901 48.3986C20.2491 45.9744 21.0814 43.6445 22.3398 41.5416C22.8635 40.6643 23.4648 39.834 24.052 38.958L22.8189 38.4953C19.9923 42.117 18.5102 46.2307 18.3188 50.8976H23.9557C24.1022 50.8931 24.2489 50.8974 24.3949 50.9105C24.5528 50.9145 24.7029 50.9804 24.8127 51.094C24.9225 51.2075 24.9834 51.3597 24.9821 51.5177C24.9985 51.8829 24.7965 52.1272 24.4231 52.1906C24.278 52.2106 24.1315 52.2188 23.985 52.2152C22.1695 52.2152 20.3528 52.1988 18.5361 52.2246C17.8315 52.2352 17.3159 52.0191 17.0094 51.3756L17 50.0486ZM57.723 48.2342C55.844 36.7972 43.2209 29.6923 32.2678 34.5013C30.9149 37.5946 29.4211 38.6515 25.6632 39.1893C23.3793 41.731 21.8504 44.8599 21.2488 48.2236H35.4385C35.3211 48.0604 35.2448 47.9441 35.1602 47.8326C33.6476 45.8565 32.1354 43.8797 30.6237 41.9021C29.892 40.9415 30.0142 39.7331 30.8985 39.0461C31.8098 38.3414 33.0052 38.5211 33.7592 39.4947C34.6024 40.5833 35.4338 41.6801 36.27 42.7735L39.4137 46.8719C39.9476 46.8667 40.4753 46.9868 40.9544 47.2226C41.4335 47.4584 41.8506 47.8032 42.1723 48.2295L57.723 48.2342ZM31.2801 32.3523C31.2827 31.2675 30.9638 30.2064 30.3638 29.3027C29.7638 28.399 28.9095 27.6933 27.9088 27.2747C26.9081 26.8561 25.8058 26.7433 24.7411 26.9505C23.6763 27.1578 22.6968 27.6758 21.9262 28.4392C21.1556 29.2026 20.6284 30.1772 20.4112 31.24C20.1939 32.3027 20.2964 33.406 20.7056 34.4106C21.1148 35.4152 21.8124 36.276 22.7104 36.8845C23.6084 37.493 24.6666 37.8218 25.7513 37.8294C27.2106 37.8357 28.6127 37.2623 29.6494 36.2352C30.6861 35.2082 31.2727 33.8116 31.2801 32.3523ZM37.9939 47.1984C36.2214 44.8842 34.456 42.5789 32.6976 40.2827C32.6365 40.2016 32.5649 40.0877 32.4827 40.0713C32.2666 40.0302 32.0012 39.9538 31.8309 40.0407C31.7381 40.1019 31.6595 40.1821 31.6001 40.2761C31.5408 40.3701 31.5022 40.4756 31.4868 40.5856C31.4692 40.7724 31.6043 41.0037 31.7217 41.1728C33.3955 43.3759 35.0752 45.5743 36.7608 47.768C36.8289 47.8561 36.9088 47.9347 36.971 48.0028L37.9939 47.1984ZM37.5242 50.1836C37.5258 50.5729 37.6426 50.953 37.8599 51.2759C38.0772 51.5989 38.3852 51.8504 38.7451 51.9986C39.1051 52.1468 39.5008 52.1852 39.8825 52.1088C40.2643 52.0325 40.6148 51.8449 40.8901 51.5696C41.1654 51.2944 41.353 50.9438 41.4293 50.5621C41.5057 50.1804 41.4673 49.7846 41.3191 49.4246C41.1709 49.0647 40.9194 48.7567 40.5965 48.5394C40.2735 48.3221 39.8934 48.2053 39.5041 48.2037C39.2445 48.2038 38.9874 48.2552 38.7477 48.3548C38.5079 48.4545 38.2902 48.6004 38.1069 48.7843C37.9237 48.9683 37.7785 49.1865 37.6797 49.4266C37.5809 49.6667 37.5304 49.924 37.5312 50.1836H37.5242Z" fill="#EF6C1B"/>
<path d="M51.5412 42.285C52.1488 42.3011 52.7259 42.5546 53.149 42.991C53.5721 43.4274 53.8074 44.0122 53.8046 44.62C53.8019 45.2278 53.5612 45.8104 53.1342 46.2429C52.7072 46.6755 52.1278 46.9236 51.5201 46.9343C51.2104 46.9397 50.9029 46.8832 50.6154 46.7681C50.3279 46.653 50.0663 46.4817 49.8459 46.2642C49.6256 46.0466 49.4509 45.7872 49.3321 45.5013C49.2133 45.2153 49.1529 44.9085 49.1543 44.5988C49.1557 44.2892 49.2189 43.9829 49.3403 43.698C49.4616 43.4131 49.6387 43.1554 49.8611 42.9398C50.0834 42.7243 50.3465 42.5554 50.635 42.4429C50.9236 42.3305 51.2317 42.2768 51.5412 42.285ZM52.5194 44.5891C52.5192 44.4572 52.4925 44.3268 52.441 44.2054C52.3894 44.084 52.3141 43.9742 52.2194 43.8825C52.1247 43.7907 52.0125 43.7189 51.8896 43.6712C51.7667 43.6236 51.6354 43.601 51.5036 43.605C51.2372 43.6084 50.983 43.7172 50.7966 43.9075C50.6102 44.0979 50.5068 44.3544 50.509 44.6208C50.5166 44.8871 50.6284 45.1398 50.8203 45.3247C51.0122 45.5096 51.2689 45.6119 51.5353 45.6096C51.6671 45.6078 51.7973 45.5799 51.9182 45.5275C52.0392 45.4751 52.1485 45.3993 52.24 45.3044C52.3315 45.2095 52.4033 45.0974 52.4513 44.9747C52.4992 44.8519 52.5224 44.7209 52.5194 44.5891Z" fill="#EF6C1B"/>
<path d="M25.1664 44.6043C25.164 44.2999 25.2219 43.9981 25.3369 43.7163C25.4519 43.4344 25.6217 43.1782 25.8365 42.9625C26.0512 42.7468 26.3066 42.5758 26.5879 42.4595C26.8692 42.3432 27.1708 42.2839 27.4752 42.285C27.936 42.2817 28.3874 42.4155 28.7721 42.6692C29.1568 42.923 29.4573 43.2853 29.6357 43.7103C29.814 44.1352 29.8621 44.6035 29.7738 45.0558C29.6854 45.5081 29.4647 45.9239 29.1396 46.2505C28.8145 46.5771 28.3996 46.7998 27.9478 46.8902C27.4959 46.9806 27.0273 46.9347 26.6016 46.7583C26.1759 46.5819 25.8121 46.2829 25.5566 45.8994C25.3011 45.5159 25.1653 45.0651 25.1664 44.6043ZM26.4864 44.6043C26.4849 44.7362 26.5095 44.8671 26.5588 44.9894C26.6081 45.1117 26.6812 45.223 26.7738 45.3169C26.8664 45.4108 26.9766 45.4855 27.0982 45.5365C27.2199 45.5875 27.3504 45.614 27.4823 45.6143C27.7488 45.614 28.0045 45.5091 28.1945 45.3222C28.3844 45.1353 28.4934 44.8813 28.4981 44.6149C28.4978 44.3484 28.3918 44.0929 28.2033 43.9044C28.0148 43.716 27.7594 43.61 27.4928 43.6096C27.3613 43.607 27.2305 43.6306 27.1082 43.6792C26.9859 43.7278 26.8746 43.8004 26.7807 43.8926C26.6868 43.9848 26.6123 44.0949 26.5616 44.2163C26.5109 44.3377 26.4849 44.468 26.4852 44.5996L26.4864 44.6043Z" fill="#EF6C1B"/>
<path d="M39.4971 35.348C39.8015 35.3448 40.1035 35.4018 40.3857 35.5159C40.668 35.63 40.9248 35.7989 41.1414 36.0128C41.358 36.2267 41.5301 36.4814 41.6478 36.7621C41.7655 37.0429 41.8263 37.3442 41.8269 37.6486C41.8288 38.2647 41.5859 38.8562 41.1516 39.2932C40.7173 39.7301 40.1272 39.9766 39.5111 39.9785C38.8951 39.9804 38.3035 39.7374 37.8665 39.3031C37.4296 38.8688 37.1831 38.2787 37.1812 37.6627C37.18 37.3583 37.2391 37.0566 37.355 36.7752C37.471 36.4937 37.6415 36.238 37.8568 36.0228C38.0721 35.8076 38.3279 35.6372 38.6094 35.5214C38.891 35.4055 39.1926 35.3466 39.4971 35.348ZM39.4971 36.6692C39.3653 36.6673 39.2345 36.6918 39.1124 36.7414C38.9903 36.7909 38.8793 36.8645 38.7862 36.9577C38.693 37.0508 38.6194 37.1618 38.5699 37.2839C38.5203 37.406 38.4958 37.5368 38.4977 37.6686C38.4883 37.8054 38.5071 37.9427 38.553 38.072C38.599 38.2012 38.6709 38.3197 38.7645 38.4199C38.8582 38.5202 38.9714 38.6001 39.0972 38.6548C39.223 38.7094 39.3587 38.7376 39.4959 38.7376C39.633 38.7376 39.7687 38.7094 39.8945 38.6548C40.0203 38.6001 40.1336 38.5202 40.2272 38.4199C40.3208 38.3197 40.3928 38.2012 40.4387 38.072C40.4846 37.9427 40.5035 37.8054 40.4941 37.6686C40.4964 37.5374 40.4725 37.407 40.4236 37.2852C40.3747 37.1635 40.3019 37.0527 40.2095 36.9596C40.1171 36.8664 40.007 36.7927 39.8856 36.7428C39.7643 36.6929 39.6341 36.6679 39.5029 36.6692H39.4971Z" fill="#EF6C1B"/>
<path d="M25.7689 32.6411C26.8595 32.6652 27.913 33.0417 28.7717 33.7145C29.124 33.9846 29.1898 34.3627 28.9631 34.6716C28.7365 34.9804 28.3572 35.0297 27.9943 34.7679C26.5205 33.7039 25.0584 33.7109 23.5811 34.7679C23.2194 35.0297 22.8377 34.9722 22.6146 34.661C22.3915 34.3498 22.456 33.9775 22.8154 33.7074C23.6631 33.0499 24.6967 32.6768 25.7689 32.6411Z" fill="#EF6C1B"/>
<path d="M24.1929 30.7492C24.1965 30.8406 24.1812 30.9318 24.148 31.017C24.1148 31.1022 24.0645 31.1797 24 31.2446C23.9356 31.3095 23.8584 31.3604 23.7734 31.3942C23.6884 31.428 23.5973 31.4439 23.5059 31.4409C23.1278 31.428 22.8776 31.1508 22.8776 30.7457C22.8776 30.3405 23.1642 30.0352 23.5517 30.0493C23.7288 30.0593 23.8949 30.1381 24.0147 30.2689C24.1344 30.3996 24.1984 30.572 24.1929 30.7492Z" fill="#EF6C1B"/>
<path d="M28.0037 30.0493C28.0951 30.0512 28.1853 30.0716 28.2686 30.1093C28.352 30.1471 28.4268 30.2014 28.4885 30.2689C28.5502 30.3365 28.5976 30.4158 28.6277 30.5022C28.6578 30.5887 28.67 30.6803 28.6637 30.7715C28.6651 30.8593 28.6489 30.9465 28.6161 31.028C28.5834 31.1095 28.5346 31.1836 28.4728 31.2459C28.411 31.3083 28.3373 31.3577 28.2562 31.3912C28.175 31.4246 28.0879 31.4416 28.0001 31.4409C27.6044 31.4409 27.3425 31.1497 27.3531 30.7234C27.3625 30.3276 27.6326 30.0481 28.0037 30.0493Z" fill="#EF6C1B"/>
</g>
<defs>
<clipPath id="clip0_38_865">
<rect width="45" height="27.9437" fill="white" transform="translate(17 25.5281)"/>
</clipPath>
</defs>
</svg>
