<svg width="44" height="46" viewBox="0 0 44 46" fill="none" xmlns="http://www.w3.org/2000/svg">
<g clip-path="url(#clip0_81_25)">
<path d="M27.6026 46C27.0691 45.8007 26.8897 45.3998 26.9135 44.8441C26.942 44.202 26.9135 43.5586 26.923 42.9153C26.9313 42.2431 27.2129 41.9551 27.8735 41.9551C32.9373 41.9551 38.0007 41.9551 43.0637 41.9551C43.7089 41.9551 43.9845 42.2323 43.9917 42.8793C44 43.5526 43.9917 44.2248 43.9917 44.8981C43.9917 45.6063 43.9002 45.7383 43.2527 45.9964L27.6026 46Z" fill="#6E6E6E"/>
<path d="M0.567902 45.9999C0.138987 45.7995 -0.0166611 45.4574 -2.73365e-05 44.9857C0.0237353 44.328 -2.0375e-05 43.6654 0.0071084 43.0113C0.0071084 42.2455 0.257801 41.9983 1.0289 41.9971H13.4235C14.3122 41.9971 15.2057 41.9971 16.0896 41.9971C16.8108 41.9971 17.0734 42.2719 17.0793 43.0077C17.0793 43.6366 17.0615 44.2656 17.0865 44.8933C17.1043 45.3638 16.9677 45.7335 16.5756 45.9987L0.567902 45.9999Z" fill="#6E6E6E"/>
<path d="M36.7619 21.7127C36.925 21.5011 37.0995 21.2988 37.2847 21.1066C37.5373 20.8589 37.8761 20.7214 38.2281 20.7237C38.5801 20.7259 38.9171 20.8677 39.1667 21.1186C39.41 21.3663 39.5475 21.7004 39.5497 22.0493C39.5519 22.3983 39.4187 22.7342 39.1785 22.985C38.2122 23.9988 37.2308 24.999 36.2344 25.9856C35.6545 26.5558 34.9072 26.5474 34.3262 25.9736C33.352 25.0134 32.3904 24.0368 31.4414 23.0438C30.889 22.4701 30.8937 21.6323 31.4189 21.109C31.944 20.5857 32.7638 20.6013 33.3341 21.1558C33.504 21.3202 33.6466 21.5159 33.8011 21.6959L33.8997 21.6443V2.72099H12.012V10.5671C12.2496 10.3354 12.423 10.1506 12.606 9.97416C13.1834 9.42565 13.9997 9.41964 14.5201 9.95856C14.6424 10.0844 14.739 10.2335 14.8042 10.3971C14.8694 10.5608 14.902 10.7358 14.9001 10.9122C14.8983 11.0886 14.8619 11.2629 14.7933 11.4251C14.7246 11.5873 14.6249 11.7342 14.4999 11.8574C13.5494 12.844 12.5886 13.821 11.6175 14.7884C11.0127 15.3885 10.2488 15.3813 9.64164 14.7764C8.69114 13.8306 7.75053 12.8752 6.81983 11.9102C6.23646 11.3101 6.22576 10.4843 6.7723 9.94416C7.31884 9.40404 8.12202 9.42925 8.71727 10.0198C8.88242 10.183 9.025 10.3703 9.17708 10.5455L9.28163 10.4831C9.28876 10.3258 9.30303 10.1698 9.30303 10.0126C9.31174 7.22797 9.31926 4.44337 9.32559 1.65876C9.32559 0.480105 9.80916 0 10.9735 0H34.9809C36.1405 0 36.6122 0.4801 36.6122 1.66836V21.6383L36.7619 21.7127Z" fill="#6E6E6E"/>
<path d="M33.3377 39.2654H25.8276C25.066 39.2654 24.8082 39.0109 24.8022 38.2523C24.7975 37.593 24.7975 36.9345 24.8022 36.2767C24.8022 35.5181 25.0636 35.2625 25.8311 35.2613C28.2755 35.2565 30.7195 35.2565 33.1631 35.2613H40.7671C41.6535 35.2613 41.8792 35.4881 41.8816 36.3715C41.8816 37.0293 41.8899 37.6918 41.8816 38.346C41.8733 39.0001 41.5917 39.2654 40.9441 39.2666C38.4063 39.2674 35.8708 39.267 33.3377 39.2654Z" fill="#6E6E6E"/>
<path d="M8.47968 32.6099H1.05744C0.245949 32.6099 0.007137 32.3699 0.00476074 31.5357C0.00476074 30.8623 0.00476074 30.189 0.00476074 29.5156C0.0130776 28.8879 0.281589 28.6047 0.904168 28.6035C5.98461 28.5987 11.0658 28.5987 16.1479 28.6035C16.7835 28.6035 17.0663 28.8963 17.0746 29.5421C17.0853 30.2298 17.0818 30.9188 17.0746 31.6065C17.0746 32.3363 16.7966 32.6087 16.0754 32.6099H8.47968Z" fill="#6E6E6E"/>
<path d="M10.6812 35.3056H18.1914C18.9328 35.3056 19.1906 35.5565 19.1978 36.2886C19.1978 36.9764 19.2061 37.6653 19.1978 38.3531C19.1895 39.0168 18.9292 39.2977 18.2853 39.2977C13.2048 39.3025 8.12439 39.3025 3.04395 39.2977C2.41543 39.2977 2.1386 39.0228 2.12791 38.4023C2.11484 37.6701 2.11484 36.9356 2.12791 36.2034C2.1386 35.5793 2.42019 35.308 3.03921 35.3068C5.58972 35.3036 8.13707 35.3032 10.6812 35.3056Z" fill="#6E6E6E"/>
<path d="M12.5419 21.9156H20.096C20.8279 21.9156 21.0881 22.176 21.0928 22.913C21.0928 23.5863 21.0928 24.2597 21.0928 24.933C21.0928 25.6064 20.8219 25.9017 20.1566 25.9029C15.0872 25.9029 10.021 25.9029 4.95803 25.9029C4.27961 25.9029 4.02536 25.6352 4.02061 24.9426C4.01585 24.2501 4.02061 23.5359 4.02061 22.8326C4.02061 22.1772 4.29149 21.912 4.94377 21.912C7.47607 21.912 10.0088 21.9132 12.5419 21.9156Z" fill="#6E6E6E"/>
</g>
<defs>
<clipPath id="clip0_81_25">
<rect width="44" height="46" fill="white" transform="translate(-0.00238037)"/>
</clipPath>
</defs>
</svg>
