<svg width="54" height="54" viewBox="0 0 54 54" fill="none" xmlns="http://www.w3.org/2000/svg">
<rect width="54" height="54" rx="8" fill="#FF2626" fill-opacity="0.22"/>
<rect x="8" y="8" width="38" height="38" rx="8" fill="#FF2626"/>
<g clip-path="url(#clip0_41_5151)">
<path d="M29.0625 39H24.9375C24.54 38.8073 24.3952 38.4947 24.4148 38.0531C24.4425 37.4217 24.4219 36.7875 24.4219 36.1552V35.9302L22.4902 35.0911C22.458 35.1553 22.4181 35.2155 22.3716 35.2702C21.8775 35.7702 21.3808 36.2675 20.8814 36.7622C20.5425 37.0969 20.138 37.103 19.8033 36.772C18.9389 35.9133 18.0773 35.0517 17.2186 34.1873C16.8984 33.8644 16.9045 33.4547 17.2275 33.1284C17.7663 32.5847 18.308 32.0439 18.8527 31.5061C18.9043 31.4626 18.9621 31.427 19.0242 31.4006C18.7795 30.7411 18.5663 30.1659 18.3478 29.5781C17.5538 29.5781 16.7494 29.5598 15.9459 29.5856C15.5053 29.5997 15.1903 29.4614 14.9986 29.0625V24.9375C15.1898 24.5377 15.5044 24.4017 15.945 24.4144C16.8263 24.4397 17.7084 24.4219 18.5813 24.4219L19.2891 22.8806C19.2263 22.844 19.1669 22.8016 19.1119 22.7541C18.4913 22.1381 17.8727 21.5203 17.2561 20.9006C16.8928 20.5359 16.8919 20.1394 17.2561 19.7756C18.0939 18.9353 18.933 18.0962 19.7733 17.2584C20.138 16.8942 20.5345 16.8933 20.8983 17.2584C21.5567 17.9147 22.213 18.572 22.867 19.2305C22.9131 19.286 22.9514 19.3475 22.9809 19.4133L24.4219 18.8391V18.593C24.4219 17.7108 24.4397 16.8281 24.4144 15.9464C24.4017 15.5058 24.5381 15.1917 24.9375 15H29.0625C29.4652 15.1875 29.5969 15.5077 29.5852 15.9464C29.5613 16.837 29.5781 17.7277 29.5781 18.6159V18.8386L30.9708 19.3908C31.673 18.6867 32.3773 17.9808 33.0839 17.273C33.4678 16.8891 33.8573 16.8881 34.2436 17.273C35.0733 18.0992 35.9014 18.9273 36.728 19.7573C37.1123 20.1431 37.1109 20.5331 36.728 20.9184C36.1167 21.5319 35.5042 22.1447 34.8905 22.7569C34.8314 22.8164 34.7747 22.8787 34.7311 22.9247L35.4197 24.4247C36.2925 24.4247 37.1747 24.442 38.0559 24.4172C38.4961 24.405 38.8111 24.5405 39.0019 24.9403V29.0653C38.8106 29.4656 38.4952 29.6077 38.055 29.5875C37.4545 29.5608 36.8527 29.5809 36.2513 29.5809H35.6508L34.9945 31.3547C35.5805 31.9392 36.1795 32.5322 36.773 33.1308C37.0908 33.4514 37.1072 33.8592 36.7973 34.1728C35.9255 35.0569 35.0473 35.9348 34.163 36.8067C33.8639 37.1011 33.4598 37.0852 33.1547 36.7973C33.0188 36.668 32.8889 36.533 32.7563 36.4003L31.47 35.1094L29.5781 35.9302C29.5781 36.6187 29.5589 37.3364 29.5852 38.0531C29.6016 38.4933 29.4614 38.8083 29.0625 39ZM33.4688 26.9911C33.4631 23.4286 30.5498 20.5223 26.9873 20.5331C23.4328 20.542 20.5369 23.4431 20.535 26.9967C20.535 30.5592 23.4413 33.4688 27.0038 33.4655C30.5663 33.4622 33.472 30.5536 33.4688 26.9911Z" fill="white"/>
<path d="M32.0517 26.9925C32.0583 29.7675 29.7797 32.0499 27.0014 32.0508C24.2231 32.0517 21.9455 29.7717 21.9483 26.9953C21.9516 24.226 24.2171 21.9567 26.9869 21.9492C29.7656 21.9417 32.0452 24.2114 32.0517 26.9925ZM27.7055 29.6006C27.7744 29.5847 27.8264 29.5739 27.8775 29.5608C28.74 29.3372 29.2557 28.5938 29.1539 27.721C29.0602 26.9096 28.3477 26.303 27.4758 26.2941C27.1789 26.2906 26.8821 26.2906 26.5852 26.2941C26.4127 26.2941 26.2571 26.2603 26.2547 26.0546C26.2524 25.8488 26.4127 25.8202 26.5828 25.8202C27.1685 25.8227 27.7539 25.8227 28.3392 25.8202C28.4405 25.8216 28.5415 25.8109 28.6402 25.7883C28.9842 25.7006 29.1928 25.3899 29.1596 25.0285C29.1434 24.8679 29.0713 24.7181 28.9559 24.6053C28.8405 24.4926 28.689 24.424 28.5281 24.4116C28.3186 24.3956 28.1063 24.4074 27.8963 24.4022C27.8317 24.3967 27.7676 24.3875 27.7041 24.3745C27.7041 24.1725 27.7088 23.9995 27.7041 23.8294C27.7037 23.7369 27.6851 23.6453 27.6494 23.56C27.6136 23.4747 27.5614 23.3972 27.4957 23.332C27.3631 23.2004 27.1836 23.1269 26.9967 23.1277C26.8099 23.1284 26.631 23.2034 26.4994 23.336C26.3678 23.4687 26.2943 23.6482 26.295 23.835C26.2894 24.0225 26.295 24.2077 26.295 24.4022C26.2341 24.4153 26.1896 24.4233 26.146 24.4346C25.2689 24.653 24.7449 25.3969 24.8461 26.28C24.9399 27.0905 25.6524 27.6989 26.5238 27.7078C26.82 27.7111 27.1172 27.7106 27.4144 27.7078C27.5874 27.7078 27.7425 27.7406 27.7463 27.9464C27.75 28.1522 27.5888 28.1836 27.4181 28.1831C26.8172 28.1806 26.2161 28.1806 25.6149 28.1831C25.1569 28.1831 24.8433 28.471 24.8377 28.8806C24.8321 29.3077 25.1391 29.5941 25.6125 29.5997C25.8361 29.6025 26.0597 29.5997 26.2969 29.5997C26.2969 29.8153 26.2922 29.9944 26.2969 30.1735C26.2976 30.3603 26.3726 30.5392 26.5052 30.6708C26.6379 30.8024 26.8174 30.8759 27.0042 30.8752C27.1911 30.8744 27.37 30.7995 27.5016 30.6668C27.6332 30.5342 27.7067 30.3547 27.706 30.1678C27.7102 29.9803 27.7055 29.7938 27.7055 29.6006Z" fill="white"/>
</g>
<defs>
<clipPath id="clip0_41_5151">
<rect width="24" height="24" fill="white" transform="translate(15 15)"/>
</clipPath>
</defs>
</svg>
