<svg width="183" height="68" viewBox="0 0 183 68" fill="none" xmlns="http://www.w3.org/2000/svg">
<rect x="0.5" y="0.5" width="182" height="67" fill="#F2F2F2" stroke="#D9D9D9"/>
<path d="M71.617 17.8274L67.0494 14.9744H64.4969L61.9167 16.8213L60.7573 18.7198L59.8391 20.6739L58.9683 23.5702L58.768 24.6354C58.5189 25.9225 58.5123 27.2448 58.7487 28.5343C59.1481 30.6459 60.2841 32.918 63.4773 30.9223L73.6432 21.9136L71.617 17.8274ZM62.7272 28.9102C62.4739 28.9106 62.226 28.8375 62.0135 28.6996C61.801 28.5618 61.6331 28.3652 61.5302 28.1337C61.0211 26.8032 60.8345 25.371 60.9857 23.9544C61.2691 21.7215 64.067 13.2662 71.9573 19.9015C71.9567 19.9015 65.7131 27.6946 62.7272 28.9102Z" fill="url(#paint0_linear_153_1882)"/>
<path d="M117.96 20.8091C110.664 15.9329 104.677 18.8691 104.677 18.8691L104.011 19.1302L102.952 19.7574L100.993 21.1511L98.47 24.595L98.1772 27.4708C117.948 37.6349 121.894 35.8881 123.898 33.2851C124.733 32.2006 124.517 30.428 123.981 28.7286C122.933 25.4806 120.809 22.687 117.96 20.8091ZM121.616 32.364C119.534 34.6478 108.642 32.9982 99.4714 25.1929C99.4714 25.1929 104.677 20.3102 111.645 22.1525C118.613 23.9947 123.698 30.0814 121.616 32.364Z" fill="url(#paint1_linear_153_1882)"/>
<path d="M110.391 46.7314C110.705 47.0683 110.947 47.4661 111.101 47.9001C111.256 48.3341 111.319 48.7952 111.288 49.2547V53.9248H109.987V49.4421C110.033 48.7831 109.82 48.1323 109.395 47.6268C109.185 47.4134 108.932 47.247 108.652 47.1386C108.373 47.0302 108.074 46.9823 107.775 46.9979C107.469 46.983 107.163 47.0333 106.877 47.1454C106.592 47.2576 106.334 47.429 106.12 47.6485C105.677 48.1764 105.457 48.8556 105.505 49.5428V53.9236H104.189V46.0006H105.505V47.1284C105.766 46.7242 106.134 46.3999 106.568 46.1915C107.03 45.9668 107.537 45.8529 108.05 45.8589C108.479 45.8406 108.907 45.9083 109.309 46.0582C109.711 46.208 110.079 46.437 110.391 46.7314Z" fill="#353435"/>
<path d="M114.808 47.086V51.756C114.793 51.9017 114.807 52.0488 114.849 52.189C114.892 52.3292 114.961 52.4597 115.054 52.5729C115.298 52.7575 115.603 52.8429 115.907 52.8119H116.875V53.9245H115.689C115.095 53.9699 114.507 53.7892 114.041 53.4185C113.839 53.1947 113.686 52.9313 113.591 52.6451C113.496 52.3589 113.463 52.0561 113.491 51.756V47.086H112.465V46.0014H113.491V44.0063H114.807V46.0014H116.875V47.086H114.808Z" fill="#353435"/>
<path d="M119.638 53.6141C119.187 53.431 118.793 53.1318 118.496 52.7468C118.216 52.3765 118.055 51.9306 118.033 51.4673H119.392C119.409 51.6595 119.468 51.8457 119.564 52.0131C119.66 52.1804 119.792 52.3249 119.949 52.4364C120.332 52.7023 120.792 52.8345 121.257 52.8124C121.678 52.8359 122.095 52.7189 122.443 52.4798C122.577 52.3855 122.687 52.26 122.763 52.114C122.839 51.9679 122.878 51.8057 122.877 51.6412C122.883 51.4814 122.842 51.3232 122.76 51.1859C122.678 51.0486 122.558 50.9381 122.414 50.8676C121.958 50.6462 121.478 50.4788 120.983 50.3687C120.493 50.2474 120.012 50.0909 119.544 49.9002C119.174 49.7425 118.847 49.4998 118.59 49.1917C118.312 48.8413 118.17 48.4021 118.192 47.9555C118.191 47.5556 118.317 47.1657 118.553 46.8429C118.817 46.4877 119.171 46.2105 119.58 46.0406C120.059 45.8358 120.577 45.7348 121.098 45.7443C121.863 45.7083 122.616 45.9439 123.223 46.4095C123.492 46.6319 123.708 46.9101 123.858 47.2247C124.008 47.5394 124.087 47.8829 124.091 48.2313H122.775C122.766 48.0396 122.718 47.8517 122.632 47.6802C122.546 47.5086 122.424 47.3572 122.276 47.2358C121.926 46.9702 121.493 46.837 121.054 46.8599C120.656 46.839 120.261 46.9452 119.926 47.1632C119.795 47.25 119.688 47.3683 119.615 47.5073C119.542 47.6462 119.505 47.8014 119.507 47.9584C119.503 48.0774 119.523 48.1959 119.567 48.3067C119.61 48.4175 119.676 48.5182 119.76 48.6026C119.942 48.7798 120.158 48.9176 120.396 49.0072C120.744 49.1386 121.099 49.252 121.459 49.3469C121.931 49.4692 122.394 49.6214 122.847 49.8025C123.202 49.9507 123.516 50.1812 123.765 50.4747C124.032 50.8059 124.173 51.2208 124.163 51.6459C124.167 52.0644 124.041 52.4739 123.801 52.8171C123.543 53.1791 123.191 53.4628 122.782 53.6369C122.305 53.8421 121.79 53.9431 121.271 53.9332C120.711 53.9395 120.155 53.8309 119.638 53.6141Z" fill="#353435"/>
<path d="M68.1096 53.9243L64.8677 47.9032H64.3817V53.9243H59.8428V37.598H66.9987C68.1483 37.5637 69.2902 37.7976 70.3336 38.2814C71.1913 38.6879 71.9087 39.3402 72.3949 40.1553C72.8627 40.9683 73.1026 41.8924 73.0894 42.8303C73.1086 43.8794 72.7877 44.9066 72.1747 45.7582C71.5085 46.6384 70.5668 47.2703 69.4997 47.5531L73.1819 53.9214L68.1096 53.9243ZM64.3811 44.8002H66.6274C67.1301 44.8388 67.6281 44.6812 68.017 44.3604C68.1788 44.1922 68.3036 43.9919 68.3833 43.7726C68.4631 43.5532 68.4961 43.3196 68.4802 43.0868C68.4924 42.8585 68.4564 42.6302 68.3746 42.4167C68.2928 42.2032 68.167 42.0093 68.0053 41.8477C67.6224 41.5233 67.128 41.3613 66.6274 41.3962H64.3811V44.8002Z" fill="#353435"/>
<path d="M87.3644 45.7388C86.8823 46.5748 86.1656 47.2511 85.3032 47.6841C84.2566 48.1995 83.0996 48.45 81.9337 48.4138H79.6874V53.9254H75.1484V37.5991H81.9337C83.088 37.5653 84.2342 37.8032 85.2797 38.2936C86.1485 38.7107 86.8709 39.3806 87.3521 40.2155C87.8269 41.0803 88.0664 42.0546 88.0466 43.041C88.0582 43.9843 87.823 44.9143 87.3644 45.7388ZM83.4158 43.041C83.4158 41.8522 82.7752 41.2579 81.4939 41.2579H79.6874V44.8013H81.4939C82.7752 44.8009 83.4158 44.2141 83.4158 43.041Z" fill="#353435"/>
<path d="M97.6833 51.2621H91.8935L91.0151 53.9254H86.2432L92.1945 37.5991H97.4279L103.356 53.9254H98.5628L97.6833 51.2621ZM96.5484 47.7884L94.7887 42.5081L93.0518 47.7884H96.5484Z" fill="#353435"/>
<path d="M59.4888 21.6687C59.0496 23.0269 58.7339 24.422 58.5454 25.8369C58.7489 24.4247 59.0644 23.0309 59.4888 21.6687Z" fill="#2B5DAA"/>
<path d="M97.5097 24.2267C97.5097 24.2267 86.1767 15.505 81.0511 15.5448C78.3674 15.8933 75.8317 16.9751 73.723 18.6712C73.723 18.6712 69.5185 14.0662 66.6374 14.0662C64.2804 14.0662 61.2277 16.2077 59.4932 21.6712C60.5045 18.5541 62.5072 14.91 66.2725 15.4247C66.2725 15.4247 67.7143 15.4247 70.6574 18.4282C73.6006 21.4317 83.572 36.0281 92.1017 32.5439C100.082 29.2845 99.4398 21.5225 103.718 19.2562C102.128 19.9595 98.9736 21.615 97.5097 24.2267ZM84.6952 28.9115C84.6952 28.9115 78.8089 24.5166 75.6449 20.5522C75.6449 20.5522 79.7698 15.6268 85.9367 19.7909C92.1035 23.955 95.8683 26.2371 95.8683 26.2371C95.8683 26.2371 92.0239 33.5452 84.6952 28.9103V28.9115Z" fill="#2B5DAA"/>
<path d="M103.716 19.2566C104.302 18.9983 104.675 18.8689 104.675 18.8689C104.343 18.9651 104.022 19.095 103.716 19.2566Z" fill="#2B5DAA"/>
<defs>
<linearGradient id="paint0_linear_153_1882" x1="58.5762" y1="23.3335" x2="73.6432" y2="23.3335" gradientUnits="userSpaceOnUse">
<stop stop-color="#27397B"/>
<stop offset="1" stop-color="#28316E"/>
</linearGradient>
<linearGradient id="paint1_linear_153_1882" x1="98.1772" y1="26.643" x2="124.455" y2="26.643" gradientUnits="userSpaceOnUse">
<stop stop-color="#28316E"/>
<stop offset="1" stop-color="#28387B"/>
</linearGradient>
</defs>
</svg>
