<svg width="79" height="79" viewBox="0 0 79 79" fill="none" xmlns="http://www.w3.org/2000/svg">
<path d="M0 0H63C71.8366 0 79 7.16344 79 16V79H0V0Z" fill="#BE7D5B"/>
<g clip-path="url(#clip0_68_94)">
<path d="M7.35745e-06 46.0404C0.0589446 45.9451 0.124253 45.8513 0.178411 45.7512C0.590971 44.9868 1.38741 44.5911 2.15837 44.7723C2.56067 44.8582 2.92093 45.08 3.17833 45.4002C3.43574 45.7205 3.57453 46.1195 3.57127 46.5299C3.58879 47.5995 3.57127 48.669 3.57127 49.7401V50.3313C7.37829 50.5904 11.0229 50.4203 14.0318 47.7218C14.121 47.6424 14.2102 47.5629 14.2947 47.4803C14.3285 47.4305 14.3568 47.3772 14.3791 47.3214C14.0159 47.0671 13.6448 46.8128 13.2784 46.549C12.3625 45.8895 12.1745 44.8883 12.8005 43.9506C13.1892 43.3753 13.597 42.8159 14 42.2502C14.055 42.1831 14.1135 42.1189 14.1752 42.0579L28.6578 52.3767C28.2118 53.0251 27.8199 53.648 27.3835 54.2265C26.775 55.0211 25.8033 55.18 24.9464 54.6286C24.349 54.244 23.7724 53.8244 23.1591 53.4033C17.8866 59.1086 11.3032 61.4956 3.56649 61.0554C3.56649 62.3267 3.57764 63.5155 3.56649 64.6994C3.56708 65.0669 3.45354 65.4256 3.24149 65.7261C3.02944 66.0265 2.72929 66.2541 2.38231 66.3775C2.03534 66.5008 1.65859 66.5139 1.30386 66.4149C0.949138 66.3159 0.633865 66.1097 0.401401 65.8246C0.255123 65.6198 0.119557 65.4077 -0.004776 65.1889L7.35745e-06 46.0404Z" fill="#F2F2F1"/>
<path d="M20.7889 12.5079C21.9039 12.5079 22.6717 12.8655 23.3996 13.3915C28.8049 17.2947 34.2133 21.193 39.6249 25.0866C45.5016 29.3245 51.3784 33.5571 57.2551 37.7844C57.8588 38.2199 58.2507 38.738 58.2108 39.5103C58.1806 40.1651 57.8142 40.6005 57.33 40.9867C53.3233 44.1757 49.3193 47.3674 45.3179 50.5617C43.7049 51.8469 42.0902 53.1315 40.4739 54.4156C39.48 55.2102 38.7982 55.2245 37.7835 54.503C27.8014 47.3886 17.815 40.2731 7.82431 33.1566C5.86345 31.7581 5.55921 29.5618 7.06769 27.6834C10.7335 23.1276 14.4024 18.5719 18.0746 14.0161C18.8328 13.061 19.7774 12.5381 20.7889 12.5079ZM46.6193 39.3562C46.6262 39.0031 46.5279 38.656 46.3368 38.3587C46.1457 38.0615 45.8705 37.8276 45.546 37.6866C45.2215 37.5456 44.8624 37.5039 44.5141 37.5668C44.1658 37.6297 43.8441 37.7943 43.5897 38.0399C43.3354 38.2854 43.1598 38.6007 43.0853 38.9459C43.0107 39.2911 43.0406 39.6506 43.1711 39.9789C43.3016 40.3071 43.5269 40.5893 43.8183 40.7896C44.1098 40.99 44.4543 41.0995 44.8082 41.1043C45.2811 41.1098 45.7371 40.9284 46.0764 40.5997C46.4158 40.271 46.6109 39.8216 46.6193 39.3498V39.3562Z" fill="#F2F2F1"/>
<path d="M59.5855 43.7504C60.2959 44.1334 60.9538 44.545 60.9968 45.3634C61.0294 45.8706 60.8909 46.3742 60.6034 46.7937C57.8588 50.2566 55.0728 53.6862 52.2837 57.1125C51.6465 57.8896 50.7242 58.0787 49.9453 57.5543C48.585 56.6373 47.2692 55.6568 45.893 54.6746L59.5855 43.7504Z" fill="#F2F2F1"/>
</g>
<defs>
<clipPath id="clip0_68_94">
<rect width="61" height="54" fill="white" transform="translate(0 12.5)"/>
</clipPath>
</defs>
</svg>
