<svg width="85" height="84" viewBox="0 0 85 84" fill="none" xmlns="http://www.w3.org/2000/svg">
<g filter="url(#filter0_d_82_743)">
<circle cx="42.5" cy="38" r="22" fill="#0AB38C"/>
</g>
<g clip-path="url(#clip0_82_743)">
<path d="M40.3852 22.5H44.6172C44.6366 22.5212 44.6587 22.5399 44.6828 22.5558C45.1601 22.7879 45.3829 23.1753 45.2798 23.5967C45.1676 24.0529 44.8026 24.3125 44.2663 24.3157C43.9994 24.3157 43.7317 24.3157 43.4523 24.3157V26.2843C46.5935 26.5067 49.3438 27.6277 51.7375 29.6295C52.11 29.2582 52.4567 28.9113 52.8059 28.5667C52.9064 28.4567 53.0333 28.3726 53.1753 28.3218C53.3173 28.271 53.47 28.2551 53.6199 28.2756C53.793 28.2972 53.9564 28.3657 54.0914 28.4734C54.2264 28.581 54.3276 28.7234 54.3835 28.8843C54.4393 29.0452 54.4475 29.2181 54.4072 29.3833C54.3668 29.5486 54.2796 29.6994 54.1553 29.8187C53.7936 30.1778 53.4153 30.5207 53.0262 30.8871C54.2734 32.2952 55.2012 33.8335 55.7857 35.5579C56.373 37.2759 56.602 39.0907 56.4592 40.8959C56.3275 42.6904 55.8277 44.441 54.9892 46.0446C54.1448 47.6587 52.978 49.0929 51.5571 50.2632C46.3432 54.5983 38.6616 54.5846 33.3788 50.1969C30.7448 48.0132 29.1459 45.2213 28.6579 41.885C28.0543 37.7651 29.19 34.1029 31.9612 30.8855L30.8886 29.8616C30.6533 29.6367 30.5269 29.3674 30.5785 29.0439C30.598 28.8819 30.6639 28.7285 30.7687 28.6012C30.8735 28.4739 31.013 28.3779 31.1713 28.3241C31.336 28.2574 31.5176 28.2409 31.6922 28.2767C31.8668 28.3125 32.0261 28.399 32.1491 28.5247C32.5257 28.8813 32.8832 29.2574 33.2599 29.6375C35.5677 27.6594 38.4827 26.4783 41.5517 26.2778V24.3133H41.0778C40.9223 24.3133 40.7668 24.319 40.6113 24.3133C40.4023 24.3064 40.2016 24.2322 40.0406 24.1024C39.8796 23.9726 39.7674 23.7944 39.7217 23.5959C39.6802 23.4018 39.7052 23.1999 39.7929 23.0209C39.8805 22.842 40.0261 22.6959 40.2073 22.6051C40.268 22.5728 40.3262 22.5356 40.3852 22.5ZM34.1553 38.9669C34.1719 38.8367 34.1819 38.738 34.1977 38.6434C34.4588 36.9448 35.2683 35.3708 36.5091 34.149C36.9348 33.7211 36.9414 33.1703 36.5465 32.8023C36.1516 32.4343 35.5787 32.4683 35.1647 32.8921C32.9131 35.1947 31.9321 37.9365 32.3162 41.0859C33.0038 46.7272 38.423 50.6539 44.1832 49.7359C49.9923 48.8098 53.8327 43.2341 52.5116 37.6429C51.4507 33.1542 47.306 29.9109 42.6051 29.8899C41.9616 29.8899 41.5733 30.2538 41.5691 30.8766C41.5691 31.4428 41.5642 32.0089 41.5691 32.571C41.575 33.1137 41.9682 33.5124 42.4887 33.5197C43.0216 33.5262 43.4249 33.121 43.434 32.5645C43.4382 32.3041 43.434 32.0437 43.434 31.7558C45.0207 31.9317 46.5235 32.5423 47.7674 33.5165C47.5504 33.7106 47.3517 33.8732 47.1705 34.0527C46.7639 34.4571 46.7456 35.0095 47.1173 35.3775C47.4889 35.7455 48.0668 35.7374 48.4791 35.3435C48.6704 35.1616 48.8375 34.9545 49.0304 34.7418C50.0647 36.0237 50.6591 37.3979 50.8462 38.9701C50.5469 38.9701 50.2892 38.9701 50.0314 38.9701C49.4494 38.9766 49.0337 39.3567 49.0337 39.876C49.0337 40.3952 49.4494 40.777 50.0256 40.7851C50.2925 40.7851 50.5594 40.7851 50.8462 40.7851C50.6641 42.3337 50.0332 43.8002 49.0271 45.0134C48.835 44.8015 48.6687 44.5952 48.4783 44.4133C48.0626 44.0194 47.4906 44.0089 47.1173 44.3769C46.744 44.7449 46.7581 45.2989 47.1671 45.7001C47.3534 45.8836 47.5646 46.043 47.7807 46.2274C46.4571 47.2392 45.047 47.811 43.4315 47.997C43.4315 47.7228 43.4315 47.4729 43.4315 47.223C43.4257 46.6391 43.0341 46.2298 42.4887 46.2347C41.9566 46.2403 41.5741 46.6455 41.5658 47.2109C41.5658 47.4681 41.5658 47.7245 41.5658 47.9994C39.9775 47.8206 38.4734 47.2092 37.2266 46.2355C37.4478 46.0414 37.6573 45.8756 37.8443 45.6879C38.2443 45.2835 38.2476 44.7174 37.8668 44.3631C37.486 44.0089 36.9298 44.0242 36.5274 44.4052C36.3345 44.588 36.1632 44.791 35.9628 45.0053C34.936 43.7347 34.3424 42.3606 34.152 40.7851C34.4546 40.7851 34.7232 40.7851 34.9909 40.7851C35.5479 40.7753 35.9578 40.3952 35.9637 39.8873C35.9695 39.3794 35.5529 38.979 34.9801 38.971C34.714 38.9637 34.4463 38.9669 34.1553 38.9669ZM42.354 42.5975C44.041 42.5975 45.3072 41.3844 45.2973 39.8865C45.2898 38.7776 44.7577 37.9381 43.75 37.4464C42.1503 36.6667 40.5265 35.9339 38.9061 35.1939C38.5328 35.0233 38.1669 35.1041 37.8784 35.3913C37.5899 35.6784 37.5342 36.0262 37.6955 36.3974C37.9084 36.8891 38.1112 37.3882 38.3499 37.8661C38.9319 39.0211 39.5139 40.1833 40.1516 41.31C40.6471 42.1834 41.4935 42.5563 42.3532 42.5975H42.354Z" fill="white"/>
<path d="M40.4593 37.8652C41.3239 38.2931 42.1986 38.7039 43.0483 39.1593C43.3809 39.3388 43.4873 39.689 43.41 40.0562C43.3805 40.2326 43.2948 40.3955 43.165 40.5219C43.0352 40.6483 42.8679 40.7318 42.6867 40.7607C42.31 40.8359 41.95 40.7364 41.7654 40.4081C41.299 39.5815 40.8758 38.7315 40.4352 37.8903C40.4435 37.8806 40.4518 37.8733 40.4593 37.8652Z" fill="white"/>
<path d="M40.4352 37.8892L40.3462 37.793L40.4593 37.8658C40.4518 37.8738 40.4435 37.8811 40.4352 37.8892Z" fill="white"/>
</g>
<defs>
<filter id="filter0_d_82_743" x="0.5" y="0" width="84" height="84" filterUnits="userSpaceOnUse" color-interpolation-filters="sRGB">
<feFlood flood-opacity="0" result="BackgroundImageFix"/>
<feColorMatrix in="SourceAlpha" type="matrix" values="0 0 0 0 0 0 0 0 0 0 0 0 0 0 0 0 0 0 127 0" result="hardAlpha"/>
<feOffset dy="4"/>
<feGaussianBlur stdDeviation="10"/>
<feComposite in2="hardAlpha" operator="out"/>
<feColorMatrix type="matrix" values="0 0 0 0 0.0392157 0 0 0 0 0.701961 0 0 0 0 0.54902 0 0 0 0.5 0"/>
<feBlend mode="normal" in2="BackgroundImageFix" result="effect1_dropShadow_82_743"/>
<feBlend mode="normal" in="SourceGraphic" in2="effect1_dropShadow_82_743" result="shape"/>
</filter>
<clipPath id="clip0_82_743">
<rect width="28" height="31" fill="white" transform="translate(28.5 22.5)"/>
</clipPath>
</defs>
</svg>
