<svg width="54" height="54" viewBox="0 0 54 54" fill="none" xmlns="http://www.w3.org/2000/svg">
<rect width="54" height="54" rx="8" fill="#FF2626" fill-opacity="0.22"/>
<rect x="8" y="8" width="38" height="38" rx="8" fill="#FF2626"/>
<g clip-path="url(#clip0_41_5150)">
<path d="M27.1853 15C27.4752 15.2549 27.7721 15.5009 28.0538 15.7658C28.3218 16.0163 28.5761 16.2818 28.834 16.5423C29.1697 16.8823 29.196 17.3049 28.9029 17.6018C28.6099 17.8986 28.1928 17.876 27.8434 17.5429C27.8103 17.5116 27.7758 17.4803 27.7182 17.4283C27.7119 17.5197 27.7025 17.5842 27.7025 17.6493C27.7025 18.3757 27.7025 19.1014 27.7025 19.8278C27.7025 20.3024 27.4176 20.6224 27 20.623C26.5823 20.6237 26.2974 20.3031 26.2968 19.8284C26.2968 19.0413 26.2968 18.2549 26.2968 17.4189C26.1997 17.5059 26.1359 17.5667 26.0695 17.6237C25.7696 17.8798 25.36 17.8704 25.0945 17.6018C24.9643 17.474 24.8902 17.2997 24.8883 17.1173C24.8864 16.9349 24.957 16.7591 25.0845 16.6287C25.556 16.1403 26.0407 15.6637 26.5247 15.1885C26.6138 15.1164 26.7098 15.0535 26.8115 15.0006L27.1853 15Z" fill="white"/>
<path d="M23.4821 38.9944C22.7364 38.9944 22.0194 39.0095 21.3024 38.9888C20.9179 38.9775 20.6706 38.6513 20.6706 38.2255C20.6706 36.3745 20.6706 34.5234 20.6706 32.672C20.6725 32.5003 20.6857 32.329 20.7101 32.1591C20.938 30.4872 22.4064 29.181 24.0914 29.1579C24.8096 29.1479 25.5316 29.1579 26.2473 29.1579C26.34 29.1579 26.4352 29.1579 26.526 29.1491C24.3343 28.7553 23.3168 26.8949 23.499 25.2938C23.7082 23.4547 25.1897 22.1272 26.9956 22.1272C28.8115 22.1272 30.3024 23.4735 30.4953 25.3163C30.6612 26.9018 29.6606 28.7546 27.4658 29.1579C28.2379 29.1579 29.0106 29.1579 29.7827 29.1579C31.479 29.1623 32.886 30.295 33.2436 31.9544C33.2946 32.1988 33.3202 32.4479 33.3199 32.6976C33.3262 34.5344 33.3273 36.3699 33.3231 38.2042C33.3231 38.7202 33.0438 38.9995 32.5272 39.0001C31.8647 39.0001 31.2022 39.0001 30.5116 39.0001V38.7346C30.5116 37.1961 30.5116 35.6576 30.5116 34.1184C30.5116 33.5737 30.005 33.2217 29.5328 33.4359C29.2304 33.573 29.1052 33.8235 29.1058 34.1529C29.1087 35.6761 29.1087 37.1998 29.1058 38.7239V38.9888H24.8873V38.7477C24.8873 37.209 24.8873 35.6703 24.8873 34.1316C24.8873 33.8116 24.7551 33.568 24.4615 33.4384C24.1841 33.3132 23.9242 33.3714 23.7025 33.5737C23.5303 33.7308 23.479 33.9368 23.4796 34.1673C23.4825 35.6826 23.4825 37.1977 23.4796 38.7127L23.4821 38.9944Z" fill="white"/>
<path d="M21.7382 19.4253C21.8214 19.4664 21.8999 19.5164 21.9724 19.5743C22.4734 20.0677 22.9705 20.5641 23.464 21.0634C23.7846 21.3877 23.8046 21.8148 23.521 22.1066C23.2373 22.3984 22.794 22.3815 22.4615 22.0508C21.9637 21.5555 21.4684 21.0571 20.9718 20.5605C20.9129 20.5017 20.8503 20.4466 20.7595 20.362C20.7483 20.4973 20.7432 20.5944 20.732 20.6902C20.7146 20.8628 20.6341 21.023 20.506 21.14C20.3779 21.2571 20.2111 21.3227 20.0375 21.3245C19.6831 21.3245 19.3588 21.0565 19.3488 20.6914C19.3281 19.982 19.3293 19.2712 19.3488 18.5624C19.3527 18.3944 19.4224 18.2347 19.5429 18.1176C19.6634 18.0005 19.8251 17.9354 19.9931 17.9362C20.6869 17.9193 21.3826 17.9175 22.0764 17.9362C22.2548 17.9428 22.4234 18.0193 22.5457 18.1493C22.6681 18.2793 22.7343 18.4522 22.7301 18.6307C22.7301 19.0064 22.4389 19.3 22.0482 19.327C21.9655 19.3326 21.8823 19.3357 21.7977 19.3395L21.7382 19.4253Z" fill="white"/>
<path d="M32.2511 19.3451C32.0908 19.3363 31.9906 19.3357 31.8923 19.3244C31.7238 19.3063 31.5676 19.2279 31.4525 19.1036C31.3374 18.9793 31.2712 18.8175 31.2661 18.6481C31.2567 18.3031 31.5097 17.9631 31.8597 17.9499C32.5917 17.9236 33.3262 17.9262 34.0582 17.9499C34.2174 17.959 34.3671 18.0285 34.4768 18.1441C34.5865 18.2598 34.648 18.4129 34.6487 18.5724C34.6656 19.2743 34.6675 19.9775 34.6487 20.6794C34.6401 20.8576 34.5618 21.0253 34.4307 21.1463C34.2997 21.2673 34.1263 21.3319 33.948 21.3263C33.7745 21.3222 33.6087 21.2542 33.4822 21.1354C33.3557 21.0167 33.2774 20.8554 33.2623 20.6826C33.2523 20.5912 33.2492 20.4985 33.2398 20.357C33.1509 20.4415 33.0908 20.4966 33.0332 20.5548C32.5191 21.0677 32.0087 21.5836 31.4915 22.0927C31.241 22.3376 30.943 22.382 30.655 22.2361C30.3951 22.1046 30.2266 21.8335 30.2886 21.5423C30.3299 21.3625 30.4181 21.1968 30.5441 21.062C31.0895 20.4928 31.6531 19.9424 32.2511 19.3451Z" fill="white"/>
<path d="M18.8647 24.8899C19.7126 24.8899 20.5066 24.8899 21.2999 24.8899C21.531 24.8899 21.7345 24.9475 21.8885 25.1222C22.0801 25.3395 22.1346 25.5918 22.0181 25.8611C21.9672 25.9937 21.8759 26.1069 21.7571 26.1849C21.6384 26.2628 21.4982 26.3016 21.3563 26.2956C20.6305 26.2994 19.9048 26.2956 19.1791 26.2956H18.866C18.9499 26.3858 19.005 26.4428 19.0576 26.5017C19.3294 26.8085 19.3287 27.2211 19.0576 27.4935C18.9931 27.5595 18.9162 27.6119 18.8311 27.6477C18.7461 27.6835 18.6548 27.702 18.5626 27.702C18.4704 27.702 18.3791 27.6835 18.2941 27.6477C18.209 27.6119 18.1321 27.5595 18.0676 27.4935C17.5913 27.0318 17.1225 26.5628 16.6612 26.0865C16.365 25.7809 16.3813 25.3758 16.6894 25.0633C17.1319 24.6125 17.5786 24.1654 18.0294 23.7221C18.3425 23.4146 18.7677 23.4027 19.0545 23.6845C19.3413 23.9663 19.3306 24.3877 19.03 24.7102L18.8647 24.8899Z" fill="white"/>
<path d="M35.129 24.8897C35.0388 24.792 34.9818 24.7325 34.9273 24.6705C34.6669 24.375 34.6687 23.9667 34.9323 23.6962C34.9941 23.6302 35.0683 23.5771 35.1507 23.54C35.2331 23.5029 35.322 23.4825 35.4123 23.48C35.5027 23.4775 35.5926 23.4929 35.6769 23.5254C35.7612 23.5579 35.8383 23.6068 35.9035 23.6693C36.3999 24.1431 36.8854 24.6286 37.36 25.1258C37.4838 25.2498 37.5533 25.4179 37.5533 25.5932C37.5533 25.7685 37.4838 25.9366 37.36 26.0606C36.8854 26.5574 36.3997 27.0429 35.9029 27.5171C35.8374 27.5794 35.7602 27.628 35.6758 27.6602C35.5914 27.6923 35.5014 27.7074 35.4111 27.7045C35.3208 27.7016 35.232 27.6807 35.1498 27.6432C35.0676 27.6057 34.9937 27.5522 34.9323 27.4858C34.809 27.3579 34.7388 27.1879 34.7359 27.0102C34.733 26.8325 34.7976 26.6603 34.9167 26.5284C34.9724 26.4658 35.0338 26.4032 35.1359 26.2961H34.8785C34.1271 26.2961 33.3801 26.3005 32.6312 26.2961C32.4575 26.298 32.2893 26.2353 32.1592 26.1202C32.0292 26.0051 31.9465 25.8458 31.9272 25.6732C31.908 25.5006 31.9535 25.3269 32.055 25.186C32.1565 25.0451 32.3067 24.9468 32.4765 24.9104C32.561 24.8956 32.6469 24.89 32.7326 24.8935C33.4423 24.8935 34.1519 24.8935 34.8616 24.8935L35.129 24.8897Z" fill="white"/>
</g>
<defs>
<clipPath id="clip0_41_5150">
<rect width="21.1046" height="24" fill="white" transform="translate(16.4477 15)"/>
</clipPath>
</defs>
</svg>
