<svg width="54" height="54" viewBox="0 0 54 54" fill="none" xmlns="http://www.w3.org/2000/svg">
<rect width="54" height="54" rx="8" fill="#FF2626" fill-opacity="0.22"/>
<rect x="8" y="8" width="38" height="38" rx="8" fill="#FF2626"/>
<g clip-path="url(#clip0_41_5152)">
<path d="M15 27.7482V26.2482C15.0144 26.1725 15.03 26.0969 15.0419 26.0213C15.1313 25.4444 15.18 24.8582 15.3138 24.2925C16.8869 17.6413 23.5419 13.6775 30.1581 15.4394C34.6063 16.6238 38.0712 20.42 38.8175 24.9313C38.89 25.3688 38.9425 25.8063 39 26.2482V27.7482C38.9831 27.8075 38.9702 27.8678 38.9613 27.9288C38.7506 30.5538 37.7869 32.8663 36.0563 34.8507C34.1956 36.9819 31.8594 38.2988 29.0669 38.7944C28.6294 38.8719 28.1919 38.9194 27.75 38.9763H26.25C26.1988 38.9598 26.1463 38.9475 26.0931 38.9394C24.0112 38.7813 22.0931 38.1419 20.3631 36.9719C17.545 35.0638 15.8106 32.4338 15.1862 29.0869C15.1037 28.6444 15.0613 28.1944 15 27.7482ZM27.84 24.5838V24.32C27.84 22.9867 27.84 21.6534 27.84 20.32C27.84 19.9119 27.6338 19.6019 27.2925 19.4757C26.73 19.2675 26.1675 19.6775 26.1631 20.3094C26.1581 21.6425 26.1631 22.9763 26.1631 24.3094V24.5657C25.4412 24.8394 24.9188 25.3082 24.6288 26.0082C24.3388 26.7082 24.3787 27.4207 24.7006 28.1075C24.6631 28.1475 24.6381 28.1769 24.6106 28.2044C23.9813 28.8332 23.3462 29.4544 22.7244 30.0932C22.6469 30.1707 22.5857 30.2628 22.5441 30.3642C22.5026 30.4656 22.4817 30.5742 22.4825 30.6838C22.4833 30.7933 22.5059 30.9016 22.5489 31.0024C22.5919 31.1031 22.6545 31.1943 22.7331 31.2707C22.889 31.4217 23.0973 31.5067 23.3144 31.5079C23.5315 31.509 23.7406 31.4263 23.8981 31.2769C24.0375 31.1519 24.1656 31.0144 24.2981 30.8819L25.8975 29.285C27.585 29.9513 28.9513 28.9563 29.3538 27.8569C29.7981 26.6332 29.2737 25.1607 27.84 24.5838Z" fill="white"/>
<path d="M26.1088 26.9674C26.1092 26.8541 26.1319 26.742 26.1758 26.6376C26.2196 26.5331 26.2836 26.4383 26.3641 26.3586C26.4447 26.279 26.5402 26.216 26.6451 26.1733C26.75 26.1306 26.8624 26.1091 26.9756 26.1099C27.1466 26.1105 27.3135 26.1619 27.4553 26.2574C27.5971 26.353 27.7073 26.4885 27.772 26.6467C27.8367 26.805 27.853 26.9789 27.8188 27.1464C27.7846 27.3139 27.7015 27.4675 27.5799 27.5877C27.4584 27.7079 27.3039 27.7894 27.136 27.8218C26.9681 27.8541 26.7944 27.8359 26.6369 27.7695C26.4794 27.7031 26.3451 27.5914 26.2511 27.4486C26.1571 27.3058 26.1075 27.1383 26.1088 26.9674Z" fill="white"/>
</g>
<defs>
<clipPath id="clip0_41_5152">
<rect width="24" height="23.9525" fill="white" transform="translate(15 15.0237)"/>
</clipPath>
</defs>
</svg>
