<svg width="54" height="54" viewBox="0 0 54 54" fill="none" xmlns="http://www.w3.org/2000/svg">
<rect width="54" height="54" rx="8" fill="#FF2626" fill-opacity="0.22"/>
<rect x="8" y="8" width="38" height="38" rx="8" fill="#FF2626"/>
<g clip-path="url(#clip0_41_5153)">
<path d="M27.5154 14.9768C27.7427 15.0225 27.9712 15.0645 28.1979 15.1152C30.7028 15.6719 32.4474 17.9438 32.3873 20.5632C32.3303 23.0636 30.4335 25.2522 27.9443 25.6893C27.8686 25.7025 27.794 25.7219 27.7114 25.7394V27.2786H34.1688C34.7506 27.2786 35.0148 27.541 35.0148 28.1203C35.0148 28.769 35.0148 29.4171 35.0148 30.0966C35.12 30.0966 35.2102 30.0966 35.301 30.0966C35.9635 30.1097 36.6329 30.0696 37.288 30.1498C38.221 30.2644 38.9393 31.1123 38.9931 32.0585C39.0063 32.2989 38.9931 32.5407 38.9931 32.7968H27.7277C27.5561 31.679 27.995 30.7171 28.9024 30.3139C29.2095 30.1827 29.5391 30.1121 29.873 30.106C31.0209 30.0815 32.1693 30.0966 33.3172 30.0966H33.5908V28.7064H20.401V30.101H20.644C21.792 30.101 22.9401 30.101 24.0881 30.101C25.4032 30.101 26.2918 30.9977 26.2949 32.3133V32.8143H15.3037C15.2029 32.8143 15.1014 32.8193 15 32.8224V31.8831C15.0163 31.858 15.0298 31.8311 15.0401 31.803C15.2906 30.7384 16.0871 30.1022 17.1773 30.0991C17.7083 30.0991 18.2419 30.0991 18.7704 30.0991C18.8374 30.0991 18.905 30.0903 18.9839 30.0853C18.9839 29.419 18.9839 28.7703 18.9839 28.1221C18.9839 27.5435 19.2482 27.2818 19.8318 27.2818H26.2874V25.7426C26.2047 25.7244 26.1296 25.7056 26.0538 25.6925C23.6442 25.2704 21.8419 23.2722 21.6215 20.7767C21.4136 18.4253 22.894 16.119 25.1527 15.3118C25.5816 15.1584 26.0394 15.0864 26.484 14.9768H27.5154ZM27.7032 19.6734C27.7032 19.2682 27.7076 18.8937 27.7032 18.5193C27.6963 18.1028 27.3901 17.7941 26.9994 17.7954C26.6086 17.7966 26.3037 18.1085 26.2999 18.5236C26.2949 19.1336 26.2949 19.7437 26.2999 20.354C26.3037 20.7805 26.598 21.0754 27.0238 21.0811C27.4768 21.0865 27.9295 21.0865 28.382 21.0811C28.7997 21.0761 29.1078 20.7749 29.1097 20.381C29.1116 19.9871 28.8035 19.6828 28.3889 19.6746C28.1691 19.6696 27.9518 19.6734 27.7026 19.6734H27.7032Z" fill="white"/>
<path d="M15 34.2328C15.0776 34.2328 15.1553 34.2246 15.2336 34.2246H26.2968V35.2265C26.2968 35.7976 26.3024 36.3681 26.2968 36.9386C26.2931 37.4158 26.1272 37.8775 25.8263 38.2478C25.5254 38.6181 25.1074 38.875 24.6411 38.9763C24.5984 38.9893 24.5565 39.0049 24.5158 39.0232H16.7809C16.6945 38.9944 16.6087 38.9606 16.5217 38.9362C15.8059 38.7195 15.3375 38.2474 15.0958 37.5448C15.0607 37.4439 15.0332 37.3406 15 37.2385V34.2328Z" fill="white"/>
<path d="M29.4842 39.0231C29.1748 38.8847 28.8392 38.7845 28.5611 38.5985C28.3085 38.436 28.0995 38.214 27.9525 37.952C27.8054 37.69 27.7248 37.396 27.7176 37.0956C27.6832 36.1507 27.7089 35.2039 27.7089 34.2395H38.9994V34.49C38.9994 35.2573 38.9994 36.0244 38.9994 36.7913C38.9994 37.9391 38.3857 38.7169 37.2748 38.983C37.2542 38.992 37.2351 39.0042 37.2185 39.0193L29.4842 39.0231Z" fill="white"/>
</g>
<defs>
<clipPath id="clip0_41_5153">
<rect width="24" height="24.0463" fill="white" transform="translate(15 14.9768)"/>
</clipPath>
</defs>
</svg>
