<svg width="64" height="70" viewBox="0 0 64 70" fill="none" xmlns="http://www.w3.org/2000/svg">
<g filter="url(#filter0_d_16_44698)">
<circle cx="32.01" cy="45.2404" r="12" fill="#FFC400"/>
</g>
<path d="M30.5075 63.9999C29.2885 63.7562 28.0495 63.5842 26.854 63.2535C19.5052 61.2197 14.055 54.6491 13.3537 47.0466C12.9122 42.4704 14.1666 37.8915 16.8789 34.1794C19.5912 30.4673 23.5723 27.8806 28.0662 26.9106C38.5108 24.6096 48.9553 31.8047 50.5216 42.3778C52.0244 52.5201 45.3636 61.8459 35.2781 63.7111C34.6903 63.8196 34.0959 63.8998 33.5031 63.9933L30.5075 63.9999ZM15.7582 45.2232C15.7604 49.5329 17.4714 53.6659 20.516 56.7162C23.5606 59.7665 27.6905 61.4851 32.0003 61.4953C36.2989 61.4883 40.4203 59.7813 43.465 56.7469C46.5098 53.7124 48.2307 49.5969 48.2523 45.2983C48.259 40.9884 46.5559 36.8518 43.5167 33.796C40.4774 30.7402 36.3502 29.0146 32.0403 28.9978C27.7315 28.9965 23.5979 30.7037 20.5457 33.7452C17.4936 36.7867 15.7719 40.9143 15.7582 45.2232Z" fill="white"/>
<path d="M33.256 9.62998C33.256 12.2916 33.256 14.9549 33.256 17.6166C33.266 17.9057 33.2148 18.1936 33.1057 18.4615C32.8585 18.9891 32.3927 19.2045 31.8183 19.1211C31.2439 19.0376 30.9066 18.6569 30.783 18.0991C30.7585 17.9334 30.7518 17.7654 30.763 17.5982C30.763 12.2549 30.763 6.90877 30.763 1.55988C30.763 1.45635 30.763 1.35282 30.763 1.24763C30.808 0.531287 31.3157 0.013652 31.9869 0.000293707C32.154 -0.00334468 32.3201 0.0268534 32.4752 0.0890675C32.6303 0.151282 32.7712 0.244228 32.8894 0.362314C33.0076 0.4804 33.1008 0.621181 33.1632 0.776195C33.2256 0.931209 33.256 1.09725 33.2526 1.26433C33.2743 2.44988 33.2526 3.63543 33.2526 4.82098C33.2571 6.42509 33.2582 8.02809 33.256 9.62998Z" fill="white"/>
<path d="M25.1324 14.5242C25.1324 12.3991 25.1324 10.274 25.1324 8.14891C25.1324 7.19546 25.62 6.61605 26.3981 6.62774C27.1762 6.63943 27.6288 7.20548 27.6288 8.13055C27.6288 12.3996 27.6288 16.6699 27.6288 20.9412C27.6288 21.8662 27.1629 22.4156 26.3931 22.4223C25.6233 22.429 25.1324 21.8713 25.1308 20.9044C25.1308 18.776 25.1313 16.6493 25.1324 14.5242Z" fill="white"/>
<path d="M38.8815 14.5308C38.8815 16.6559 38.8815 18.781 38.8815 20.9061C38.8815 21.8696 38.4056 22.4289 37.6124 22.4089C36.8443 22.3972 36.3851 21.8495 36.3835 20.9211C36.3835 16.6498 36.3835 12.379 36.3835 8.10881C36.3835 7.19377 36.8627 6.62771 37.6208 6.62103C38.3789 6.61435 38.8781 7.18542 38.8798 8.08711C38.8848 10.2328 38.8815 12.3851 38.8815 14.5308Z" fill="white"/>
<path d="M22.0066 22.1834C22.0066 23.202 22.0149 24.2189 22.0066 25.2375C21.9982 26.1041 21.5157 26.6351 20.7592 26.6351C20.0028 26.6351 19.5152 26.1008 19.5119 25.2358C19.5052 23.222 19.5052 21.2077 19.5119 19.1928C19.5119 18.3579 20.0379 17.7769 20.7592 17.7769C21.4806 17.7769 21.9999 18.3529 22.0066 19.1928C22.0133 20.1897 22.0066 21.1866 22.0066 22.1834Z" fill="white"/>
<path d="M42.0057 22.2552C42.0057 21.2383 42.0057 20.2198 42.0057 19.2029C42.0057 18.368 42.5283 17.7852 43.2497 17.7819C43.971 17.7785 44.4987 18.3546 44.502 19.1928C44.5087 21.2066 44.5087 23.2209 44.502 25.2358C44.502 26.1058 44.0161 26.6368 43.258 26.6401C42.4999 26.6434 42.014 26.1091 42.0073 25.2458C41.999 24.244 42.0057 23.2471 42.0057 22.2552Z" fill="white"/>
<path d="M32.8092 38.5494C32.8092 37.9972 32.3615 37.5494 31.8092 37.5494C31.2569 37.5494 30.8092 37.9972 30.8092 38.5494H32.8092ZM31.1021 51.5531C31.4926 51.9436 32.1258 51.9436 32.5163 51.5531L38.8803 45.1891C39.2708 44.7986 39.2708 44.1654 38.8803 43.7749C38.4897 43.3844 37.8566 43.3844 37.4661 43.7749L31.8092 49.4317L26.1523 43.7749C25.7618 43.3844 25.1287 43.3844 24.7381 43.7749C24.3476 44.1654 24.3476 44.7986 24.7381 45.1891L31.1021 51.5531ZM30.8092 38.5494V50.8459H32.8092V38.5494H30.8092Z" fill="black"/>
<defs>
<filter id="filter0_d_16_44698" x="8.01001" y="21.2404" width="48" height="48" filterUnits="userSpaceOnUse" color-interpolation-filters="sRGB">
<feFlood flood-opacity="0" result="BackgroundImageFix"/>
<feColorMatrix in="SourceAlpha" type="matrix" values="0 0 0 0 0 0 0 0 0 0 0 0 0 0 0 0 0 0 127 0" result="hardAlpha"/>
<feOffset/>
<feGaussianBlur stdDeviation="6"/>
<feComposite in2="hardAlpha" operator="out"/>
<feColorMatrix type="matrix" values="0 0 0 0 1 0 0 0 0 0.768627 0 0 0 0 0 0 0 0 0.6 0"/>
<feBlend mode="normal" in2="BackgroundImageFix" result="effect1_dropShadow_16_44698"/>
<feBlend mode="normal" in="SourceGraphic" in2="effect1_dropShadow_16_44698" result="shape"/>
</filter>
</defs>
</svg>
