<svg width="56" height="50" viewBox="0 0 56 50" fill="none" xmlns="http://www.w3.org/2000/svg">
<g clip-path="url(#clip0_28_631)">
<path d="M7.62905e-06 3.45318C0.102091 3.18485 0.186674 2.90776 0.309174 2.64818C0.953757 1.27589 2.04021 0.533597 3.54959 0.414013C3.78584 0.396513 4.02354 0.405264 4.25979 0.405264H51.4136C54.1071 0.405264 55.0025 1.00173 56 3.45464V13.2984C55.7258 13.6615 55.4167 13.9751 54.9092 13.7855C54.4017 13.5959 54.355 13.1773 54.355 12.7107C54.3638 9.92235 54.3638 7.13353 54.355 4.34422C54.355 2.87277 53.5325 2.04735 52.0494 2.04735H3.92439C2.44272 2.04735 1.62897 2.87131 1.62897 4.35443V37.0517C1.62897 38.5596 2.40042 39.3223 3.92875 39.3238H15.3037C15.4676 39.3148 15.6319 39.3182 15.7952 39.334C15.9812 39.357 16.1534 39.4437 16.2826 39.5795C16.4117 39.7153 16.4897 39.8917 16.5033 40.0786C16.5169 40.2655 16.4652 40.4513 16.3571 40.6043C16.249 40.7574 16.0911 40.8681 15.9104 40.9178C15.7152 40.961 15.5148 40.9758 15.3154 40.9615C11.6871 40.9615 8.05876 40.8988 4.43334 40.9863C2.03876 41.0446 0.481265 39.9873 -0.0101929 37.9049L7.62905e-06 3.45318Z" fill="#353435"/>
<path d="M56 38.0157C55.9579 38.0929 55.9223 38.1734 55.8935 38.2564C55.456 39.9116 54.2063 40.912 52.4825 40.9543C51.3523 40.9834 50.2221 40.9645 49.0919 40.9645H32.5354L33.7021 44.5418H37.7723C38.8092 44.5418 39.0279 44.7605 39.0294 45.7857V48.3014C39.0294 49.3659 38.8033 49.5949 37.7548 49.5949H19.5387C19.0283 49.5949 18.5179 49.5949 18.0075 49.5949C17.2783 49.5818 16.9867 49.2857 16.9867 48.5493C16.9779 47.5469 16.9779 46.5445 16.9867 45.5422C16.9954 44.8349 17.2783 44.552 17.9929 44.5476C19.4133 44.5374 20.8352 44.5476 22.3081 44.5476C22.6917 43.3707 23.0708 42.2026 23.4748 40.9689C22.1404 40.9689 20.8863 40.9689 19.6321 40.9689C19.4328 40.9782 19.2332 40.9575 19.04 40.9076C18.8604 40.861 18.7045 40.7491 18.6029 40.5938C18.5012 40.4385 18.4611 40.2509 18.4902 40.0676C18.4968 39.8817 18.5714 39.7047 18.6999 39.5703C18.8284 39.4359 19.0019 39.3533 19.1873 39.3384C19.3865 39.3192 19.5869 39.3153 19.7867 39.3268H51.8219C52.0581 39.3268 52.2958 39.3268 52.5321 39.318C53.6215 39.2436 54.3083 38.5364 54.355 37.4484C54.3637 37.2661 54.355 37.0839 54.355 36.9016V17.268C54.355 17.1397 54.355 17.0128 54.355 16.8845C54.3273 16.412 54.4206 15.9876 54.9267 15.8286C55.4327 15.6697 55.7608 15.938 55.9971 16.3595L56 38.0157ZM37.3538 46.2232H18.6637V47.9178H37.3538V46.2232ZM31.9579 44.5082L30.8117 40.9936H25.1883C24.8077 42.1705 24.4358 43.327 24.0508 44.5082H31.9579Z" fill="#353435"/>
<path d="M5.0502 5.43073V32.4741H50.9323V5.43073H18.4115C18.2292 5.43073 18.0469 5.43802 17.866 5.43073C17.395 5.39281 17.0523 5.05739 17.0669 4.62572C17.0844 4.16197 17.3483 3.88635 17.796 3.81052C17.9771 3.79031 18.1596 3.78542 18.3415 3.79593H51.3173C52.3775 3.79593 52.5933 4.01177 52.5933 5.07489V32.9028C52.5933 33.9236 52.3702 34.1511 51.3362 34.1511H4.64916C3.61666 34.1511 3.39354 33.928 3.39354 32.9043V5.01511C3.39354 4.0249 3.62687 3.7901 4.61416 3.7901C7.73208 3.7901 10.849 3.7901 13.965 3.7901C14.1646 3.77942 14.3646 3.79859 14.5585 3.84698C14.7386 3.89174 14.8954 4.00203 14.9984 4.1563C15.1015 4.31056 15.1432 4.49771 15.1156 4.68114C15.1103 4.86548 15.0376 5.04147 14.9113 5.17584C14.785 5.31021 14.6138 5.39362 14.4302 5.41031C14.2492 5.43127 14.0667 5.43616 13.8848 5.4249H5.0502V5.43073Z" fill="#353435"/>
<path d="M21.9406 24.9812L21.4171 22.0747H18.585C18.3298 22.0747 18.0731 22.0747 17.8194 22.0659C17.3323 22.0339 17.0086 21.7247 16.9896 21.2901C16.9857 21.1801 17.004 21.0704 17.0436 20.9676C17.0831 20.8648 17.143 20.7711 17.2197 20.6921C17.2964 20.6131 17.3883 20.5504 17.4899 20.5078C17.5914 20.4652 17.7005 20.4436 17.8106 20.4443C18.5748 20.418 19.3419 20.4341 20.1075 20.4341C20.5581 20.4341 21.0088 20.4341 21.3967 20.4341C21.5848 19.4424 21.7583 18.5222 21.945 17.5334C21.5586 17.5334 21.1473 17.5451 20.736 17.5334C19.024 17.4736 17.6867 16.2209 17.621 14.6168C17.5933 13.9372 18.1242 13.4253 18.6652 13.6849C18.8065 13.7672 18.9296 13.8772 19.0274 14.0083C19.1251 14.1393 19.1954 14.2888 19.234 14.4476C19.4279 15.3999 19.8931 15.8695 20.8483 15.8943C21.4506 15.9089 22.0515 15.8943 22.6538 15.8943H22.979L24.9215 14.3411C24.8238 14.2551 24.71 14.153 24.5919 14.0495C23.3654 13.0141 22.7631 11.6709 22.6552 10.0916C22.6144 9.50824 22.9163 9.11303 23.4019 9.07074C23.8875 9.02845 24.239 9.38136 24.2915 10.0128C24.4708 12.1376 26.0123 13.6368 28.0131 13.6324C29.9877 13.6324 31.5234 12.1332 31.7056 10.0405C31.7625 9.38865 32.0731 9.04011 32.5704 9.06782C33.0896 9.09698 33.3973 9.52282 33.3404 10.1776C33.2019 11.7818 32.5719 13.122 31.2988 14.1384C31.2288 14.1953 31.1617 14.2566 31.0946 14.3193C31.0858 14.328 31.0946 14.3499 31.0946 14.3514L33.0108 15.8753C33.74 15.8753 34.5698 15.9161 35.4025 15.8636C36.174 15.817 36.6304 15.308 36.7442 14.5191C36.836 13.8847 37.1817 13.558 37.6819 13.6309C38.1821 13.7039 38.4461 14.1355 38.3746 14.7509C38.1938 16.3274 36.9411 17.462 35.2946 17.5218C34.879 17.5378 34.4619 17.5218 34.0725 17.5218C34.2475 18.4945 34.4138 19.4176 34.5961 20.4239H37.2459C37.5565 20.4239 37.8671 20.4093 38.1748 20.4239C38.6808 20.4589 39.0236 20.8103 39.0163 21.2551C39.009 21.6999 38.6736 22.0412 38.15 22.0499C37.0942 22.0659 36.0369 22.0499 34.9796 22.0601C34.8338 22.0601 34.6879 22.0776 34.5829 22.0849C34.4108 23.0387 34.2431 23.9603 34.0609 24.968C34.4984 24.968 34.9592 24.9549 35.4215 24.968C36.1765 24.9959 36.8949 25.3008 37.4396 25.8245C37.9842 26.3482 38.3171 27.054 38.3746 27.8074C38.4242 28.4374 38.0829 28.8691 37.5463 28.8501C37.0767 28.8326 36.8171 28.5584 36.7486 28.1078C36.5663 26.9805 36.139 26.6189 34.9898 26.6159C34.3336 26.6159 33.6773 26.6159 33.0211 26.6159C32.9853 26.6195 32.95 26.6274 32.9161 26.6393C30.2575 29.572 25.8111 29.623 23.0738 26.6159C22.2644 26.6159 21.4273 26.5941 20.5946 26.6232C19.88 26.6495 19.3813 27.1657 19.2675 27.9168C19.1625 28.6153 18.8519 28.9128 18.3123 28.8341C17.8004 28.7597 17.5467 28.3134 17.6429 27.6572C17.7364 26.9172 18.0958 26.2364 18.6542 25.7419C19.2126 25.2473 19.9318 24.9728 20.6777 24.9695C21.0919 24.9739 21.5104 24.9812 21.9406 24.9812ZM28.8706 19.8478V27.1526C30.5317 26.7866 31.6852 25.8824 32.3925 24.4066C33.0998 22.9307 32.7469 21.3776 32.83 19.8478H28.8706ZM27.144 27.1059V19.8551H23.1963C23.1963 20.9328 23.1248 21.9741 23.2109 23.0022C23.3829 25.0366 25.1971 26.9062 27.144 27.1059ZM32.3488 18.1328C31.7654 16.4353 29.7136 15.1782 27.7638 15.2847C25.9263 15.3853 24.0027 16.7241 23.6804 18.1328H32.3488Z" fill="#353435"/>
<path d="M25.4115 36.8957C25.4077 37.106 25.3215 37.3064 25.1715 37.454C25.0216 37.6015 24.8197 37.6843 24.6094 37.6846C24.4465 37.6872 24.2866 37.6409 24.1503 37.5517C24.014 37.4625 23.9076 37.3345 23.8447 37.1843C23.7818 37.034 23.7654 36.8684 23.7975 36.7087C23.8296 36.549 23.9089 36.4026 24.025 36.2884C24.1411 36.1741 24.2888 36.0973 24.449 36.0678C24.6092 36.0383 24.7746 36.0575 24.9238 36.1228C25.073 36.1882 25.1992 36.2967 25.2861 36.4345C25.373 36.5722 25.4167 36.7329 25.4115 36.8957Z" fill="#353435"/>
<path d="M27.9971 36.0542C28.1598 36.0519 28.3195 36.0984 28.4556 36.1877C28.5917 36.277 28.6979 36.405 28.7607 36.5552C28.8234 36.7054 28.8397 36.8709 28.8075 37.0305C28.7753 37.19 28.6961 37.3363 28.58 37.4504C28.464 37.5646 28.3165 37.6414 28.1564 37.6709C27.9963 37.7005 27.8311 37.6815 27.6819 37.6163C27.5328 37.5511 27.4066 37.4428 27.3195 37.3052C27.2325 37.1677 27.1886 37.0073 27.1935 36.8446C27.1988 36.6343 27.2856 36.4344 27.4355 36.2869C27.5854 36.1394 27.7868 36.056 27.9971 36.0542Z" fill="#353435"/>
<path d="M32.2087 36.849C32.2121 36.9578 32.1936 37.0662 32.1544 37.1678C32.1152 37.2694 32.0561 37.3621 31.9805 37.4405C31.905 37.5189 31.8145 37.5814 31.7145 37.6243C31.6144 37.6673 31.5068 37.6897 31.3979 37.6905C31.1817 37.6905 30.9744 37.6046 30.8215 37.4517C30.6686 37.2988 30.5827 37.0915 30.5827 36.8753C30.5827 36.6591 30.6686 36.4517 30.8215 36.2988C30.9744 36.1459 31.1817 36.0601 31.3979 36.0601C31.6085 36.0625 31.81 36.1458 31.9609 36.2926C32.1118 36.4394 32.2005 36.6386 32.2087 36.849Z" fill="#353435"/>
</g>
<defs>
<clipPath id="clip0_28_631">
<rect width="56" height="49.1954" fill="white" transform="translate(0 0.402344)"/>
</clipPath>
</defs>
</svg>
