<svg width="79" height="79" viewBox="0 0 79 79" fill="none" xmlns="http://www.w3.org/2000/svg">
<path d="M0 0H63C71.8366 0 79 7.16344 79 16V79H0V0Z" fill="#BE7D5B"/>
<g clip-path="url(#clip0_68_129)">
<path d="M45.4095 36.7584C44.2528 33.6033 41.9654 31.0065 39.0039 29.4863C36.0424 27.9662 32.6246 27.6345 29.4327 28.5575C26.2407 29.4805 23.5092 31.5903 21.7836 34.4658C20.0579 37.3413 19.4648 40.771 20.1228 44.0704C21.2952 50.0779 26.9835 55.6044 35.0334 54.6407C35.4302 58.1621 36.8752 61.4773 39.176 64.1451H15.0001V16.7651H42.962C42.9751 17.0207 42.9956 17.2688 42.9956 17.5225C42.9956 19.145 42.9956 20.7695 42.9956 22.392C42.9956 24.0146 43.9011 24.9177 45.5084 24.9234C47.338 24.9234 49.1694 24.9234 51.0456 24.9234V35.4975L45.4095 36.7584Z" fill="#171515"/>
<path d="M68.3719 65.8905C69.4734 65.1162 69.955 65.1484 70.7802 65.9606C73.2781 68.4156 75.7753 70.8731 78.272 73.3331C79.2185 74.2646 79.2278 74.8932 78.3186 75.8455C77.5289 76.6748 76.7411 77.506 75.9458 78.3314C75.0908 79.2175 74.4299 79.227 73.5656 78.3788L66.1317 71.0479C65.1628 70.1012 65.1143 69.6506 65.7229 68.7494L61.5019 64.0767C57.7495 67.1382 53.605 68.3026 48.9938 67.3881C45.4468 66.6857 42.5401 64.836 40.3092 61.9449C38.1235 59.1007 37.0299 55.5487 37.2317 51.9486C37.4334 48.3484 38.9168 44.9449 41.4062 42.3702C43.8957 39.7956 47.2219 38.2248 50.7672 37.9497C54.3124 37.6745 57.8356 38.7137 60.6823 40.8743C66.6003 45.3595 68.6968 54.1672 64.0688 61.1573L68.3719 65.8905ZM40.6321 52.8059C40.6296 55.061 41.2867 57.2663 42.5203 59.1425C43.754 61.0188 45.5088 62.4817 47.5626 63.3462C49.6163 64.2106 51.8768 64.4378 54.0579 63.9989C56.2391 63.56 58.2428 62.4748 59.8155 60.8805C61.3883 59.2863 62.4594 57.2548 62.8932 55.043C63.3271 52.8312 63.1042 50.5385 62.2529 48.4552C61.4015 46.3719 59.9598 44.5916 58.1104 43.3395C56.261 42.0875 54.0869 41.4199 51.8632 41.4214C48.8872 41.4214 46.033 42.6201 43.9282 44.754C41.8235 46.8878 40.6406 49.782 40.6396 52.8002L40.6321 52.8059Z" fill="#171515"/>
<path d="M20.6735 14.4572V11H48.6074V16.9469C48.0324 16.3505 47.5396 15.8658 47.0766 15.3546C46.4904 14.7052 45.7884 14.4439 44.9129 14.4458C37.1268 14.4648 29.3388 14.4685 21.549 14.4572H20.6735Z" fill="#171515"/>
<path d="M31.1672 42.4651C33.2749 40.3825 35.3266 38.3471 37.41 36.3402C37.7846 35.9665 38.2386 35.6847 38.7373 35.5167C39.5083 35.2838 40.2906 35.6814 40.7143 36.3535C40.9197 36.6832 41.0247 37.067 41.0164 37.4568C41.0081 37.8467 40.8868 38.2255 40.6677 38.5459C40.5281 38.7342 40.3739 38.9109 40.2066 39.0742C37.8257 41.5165 35.4454 43.9551 33.0658 46.3899C31.7832 47.702 30.8255 47.6925 29.5187 46.3691C28.2119 45.0457 26.9182 43.7506 25.6394 42.4215C24.9729 41.7286 24.859 40.869 25.266 40.0871C25.4414 39.7113 25.7363 39.4062 26.1034 39.2211C26.4705 39.036 26.8884 38.9816 27.2897 39.0666C27.7538 39.1941 28.1797 39.436 28.5293 39.7709C29.4646 40.6759 30.3551 41.6339 31.1672 42.4651Z" fill="#171515"/>
<path d="M53.3381 35.6453V34.8009C53.3381 30.948 53.3175 27.0951 53.3493 23.2517C53.3493 22.1896 53.0767 21.3244 52.2721 20.6314C51.8016 20.2262 51.3667 19.7813 50.9167 19.3534L51.0176 19.2114H56.7022V36.2985L53.3381 35.6453Z" fill="#171515"/>
<path d="M50.9373 11.229L56.4333 16.8313H50.9373V11.229Z" fill="#171515"/>
<path d="M50.9261 22.6211H45.3031V16.9412L45.4767 16.7651L50.9261 22.6211Z" fill="#171515"/>
</g>
<defs>
<clipPath id="clip0_68_129">
<rect width="64" height="68" fill="white" transform="translate(15.0001 11)"/>
</clipPath>
</defs>
</svg>
