<svg width="24" height="25" viewBox="0 0 24 25" fill="none" xmlns="http://www.w3.org/2000/svg">
<g id="Wordpress" clip-path="url(#clip0_377_143)">
<path id="Vector" fill-rule="evenodd" clip-rule="evenodd" d="M0 12.4998C0 5.87239 5.3726 0.499786 12 0.499786C18.6274 0.499786 24 5.87239 24 12.4998C24 19.1272 18.6274 24.4998 12 24.4998C5.3726 24.4998 0 19.1272 0 12.4998ZM12 5.29979C8.02985 5.29979 4.8 8.52954 4.8 12.4996C4.8 16.4699 8.02985 19.6998 12 19.6998C15.9701 19.6998 19.2 16.4699 19.2 12.4996C19.2 8.52954 15.9701 5.29979 12 5.29979Z" fill="#999999"/>
<path id="Vector_2" fill-rule="evenodd" clip-rule="evenodd" d="M11.9998 19.3697C8.21193 19.3697 5.13013 16.2876 5.13013 12.4996C5.13013 8.71167 8.21193 5.62997 11.9998 5.62997C15.7878 5.62997 18.8697 8.71167 18.8697 12.4996C18.8697 16.2876 15.7878 19.3697 11.9998 19.3697ZM5.99993 12.5909C5.99993 15.0137 7.46908 17.1078 9.59993 18.0998L6.55303 10.0998C6.19863 10.861 5.99993 11.7035 5.99993 12.5909ZM15.9986 12.3818C15.9986 11.616 15.7282 11.086 15.4966 10.6734C15.1879 10.1629 14.8984 9.73107 14.8984 9.22057C14.8984 8.65122 15.3228 8.12117 15.921 8.12117C15.948 8.12117 15.9736 8.12447 15.9999 8.12612C14.9165 7.11637 13.4731 6.49977 11.8878 6.49977C9.76028 6.49977 7.88878 7.61022 6.79993 9.29177C6.94293 9.29647 7.07758 9.29927 7.19183 9.29927C7.82863 9.29927 8.81478 9.22057 8.81478 9.22057C9.14288 9.20102 9.18168 9.69152 8.85378 9.73107C8.85378 9.73107 8.52373 9.77027 8.15683 9.78987L10.3742 16.4998L11.707 12.4342L10.7584 9.78987C10.4303 9.77027 10.1196 9.73107 10.1196 9.73107C9.79143 9.71132 9.82993 9.20102 10.1583 9.22057C10.1583 9.22057 11.1638 9.29927 11.7621 9.29927C12.3987 9.29927 13.3851 9.22057 13.3851 9.22057C13.7134 9.20102 13.7521 9.69152 13.4239 9.73107C13.4239 9.73107 13.0936 9.77027 12.7271 9.78987L14.9278 16.4487L15.5353 14.3843C15.7982 13.5271 15.9986 12.9119 15.9986 12.3818ZM12.1576 12.8998L10.3999 18.2497C10.9248 18.4114 11.4798 18.4998 12.0547 18.4998C12.7368 18.4998 13.3911 18.3764 13.9999 18.1519C13.9843 18.1256 13.9698 18.0977 13.9579 18.0674L12.1576 12.8998ZM17.6117 9.69977C17.6393 9.89882 17.6549 10.1124 17.6549 10.3424C17.6549 10.9763 17.5327 11.6893 17.1655 12.5808L15.1999 18.0998C17.1132 17.0165 18.3999 15.0036 18.3999 12.6979C18.3999 11.6114 18.114 10.5899 17.6117 9.69977Z" fill="#999999"/>
</g>
<defs>
<clipPath id="clip0_377_143">
<rect width="24" height="24" fill="white" transform="translate(0 0.499786)"/>
</clipPath>
</defs>
</svg>
